G04 EAGLE Gerber RS-274X export*
G75*
%MOMM*%
%FSLAX34Y34*%
%LPD*%
%INBottom Solder Mask*%
%IPPOS*%
%AMOC8*
5,1,8,0,0,1.08239X$1,22.5*%
G01*
%ADD10C,2.101600*%
%ADD11C,1.101600*%
%ADD12R,0.401600X1.251600*%
%ADD13C,0.751600*%
%ADD14R,1.401600X1.601600*%
%ADD15R,1.601600X1.401600*%
%ADD16R,1.901600X0.901600*%
%ADD17R,0.901600X1.901600*%
%ADD18R,3.601600X1.101600*%
%ADD19R,3.501600X1.601600*%
%ADD20R,2.261600X1.501600*%

G36*
X72561Y135683D02*
X72561Y135683D01*
X72624Y135686D01*
X73851Y135947D01*
X73889Y135963D01*
X73950Y135979D01*
X75096Y136489D01*
X75115Y136502D01*
X75142Y136513D01*
X84669Y142013D01*
X84686Y142028D01*
X84713Y142041D01*
X85727Y142779D01*
X85754Y142808D01*
X85767Y142817D01*
X85769Y142820D01*
X85805Y142848D01*
X86644Y143781D01*
X86665Y143816D01*
X86706Y143865D01*
X87333Y144951D01*
X87342Y144980D01*
X87343Y144981D01*
X87343Y144983D01*
X87346Y144991D01*
X87375Y145047D01*
X87763Y146240D01*
X87767Y146281D01*
X87784Y146342D01*
X87916Y147589D01*
X87912Y147630D01*
X87913Y147654D01*
X87916Y147673D01*
X87915Y147680D01*
X87916Y147693D01*
X87784Y148941D01*
X87772Y148980D01*
X87763Y149043D01*
X87375Y150236D01*
X87355Y150272D01*
X87333Y150331D01*
X86706Y151418D01*
X86678Y151449D01*
X86644Y151502D01*
X85805Y152434D01*
X85771Y152459D01*
X85727Y152504D01*
X84712Y153241D01*
X84675Y153259D01*
X84622Y153294D01*
X83476Y153804D01*
X83436Y153813D01*
X83377Y153836D01*
X82150Y154097D01*
X82109Y154097D01*
X82046Y154108D01*
X80792Y154108D01*
X80751Y154099D01*
X80688Y154097D01*
X79461Y153836D01*
X79423Y153819D01*
X79362Y153804D01*
X78216Y153294D01*
X78197Y153280D01*
X78169Y153270D01*
X68643Y147770D01*
X68626Y147755D01*
X68599Y147741D01*
X67585Y147004D01*
X67557Y146974D01*
X67507Y146934D01*
X66668Y146002D01*
X66647Y145966D01*
X66606Y145918D01*
X65979Y144831D01*
X65966Y144792D01*
X65937Y144736D01*
X65549Y143543D01*
X65544Y143502D01*
X65527Y143441D01*
X65396Y142193D01*
X65399Y142165D01*
X65396Y142149D01*
X65399Y142136D01*
X65396Y142089D01*
X65527Y140842D01*
X65540Y140802D01*
X65549Y140740D01*
X65937Y139547D01*
X65957Y139511D01*
X65979Y139451D01*
X66606Y138365D01*
X66634Y138334D01*
X66668Y138281D01*
X67507Y137348D01*
X67540Y137324D01*
X67544Y137320D01*
X67557Y137302D01*
X67568Y137296D01*
X67585Y137279D01*
X68599Y136541D01*
X68637Y136524D01*
X68690Y136489D01*
X69836Y135979D01*
X69876Y135970D01*
X69935Y135947D01*
X71162Y135686D01*
X71203Y135685D01*
X71266Y135675D01*
X72520Y135675D01*
X72561Y135683D01*
G37*
G36*
X115761Y60859D02*
X115761Y60859D01*
X115824Y60861D01*
X117051Y61122D01*
X117089Y61139D01*
X117150Y61154D01*
X118296Y61664D01*
X118315Y61678D01*
X118342Y61688D01*
X127869Y67188D01*
X127886Y67203D01*
X127912Y67217D01*
X128927Y67954D01*
X128954Y67983D01*
X128967Y67992D01*
X128969Y67995D01*
X129005Y68024D01*
X129844Y68956D01*
X129865Y68992D01*
X129905Y69040D01*
X130533Y70127D01*
X130542Y70156D01*
X130543Y70157D01*
X130543Y70158D01*
X130546Y70166D01*
X130575Y70222D01*
X130963Y71415D01*
X130967Y71456D01*
X130984Y71517D01*
X131116Y72765D01*
X131112Y72806D01*
X131113Y72829D01*
X131116Y72849D01*
X131115Y72856D01*
X131116Y72869D01*
X130984Y74116D01*
X130972Y74156D01*
X130963Y74218D01*
X130575Y75411D01*
X130555Y75447D01*
X130533Y75507D01*
X129905Y76593D01*
X129878Y76624D01*
X129844Y76677D01*
X129005Y77610D01*
X128971Y77634D01*
X128927Y77679D01*
X127912Y78417D01*
X127875Y78434D01*
X127822Y78469D01*
X126676Y78979D01*
X126636Y78988D01*
X126577Y79011D01*
X125350Y79272D01*
X125309Y79273D01*
X125246Y79283D01*
X123992Y79283D01*
X123951Y79275D01*
X123888Y79272D01*
X122661Y79011D01*
X122623Y78995D01*
X122562Y78979D01*
X121416Y78469D01*
X121397Y78456D01*
X121369Y78445D01*
X111843Y72945D01*
X111826Y72930D01*
X111799Y72917D01*
X110785Y72179D01*
X110757Y72149D01*
X110707Y72110D01*
X109868Y71177D01*
X109847Y71142D01*
X109806Y71093D01*
X109179Y70007D01*
X109166Y69967D01*
X109137Y69911D01*
X108749Y68718D01*
X108744Y68677D01*
X108727Y68616D01*
X108596Y67369D01*
X108599Y67340D01*
X108596Y67324D01*
X108599Y67312D01*
X108596Y67265D01*
X108727Y66017D01*
X108740Y65977D01*
X108749Y65915D01*
X109137Y64722D01*
X109157Y64686D01*
X109179Y64627D01*
X109806Y63540D01*
X109834Y63509D01*
X109868Y63456D01*
X110707Y62524D01*
X110740Y62499D01*
X110744Y62495D01*
X110757Y62477D01*
X110768Y62471D01*
X110785Y62454D01*
X111799Y61717D01*
X111837Y61699D01*
X111890Y61664D01*
X113036Y61154D01*
X113076Y61145D01*
X113135Y61122D01*
X114362Y60861D01*
X114403Y60861D01*
X114466Y60850D01*
X115720Y60850D01*
X115761Y60859D01*
G37*
G36*
X37660Y115533D02*
X37660Y115533D01*
X37723Y115536D01*
X38950Y115797D01*
X38988Y115813D01*
X39049Y115829D01*
X40195Y116339D01*
X40214Y116352D01*
X40242Y116363D01*
X47170Y120363D01*
X47187Y120378D01*
X47214Y120391D01*
X48228Y121129D01*
X48256Y121158D01*
X48271Y121169D01*
X48273Y121173D01*
X48306Y121198D01*
X49145Y122131D01*
X49166Y122166D01*
X49207Y122215D01*
X49834Y123301D01*
X49844Y123331D01*
X49845Y123333D01*
X49846Y123338D01*
X49847Y123341D01*
X49876Y123397D01*
X50264Y124590D01*
X50269Y124631D01*
X50286Y124692D01*
X50417Y125939D01*
X50413Y125980D01*
X50415Y126010D01*
X50417Y126026D01*
X50416Y126031D01*
X50417Y126043D01*
X50286Y127291D01*
X50273Y127330D01*
X50264Y127393D01*
X49876Y128586D01*
X49856Y128622D01*
X49834Y128681D01*
X49207Y129768D01*
X49179Y129799D01*
X49145Y129852D01*
X48306Y130784D01*
X48273Y130809D01*
X48228Y130854D01*
X47214Y131591D01*
X47176Y131609D01*
X47123Y131644D01*
X45977Y132154D01*
X45937Y132163D01*
X45878Y132186D01*
X44651Y132447D01*
X44610Y132447D01*
X44547Y132458D01*
X43293Y132458D01*
X43252Y132449D01*
X43189Y132447D01*
X41962Y132186D01*
X41924Y132169D01*
X41863Y132154D01*
X40717Y131644D01*
X40698Y131630D01*
X40671Y131620D01*
X33742Y127620D01*
X33725Y127605D01*
X33698Y127591D01*
X32684Y126854D01*
X32656Y126824D01*
X32606Y126784D01*
X31767Y125852D01*
X31746Y125816D01*
X31705Y125768D01*
X31078Y124681D01*
X31065Y124642D01*
X31036Y124586D01*
X30648Y123393D01*
X30644Y123352D01*
X30627Y123291D01*
X30495Y122043D01*
X30498Y122015D01*
X30495Y121999D01*
X30498Y121986D01*
X30495Y121939D01*
X30627Y120692D01*
X30639Y120652D01*
X30648Y120590D01*
X31036Y119397D01*
X31056Y119361D01*
X31078Y119301D01*
X31705Y118215D01*
X31733Y118184D01*
X31767Y118131D01*
X32606Y117198D01*
X32639Y117174D01*
X32644Y117170D01*
X32657Y117152D01*
X32667Y117146D01*
X32684Y117129D01*
X33698Y116391D01*
X33736Y116374D01*
X33789Y116339D01*
X34935Y115829D01*
X34975Y115820D01*
X35034Y115797D01*
X36261Y115536D01*
X36302Y115535D01*
X36365Y115525D01*
X37619Y115525D01*
X37660Y115533D01*
G37*
G36*
X80860Y40709D02*
X80860Y40709D01*
X80923Y40711D01*
X82150Y40972D01*
X82188Y40989D01*
X82249Y41004D01*
X83395Y41514D01*
X83414Y41528D01*
X83442Y41538D01*
X90370Y45538D01*
X90387Y45553D01*
X90414Y45567D01*
X91428Y46304D01*
X91456Y46334D01*
X91471Y46344D01*
X91473Y46348D01*
X91506Y46374D01*
X92345Y47306D01*
X92366Y47342D01*
X92407Y47390D01*
X93034Y48477D01*
X93044Y48506D01*
X93045Y48509D01*
X93046Y48514D01*
X93047Y48516D01*
X93076Y48572D01*
X93464Y49765D01*
X93469Y49806D01*
X93486Y49867D01*
X93617Y51115D01*
X93613Y51156D01*
X93615Y51185D01*
X93617Y51201D01*
X93616Y51207D01*
X93617Y51219D01*
X93486Y52466D01*
X93473Y52506D01*
X93464Y52568D01*
X93076Y53761D01*
X93056Y53797D01*
X93034Y53857D01*
X92407Y54943D01*
X92379Y54974D01*
X92345Y55027D01*
X91506Y55960D01*
X91473Y55984D01*
X91428Y56029D01*
X90414Y56767D01*
X90376Y56784D01*
X90323Y56819D01*
X89177Y57329D01*
X89137Y57338D01*
X89078Y57361D01*
X87851Y57622D01*
X87810Y57623D01*
X87747Y57633D01*
X86493Y57633D01*
X86452Y57625D01*
X86389Y57622D01*
X85162Y57361D01*
X85124Y57345D01*
X85063Y57329D01*
X83917Y56819D01*
X83898Y56806D01*
X83871Y56795D01*
X76942Y52795D01*
X76925Y52780D01*
X76898Y52767D01*
X75884Y52029D01*
X75856Y51999D01*
X75806Y51960D01*
X74967Y51027D01*
X74946Y50992D01*
X74905Y50943D01*
X74278Y49857D01*
X74265Y49817D01*
X74236Y49761D01*
X73848Y48568D01*
X73844Y48527D01*
X73827Y48466D01*
X73695Y47219D01*
X73698Y47190D01*
X73695Y47174D01*
X73698Y47162D01*
X73695Y47115D01*
X73827Y45867D01*
X73839Y45828D01*
X73848Y45765D01*
X74236Y44572D01*
X74256Y44536D01*
X74278Y44477D01*
X74905Y43390D01*
X74933Y43359D01*
X74967Y43306D01*
X75806Y42374D01*
X75839Y42349D01*
X75843Y42345D01*
X75857Y42327D01*
X75867Y42321D01*
X75884Y42304D01*
X76898Y41567D01*
X76936Y41549D01*
X76989Y41514D01*
X78135Y41004D01*
X78175Y40995D01*
X78234Y40972D01*
X79461Y40711D01*
X79502Y40711D01*
X79565Y40700D01*
X80819Y40700D01*
X80860Y40709D01*
G37*
G36*
X87319Y124211D02*
X87319Y124211D01*
X87328Y124207D01*
X99019Y130957D01*
X99027Y130976D01*
X99037Y130983D01*
X99033Y130989D01*
X99042Y131012D01*
X99034Y131015D01*
X99037Y131024D01*
X95037Y137952D01*
X91037Y144881D01*
X90982Y144904D01*
X90979Y144895D01*
X90970Y144899D01*
X79279Y138149D01*
X79256Y138094D01*
X79264Y138090D01*
X79261Y138081D01*
X83261Y131153D01*
X87261Y124225D01*
X87315Y124202D01*
X87319Y124211D01*
G37*
G36*
X115319Y75713D02*
X115319Y75713D01*
X115328Y75709D01*
X127019Y82459D01*
X127027Y82478D01*
X127037Y82486D01*
X127033Y82492D01*
X127042Y82514D01*
X127034Y82518D01*
X127037Y82527D01*
X123037Y89455D01*
X119037Y96383D01*
X118982Y96406D01*
X118979Y96397D01*
X118970Y96401D01*
X107279Y89651D01*
X107256Y89596D01*
X107264Y89593D01*
X107261Y89584D01*
X111261Y82656D01*
X115261Y75727D01*
X115315Y75704D01*
X115319Y75713D01*
G37*
D10*
X340640Y250000D03*
X635080Y250000D03*
X487860Y505000D03*
D11*
X554050Y806180D02*
X569050Y806180D01*
X569050Y780780D02*
X554050Y780780D01*
X554050Y755380D02*
X569050Y755380D01*
X569050Y729980D02*
X554050Y729980D01*
X554050Y704580D02*
X569050Y704580D01*
X569050Y679180D02*
X554050Y679180D01*
X414050Y806180D02*
X399050Y806180D01*
X399050Y780780D02*
X414050Y780780D01*
X414050Y755380D02*
X399050Y755380D01*
X399050Y729980D02*
X414050Y729980D01*
X414050Y704580D02*
X399050Y704580D01*
X399050Y679180D02*
X414050Y679180D01*
D12*
G36*
X116314Y100016D02*
X118322Y96539D01*
X107484Y90282D01*
X105476Y93759D01*
X116314Y100016D01*
G37*
G36*
X113814Y104346D02*
X115822Y100869D01*
X104984Y94612D01*
X102976Y98089D01*
X113814Y104346D01*
G37*
G36*
X111314Y108676D02*
X113322Y105199D01*
X102484Y98942D01*
X100476Y102419D01*
X111314Y108676D01*
G37*
G36*
X108814Y113006D02*
X110822Y109529D01*
X99984Y103272D01*
X97976Y106749D01*
X108814Y113006D01*
G37*
G36*
X106314Y117336D02*
X108322Y113859D01*
X97484Y107602D01*
X95476Y111079D01*
X106314Y117336D01*
G37*
G36*
X103814Y121666D02*
X105822Y118189D01*
X94984Y111932D01*
X92976Y115409D01*
X103814Y121666D01*
G37*
G36*
X101314Y125996D02*
X103322Y122519D01*
X92484Y116262D01*
X90476Y119739D01*
X101314Y125996D01*
G37*
G36*
X98814Y130326D02*
X100822Y126849D01*
X89984Y120592D01*
X87976Y124069D01*
X98814Y130326D01*
G37*
D13*
X108376Y79951D03*
X79476Y130007D03*
D14*
G36*
X81846Y186819D02*
X69708Y179811D01*
X61700Y193681D01*
X73838Y200689D01*
X81846Y186819D01*
G37*
G36*
X98300Y196319D02*
X86162Y189311D01*
X78154Y203181D01*
X90292Y210189D01*
X98300Y196319D01*
G37*
G36*
X168154Y68181D02*
X180292Y75189D01*
X188300Y61319D01*
X176162Y54311D01*
X168154Y68181D01*
G37*
G36*
X151700Y58681D02*
X163838Y65689D01*
X171846Y51819D01*
X159708Y44811D01*
X151700Y58681D01*
G37*
D15*
X282860Y405500D03*
X282860Y424500D03*
X692860Y405500D03*
X692860Y424500D03*
D16*
X312860Y405000D03*
X312860Y417700D03*
X312860Y430400D03*
X312860Y486100D03*
X312860Y498800D03*
X312860Y511500D03*
X312860Y524200D03*
X312860Y536900D03*
X312860Y549600D03*
X312860Y562300D03*
X312860Y575000D03*
D17*
X363860Y595000D03*
X376560Y595000D03*
X389260Y595000D03*
X401960Y595000D03*
D16*
X452860Y575000D03*
X452860Y562300D03*
X452860Y549600D03*
X452860Y536900D03*
X452860Y524200D03*
X452860Y511500D03*
X452860Y498800D03*
X452860Y486100D03*
X452860Y430400D03*
X452860Y417700D03*
X452860Y405000D03*
X522860Y405000D03*
X522860Y417700D03*
X522860Y430400D03*
X522860Y486100D03*
X522860Y498800D03*
X522860Y511500D03*
X522860Y524200D03*
X522860Y536900D03*
X522860Y549600D03*
X522860Y562300D03*
X522860Y575000D03*
D17*
X573860Y595000D03*
X586560Y595000D03*
X599260Y595000D03*
X611960Y595000D03*
D16*
X662860Y575000D03*
X662860Y562300D03*
X662860Y549600D03*
X662860Y536900D03*
X662860Y524200D03*
X662860Y511500D03*
X662860Y498800D03*
X662860Y486100D03*
X662860Y430400D03*
X662860Y417700D03*
X662860Y405000D03*
D18*
X780000Y170000D03*
X780000Y190000D03*
D19*
X837500Y146500D03*
X837500Y213500D03*
D20*
X796500Y110000D03*
X833500Y110000D03*
M02*
