G04 EAGLE Gerber RS-274X export*
G75*
%MOMM*%
%FSLAX34Y34*%
%LPD*%
%INBottom Paste*%
%IPPOS*%
%AMOC8*
5,1,8,0,0,1.08239X$1,22.5*%
G01*
%ADD10R,0.300000X1.150000*%
%ADD11R,1.300000X1.500000*%
%ADD12R,1.500000X1.300000*%
%ADD13R,1.800000X0.800000*%
%ADD14R,0.800000X1.800000*%
%ADD15R,3.500000X1.000000*%
%ADD16R,3.400000X1.500000*%
%ADD17R,2.160000X1.400000*%

G36*
X573053Y801133D02*
X573053Y801133D01*
X573056Y801131D01*
X574168Y801256D01*
X574174Y801262D01*
X574179Y801259D01*
X575236Y801629D01*
X575240Y801636D01*
X575246Y801633D01*
X576194Y802229D01*
X576197Y802237D01*
X576202Y802236D01*
X576994Y803028D01*
X576995Y803036D01*
X577001Y803036D01*
X577597Y803984D01*
X577596Y803993D01*
X577601Y803994D01*
X577971Y805051D01*
X577970Y805055D01*
X577972Y805057D01*
X577970Y805060D01*
X577974Y805062D01*
X578099Y806175D01*
X578095Y806182D01*
X578099Y806186D01*
X577974Y807298D01*
X577968Y807304D01*
X577971Y807309D01*
X577601Y808366D01*
X577595Y808370D01*
X577597Y808376D01*
X577001Y809324D01*
X576993Y809327D01*
X576994Y809332D01*
X576202Y810124D01*
X576194Y810125D01*
X576194Y810131D01*
X575246Y810727D01*
X575237Y810726D01*
X575236Y810731D01*
X574179Y811101D01*
X574171Y811099D01*
X574168Y811104D01*
X573056Y811229D01*
X573052Y811227D01*
X573050Y811229D01*
X555050Y811229D01*
X555047Y811227D01*
X555046Y811227D01*
X555045Y811229D01*
X553932Y811104D01*
X553926Y811098D01*
X553921Y811101D01*
X552864Y810731D01*
X552860Y810725D01*
X552854Y810727D01*
X551906Y810131D01*
X551903Y810123D01*
X551898Y810124D01*
X551106Y809332D01*
X551105Y809324D01*
X551099Y809324D01*
X550503Y808376D01*
X550504Y808367D01*
X550499Y808366D01*
X550129Y807309D01*
X550131Y807303D01*
X550127Y807300D01*
X550128Y807299D01*
X550126Y807298D01*
X550001Y806186D01*
X550005Y806178D01*
X550001Y806175D01*
X550126Y805062D01*
X550132Y805056D01*
X550129Y805051D01*
X550499Y803994D01*
X550506Y803990D01*
X550503Y803984D01*
X551099Y803036D01*
X551107Y803033D01*
X551106Y803028D01*
X551898Y802236D01*
X551906Y802235D01*
X551906Y802229D01*
X552854Y801633D01*
X552863Y801634D01*
X552864Y801629D01*
X553921Y801259D01*
X553929Y801261D01*
X553932Y801256D01*
X555045Y801131D01*
X555048Y801133D01*
X555050Y801131D01*
X573050Y801131D01*
X573053Y801133D01*
G37*
G36*
X413053Y801133D02*
X413053Y801133D01*
X413056Y801131D01*
X414168Y801256D01*
X414174Y801262D01*
X414179Y801259D01*
X415236Y801629D01*
X415240Y801636D01*
X415246Y801633D01*
X416194Y802229D01*
X416197Y802237D01*
X416202Y802236D01*
X416994Y803028D01*
X416995Y803036D01*
X417001Y803036D01*
X417597Y803984D01*
X417596Y803993D01*
X417601Y803994D01*
X417971Y805051D01*
X417970Y805055D01*
X417972Y805057D01*
X417970Y805060D01*
X417974Y805062D01*
X418099Y806175D01*
X418095Y806182D01*
X418099Y806186D01*
X417974Y807298D01*
X417968Y807304D01*
X417971Y807309D01*
X417601Y808366D01*
X417595Y808370D01*
X417597Y808376D01*
X417001Y809324D01*
X416993Y809327D01*
X416994Y809332D01*
X416202Y810124D01*
X416194Y810125D01*
X416194Y810131D01*
X415246Y810727D01*
X415237Y810726D01*
X415236Y810731D01*
X414179Y811101D01*
X414171Y811099D01*
X414168Y811104D01*
X413056Y811229D01*
X413052Y811227D01*
X413050Y811229D01*
X395050Y811229D01*
X395047Y811227D01*
X395046Y811227D01*
X395045Y811229D01*
X393932Y811104D01*
X393926Y811098D01*
X393921Y811101D01*
X392864Y810731D01*
X392860Y810725D01*
X392854Y810727D01*
X391906Y810131D01*
X391903Y810123D01*
X391898Y810124D01*
X391106Y809332D01*
X391105Y809324D01*
X391099Y809324D01*
X390503Y808376D01*
X390504Y808367D01*
X390499Y808366D01*
X390129Y807309D01*
X390131Y807303D01*
X390127Y807300D01*
X390128Y807299D01*
X390126Y807298D01*
X390001Y806186D01*
X390005Y806178D01*
X390001Y806175D01*
X390126Y805062D01*
X390132Y805056D01*
X390129Y805051D01*
X390499Y803994D01*
X390506Y803990D01*
X390503Y803984D01*
X391099Y803036D01*
X391107Y803033D01*
X391106Y803028D01*
X391898Y802236D01*
X391906Y802235D01*
X391906Y802229D01*
X392854Y801633D01*
X392863Y801634D01*
X392864Y801629D01*
X393921Y801259D01*
X393929Y801261D01*
X393932Y801256D01*
X395045Y801131D01*
X395048Y801133D01*
X395050Y801131D01*
X413050Y801131D01*
X413053Y801133D01*
G37*
G36*
X573053Y775733D02*
X573053Y775733D01*
X573056Y775731D01*
X574168Y775856D01*
X574174Y775862D01*
X574179Y775859D01*
X575236Y776229D01*
X575240Y776236D01*
X575246Y776233D01*
X576194Y776829D01*
X576197Y776837D01*
X576202Y776836D01*
X576994Y777628D01*
X576995Y777636D01*
X577001Y777636D01*
X577597Y778584D01*
X577596Y778593D01*
X577601Y778594D01*
X577971Y779651D01*
X577970Y779655D01*
X577972Y779657D01*
X577970Y779660D01*
X577974Y779662D01*
X578099Y780775D01*
X578095Y780782D01*
X578099Y780786D01*
X577974Y781898D01*
X577968Y781904D01*
X577971Y781909D01*
X577601Y782966D01*
X577595Y782970D01*
X577597Y782976D01*
X577001Y783924D01*
X576993Y783927D01*
X576994Y783932D01*
X576202Y784724D01*
X576194Y784725D01*
X576194Y784731D01*
X575246Y785327D01*
X575237Y785326D01*
X575236Y785331D01*
X574179Y785701D01*
X574171Y785699D01*
X574168Y785704D01*
X573056Y785829D01*
X573052Y785827D01*
X573050Y785829D01*
X555050Y785829D01*
X555047Y785827D01*
X555046Y785827D01*
X555045Y785829D01*
X553932Y785704D01*
X553926Y785698D01*
X553921Y785701D01*
X552864Y785331D01*
X552860Y785325D01*
X552854Y785327D01*
X551906Y784731D01*
X551903Y784723D01*
X551898Y784724D01*
X551106Y783932D01*
X551105Y783924D01*
X551099Y783924D01*
X550503Y782976D01*
X550504Y782967D01*
X550499Y782966D01*
X550129Y781909D01*
X550131Y781903D01*
X550127Y781900D01*
X550128Y781899D01*
X550126Y781898D01*
X550001Y780786D01*
X550005Y780778D01*
X550001Y780775D01*
X550126Y779662D01*
X550132Y779656D01*
X550129Y779651D01*
X550499Y778594D01*
X550506Y778590D01*
X550503Y778584D01*
X551099Y777636D01*
X551107Y777633D01*
X551106Y777628D01*
X551898Y776836D01*
X551906Y776835D01*
X551906Y776829D01*
X552854Y776233D01*
X552863Y776234D01*
X552864Y776229D01*
X553921Y775859D01*
X553929Y775861D01*
X553932Y775856D01*
X555045Y775731D01*
X555048Y775733D01*
X555050Y775731D01*
X573050Y775731D01*
X573053Y775733D01*
G37*
G36*
X413053Y775733D02*
X413053Y775733D01*
X413056Y775731D01*
X414168Y775856D01*
X414174Y775862D01*
X414179Y775859D01*
X415236Y776229D01*
X415240Y776236D01*
X415246Y776233D01*
X416194Y776829D01*
X416197Y776837D01*
X416202Y776836D01*
X416994Y777628D01*
X416995Y777636D01*
X417001Y777636D01*
X417597Y778584D01*
X417596Y778593D01*
X417601Y778594D01*
X417971Y779651D01*
X417970Y779655D01*
X417972Y779657D01*
X417970Y779660D01*
X417974Y779662D01*
X418099Y780775D01*
X418095Y780782D01*
X418099Y780786D01*
X417974Y781898D01*
X417968Y781904D01*
X417971Y781909D01*
X417601Y782966D01*
X417595Y782970D01*
X417597Y782976D01*
X417001Y783924D01*
X416993Y783927D01*
X416994Y783932D01*
X416202Y784724D01*
X416194Y784725D01*
X416194Y784731D01*
X415246Y785327D01*
X415237Y785326D01*
X415236Y785331D01*
X414179Y785701D01*
X414171Y785699D01*
X414168Y785704D01*
X413056Y785829D01*
X413052Y785827D01*
X413050Y785829D01*
X395050Y785829D01*
X395047Y785827D01*
X395046Y785827D01*
X395045Y785829D01*
X393932Y785704D01*
X393926Y785698D01*
X393921Y785701D01*
X392864Y785331D01*
X392860Y785325D01*
X392854Y785327D01*
X391906Y784731D01*
X391903Y784723D01*
X391898Y784724D01*
X391106Y783932D01*
X391105Y783924D01*
X391099Y783924D01*
X390503Y782976D01*
X390504Y782967D01*
X390499Y782966D01*
X390129Y781909D01*
X390131Y781903D01*
X390127Y781900D01*
X390128Y781899D01*
X390126Y781898D01*
X390001Y780786D01*
X390005Y780778D01*
X390001Y780775D01*
X390126Y779662D01*
X390132Y779656D01*
X390129Y779651D01*
X390499Y778594D01*
X390506Y778590D01*
X390503Y778584D01*
X391099Y777636D01*
X391107Y777633D01*
X391106Y777628D01*
X391898Y776836D01*
X391906Y776835D01*
X391906Y776829D01*
X392854Y776233D01*
X392863Y776234D01*
X392864Y776229D01*
X393921Y775859D01*
X393929Y775861D01*
X393932Y775856D01*
X395045Y775731D01*
X395048Y775733D01*
X395050Y775731D01*
X413050Y775731D01*
X413053Y775733D01*
G37*
G36*
X573053Y750333D02*
X573053Y750333D01*
X573056Y750331D01*
X574168Y750456D01*
X574174Y750462D01*
X574179Y750459D01*
X575236Y750829D01*
X575240Y750836D01*
X575246Y750833D01*
X576194Y751429D01*
X576197Y751437D01*
X576202Y751436D01*
X576994Y752228D01*
X576995Y752236D01*
X577001Y752236D01*
X577597Y753184D01*
X577596Y753193D01*
X577601Y753194D01*
X577971Y754251D01*
X577970Y754255D01*
X577972Y754257D01*
X577970Y754260D01*
X577974Y754262D01*
X578099Y755375D01*
X578095Y755382D01*
X578099Y755386D01*
X577974Y756498D01*
X577968Y756504D01*
X577971Y756509D01*
X577601Y757566D01*
X577595Y757570D01*
X577597Y757576D01*
X577001Y758524D01*
X576993Y758527D01*
X576994Y758532D01*
X576202Y759324D01*
X576194Y759325D01*
X576194Y759331D01*
X575246Y759927D01*
X575237Y759926D01*
X575236Y759931D01*
X574179Y760301D01*
X574171Y760299D01*
X574168Y760304D01*
X573056Y760429D01*
X573052Y760427D01*
X573050Y760429D01*
X555050Y760429D01*
X555047Y760427D01*
X555046Y760427D01*
X555045Y760429D01*
X553932Y760304D01*
X553926Y760298D01*
X553921Y760301D01*
X552864Y759931D01*
X552860Y759925D01*
X552854Y759927D01*
X551906Y759331D01*
X551903Y759323D01*
X551898Y759324D01*
X551106Y758532D01*
X551105Y758524D01*
X551099Y758524D01*
X550503Y757576D01*
X550504Y757567D01*
X550499Y757566D01*
X550129Y756509D01*
X550131Y756503D01*
X550127Y756500D01*
X550128Y756499D01*
X550126Y756498D01*
X550001Y755386D01*
X550005Y755378D01*
X550001Y755375D01*
X550126Y754262D01*
X550132Y754256D01*
X550129Y754251D01*
X550499Y753194D01*
X550506Y753190D01*
X550503Y753184D01*
X551099Y752236D01*
X551107Y752233D01*
X551106Y752228D01*
X551898Y751436D01*
X551906Y751435D01*
X551906Y751429D01*
X552854Y750833D01*
X552863Y750834D01*
X552864Y750829D01*
X553921Y750459D01*
X553929Y750461D01*
X553932Y750456D01*
X555045Y750331D01*
X555048Y750333D01*
X555050Y750331D01*
X573050Y750331D01*
X573053Y750333D01*
G37*
G36*
X413053Y750333D02*
X413053Y750333D01*
X413056Y750331D01*
X414168Y750456D01*
X414174Y750462D01*
X414179Y750459D01*
X415236Y750829D01*
X415240Y750836D01*
X415246Y750833D01*
X416194Y751429D01*
X416197Y751437D01*
X416202Y751436D01*
X416994Y752228D01*
X416995Y752236D01*
X417001Y752236D01*
X417597Y753184D01*
X417596Y753193D01*
X417601Y753194D01*
X417971Y754251D01*
X417970Y754255D01*
X417972Y754257D01*
X417970Y754260D01*
X417974Y754262D01*
X418099Y755375D01*
X418095Y755382D01*
X418099Y755386D01*
X417974Y756498D01*
X417968Y756504D01*
X417971Y756509D01*
X417601Y757566D01*
X417595Y757570D01*
X417597Y757576D01*
X417001Y758524D01*
X416993Y758527D01*
X416994Y758532D01*
X416202Y759324D01*
X416194Y759325D01*
X416194Y759331D01*
X415246Y759927D01*
X415237Y759926D01*
X415236Y759931D01*
X414179Y760301D01*
X414171Y760299D01*
X414168Y760304D01*
X413056Y760429D01*
X413052Y760427D01*
X413050Y760429D01*
X395050Y760429D01*
X395047Y760427D01*
X395046Y760427D01*
X395045Y760429D01*
X393932Y760304D01*
X393926Y760298D01*
X393921Y760301D01*
X392864Y759931D01*
X392860Y759925D01*
X392854Y759927D01*
X391906Y759331D01*
X391903Y759323D01*
X391898Y759324D01*
X391106Y758532D01*
X391105Y758524D01*
X391099Y758524D01*
X390503Y757576D01*
X390504Y757567D01*
X390499Y757566D01*
X390129Y756509D01*
X390131Y756503D01*
X390127Y756500D01*
X390128Y756499D01*
X390126Y756498D01*
X390001Y755386D01*
X390005Y755378D01*
X390001Y755375D01*
X390126Y754262D01*
X390132Y754256D01*
X390129Y754251D01*
X390499Y753194D01*
X390506Y753190D01*
X390503Y753184D01*
X391099Y752236D01*
X391107Y752233D01*
X391106Y752228D01*
X391898Y751436D01*
X391906Y751435D01*
X391906Y751429D01*
X392854Y750833D01*
X392863Y750834D01*
X392864Y750829D01*
X393921Y750459D01*
X393929Y750461D01*
X393932Y750456D01*
X395045Y750331D01*
X395048Y750333D01*
X395050Y750331D01*
X413050Y750331D01*
X413053Y750333D01*
G37*
G36*
X413053Y724933D02*
X413053Y724933D01*
X413056Y724931D01*
X414168Y725056D01*
X414174Y725062D01*
X414179Y725059D01*
X415236Y725429D01*
X415240Y725436D01*
X415246Y725433D01*
X416194Y726029D01*
X416197Y726037D01*
X416202Y726036D01*
X416994Y726828D01*
X416995Y726836D01*
X417001Y726836D01*
X417597Y727784D01*
X417596Y727793D01*
X417601Y727794D01*
X417971Y728851D01*
X417970Y728855D01*
X417972Y728857D01*
X417970Y728860D01*
X417974Y728862D01*
X418099Y729975D01*
X418095Y729982D01*
X418099Y729986D01*
X417974Y731098D01*
X417968Y731104D01*
X417971Y731109D01*
X417601Y732166D01*
X417595Y732170D01*
X417597Y732176D01*
X417001Y733124D01*
X416993Y733127D01*
X416994Y733132D01*
X416202Y733924D01*
X416194Y733925D01*
X416194Y733931D01*
X415246Y734527D01*
X415237Y734526D01*
X415236Y734531D01*
X414179Y734901D01*
X414171Y734899D01*
X414168Y734904D01*
X413056Y735029D01*
X413052Y735027D01*
X413050Y735029D01*
X395050Y735029D01*
X395047Y735027D01*
X395046Y735027D01*
X395045Y735029D01*
X393932Y734904D01*
X393926Y734898D01*
X393921Y734901D01*
X392864Y734531D01*
X392860Y734525D01*
X392854Y734527D01*
X391906Y733931D01*
X391903Y733923D01*
X391898Y733924D01*
X391106Y733132D01*
X391105Y733124D01*
X391099Y733124D01*
X390503Y732176D01*
X390504Y732167D01*
X390499Y732166D01*
X390129Y731109D01*
X390131Y731103D01*
X390127Y731100D01*
X390128Y731099D01*
X390126Y731098D01*
X390001Y729986D01*
X390005Y729978D01*
X390001Y729975D01*
X390126Y728862D01*
X390132Y728856D01*
X390129Y728851D01*
X390499Y727794D01*
X390506Y727790D01*
X390503Y727784D01*
X391099Y726836D01*
X391107Y726833D01*
X391106Y726828D01*
X391898Y726036D01*
X391906Y726035D01*
X391906Y726029D01*
X392854Y725433D01*
X392863Y725434D01*
X392864Y725429D01*
X393921Y725059D01*
X393929Y725061D01*
X393932Y725056D01*
X395045Y724931D01*
X395048Y724933D01*
X395050Y724931D01*
X413050Y724931D01*
X413053Y724933D01*
G37*
G36*
X573053Y724933D02*
X573053Y724933D01*
X573056Y724931D01*
X574168Y725056D01*
X574174Y725062D01*
X574179Y725059D01*
X575236Y725429D01*
X575240Y725436D01*
X575246Y725433D01*
X576194Y726029D01*
X576197Y726037D01*
X576202Y726036D01*
X576994Y726828D01*
X576995Y726836D01*
X577001Y726836D01*
X577597Y727784D01*
X577596Y727793D01*
X577601Y727794D01*
X577971Y728851D01*
X577970Y728855D01*
X577972Y728857D01*
X577970Y728860D01*
X577974Y728862D01*
X578099Y729975D01*
X578095Y729982D01*
X578099Y729986D01*
X577974Y731098D01*
X577968Y731104D01*
X577971Y731109D01*
X577601Y732166D01*
X577595Y732170D01*
X577597Y732176D01*
X577001Y733124D01*
X576993Y733127D01*
X576994Y733132D01*
X576202Y733924D01*
X576194Y733925D01*
X576194Y733931D01*
X575246Y734527D01*
X575237Y734526D01*
X575236Y734531D01*
X574179Y734901D01*
X574171Y734899D01*
X574168Y734904D01*
X573056Y735029D01*
X573052Y735027D01*
X573050Y735029D01*
X555050Y735029D01*
X555047Y735027D01*
X555046Y735027D01*
X555045Y735029D01*
X553932Y734904D01*
X553926Y734898D01*
X553921Y734901D01*
X552864Y734531D01*
X552860Y734525D01*
X552854Y734527D01*
X551906Y733931D01*
X551903Y733923D01*
X551898Y733924D01*
X551106Y733132D01*
X551105Y733124D01*
X551099Y733124D01*
X550503Y732176D01*
X550504Y732167D01*
X550499Y732166D01*
X550129Y731109D01*
X550131Y731103D01*
X550127Y731100D01*
X550128Y731099D01*
X550126Y731098D01*
X550001Y729986D01*
X550005Y729978D01*
X550001Y729975D01*
X550126Y728862D01*
X550132Y728856D01*
X550129Y728851D01*
X550499Y727794D01*
X550506Y727790D01*
X550503Y727784D01*
X551099Y726836D01*
X551107Y726833D01*
X551106Y726828D01*
X551898Y726036D01*
X551906Y726035D01*
X551906Y726029D01*
X552854Y725433D01*
X552863Y725434D01*
X552864Y725429D01*
X553921Y725059D01*
X553929Y725061D01*
X553932Y725056D01*
X555045Y724931D01*
X555048Y724933D01*
X555050Y724931D01*
X573050Y724931D01*
X573053Y724933D01*
G37*
G36*
X573053Y699533D02*
X573053Y699533D01*
X573056Y699531D01*
X574168Y699656D01*
X574174Y699662D01*
X574179Y699659D01*
X575236Y700029D01*
X575240Y700036D01*
X575246Y700033D01*
X576194Y700629D01*
X576197Y700637D01*
X576202Y700636D01*
X576994Y701428D01*
X576995Y701436D01*
X577001Y701436D01*
X577597Y702384D01*
X577596Y702393D01*
X577601Y702394D01*
X577971Y703451D01*
X577970Y703455D01*
X577972Y703457D01*
X577970Y703460D01*
X577974Y703462D01*
X578099Y704575D01*
X578095Y704582D01*
X578099Y704586D01*
X577974Y705698D01*
X577968Y705704D01*
X577971Y705709D01*
X577601Y706766D01*
X577595Y706770D01*
X577597Y706776D01*
X577001Y707724D01*
X576993Y707727D01*
X576994Y707732D01*
X576202Y708524D01*
X576194Y708525D01*
X576194Y708531D01*
X575246Y709127D01*
X575237Y709126D01*
X575236Y709131D01*
X574179Y709501D01*
X574171Y709499D01*
X574168Y709504D01*
X573056Y709629D01*
X573052Y709627D01*
X573050Y709629D01*
X555050Y709629D01*
X555047Y709627D01*
X555046Y709627D01*
X555045Y709629D01*
X553932Y709504D01*
X553926Y709498D01*
X553921Y709501D01*
X552864Y709131D01*
X552860Y709125D01*
X552854Y709127D01*
X551906Y708531D01*
X551903Y708523D01*
X551898Y708524D01*
X551106Y707732D01*
X551105Y707724D01*
X551099Y707724D01*
X550503Y706776D01*
X550504Y706767D01*
X550499Y706766D01*
X550129Y705709D01*
X550131Y705703D01*
X550127Y705700D01*
X550128Y705699D01*
X550126Y705698D01*
X550001Y704586D01*
X550005Y704578D01*
X550001Y704575D01*
X550126Y703462D01*
X550132Y703456D01*
X550129Y703451D01*
X550499Y702394D01*
X550506Y702390D01*
X550503Y702384D01*
X551099Y701436D01*
X551107Y701433D01*
X551106Y701428D01*
X551898Y700636D01*
X551906Y700635D01*
X551906Y700629D01*
X552854Y700033D01*
X552863Y700034D01*
X552864Y700029D01*
X553921Y699659D01*
X553929Y699661D01*
X553932Y699656D01*
X555045Y699531D01*
X555048Y699533D01*
X555050Y699531D01*
X573050Y699531D01*
X573053Y699533D01*
G37*
G36*
X413053Y699533D02*
X413053Y699533D01*
X413056Y699531D01*
X414168Y699656D01*
X414174Y699662D01*
X414179Y699659D01*
X415236Y700029D01*
X415240Y700036D01*
X415246Y700033D01*
X416194Y700629D01*
X416197Y700637D01*
X416202Y700636D01*
X416994Y701428D01*
X416995Y701436D01*
X417001Y701436D01*
X417597Y702384D01*
X417596Y702393D01*
X417601Y702394D01*
X417971Y703451D01*
X417970Y703455D01*
X417972Y703457D01*
X417970Y703460D01*
X417974Y703462D01*
X418099Y704575D01*
X418095Y704582D01*
X418099Y704586D01*
X417974Y705698D01*
X417968Y705704D01*
X417971Y705709D01*
X417601Y706766D01*
X417595Y706770D01*
X417597Y706776D01*
X417001Y707724D01*
X416993Y707727D01*
X416994Y707732D01*
X416202Y708524D01*
X416194Y708525D01*
X416194Y708531D01*
X415246Y709127D01*
X415237Y709126D01*
X415236Y709131D01*
X414179Y709501D01*
X414171Y709499D01*
X414168Y709504D01*
X413056Y709629D01*
X413052Y709627D01*
X413050Y709629D01*
X395050Y709629D01*
X395047Y709627D01*
X395046Y709627D01*
X395045Y709629D01*
X393932Y709504D01*
X393926Y709498D01*
X393921Y709501D01*
X392864Y709131D01*
X392860Y709125D01*
X392854Y709127D01*
X391906Y708531D01*
X391903Y708523D01*
X391898Y708524D01*
X391106Y707732D01*
X391105Y707724D01*
X391099Y707724D01*
X390503Y706776D01*
X390504Y706767D01*
X390499Y706766D01*
X390129Y705709D01*
X390131Y705703D01*
X390127Y705700D01*
X390128Y705699D01*
X390126Y705698D01*
X390001Y704586D01*
X390005Y704578D01*
X390001Y704575D01*
X390126Y703462D01*
X390132Y703456D01*
X390129Y703451D01*
X390499Y702394D01*
X390506Y702390D01*
X390503Y702384D01*
X391099Y701436D01*
X391107Y701433D01*
X391106Y701428D01*
X391898Y700636D01*
X391906Y700635D01*
X391906Y700629D01*
X392854Y700033D01*
X392863Y700034D01*
X392864Y700029D01*
X393921Y699659D01*
X393929Y699661D01*
X393932Y699656D01*
X395045Y699531D01*
X395048Y699533D01*
X395050Y699531D01*
X413050Y699531D01*
X413053Y699533D01*
G37*
G36*
X413053Y674133D02*
X413053Y674133D01*
X413056Y674131D01*
X414168Y674256D01*
X414174Y674262D01*
X414179Y674259D01*
X415236Y674629D01*
X415240Y674636D01*
X415246Y674633D01*
X416194Y675229D01*
X416197Y675237D01*
X416202Y675236D01*
X416994Y676028D01*
X416995Y676036D01*
X417001Y676036D01*
X417597Y676984D01*
X417596Y676993D01*
X417601Y676994D01*
X417971Y678051D01*
X417970Y678055D01*
X417972Y678057D01*
X417970Y678060D01*
X417974Y678062D01*
X418099Y679175D01*
X418095Y679182D01*
X418099Y679186D01*
X417974Y680298D01*
X417968Y680304D01*
X417971Y680309D01*
X417601Y681366D01*
X417595Y681370D01*
X417597Y681376D01*
X417001Y682324D01*
X416993Y682327D01*
X416994Y682332D01*
X416202Y683124D01*
X416194Y683125D01*
X416194Y683131D01*
X415246Y683727D01*
X415237Y683726D01*
X415236Y683731D01*
X414179Y684101D01*
X414171Y684099D01*
X414168Y684104D01*
X413056Y684229D01*
X413052Y684227D01*
X413050Y684229D01*
X395050Y684229D01*
X395047Y684227D01*
X395046Y684227D01*
X395045Y684229D01*
X393932Y684104D01*
X393926Y684098D01*
X393921Y684101D01*
X392864Y683731D01*
X392860Y683725D01*
X392854Y683727D01*
X391906Y683131D01*
X391903Y683123D01*
X391898Y683124D01*
X391106Y682332D01*
X391105Y682324D01*
X391099Y682324D01*
X390503Y681376D01*
X390504Y681367D01*
X390499Y681366D01*
X390129Y680309D01*
X390131Y680303D01*
X390127Y680300D01*
X390128Y680299D01*
X390126Y680298D01*
X390001Y679186D01*
X390005Y679178D01*
X390001Y679175D01*
X390126Y678062D01*
X390132Y678056D01*
X390129Y678051D01*
X390499Y676994D01*
X390506Y676990D01*
X390503Y676984D01*
X391099Y676036D01*
X391107Y676033D01*
X391106Y676028D01*
X391898Y675236D01*
X391906Y675235D01*
X391906Y675229D01*
X392854Y674633D01*
X392863Y674634D01*
X392864Y674629D01*
X393921Y674259D01*
X393929Y674261D01*
X393932Y674256D01*
X395045Y674131D01*
X395048Y674133D01*
X395050Y674131D01*
X413050Y674131D01*
X413053Y674133D01*
G37*
G36*
X573053Y674133D02*
X573053Y674133D01*
X573056Y674131D01*
X574168Y674256D01*
X574174Y674262D01*
X574179Y674259D01*
X575236Y674629D01*
X575240Y674636D01*
X575246Y674633D01*
X576194Y675229D01*
X576197Y675237D01*
X576202Y675236D01*
X576994Y676028D01*
X576995Y676036D01*
X577001Y676036D01*
X577597Y676984D01*
X577596Y676993D01*
X577601Y676994D01*
X577971Y678051D01*
X577970Y678055D01*
X577972Y678057D01*
X577970Y678060D01*
X577974Y678062D01*
X578099Y679175D01*
X578095Y679182D01*
X578099Y679186D01*
X577974Y680298D01*
X577968Y680304D01*
X577971Y680309D01*
X577601Y681366D01*
X577595Y681370D01*
X577597Y681376D01*
X577001Y682324D01*
X576993Y682327D01*
X576994Y682332D01*
X576202Y683124D01*
X576194Y683125D01*
X576194Y683131D01*
X575246Y683727D01*
X575237Y683726D01*
X575236Y683731D01*
X574179Y684101D01*
X574171Y684099D01*
X574168Y684104D01*
X573056Y684229D01*
X573052Y684227D01*
X573050Y684229D01*
X555050Y684229D01*
X555047Y684227D01*
X555046Y684227D01*
X555045Y684229D01*
X553932Y684104D01*
X553926Y684098D01*
X553921Y684101D01*
X552864Y683731D01*
X552860Y683725D01*
X552854Y683727D01*
X551906Y683131D01*
X551903Y683123D01*
X551898Y683124D01*
X551106Y682332D01*
X551105Y682324D01*
X551099Y682324D01*
X550503Y681376D01*
X550504Y681367D01*
X550499Y681366D01*
X550129Y680309D01*
X550131Y680303D01*
X550127Y680300D01*
X550128Y680299D01*
X550126Y680298D01*
X550001Y679186D01*
X550005Y679178D01*
X550001Y679175D01*
X550126Y678062D01*
X550132Y678056D01*
X550129Y678051D01*
X550499Y676994D01*
X550506Y676990D01*
X550503Y676984D01*
X551099Y676036D01*
X551107Y676033D01*
X551106Y676028D01*
X551898Y675236D01*
X551906Y675235D01*
X551906Y675229D01*
X552854Y674633D01*
X552863Y674634D01*
X552864Y674629D01*
X553921Y674259D01*
X553929Y674261D01*
X553932Y674256D01*
X555045Y674131D01*
X555048Y674133D01*
X555050Y674131D01*
X573050Y674131D01*
X573053Y674133D01*
G37*
G36*
X83685Y132505D02*
X83685Y132505D01*
X83694Y132501D01*
X93653Y138251D01*
X93676Y138306D01*
X93668Y138310D01*
X93671Y138318D01*
X90671Y143515D01*
X90616Y143538D01*
X90613Y143529D01*
X90604Y143533D01*
X80645Y137783D01*
X80622Y137728D01*
X80630Y137724D01*
X80627Y137715D01*
X83627Y132519D01*
X83681Y132496D01*
X83685Y132505D01*
G37*
G36*
X115685Y77079D02*
X115685Y77079D01*
X115694Y77075D01*
X125653Y82825D01*
X125676Y82880D01*
X125668Y82884D01*
X125671Y82893D01*
X122671Y88089D01*
X122616Y88112D01*
X122613Y88103D01*
X122604Y88107D01*
X112645Y82357D01*
X112622Y82302D01*
X112630Y82298D01*
X112627Y82290D01*
X115627Y77093D01*
X115681Y77070D01*
X115685Y77079D01*
G37*
G36*
X87685Y125577D02*
X87685Y125577D01*
X87694Y125573D01*
X97653Y131323D01*
X97676Y131378D01*
X97668Y131381D01*
X97671Y131390D01*
X94671Y136586D01*
X94616Y136609D01*
X94613Y136601D01*
X94604Y136604D01*
X84645Y130854D01*
X84622Y130799D01*
X84630Y130796D01*
X84627Y130787D01*
X87627Y125591D01*
X87681Y125568D01*
X87685Y125577D01*
G37*
G36*
X111685Y84007D02*
X111685Y84007D01*
X111694Y84004D01*
X121653Y89754D01*
X121676Y89809D01*
X121668Y89812D01*
X121671Y89821D01*
X118671Y95017D01*
X118616Y95040D01*
X118613Y95031D01*
X118604Y95035D01*
X108645Y89285D01*
X108622Y89230D01*
X108630Y89227D01*
X108627Y89218D01*
X111627Y84022D01*
X111681Y83999D01*
X111685Y84007D01*
G37*
D10*
G36*
X116128Y99323D02*
X117628Y96724D01*
X107670Y90975D01*
X106170Y93574D01*
X116128Y99323D01*
G37*
G36*
X113628Y103653D02*
X115128Y101054D01*
X105170Y95305D01*
X103670Y97904D01*
X113628Y103653D01*
G37*
G36*
X111128Y107983D02*
X112628Y105384D01*
X102670Y99635D01*
X101170Y102234D01*
X111128Y107983D01*
G37*
G36*
X108628Y112313D02*
X110128Y109714D01*
X100170Y103965D01*
X98670Y106564D01*
X108628Y112313D01*
G37*
G36*
X106128Y116643D02*
X107628Y114044D01*
X97670Y108295D01*
X96170Y110894D01*
X106128Y116643D01*
G37*
G36*
X103628Y120973D02*
X105128Y118374D01*
X95170Y112625D01*
X93670Y115224D01*
X103628Y120973D01*
G37*
G36*
X101128Y125303D02*
X102628Y122704D01*
X92670Y116955D01*
X91170Y119554D01*
X101128Y125303D01*
G37*
G36*
X98628Y129633D02*
X100128Y127034D01*
X90170Y121285D01*
X88670Y123884D01*
X98628Y129633D01*
G37*
D11*
G36*
X81152Y187005D02*
X69894Y180505D01*
X62394Y193495D01*
X73652Y199995D01*
X81152Y187005D01*
G37*
G36*
X97606Y196505D02*
X86348Y190005D01*
X78848Y202995D01*
X90106Y209495D01*
X97606Y196505D01*
G37*
G36*
X168848Y67995D02*
X180106Y74495D01*
X187606Y61505D01*
X176348Y55005D01*
X168848Y67995D01*
G37*
G36*
X152394Y58495D02*
X163652Y64995D01*
X171152Y52005D01*
X159894Y45505D01*
X152394Y58495D01*
G37*
D12*
X282860Y405500D03*
X282860Y424500D03*
X692860Y405500D03*
X692860Y424500D03*
D13*
X312860Y405000D03*
X312860Y417700D03*
X312860Y430400D03*
X312860Y486100D03*
X312860Y498800D03*
X312860Y511500D03*
X312860Y524200D03*
X312860Y536900D03*
X312860Y549600D03*
X312860Y562300D03*
X312860Y575000D03*
D14*
X363860Y595000D03*
X376560Y595000D03*
X389260Y595000D03*
X401960Y595000D03*
D13*
X452860Y575000D03*
X452860Y562300D03*
X452860Y549600D03*
X452860Y536900D03*
X452860Y524200D03*
X452860Y511500D03*
X452860Y498800D03*
X452860Y486100D03*
X452860Y430400D03*
X452860Y417700D03*
X452860Y405000D03*
X522860Y405000D03*
X522860Y417700D03*
X522860Y430400D03*
X522860Y486100D03*
X522860Y498800D03*
X522860Y511500D03*
X522860Y524200D03*
X522860Y536900D03*
X522860Y549600D03*
X522860Y562300D03*
X522860Y575000D03*
D14*
X573860Y595000D03*
X586560Y595000D03*
X599260Y595000D03*
X611960Y595000D03*
D13*
X662860Y575000D03*
X662860Y562300D03*
X662860Y549600D03*
X662860Y536900D03*
X662860Y524200D03*
X662860Y511500D03*
X662860Y498800D03*
X662860Y486100D03*
X662860Y430400D03*
X662860Y417700D03*
X662860Y405000D03*
D15*
X780000Y170000D03*
X780000Y190000D03*
D16*
X837500Y146500D03*
X837500Y213500D03*
D17*
X796500Y110000D03*
X833500Y110000D03*
M02*
