G04 EAGLE Gerber RS-274X export*
G75*
%MOMM*%
%FSLAX34Y34*%
%LPD*%
%INMechanical*%
%IPPOS*%
%AMOC8*
5,1,8,0,0,1.08239X$1,22.5*%
G01*
%ADD10C,4.000000*%
%ADD11C,0.000000*%
%ADD12C,0.254000*%


D10*
X53094Y70000D03*
X200318Y325000D03*
X347543Y70000D03*
D11*
X154130Y355000D02*
X153399Y354991D01*
X152669Y354964D01*
X151940Y354920D01*
X151212Y354858D01*
X150486Y354778D01*
X149762Y354680D01*
X149040Y354565D01*
X148322Y354432D01*
X147607Y354282D01*
X146896Y354115D01*
X146189Y353930D01*
X145487Y353728D01*
X144790Y353509D01*
X144099Y353273D01*
X143413Y353020D01*
X142734Y352751D01*
X142062Y352465D01*
X141396Y352163D01*
X140739Y351845D01*
X140089Y351511D01*
X139448Y351161D01*
X138815Y350796D01*
X138191Y350416D01*
X137577Y350020D01*
X136973Y349609D01*
X136379Y349184D01*
X135795Y348745D01*
X135222Y348291D01*
X134661Y347824D01*
X134111Y347343D01*
X133573Y346849D01*
X133047Y346342D01*
X132533Y345822D01*
X132033Y345290D01*
X131545Y344746D01*
X131071Y344190D01*
X130611Y343623D01*
X130164Y343045D01*
X129732Y342456D01*
X129314Y341857D01*
X128911Y341247D01*
X128523Y340628D01*
X128150Y340000D01*
X4019Y125000D01*
X3662Y124363D01*
X3320Y123717D01*
X2994Y123064D01*
X2684Y122402D01*
X2390Y121733D01*
X2112Y121057D01*
X1851Y120375D01*
X1607Y119686D01*
X1379Y118992D01*
X1169Y118293D01*
X975Y117588D01*
X799Y116879D01*
X640Y116166D01*
X499Y115449D01*
X375Y114729D01*
X269Y114006D01*
X180Y113281D01*
X109Y112554D01*
X56Y111825D01*
X20Y111096D01*
X2Y110365D01*
X2Y109635D01*
X20Y108904D01*
X56Y108175D01*
X109Y107446D01*
X180Y106719D01*
X269Y105994D01*
X375Y105271D01*
X499Y104551D01*
X640Y103834D01*
X799Y103121D01*
X975Y102412D01*
X1169Y101707D01*
X1379Y101008D01*
X1607Y100314D01*
X1851Y99625D01*
X2112Y98943D01*
X2390Y98267D01*
X2684Y97598D01*
X2994Y96936D01*
X3320Y96283D01*
X3662Y95637D01*
X4019Y95000D01*
X50207Y15000D01*
X50580Y14372D01*
X50968Y13753D01*
X51372Y13143D01*
X51789Y12544D01*
X52222Y11955D01*
X52668Y11377D01*
X53129Y10810D01*
X53603Y10254D01*
X54090Y9710D01*
X54591Y9178D01*
X55104Y8658D01*
X55630Y8151D01*
X56169Y7657D01*
X56719Y7176D01*
X57280Y6709D01*
X57853Y6255D01*
X58437Y5816D01*
X59031Y5390D01*
X59635Y4980D01*
X60249Y4584D01*
X60873Y4204D01*
X61506Y3838D01*
X62147Y3489D01*
X62797Y3155D01*
X63454Y2837D01*
X64120Y2534D01*
X64792Y2249D01*
X65471Y1979D01*
X66157Y1727D01*
X66848Y1491D01*
X67545Y1272D01*
X68247Y1070D01*
X68954Y885D01*
X69665Y718D01*
X70380Y568D01*
X71099Y435D01*
X71820Y320D01*
X72544Y222D01*
X73270Y142D01*
X73998Y80D01*
X74727Y36D01*
X75458Y9D01*
X76188Y0D01*
X324449Y0D01*
X325180Y9D01*
X325910Y36D01*
X326639Y80D01*
X327367Y142D01*
X328093Y222D01*
X328817Y320D01*
X329539Y435D01*
X330257Y568D01*
X330972Y718D01*
X331683Y885D01*
X332390Y1070D01*
X333092Y1272D01*
X333789Y1491D01*
X334480Y1727D01*
X335166Y1980D01*
X335845Y2249D01*
X336517Y2535D01*
X337183Y2837D01*
X337840Y3155D01*
X338490Y3489D01*
X339131Y3839D01*
X339764Y4204D01*
X340388Y4584D01*
X341002Y4980D01*
X341606Y5391D01*
X342200Y5816D01*
X342784Y6255D01*
X343357Y6709D01*
X343918Y7176D01*
X344468Y7657D01*
X345006Y8151D01*
X345532Y8658D01*
X346046Y9178D01*
X346546Y9710D01*
X347034Y10254D01*
X347508Y10810D01*
X347968Y11377D01*
X348415Y11955D01*
X348847Y12544D01*
X349265Y13143D01*
X349668Y13753D01*
X350056Y14372D01*
X350429Y15000D01*
X396617Y95000D01*
X396974Y95637D01*
X397316Y96283D01*
X397642Y96936D01*
X397952Y97598D01*
X398246Y98267D01*
X398524Y98943D01*
X398785Y99625D01*
X399029Y100314D01*
X399257Y101008D01*
X399467Y101707D01*
X399661Y102412D01*
X399837Y103121D01*
X399996Y103834D01*
X400137Y104551D01*
X400261Y105271D01*
X400367Y105994D01*
X400456Y106719D01*
X400527Y107446D01*
X400580Y108175D01*
X400616Y108904D01*
X400634Y109635D01*
X400634Y110365D01*
X400616Y111096D01*
X400580Y111825D01*
X400527Y112554D01*
X400456Y113281D01*
X400367Y114006D01*
X400261Y114729D01*
X400137Y115449D01*
X399996Y116166D01*
X399837Y116879D01*
X399661Y117588D01*
X399467Y118293D01*
X399257Y118992D01*
X399029Y119686D01*
X398785Y120375D01*
X398524Y121057D01*
X398246Y121733D01*
X397952Y122402D01*
X397642Y123064D01*
X397316Y123717D01*
X396974Y124363D01*
X396617Y125000D01*
X272487Y340000D01*
X272114Y340628D01*
X271726Y341247D01*
X271322Y341857D01*
X270905Y342456D01*
X270472Y343045D01*
X270026Y343623D01*
X269565Y344190D01*
X269091Y344746D01*
X268604Y345290D01*
X268103Y345822D01*
X267590Y346342D01*
X267064Y346849D01*
X266525Y347343D01*
X265975Y347824D01*
X265414Y348291D01*
X264841Y348745D01*
X264257Y349184D01*
X263663Y349610D01*
X263059Y350020D01*
X262445Y350416D01*
X261821Y350796D01*
X261188Y351162D01*
X260547Y351511D01*
X259897Y351845D01*
X259240Y352163D01*
X258574Y352466D01*
X257902Y352751D01*
X257223Y353021D01*
X256537Y353273D01*
X255846Y353509D01*
X255149Y353728D01*
X254447Y353930D01*
X253740Y354115D01*
X253029Y354282D01*
X252314Y354432D01*
X251595Y354565D01*
X250874Y354680D01*
X250150Y354778D01*
X249424Y354858D01*
X248696Y354920D01*
X247967Y354964D01*
X247236Y354991D01*
X246506Y355000D01*
X154130Y355000D01*
D12*
X4019Y95000D02*
X50207Y15000D01*
X51613Y12793D01*
X53206Y10716D01*
X54975Y8787D01*
X56904Y7019D01*
X58981Y5425D01*
X61188Y4019D01*
X63509Y2811D01*
X65927Y1809D01*
X68423Y1022D01*
X70979Y456D01*
X73573Y114D01*
X76188Y0D01*
X324449Y0D01*
X327064Y114D01*
X329658Y456D01*
X332213Y1022D01*
X334709Y1809D01*
X337127Y2811D01*
X339449Y4019D01*
X341656Y5426D01*
X343732Y7019D01*
X345662Y8787D01*
X347430Y10716D01*
X349023Y12793D01*
X350429Y15000D01*
X396617Y95000D01*
X397825Y97321D01*
X398827Y99739D01*
X399614Y102235D01*
X400180Y104791D01*
X400522Y107385D01*
X400636Y110000D01*
X400522Y112615D01*
X400180Y115209D01*
X399614Y117765D01*
X398827Y120261D01*
X397825Y122679D01*
X396617Y125000D01*
X272487Y340000D01*
X271081Y342207D01*
X269488Y344284D01*
X267719Y346213D01*
X265790Y347981D01*
X263713Y349575D01*
X261506Y350981D01*
X259185Y352189D01*
X256767Y353191D01*
X254271Y353978D01*
X251716Y354544D01*
X249121Y354886D01*
X246506Y355000D01*
X154130Y355000D01*
X151515Y354886D01*
X148921Y354544D01*
X146366Y353978D01*
X143870Y353191D01*
X141452Y352189D01*
X139130Y350981D01*
X136923Y349574D01*
X134847Y347981D01*
X132917Y346213D01*
X131149Y344284D01*
X129556Y342207D01*
X128150Y340000D01*
X4019Y125000D01*
X2811Y122679D01*
X1809Y120261D01*
X1022Y117765D01*
X456Y115209D01*
X114Y112615D01*
X0Y110000D01*
X114Y107385D01*
X456Y104791D01*
X1022Y102235D01*
X1809Y99739D01*
X2811Y97321D01*
X4019Y95000D01*
X73094Y69396D02*
X73094Y70604D01*
X73021Y71811D01*
X72875Y73011D01*
X72657Y74200D01*
X72368Y75373D01*
X72009Y76527D01*
X71580Y77657D01*
X71084Y78759D01*
X70522Y79830D01*
X69897Y80864D01*
X69210Y81859D01*
X68465Y82810D01*
X67663Y83715D01*
X66809Y84569D01*
X65904Y85371D01*
X64953Y86116D01*
X63958Y86803D01*
X62924Y87428D01*
X61853Y87990D01*
X60751Y88486D01*
X59621Y88915D01*
X58467Y89274D01*
X57294Y89563D01*
X56105Y89781D01*
X54905Y89927D01*
X53698Y90000D01*
X52490Y90000D01*
X51283Y89927D01*
X50083Y89781D01*
X48894Y89563D01*
X47721Y89274D01*
X46567Y88915D01*
X45437Y88486D01*
X44335Y87990D01*
X43264Y87428D01*
X42230Y86803D01*
X41235Y86116D01*
X40284Y85371D01*
X39379Y84569D01*
X38525Y83715D01*
X37723Y82810D01*
X36978Y81859D01*
X36291Y80864D01*
X35666Y79830D01*
X35104Y78759D01*
X34608Y77657D01*
X34179Y76527D01*
X33820Y75373D01*
X33531Y74200D01*
X33313Y73011D01*
X33167Y71811D01*
X33094Y70604D01*
X33094Y69396D01*
X33167Y68189D01*
X33313Y66989D01*
X33531Y65800D01*
X33820Y64627D01*
X34179Y63473D01*
X34608Y62343D01*
X35104Y61241D01*
X35666Y60170D01*
X36291Y59136D01*
X36978Y58141D01*
X37723Y57190D01*
X38525Y56285D01*
X39379Y55431D01*
X40284Y54629D01*
X41235Y53884D01*
X42230Y53197D01*
X43264Y52572D01*
X44335Y52010D01*
X45437Y51514D01*
X46567Y51085D01*
X47721Y50726D01*
X48894Y50437D01*
X50083Y50219D01*
X51283Y50073D01*
X52490Y50000D01*
X53698Y50000D01*
X54905Y50073D01*
X56105Y50219D01*
X57294Y50437D01*
X58467Y50726D01*
X59621Y51085D01*
X60751Y51514D01*
X61853Y52010D01*
X62924Y52572D01*
X63958Y53197D01*
X64953Y53884D01*
X65904Y54629D01*
X66809Y55431D01*
X67663Y56285D01*
X68465Y57190D01*
X69210Y58141D01*
X69897Y59136D01*
X70522Y60170D01*
X71084Y61241D01*
X71580Y62343D01*
X72009Y63473D01*
X72368Y64627D01*
X72657Y65800D01*
X72875Y66989D01*
X73021Y68189D01*
X73094Y69396D01*
X220318Y324396D02*
X220318Y325604D01*
X220245Y326811D01*
X220099Y328011D01*
X219881Y329200D01*
X219592Y330373D01*
X219233Y331527D01*
X218804Y332657D01*
X218308Y333759D01*
X217746Y334830D01*
X217121Y335864D01*
X216434Y336859D01*
X215689Y337810D01*
X214887Y338715D01*
X214033Y339569D01*
X213128Y340371D01*
X212177Y341116D01*
X211182Y341803D01*
X210148Y342428D01*
X209077Y342990D01*
X207975Y343486D01*
X206845Y343915D01*
X205691Y344274D01*
X204518Y344563D01*
X203329Y344781D01*
X202129Y344927D01*
X200922Y345000D01*
X199714Y345000D01*
X198507Y344927D01*
X197307Y344781D01*
X196118Y344563D01*
X194945Y344274D01*
X193791Y343915D01*
X192661Y343486D01*
X191559Y342990D01*
X190488Y342428D01*
X189454Y341803D01*
X188459Y341116D01*
X187508Y340371D01*
X186603Y339569D01*
X185749Y338715D01*
X184947Y337810D01*
X184202Y336859D01*
X183515Y335864D01*
X182890Y334830D01*
X182328Y333759D01*
X181832Y332657D01*
X181403Y331527D01*
X181044Y330373D01*
X180755Y329200D01*
X180537Y328011D01*
X180391Y326811D01*
X180318Y325604D01*
X180318Y324396D01*
X180391Y323189D01*
X180537Y321989D01*
X180755Y320800D01*
X181044Y319627D01*
X181403Y318473D01*
X181832Y317343D01*
X182328Y316241D01*
X182890Y315170D01*
X183515Y314136D01*
X184202Y313141D01*
X184947Y312190D01*
X185749Y311285D01*
X186603Y310431D01*
X187508Y309629D01*
X188459Y308884D01*
X189454Y308197D01*
X190488Y307572D01*
X191559Y307010D01*
X192661Y306514D01*
X193791Y306085D01*
X194945Y305726D01*
X196118Y305437D01*
X197307Y305219D01*
X198507Y305073D01*
X199714Y305000D01*
X200922Y305000D01*
X202129Y305073D01*
X203329Y305219D01*
X204518Y305437D01*
X205691Y305726D01*
X206845Y306085D01*
X207975Y306514D01*
X209077Y307010D01*
X210148Y307572D01*
X211182Y308197D01*
X212177Y308884D01*
X213128Y309629D01*
X214033Y310431D01*
X214887Y311285D01*
X215689Y312190D01*
X216434Y313141D01*
X217121Y314136D01*
X217746Y315170D01*
X218308Y316241D01*
X218804Y317343D01*
X219233Y318473D01*
X219592Y319627D01*
X219881Y320800D01*
X220099Y321989D01*
X220245Y323189D01*
X220318Y324396D01*
X367543Y69396D02*
X367543Y70604D01*
X367470Y71811D01*
X367324Y73011D01*
X367106Y74200D01*
X366817Y75373D01*
X366458Y76527D01*
X366029Y77657D01*
X365533Y78759D01*
X364971Y79830D01*
X364346Y80864D01*
X363659Y81859D01*
X362914Y82810D01*
X362112Y83715D01*
X361258Y84569D01*
X360353Y85371D01*
X359402Y86116D01*
X358407Y86803D01*
X357373Y87428D01*
X356302Y87990D01*
X355200Y88486D01*
X354070Y88915D01*
X352916Y89274D01*
X351743Y89563D01*
X350554Y89781D01*
X349354Y89927D01*
X348147Y90000D01*
X346939Y90000D01*
X345732Y89927D01*
X344532Y89781D01*
X343343Y89563D01*
X342170Y89274D01*
X341016Y88915D01*
X339886Y88486D01*
X338784Y87990D01*
X337713Y87428D01*
X336679Y86803D01*
X335684Y86116D01*
X334733Y85371D01*
X333828Y84569D01*
X332974Y83715D01*
X332172Y82810D01*
X331427Y81859D01*
X330740Y80864D01*
X330115Y79830D01*
X329553Y78759D01*
X329057Y77657D01*
X328628Y76527D01*
X328269Y75373D01*
X327980Y74200D01*
X327762Y73011D01*
X327616Y71811D01*
X327543Y70604D01*
X327543Y69396D01*
X327616Y68189D01*
X327762Y66989D01*
X327980Y65800D01*
X328269Y64627D01*
X328628Y63473D01*
X329057Y62343D01*
X329553Y61241D01*
X330115Y60170D01*
X330740Y59136D01*
X331427Y58141D01*
X332172Y57190D01*
X332974Y56285D01*
X333828Y55431D01*
X334733Y54629D01*
X335684Y53884D01*
X336679Y53197D01*
X337713Y52572D01*
X338784Y52010D01*
X339886Y51514D01*
X341016Y51085D01*
X342170Y50726D01*
X343343Y50437D01*
X344532Y50219D01*
X345732Y50073D01*
X346939Y50000D01*
X348147Y50000D01*
X349354Y50073D01*
X350554Y50219D01*
X351743Y50437D01*
X352916Y50726D01*
X354070Y51085D01*
X355200Y51514D01*
X356302Y52010D01*
X357373Y52572D01*
X358407Y53197D01*
X359402Y53884D01*
X360353Y54629D01*
X361258Y55431D01*
X362112Y56285D01*
X362914Y57190D01*
X363659Y58141D01*
X364346Y59136D01*
X364971Y60170D01*
X365533Y61241D01*
X366029Y62343D01*
X366458Y63473D01*
X366817Y64627D01*
X367106Y65800D01*
X367324Y66989D01*
X367470Y68189D01*
X367543Y69396D01*
M02*
