M48
;GenerationSoftware,Autodesk,EAGLE,9.6.2*%
;CreationDate,2023-07-17T20:22:09Z*%
FMAT,2
ICI,OFF
METRIC,TZ,000.000
T5C0.305
T4C0.350
T3C0.600
T2C0.650
T1C2.000
%
G90
M71
T1
X34064Y25000
X63508Y25000
X48786Y50500
T2
X10838Y7995
X7948Y13001
T3
X4046Y12399
X11986Y7007
X7666Y14489
X8366Y4917
T4
X56250Y57200
X47854Y75438
X49000Y59000
X19150Y7250
X13100Y11400
X11750Y12750
X11000Y13350
X57750Y79050
X38900Y76100
X55169Y74066
X9150Y16600
X11750Y14500
X55016Y76505
X35400Y40693
X34500Y41500
T5
X62150Y49200
X41200Y47200
X42850Y49100
X43800Y43700
X44050Y46150
X43950Y49250
X45150Y46500
X49550Y48300
X60550Y49200
X45500Y44700
X50900Y48850
X57350Y52400
X43250Y45900
X57900Y33600
X55700Y32650
X60150Y34050
X56400Y31750
X31250Y44050
X33600Y40100
X54750Y38000
X44000Y46950
X46950Y47100
X57000Y42200
X57900Y42900
X55150Y41350
X35350Y39550
X40850Y38350
X43300Y37800
X30750Y46250
X31250Y39600
X49200Y39550
X48100Y37900
X58750Y39800
X60250Y39100
X53250Y30850
X55200Y36400
X54650Y32100
X50400Y35750
X44750Y35750
X50150Y42500
X53250Y35150
X47450Y56150
X50350Y56150
X56050Y53700
X48000Y56700
X34800Y44100
X61350Y49200
X35350Y44650
X44200Y15650
X27500Y32200
X44400Y44850
X45500Y45750
X43900Y53950
X41750Y46650
X43400Y52200
X53800Y37950
X50900Y56700
X35350Y42250
X35350Y43100
X30800Y22850
X28050Y33550
X29550Y25050
X39250Y63000
X42250Y38350
X48300Y61250
X45500Y43900
X51750Y47500
X60300Y39900
M30