G04 EAGLE Gerber RS-274X export*
G75*
%MOMM*%
%FSLAX34Y34*%
%LPD*%
%INMechanical*%
%IPPOS*%
%AMOC8*
5,1,8,0,0,1.08239X$1,22.5*%
G01*
%ADD10C,0.000000*%
%ADD11C,0.254000*%

G36*
X72018Y138651D02*
X72018Y138651D01*
X72094Y138651D01*
X72808Y138767D01*
X72849Y138783D01*
X72923Y138800D01*
X73588Y139084D01*
X73610Y139099D01*
X73642Y139111D01*
X83169Y144611D01*
X83188Y144628D01*
X83219Y144644D01*
X83797Y145079D01*
X83827Y145112D01*
X83884Y145162D01*
X84341Y145722D01*
X84362Y145761D01*
X84406Y145824D01*
X84716Y146477D01*
X84726Y146521D01*
X84754Y146591D01*
X84898Y147300D01*
X84898Y147345D01*
X84908Y147420D01*
X84879Y148143D01*
X84868Y148186D01*
X84860Y148261D01*
X84659Y148956D01*
X84638Y148995D01*
X84611Y149067D01*
X84250Y149693D01*
X84220Y149727D01*
X84177Y149789D01*
X83676Y150311D01*
X83640Y150336D01*
X83583Y150387D01*
X82972Y150774D01*
X82930Y150789D01*
X82863Y150825D01*
X82177Y151054D01*
X82133Y151060D01*
X82059Y151078D01*
X81338Y151136D01*
X81294Y151131D01*
X81218Y151132D01*
X80504Y151016D01*
X80463Y151000D01*
X80389Y150982D01*
X79723Y150699D01*
X79702Y150684D01*
X79669Y150672D01*
X70143Y145172D01*
X70123Y145154D01*
X70093Y145138D01*
X69515Y144704D01*
X69485Y144671D01*
X69428Y144621D01*
X68970Y144060D01*
X68950Y144021D01*
X68906Y143959D01*
X68596Y143305D01*
X68585Y143262D01*
X68558Y143191D01*
X68413Y142483D01*
X68413Y142438D01*
X68404Y142363D01*
X68433Y141640D01*
X68443Y141597D01*
X68452Y141521D01*
X68653Y140827D01*
X68674Y140787D01*
X68700Y140716D01*
X69062Y140089D01*
X69092Y140056D01*
X69134Y139993D01*
X69635Y139472D01*
X69672Y139446D01*
X69729Y139396D01*
X70340Y139009D01*
X70381Y138993D01*
X70449Y138957D01*
X71135Y138728D01*
X71179Y138723D01*
X71253Y138704D01*
X71973Y138646D01*
X72018Y138651D01*
G37*
G36*
X115218Y63827D02*
X115218Y63827D01*
X115294Y63826D01*
X116008Y63942D01*
X116049Y63958D01*
X116123Y63976D01*
X116788Y64259D01*
X116810Y64274D01*
X116842Y64286D01*
X126369Y69786D01*
X126388Y69804D01*
X126419Y69820D01*
X126997Y70254D01*
X127027Y70287D01*
X127084Y70337D01*
X127541Y70898D01*
X127562Y70937D01*
X127606Y70999D01*
X127916Y71653D01*
X127926Y71696D01*
X127954Y71767D01*
X128098Y72475D01*
X128098Y72520D01*
X128108Y72595D01*
X128079Y73318D01*
X128068Y73361D01*
X128060Y73437D01*
X127858Y74131D01*
X127838Y74171D01*
X127811Y74242D01*
X127450Y74869D01*
X127420Y74902D01*
X127377Y74965D01*
X126876Y75486D01*
X126840Y75512D01*
X126783Y75562D01*
X126172Y75949D01*
X126130Y75965D01*
X126063Y76001D01*
X125377Y76230D01*
X125333Y76235D01*
X125259Y76254D01*
X124538Y76312D01*
X124494Y76307D01*
X124418Y76307D01*
X123704Y76191D01*
X123663Y76175D01*
X123589Y76158D01*
X122923Y75874D01*
X122902Y75859D01*
X122869Y75847D01*
X113343Y70347D01*
X113323Y70330D01*
X113293Y70314D01*
X112715Y69879D01*
X112685Y69846D01*
X112628Y69796D01*
X112170Y69236D01*
X112150Y69196D01*
X112106Y69134D01*
X111796Y68481D01*
X111785Y68438D01*
X111758Y68367D01*
X111613Y67658D01*
X111613Y67613D01*
X111604Y67538D01*
X111633Y66815D01*
X111643Y66772D01*
X111652Y66697D01*
X111853Y66002D01*
X111874Y65963D01*
X111900Y65891D01*
X112262Y65265D01*
X112292Y65231D01*
X112334Y65169D01*
X112835Y64647D01*
X112872Y64622D01*
X112929Y64571D01*
X113540Y64184D01*
X113581Y64169D01*
X113649Y64133D01*
X114335Y63904D01*
X114379Y63898D01*
X114453Y63880D01*
X115173Y63822D01*
X115218Y63827D01*
G37*
G36*
X37117Y118501D02*
X37117Y118501D01*
X37193Y118501D01*
X37907Y118617D01*
X37948Y118633D01*
X38022Y118650D01*
X38688Y118934D01*
X38709Y118949D01*
X38742Y118961D01*
X45670Y122961D01*
X45689Y122978D01*
X45720Y122994D01*
X46298Y123429D01*
X46328Y123462D01*
X46385Y123512D01*
X46842Y124072D01*
X46863Y124111D01*
X46907Y124174D01*
X47217Y124827D01*
X47228Y124871D01*
X47255Y124941D01*
X47400Y125650D01*
X47400Y125695D01*
X47409Y125770D01*
X47380Y126493D01*
X47370Y126536D01*
X47361Y126611D01*
X47160Y127306D01*
X47139Y127345D01*
X47112Y127417D01*
X46751Y128043D01*
X46721Y128077D01*
X46679Y128139D01*
X46178Y128661D01*
X46141Y128686D01*
X46084Y128737D01*
X45473Y129124D01*
X45431Y129139D01*
X45364Y129175D01*
X44678Y129404D01*
X44634Y129410D01*
X44560Y129428D01*
X43839Y129486D01*
X43795Y129481D01*
X43719Y129482D01*
X43005Y129366D01*
X42964Y129350D01*
X42890Y129332D01*
X42224Y129049D01*
X42203Y129034D01*
X42171Y129022D01*
X35242Y125022D01*
X35223Y125004D01*
X35192Y124988D01*
X34614Y124554D01*
X34584Y124521D01*
X34527Y124471D01*
X34070Y123910D01*
X34049Y123871D01*
X34005Y123809D01*
X33695Y123155D01*
X33685Y123112D01*
X33657Y123041D01*
X33513Y122333D01*
X33512Y122288D01*
X33503Y122213D01*
X33532Y121490D01*
X33543Y121447D01*
X33551Y121371D01*
X33752Y120677D01*
X33773Y120637D01*
X33800Y120566D01*
X34161Y119939D01*
X34191Y119906D01*
X34234Y119843D01*
X34735Y119322D01*
X34771Y119296D01*
X34828Y119246D01*
X35439Y118859D01*
X35481Y118843D01*
X35548Y118807D01*
X36234Y118578D01*
X36278Y118573D01*
X36352Y118554D01*
X37073Y118496D01*
X37117Y118501D01*
G37*
G36*
X80317Y43677D02*
X80317Y43677D01*
X80393Y43676D01*
X81107Y43792D01*
X81148Y43808D01*
X81222Y43826D01*
X81888Y44109D01*
X81909Y44124D01*
X81942Y44136D01*
X88870Y48136D01*
X88889Y48154D01*
X88920Y48170D01*
X89498Y48604D01*
X89528Y48637D01*
X89585Y48687D01*
X90042Y49248D01*
X90063Y49287D01*
X90107Y49349D01*
X90417Y50003D01*
X90428Y50046D01*
X90455Y50117D01*
X90600Y50825D01*
X90600Y50870D01*
X90609Y50945D01*
X90580Y51668D01*
X90570Y51711D01*
X90561Y51787D01*
X90360Y52481D01*
X90339Y52521D01*
X90312Y52592D01*
X89951Y53219D01*
X89921Y53252D01*
X89879Y53315D01*
X89378Y53836D01*
X89341Y53862D01*
X89284Y53912D01*
X88673Y54299D01*
X88631Y54315D01*
X88564Y54351D01*
X87878Y54580D01*
X87834Y54585D01*
X87760Y54604D01*
X87039Y54662D01*
X86995Y54657D01*
X86919Y54657D01*
X86205Y54541D01*
X86164Y54525D01*
X86090Y54508D01*
X85424Y54224D01*
X85403Y54209D01*
X85371Y54197D01*
X78442Y50197D01*
X78423Y50180D01*
X78392Y50164D01*
X77814Y49729D01*
X77784Y49696D01*
X77727Y49646D01*
X77270Y49086D01*
X77249Y49047D01*
X77205Y48984D01*
X76895Y48331D01*
X76885Y48287D01*
X76857Y48217D01*
X76713Y47508D01*
X76712Y47463D01*
X76703Y47388D01*
X76732Y46665D01*
X76743Y46622D01*
X76751Y46547D01*
X76952Y45852D01*
X76973Y45813D01*
X77000Y45741D01*
X77361Y45115D01*
X77391Y45081D01*
X77434Y45019D01*
X77935Y44497D01*
X77971Y44472D01*
X78028Y44421D01*
X78639Y44034D01*
X78681Y44019D01*
X78748Y43983D01*
X79434Y43754D01*
X79478Y43748D01*
X79552Y43730D01*
X80273Y43672D01*
X80317Y43677D01*
G37*
D10*
X330640Y250000D02*
X330643Y250245D01*
X330652Y250491D01*
X330667Y250736D01*
X330688Y250980D01*
X330715Y251224D01*
X330748Y251467D01*
X330787Y251710D01*
X330832Y251951D01*
X330883Y252191D01*
X330940Y252430D01*
X331002Y252667D01*
X331071Y252903D01*
X331145Y253137D01*
X331225Y253369D01*
X331310Y253599D01*
X331401Y253827D01*
X331498Y254052D01*
X331600Y254276D01*
X331708Y254496D01*
X331821Y254714D01*
X331939Y254929D01*
X332063Y255141D01*
X332191Y255350D01*
X332325Y255556D01*
X332464Y255758D01*
X332608Y255957D01*
X332757Y256152D01*
X332910Y256344D01*
X333068Y256532D01*
X333230Y256716D01*
X333398Y256895D01*
X333569Y257071D01*
X333745Y257242D01*
X333924Y257410D01*
X334108Y257572D01*
X334296Y257730D01*
X334488Y257883D01*
X334683Y258032D01*
X334882Y258176D01*
X335084Y258315D01*
X335290Y258449D01*
X335499Y258577D01*
X335711Y258701D01*
X335926Y258819D01*
X336144Y258932D01*
X336364Y259040D01*
X336588Y259142D01*
X336813Y259239D01*
X337041Y259330D01*
X337271Y259415D01*
X337503Y259495D01*
X337737Y259569D01*
X337973Y259638D01*
X338210Y259700D01*
X338449Y259757D01*
X338689Y259808D01*
X338930Y259853D01*
X339173Y259892D01*
X339416Y259925D01*
X339660Y259952D01*
X339904Y259973D01*
X340149Y259988D01*
X340395Y259997D01*
X340640Y260000D01*
X340885Y259997D01*
X341131Y259988D01*
X341376Y259973D01*
X341620Y259952D01*
X341864Y259925D01*
X342107Y259892D01*
X342350Y259853D01*
X342591Y259808D01*
X342831Y259757D01*
X343070Y259700D01*
X343307Y259638D01*
X343543Y259569D01*
X343777Y259495D01*
X344009Y259415D01*
X344239Y259330D01*
X344467Y259239D01*
X344692Y259142D01*
X344916Y259040D01*
X345136Y258932D01*
X345354Y258819D01*
X345569Y258701D01*
X345781Y258577D01*
X345990Y258449D01*
X346196Y258315D01*
X346398Y258176D01*
X346597Y258032D01*
X346792Y257883D01*
X346984Y257730D01*
X347172Y257572D01*
X347356Y257410D01*
X347535Y257242D01*
X347711Y257071D01*
X347882Y256895D01*
X348050Y256716D01*
X348212Y256532D01*
X348370Y256344D01*
X348523Y256152D01*
X348672Y255957D01*
X348816Y255758D01*
X348955Y255556D01*
X349089Y255350D01*
X349217Y255141D01*
X349341Y254929D01*
X349459Y254714D01*
X349572Y254496D01*
X349680Y254276D01*
X349782Y254052D01*
X349879Y253827D01*
X349970Y253599D01*
X350055Y253369D01*
X350135Y253137D01*
X350209Y252903D01*
X350278Y252667D01*
X350340Y252430D01*
X350397Y252191D01*
X350448Y251951D01*
X350493Y251710D01*
X350532Y251467D01*
X350565Y251224D01*
X350592Y250980D01*
X350613Y250736D01*
X350628Y250491D01*
X350637Y250245D01*
X350640Y250000D01*
X350637Y249755D01*
X350628Y249509D01*
X350613Y249264D01*
X350592Y249020D01*
X350565Y248776D01*
X350532Y248533D01*
X350493Y248290D01*
X350448Y248049D01*
X350397Y247809D01*
X350340Y247570D01*
X350278Y247333D01*
X350209Y247097D01*
X350135Y246863D01*
X350055Y246631D01*
X349970Y246401D01*
X349879Y246173D01*
X349782Y245948D01*
X349680Y245724D01*
X349572Y245504D01*
X349459Y245286D01*
X349341Y245071D01*
X349217Y244859D01*
X349089Y244650D01*
X348955Y244444D01*
X348816Y244242D01*
X348672Y244043D01*
X348523Y243848D01*
X348370Y243656D01*
X348212Y243468D01*
X348050Y243284D01*
X347882Y243105D01*
X347711Y242929D01*
X347535Y242758D01*
X347356Y242590D01*
X347172Y242428D01*
X346984Y242270D01*
X346792Y242117D01*
X346597Y241968D01*
X346398Y241824D01*
X346196Y241685D01*
X345990Y241551D01*
X345781Y241423D01*
X345569Y241299D01*
X345354Y241181D01*
X345136Y241068D01*
X344916Y240960D01*
X344692Y240858D01*
X344467Y240761D01*
X344239Y240670D01*
X344009Y240585D01*
X343777Y240505D01*
X343543Y240431D01*
X343307Y240362D01*
X343070Y240300D01*
X342831Y240243D01*
X342591Y240192D01*
X342350Y240147D01*
X342107Y240108D01*
X341864Y240075D01*
X341620Y240048D01*
X341376Y240027D01*
X341131Y240012D01*
X340885Y240003D01*
X340640Y240000D01*
X340395Y240003D01*
X340149Y240012D01*
X339904Y240027D01*
X339660Y240048D01*
X339416Y240075D01*
X339173Y240108D01*
X338930Y240147D01*
X338689Y240192D01*
X338449Y240243D01*
X338210Y240300D01*
X337973Y240362D01*
X337737Y240431D01*
X337503Y240505D01*
X337271Y240585D01*
X337041Y240670D01*
X336813Y240761D01*
X336588Y240858D01*
X336364Y240960D01*
X336144Y241068D01*
X335926Y241181D01*
X335711Y241299D01*
X335499Y241423D01*
X335290Y241551D01*
X335084Y241685D01*
X334882Y241824D01*
X334683Y241968D01*
X334488Y242117D01*
X334296Y242270D01*
X334108Y242428D01*
X333924Y242590D01*
X333745Y242758D01*
X333569Y242929D01*
X333398Y243105D01*
X333230Y243284D01*
X333068Y243468D01*
X332910Y243656D01*
X332757Y243848D01*
X332608Y244043D01*
X332464Y244242D01*
X332325Y244444D01*
X332191Y244650D01*
X332063Y244859D01*
X331939Y245071D01*
X331821Y245286D01*
X331708Y245504D01*
X331600Y245724D01*
X331498Y245948D01*
X331401Y246173D01*
X331310Y246401D01*
X331225Y246631D01*
X331145Y246863D01*
X331071Y247097D01*
X331002Y247333D01*
X330940Y247570D01*
X330883Y247809D01*
X330832Y248049D01*
X330787Y248290D01*
X330748Y248533D01*
X330715Y248776D01*
X330688Y249020D01*
X330667Y249264D01*
X330652Y249509D01*
X330643Y249755D01*
X330640Y250000D01*
X625080Y250000D02*
X625083Y250245D01*
X625092Y250491D01*
X625107Y250736D01*
X625128Y250980D01*
X625155Y251224D01*
X625188Y251467D01*
X625227Y251710D01*
X625272Y251951D01*
X625323Y252191D01*
X625380Y252430D01*
X625442Y252667D01*
X625511Y252903D01*
X625585Y253137D01*
X625665Y253369D01*
X625750Y253599D01*
X625841Y253827D01*
X625938Y254052D01*
X626040Y254276D01*
X626148Y254496D01*
X626261Y254714D01*
X626379Y254929D01*
X626503Y255141D01*
X626631Y255350D01*
X626765Y255556D01*
X626904Y255758D01*
X627048Y255957D01*
X627197Y256152D01*
X627350Y256344D01*
X627508Y256532D01*
X627670Y256716D01*
X627838Y256895D01*
X628009Y257071D01*
X628185Y257242D01*
X628364Y257410D01*
X628548Y257572D01*
X628736Y257730D01*
X628928Y257883D01*
X629123Y258032D01*
X629322Y258176D01*
X629524Y258315D01*
X629730Y258449D01*
X629939Y258577D01*
X630151Y258701D01*
X630366Y258819D01*
X630584Y258932D01*
X630804Y259040D01*
X631028Y259142D01*
X631253Y259239D01*
X631481Y259330D01*
X631711Y259415D01*
X631943Y259495D01*
X632177Y259569D01*
X632413Y259638D01*
X632650Y259700D01*
X632889Y259757D01*
X633129Y259808D01*
X633370Y259853D01*
X633613Y259892D01*
X633856Y259925D01*
X634100Y259952D01*
X634344Y259973D01*
X634589Y259988D01*
X634835Y259997D01*
X635080Y260000D01*
X635325Y259997D01*
X635571Y259988D01*
X635816Y259973D01*
X636060Y259952D01*
X636304Y259925D01*
X636547Y259892D01*
X636790Y259853D01*
X637031Y259808D01*
X637271Y259757D01*
X637510Y259700D01*
X637747Y259638D01*
X637983Y259569D01*
X638217Y259495D01*
X638449Y259415D01*
X638679Y259330D01*
X638907Y259239D01*
X639132Y259142D01*
X639356Y259040D01*
X639576Y258932D01*
X639794Y258819D01*
X640009Y258701D01*
X640221Y258577D01*
X640430Y258449D01*
X640636Y258315D01*
X640838Y258176D01*
X641037Y258032D01*
X641232Y257883D01*
X641424Y257730D01*
X641612Y257572D01*
X641796Y257410D01*
X641975Y257242D01*
X642151Y257071D01*
X642322Y256895D01*
X642490Y256716D01*
X642652Y256532D01*
X642810Y256344D01*
X642963Y256152D01*
X643112Y255957D01*
X643256Y255758D01*
X643395Y255556D01*
X643529Y255350D01*
X643657Y255141D01*
X643781Y254929D01*
X643899Y254714D01*
X644012Y254496D01*
X644120Y254276D01*
X644222Y254052D01*
X644319Y253827D01*
X644410Y253599D01*
X644495Y253369D01*
X644575Y253137D01*
X644649Y252903D01*
X644718Y252667D01*
X644780Y252430D01*
X644837Y252191D01*
X644888Y251951D01*
X644933Y251710D01*
X644972Y251467D01*
X645005Y251224D01*
X645032Y250980D01*
X645053Y250736D01*
X645068Y250491D01*
X645077Y250245D01*
X645080Y250000D01*
X645077Y249755D01*
X645068Y249509D01*
X645053Y249264D01*
X645032Y249020D01*
X645005Y248776D01*
X644972Y248533D01*
X644933Y248290D01*
X644888Y248049D01*
X644837Y247809D01*
X644780Y247570D01*
X644718Y247333D01*
X644649Y247097D01*
X644575Y246863D01*
X644495Y246631D01*
X644410Y246401D01*
X644319Y246173D01*
X644222Y245948D01*
X644120Y245724D01*
X644012Y245504D01*
X643899Y245286D01*
X643781Y245071D01*
X643657Y244859D01*
X643529Y244650D01*
X643395Y244444D01*
X643256Y244242D01*
X643112Y244043D01*
X642963Y243848D01*
X642810Y243656D01*
X642652Y243468D01*
X642490Y243284D01*
X642322Y243105D01*
X642151Y242929D01*
X641975Y242758D01*
X641796Y242590D01*
X641612Y242428D01*
X641424Y242270D01*
X641232Y242117D01*
X641037Y241968D01*
X640838Y241824D01*
X640636Y241685D01*
X640430Y241551D01*
X640221Y241423D01*
X640009Y241299D01*
X639794Y241181D01*
X639576Y241068D01*
X639356Y240960D01*
X639132Y240858D01*
X638907Y240761D01*
X638679Y240670D01*
X638449Y240585D01*
X638217Y240505D01*
X637983Y240431D01*
X637747Y240362D01*
X637510Y240300D01*
X637271Y240243D01*
X637031Y240192D01*
X636790Y240147D01*
X636547Y240108D01*
X636304Y240075D01*
X636060Y240048D01*
X635816Y240027D01*
X635571Y240012D01*
X635325Y240003D01*
X635080Y240000D01*
X634835Y240003D01*
X634589Y240012D01*
X634344Y240027D01*
X634100Y240048D01*
X633856Y240075D01*
X633613Y240108D01*
X633370Y240147D01*
X633129Y240192D01*
X632889Y240243D01*
X632650Y240300D01*
X632413Y240362D01*
X632177Y240431D01*
X631943Y240505D01*
X631711Y240585D01*
X631481Y240670D01*
X631253Y240761D01*
X631028Y240858D01*
X630804Y240960D01*
X630584Y241068D01*
X630366Y241181D01*
X630151Y241299D01*
X629939Y241423D01*
X629730Y241551D01*
X629524Y241685D01*
X629322Y241824D01*
X629123Y241968D01*
X628928Y242117D01*
X628736Y242270D01*
X628548Y242428D01*
X628364Y242590D01*
X628185Y242758D01*
X628009Y242929D01*
X627838Y243105D01*
X627670Y243284D01*
X627508Y243468D01*
X627350Y243656D01*
X627197Y243848D01*
X627048Y244043D01*
X626904Y244242D01*
X626765Y244444D01*
X626631Y244650D01*
X626503Y244859D01*
X626379Y245071D01*
X626261Y245286D01*
X626148Y245504D01*
X626040Y245724D01*
X625938Y245948D01*
X625841Y246173D01*
X625750Y246401D01*
X625665Y246631D01*
X625585Y246863D01*
X625511Y247097D01*
X625442Y247333D01*
X625380Y247570D01*
X625323Y247809D01*
X625272Y248049D01*
X625227Y248290D01*
X625188Y248533D01*
X625155Y248776D01*
X625128Y249020D01*
X625107Y249264D01*
X625092Y249509D01*
X625083Y249755D01*
X625080Y250000D01*
X477860Y505000D02*
X477863Y505245D01*
X477872Y505491D01*
X477887Y505736D01*
X477908Y505980D01*
X477935Y506224D01*
X477968Y506467D01*
X478007Y506710D01*
X478052Y506951D01*
X478103Y507191D01*
X478160Y507430D01*
X478222Y507667D01*
X478291Y507903D01*
X478365Y508137D01*
X478445Y508369D01*
X478530Y508599D01*
X478621Y508827D01*
X478718Y509052D01*
X478820Y509276D01*
X478928Y509496D01*
X479041Y509714D01*
X479159Y509929D01*
X479283Y510141D01*
X479411Y510350D01*
X479545Y510556D01*
X479684Y510758D01*
X479828Y510957D01*
X479977Y511152D01*
X480130Y511344D01*
X480288Y511532D01*
X480450Y511716D01*
X480618Y511895D01*
X480789Y512071D01*
X480965Y512242D01*
X481144Y512410D01*
X481328Y512572D01*
X481516Y512730D01*
X481708Y512883D01*
X481903Y513032D01*
X482102Y513176D01*
X482304Y513315D01*
X482510Y513449D01*
X482719Y513577D01*
X482931Y513701D01*
X483146Y513819D01*
X483364Y513932D01*
X483584Y514040D01*
X483808Y514142D01*
X484033Y514239D01*
X484261Y514330D01*
X484491Y514415D01*
X484723Y514495D01*
X484957Y514569D01*
X485193Y514638D01*
X485430Y514700D01*
X485669Y514757D01*
X485909Y514808D01*
X486150Y514853D01*
X486393Y514892D01*
X486636Y514925D01*
X486880Y514952D01*
X487124Y514973D01*
X487369Y514988D01*
X487615Y514997D01*
X487860Y515000D01*
X488105Y514997D01*
X488351Y514988D01*
X488596Y514973D01*
X488840Y514952D01*
X489084Y514925D01*
X489327Y514892D01*
X489570Y514853D01*
X489811Y514808D01*
X490051Y514757D01*
X490290Y514700D01*
X490527Y514638D01*
X490763Y514569D01*
X490997Y514495D01*
X491229Y514415D01*
X491459Y514330D01*
X491687Y514239D01*
X491912Y514142D01*
X492136Y514040D01*
X492356Y513932D01*
X492574Y513819D01*
X492789Y513701D01*
X493001Y513577D01*
X493210Y513449D01*
X493416Y513315D01*
X493618Y513176D01*
X493817Y513032D01*
X494012Y512883D01*
X494204Y512730D01*
X494392Y512572D01*
X494576Y512410D01*
X494755Y512242D01*
X494931Y512071D01*
X495102Y511895D01*
X495270Y511716D01*
X495432Y511532D01*
X495590Y511344D01*
X495743Y511152D01*
X495892Y510957D01*
X496036Y510758D01*
X496175Y510556D01*
X496309Y510350D01*
X496437Y510141D01*
X496561Y509929D01*
X496679Y509714D01*
X496792Y509496D01*
X496900Y509276D01*
X497002Y509052D01*
X497099Y508827D01*
X497190Y508599D01*
X497275Y508369D01*
X497355Y508137D01*
X497429Y507903D01*
X497498Y507667D01*
X497560Y507430D01*
X497617Y507191D01*
X497668Y506951D01*
X497713Y506710D01*
X497752Y506467D01*
X497785Y506224D01*
X497812Y505980D01*
X497833Y505736D01*
X497848Y505491D01*
X497857Y505245D01*
X497860Y505000D01*
X497857Y504755D01*
X497848Y504509D01*
X497833Y504264D01*
X497812Y504020D01*
X497785Y503776D01*
X497752Y503533D01*
X497713Y503290D01*
X497668Y503049D01*
X497617Y502809D01*
X497560Y502570D01*
X497498Y502333D01*
X497429Y502097D01*
X497355Y501863D01*
X497275Y501631D01*
X497190Y501401D01*
X497099Y501173D01*
X497002Y500948D01*
X496900Y500724D01*
X496792Y500504D01*
X496679Y500286D01*
X496561Y500071D01*
X496437Y499859D01*
X496309Y499650D01*
X496175Y499444D01*
X496036Y499242D01*
X495892Y499043D01*
X495743Y498848D01*
X495590Y498656D01*
X495432Y498468D01*
X495270Y498284D01*
X495102Y498105D01*
X494931Y497929D01*
X494755Y497758D01*
X494576Y497590D01*
X494392Y497428D01*
X494204Y497270D01*
X494012Y497117D01*
X493817Y496968D01*
X493618Y496824D01*
X493416Y496685D01*
X493210Y496551D01*
X493001Y496423D01*
X492789Y496299D01*
X492574Y496181D01*
X492356Y496068D01*
X492136Y495960D01*
X491912Y495858D01*
X491687Y495761D01*
X491459Y495670D01*
X491229Y495585D01*
X490997Y495505D01*
X490763Y495431D01*
X490527Y495362D01*
X490290Y495300D01*
X490051Y495243D01*
X489811Y495192D01*
X489570Y495147D01*
X489327Y495108D01*
X489084Y495075D01*
X488840Y495048D01*
X488596Y495027D01*
X488351Y495012D01*
X488105Y495003D01*
X487860Y495000D01*
X487615Y495003D01*
X487369Y495012D01*
X487124Y495027D01*
X486880Y495048D01*
X486636Y495075D01*
X486393Y495108D01*
X486150Y495147D01*
X485909Y495192D01*
X485669Y495243D01*
X485430Y495300D01*
X485193Y495362D01*
X484957Y495431D01*
X484723Y495505D01*
X484491Y495585D01*
X484261Y495670D01*
X484033Y495761D01*
X483808Y495858D01*
X483584Y495960D01*
X483364Y496068D01*
X483146Y496181D01*
X482931Y496299D01*
X482719Y496423D01*
X482510Y496551D01*
X482304Y496685D01*
X482102Y496824D01*
X481903Y496968D01*
X481708Y497117D01*
X481516Y497270D01*
X481328Y497428D01*
X481144Y497590D01*
X480965Y497758D01*
X480789Y497929D01*
X480618Y498105D01*
X480450Y498284D01*
X480288Y498468D01*
X480130Y498656D01*
X479977Y498848D01*
X479828Y499043D01*
X479684Y499242D01*
X479545Y499444D01*
X479411Y499650D01*
X479283Y499859D01*
X479159Y500071D01*
X479041Y500286D01*
X478928Y500504D01*
X478820Y500724D01*
X478718Y500948D01*
X478621Y501173D01*
X478530Y501401D01*
X478445Y501631D01*
X478365Y501863D01*
X478291Y502097D01*
X478222Y502333D01*
X478160Y502570D01*
X478103Y502809D01*
X478052Y503049D01*
X478007Y503290D01*
X477968Y503533D01*
X477935Y503776D01*
X477908Y504020D01*
X477887Y504264D01*
X477872Y504509D01*
X477863Y504755D01*
X477860Y505000D01*
X162037Y355804D02*
X173306Y298482D01*
X173433Y297794D01*
X173543Y297103D01*
X173636Y296409D01*
X173713Y295714D01*
X173773Y295017D01*
X173816Y294318D01*
X173842Y293619D01*
X173851Y292919D01*
X173843Y292219D01*
X173819Y291520D01*
X173777Y290821D01*
X173719Y290124D01*
X173644Y289428D01*
X173552Y288734D01*
X173443Y288043D01*
X173318Y287355D01*
X173176Y286669D01*
X173018Y285988D01*
X172843Y285310D01*
X172652Y284637D01*
X172445Y283968D01*
X172222Y283305D01*
X171983Y282647D01*
X171728Y281996D01*
X171457Y281350D01*
X171171Y280712D01*
X170870Y280080D01*
X170553Y279456D01*
X170221Y278840D01*
X169875Y278232D01*
X169514Y277632D01*
X169139Y277042D01*
X168749Y276460D01*
X190661Y238508D01*
X190662Y238509D02*
X190780Y238298D01*
X190893Y238084D01*
X191001Y237868D01*
X191104Y237649D01*
X191201Y237428D01*
X191293Y237205D01*
X191380Y236979D01*
X191461Y236751D01*
X191536Y236522D01*
X191606Y236291D01*
X191671Y236058D01*
X191730Y235823D01*
X191783Y235588D01*
X191830Y235351D01*
X191872Y235113D01*
X191907Y234874D01*
X191938Y234634D01*
X191962Y234393D01*
X191980Y234152D01*
X191993Y233911D01*
X192000Y233670D01*
X192001Y233428D01*
X191996Y233186D01*
X191985Y232945D01*
X191969Y232704D01*
X191946Y232463D01*
X191918Y232223D01*
X191884Y231984D01*
X191844Y231746D01*
X191799Y231508D01*
X191748Y231272D01*
X191691Y231037D01*
X191628Y230804D01*
X191560Y230572D01*
X191486Y230342D01*
X191407Y230114D01*
X191322Y229887D01*
X191232Y229663D01*
X191136Y229441D01*
X191035Y229222D01*
X190929Y229005D01*
X190818Y228790D01*
X190701Y228578D01*
X190579Y228370D01*
X190453Y228164D01*
X190321Y227961D01*
X190184Y227762D01*
X190043Y227566D01*
X189897Y227373D01*
X189747Y227184D01*
X189592Y226999D01*
X189432Y226817D01*
X189268Y226640D01*
X189100Y226466D01*
X188928Y226297D01*
X188752Y226131D01*
X188571Y225970D01*
X188387Y225814D01*
X188199Y225662D01*
X188008Y225514D01*
X187813Y225371D01*
X187615Y225233D01*
X187413Y225100D01*
X187208Y224972D01*
X187001Y224848D01*
X187000Y224848D02*
X182701Y222365D01*
X182701Y222366D02*
X182491Y222248D01*
X182277Y222134D01*
X182061Y222026D01*
X181842Y221924D01*
X181621Y221826D01*
X181398Y221734D01*
X181172Y221648D01*
X180944Y221567D01*
X180715Y221491D01*
X180483Y221421D01*
X180251Y221356D01*
X180016Y221298D01*
X179780Y221245D01*
X179543Y221197D01*
X179305Y221156D01*
X179066Y221120D01*
X178827Y221090D01*
X178586Y221065D01*
X178345Y221047D01*
X178104Y221034D01*
X177862Y221027D01*
X177621Y221026D01*
X177379Y221031D01*
X177138Y221042D01*
X176897Y221058D01*
X176656Y221081D01*
X176416Y221109D01*
X176177Y221143D01*
X175938Y221183D01*
X175701Y221228D01*
X175465Y221279D01*
X175230Y221336D01*
X174997Y221399D01*
X174765Y221467D01*
X174535Y221541D01*
X174306Y221620D01*
X174080Y221705D01*
X173856Y221795D01*
X173634Y221890D01*
X173414Y221991D01*
X173197Y222098D01*
X172983Y222209D01*
X172771Y222326D01*
X172562Y222447D01*
X172357Y222574D01*
X172154Y222706D01*
X171954Y222842D01*
X171758Y222983D01*
X171566Y223129D01*
X171377Y223280D01*
X171191Y223435D01*
X171010Y223594D01*
X170832Y223758D01*
X170659Y223926D01*
X170489Y224099D01*
X170324Y224275D01*
X170163Y224455D01*
X170006Y224639D01*
X169854Y224827D01*
X169707Y225018D01*
X169564Y225213D01*
X169426Y225412D01*
X169293Y225613D01*
X169164Y225818D01*
X169041Y226026D01*
X169040Y226025D02*
X147129Y263978D01*
X147129Y263979D02*
X146436Y263932D01*
X145743Y263903D01*
X145048Y263890D01*
X144354Y263893D01*
X143659Y263914D01*
X142966Y263950D01*
X142273Y264004D01*
X141582Y264074D01*
X140893Y264160D01*
X140206Y264264D01*
X139522Y264383D01*
X138841Y264519D01*
X138163Y264671D01*
X137490Y264839D01*
X136820Y265023D01*
X136155Y265224D01*
X135495Y265440D01*
X134840Y265672D01*
X134191Y265920D01*
X133549Y266183D01*
X132912Y266461D01*
X132283Y266754D01*
X131661Y267063D01*
X131046Y267386D01*
X130439Y267724D01*
X129841Y268077D01*
X129840Y268076D02*
X79856Y298314D01*
X0Y160000D01*
X92376Y0D01*
X252087Y0D01*
X250892Y58407D01*
X250891Y58407D02*
X250885Y59102D01*
X250896Y59796D01*
X250923Y60490D01*
X250967Y61183D01*
X251028Y61875D01*
X251105Y62565D01*
X251199Y63253D01*
X251309Y63939D01*
X251435Y64622D01*
X251578Y65302D01*
X251737Y65978D01*
X251912Y66650D01*
X252103Y67318D01*
X252311Y67981D01*
X252534Y68638D01*
X252772Y69291D01*
X253026Y69937D01*
X253296Y70577D01*
X253581Y71210D01*
X253881Y71837D01*
X254196Y72456D01*
X254525Y73067D01*
X254869Y73670D01*
X255228Y74265D01*
X255601Y74851D01*
X255987Y75428D01*
X255988Y75428D02*
X234076Y113381D01*
X233958Y113592D01*
X233844Y113805D01*
X233736Y114021D01*
X233634Y114240D01*
X233536Y114461D01*
X233444Y114685D01*
X233358Y114910D01*
X233276Y115138D01*
X233201Y115367D01*
X233131Y115599D01*
X233066Y115832D01*
X233008Y116066D01*
X232955Y116302D01*
X232907Y116539D01*
X232866Y116777D01*
X232830Y117016D01*
X232800Y117256D01*
X232775Y117496D01*
X232757Y117737D01*
X232744Y117978D01*
X232737Y118220D01*
X232736Y118461D01*
X232741Y118703D01*
X232752Y118944D01*
X232768Y119186D01*
X232791Y119426D01*
X232819Y119666D01*
X232853Y119905D01*
X232893Y120144D01*
X232938Y120381D01*
X232989Y120617D01*
X233046Y120852D01*
X233109Y121086D01*
X233177Y121317D01*
X233251Y121548D01*
X233330Y121776D01*
X233415Y122002D01*
X233505Y122226D01*
X233600Y122448D01*
X233701Y122668D01*
X233808Y122885D01*
X233919Y123099D01*
X234036Y123311D01*
X234157Y123520D01*
X234284Y123726D01*
X234416Y123928D01*
X234552Y124128D01*
X234693Y124324D01*
X234839Y124516D01*
X234990Y124705D01*
X235145Y124891D01*
X235304Y125072D01*
X235468Y125250D01*
X235636Y125423D01*
X235809Y125593D01*
X235985Y125758D01*
X236165Y125919D01*
X236349Y126076D01*
X236537Y126228D01*
X236728Y126375D01*
X236923Y126518D01*
X237122Y126656D01*
X237323Y126790D01*
X237528Y126918D01*
X237736Y127041D01*
X242036Y129523D01*
X242250Y129643D01*
X242467Y129758D01*
X242687Y129868D01*
X242909Y129972D01*
X243134Y130070D01*
X243361Y130163D01*
X243590Y130251D01*
X243821Y130332D01*
X244055Y130408D01*
X244290Y130479D01*
X244527Y130543D01*
X244765Y130602D01*
X245005Y130655D01*
X245246Y130701D01*
X245488Y130742D01*
X245731Y130777D01*
X245974Y130806D01*
X246219Y130830D01*
X246464Y130847D01*
X246709Y130858D01*
X246954Y130863D01*
X247199Y130862D01*
X247445Y130855D01*
X247690Y130842D01*
X247935Y130823D01*
X248179Y130797D01*
X248422Y130766D01*
X248665Y130729D01*
X248906Y130687D01*
X249147Y130638D01*
X249386Y130583D01*
X249624Y130522D01*
X249860Y130456D01*
X250095Y130384D01*
X250328Y130306D01*
X250558Y130222D01*
X250787Y130133D01*
X251013Y130038D01*
X251237Y129938D01*
X251459Y129832D01*
X251678Y129721D01*
X251894Y129604D01*
X252107Y129482D01*
X252317Y129355D01*
X252523Y129223D01*
X252727Y129086D01*
X252927Y128944D01*
X253124Y128797D01*
X253316Y128645D01*
X253505Y128488D01*
X253691Y128327D01*
X253872Y128162D01*
X254049Y127992D01*
X254222Y127818D01*
X254390Y127639D01*
X254554Y127457D01*
X254714Y127270D01*
X254869Y127080D01*
X255019Y126886D01*
X255164Y126688D01*
X255305Y126487D01*
X255440Y126282D01*
X255571Y126074D01*
X255696Y125863D01*
X277608Y87910D01*
X278306Y87957D01*
X279005Y87987D01*
X279705Y87999D01*
X280405Y87995D01*
X281104Y87974D01*
X281803Y87937D01*
X282501Y87882D01*
X283197Y87810D01*
X283891Y87722D01*
X284583Y87617D01*
X285272Y87495D01*
X285958Y87357D01*
X286640Y87202D01*
X287319Y87031D01*
X287993Y86844D01*
X288663Y86640D01*
X289327Y86420D01*
X289986Y86184D01*
X290639Y85933D01*
X291286Y85666D01*
X291926Y85383D01*
X292559Y85084D01*
X293184Y84771D01*
X293802Y84443D01*
X294412Y84100D01*
X295014Y83742D01*
X295606Y83369D01*
X296190Y82983D01*
X296764Y82583D01*
X297328Y82169D01*
X297882Y81741D01*
X298425Y81300D01*
X298958Y80846D01*
X342966Y42426D01*
X632756Y42426D01*
X676764Y80846D01*
X677300Y81303D01*
X677848Y81747D01*
X678406Y82177D01*
X678974Y82594D01*
X679553Y82997D01*
X680141Y83386D01*
X680738Y83760D01*
X681344Y84119D01*
X681959Y84464D01*
X682582Y84794D01*
X683213Y85108D01*
X683851Y85407D01*
X684496Y85691D01*
X685148Y85959D01*
X685806Y86210D01*
X686471Y86446D01*
X687140Y86666D01*
X687815Y86869D01*
X688495Y87055D01*
X689179Y87226D01*
X689867Y87379D01*
X690558Y87516D01*
X691253Y87636D01*
X691950Y87738D01*
X692650Y87824D01*
X693351Y87893D01*
X694054Y87945D01*
X694758Y87980D01*
X695463Y87998D01*
X696168Y87998D01*
X696872Y87981D01*
X697576Y87948D01*
X698279Y87897D01*
X698981Y87829D01*
X699680Y87744D01*
X700378Y87642D01*
X701073Y87523D01*
X701764Y87388D01*
X702452Y87235D01*
X703137Y87066D01*
X703816Y86880D01*
X704492Y86678D01*
X705162Y86460D01*
X705826Y86225D01*
X706485Y85974D01*
X707137Y85707D01*
X707783Y85425D01*
X708422Y85127D01*
X709053Y84813D01*
X709676Y84484D01*
X710292Y84140D01*
X710898Y83782D01*
X711496Y83408D01*
X712085Y83020D01*
X712664Y82618D01*
X713233Y82202D01*
X713791Y81773D01*
X714340Y81330D01*
X714877Y80873D01*
X715403Y80404D01*
X715917Y79922D01*
X716420Y79428D01*
X716910Y78922D01*
X717388Y78404D01*
X717853Y77874D01*
X718305Y77334D01*
X718744Y76782D01*
X719170Y76220D01*
X719581Y75648D01*
X719979Y75066D01*
X720362Y74475D01*
X720731Y73874D01*
X721085Y73265D01*
X721424Y72647D01*
X721748Y72021D01*
X722057Y71387D01*
X722351Y70746D01*
X722628Y70099D01*
X722890Y69444D01*
X723136Y68784D01*
X723366Y68117D01*
X723579Y67446D01*
X723776Y66769D01*
X723957Y66088D01*
X724121Y65402D01*
X724268Y64713D01*
X724398Y64020D01*
X724512Y63325D01*
X724608Y62626D01*
X724688Y61926D01*
X724751Y61224D01*
X724796Y60521D01*
X724825Y59816D01*
X724836Y59112D01*
X724830Y58407D01*
X723635Y0D01*
X883346Y0D01*
X975722Y160000D01*
X895866Y298314D01*
X845882Y268076D01*
X845882Y268075D02*
X845275Y267718D01*
X844659Y267375D01*
X844035Y267048D01*
X843403Y266735D01*
X842763Y266439D01*
X842117Y266157D01*
X841464Y265892D01*
X840805Y265643D01*
X840140Y265409D01*
X839469Y265192D01*
X838794Y264991D01*
X838113Y264807D01*
X837429Y264639D01*
X836740Y264488D01*
X836048Y264354D01*
X835353Y264237D01*
X834656Y264136D01*
X833956Y264053D01*
X833254Y263986D01*
X832551Y263937D01*
X831847Y263904D01*
X831142Y263889D01*
X830438Y263891D01*
X829733Y263910D01*
X829029Y263947D01*
X828326Y264000D01*
X827625Y264070D01*
X826926Y264158D01*
X826229Y264262D01*
X825534Y264383D01*
X824843Y264521D01*
X824156Y264676D01*
X823472Y264848D01*
X822793Y265036D01*
X822118Y265240D01*
X821449Y265461D01*
X820785Y265698D01*
X820127Y265952D01*
X819476Y266221D01*
X818831Y266505D01*
X818194Y266806D01*
X817563Y267122D01*
X816941Y267453D01*
X816327Y267799D01*
X815722Y268160D01*
X815125Y268535D01*
X814538Y268925D01*
X813960Y269329D01*
X813393Y269747D01*
X812836Y270178D01*
X812289Y270623D01*
X811754Y271082D01*
X811229Y271553D01*
X810717Y272036D01*
X810216Y272532D01*
X809727Y273040D01*
X809251Y273560D01*
X808788Y274091D01*
X808337Y274633D01*
X807900Y275186D01*
X807477Y275750D01*
X807067Y276323D01*
X806672Y276907D01*
X806291Y277500D01*
X805924Y278101D01*
X805572Y278712D01*
X805235Y279331D01*
X804913Y279958D01*
X804606Y280593D01*
X804315Y281235D01*
X804040Y281884D01*
X803781Y282539D01*
X803537Y283200D01*
X803310Y283867D01*
X803099Y284540D01*
X802904Y285217D01*
X802726Y285899D01*
X802564Y286585D01*
X802419Y287275D01*
X802291Y287968D01*
X802180Y288664D01*
X802086Y289363D01*
X802009Y290063D01*
X801949Y290766D01*
X801906Y291469D01*
X801880Y292173D01*
X801871Y292878D01*
X801879Y293583D01*
X801905Y294287D01*
X801947Y294991D01*
X802007Y295693D01*
X802084Y296394D01*
X802177Y297092D01*
X802288Y297788D01*
X802416Y298482D01*
X813685Y355804D01*
X668790Y606770D01*
X613513Y625672D01*
X612849Y625908D01*
X612191Y626160D01*
X611539Y626428D01*
X610894Y626712D01*
X610256Y627012D01*
X609625Y627327D01*
X609002Y627657D01*
X608388Y628002D01*
X607782Y628362D01*
X607185Y628737D01*
X606597Y629126D01*
X606019Y629529D01*
X605451Y629946D01*
X604893Y630377D01*
X604346Y630821D01*
X603810Y631278D01*
X603285Y631749D01*
X602771Y632232D01*
X602270Y632727D01*
X601780Y633234D01*
X601303Y633753D01*
X600839Y634284D01*
X600388Y634825D01*
X599951Y635378D01*
X599526Y635941D01*
X599116Y636514D01*
X598720Y637096D01*
X598338Y637689D01*
X597970Y638290D01*
X597617Y638900D01*
X597279Y639519D01*
X596956Y640145D01*
X596649Y640779D01*
X596357Y641421D01*
X596081Y642069D01*
X595820Y642724D01*
X595576Y643385D01*
X595347Y644052D01*
X595135Y644724D01*
X594940Y645402D01*
X594761Y646083D01*
X594598Y646769D01*
X594452Y647459D01*
X594323Y648152D01*
X594211Y648847D01*
X594116Y649546D01*
X594038Y650246D01*
X593977Y650948D01*
X593933Y651652D01*
X593906Y652356D01*
X593896Y653061D01*
X593903Y653766D01*
X593928Y654470D01*
X593969Y655174D01*
X594028Y655876D01*
X594104Y656577D01*
X594196Y657276D01*
X594306Y657972D01*
X594433Y658665D01*
X594576Y659355D01*
X594736Y660042D01*
X594913Y660724D01*
X595106Y661402D01*
X595316Y662075D01*
X595542Y662742D01*
X595784Y663404D01*
X596042Y664060D01*
X596316Y664710D01*
X596606Y665352D01*
X596911Y665987D01*
X597231Y666615D01*
X597567Y667235D01*
X597918Y667846D01*
X598283Y668449D01*
X598663Y669042D01*
X599058Y669627D01*
X599466Y670201D01*
X599888Y670765D01*
X600324Y671319D01*
X600773Y671863D01*
X601235Y672395D01*
X601711Y672915D01*
X602198Y673424D01*
X602698Y673921D01*
X603209Y674406D01*
X603733Y674878D01*
X604267Y675338D01*
X604813Y675784D01*
X605369Y676217D01*
X605936Y676636D01*
X606513Y677041D01*
X607099Y677432D01*
X607695Y677809D01*
X608300Y678171D01*
X608913Y678518D01*
X660093Y706686D01*
X580237Y845000D01*
X395485Y845000D01*
X315629Y706686D01*
X366809Y678518D01*
X367422Y678171D01*
X368027Y677809D01*
X368623Y677432D01*
X369209Y677041D01*
X369786Y676636D01*
X370353Y676217D01*
X370909Y675784D01*
X371455Y675338D01*
X371989Y674878D01*
X372513Y674406D01*
X373024Y673921D01*
X373524Y673424D01*
X374011Y672915D01*
X374487Y672395D01*
X374949Y671863D01*
X375398Y671319D01*
X375834Y670765D01*
X376256Y670201D01*
X376664Y669627D01*
X377059Y669042D01*
X377439Y668449D01*
X377804Y667846D01*
X378155Y667235D01*
X378491Y666615D01*
X378811Y665987D01*
X379116Y665352D01*
X379406Y664710D01*
X379680Y664060D01*
X379938Y663404D01*
X380180Y662742D01*
X380406Y662075D01*
X380616Y661402D01*
X380809Y660724D01*
X380986Y660042D01*
X381146Y659355D01*
X381289Y658665D01*
X381416Y657972D01*
X381526Y657276D01*
X381618Y656577D01*
X381694Y655876D01*
X381753Y655174D01*
X381794Y654470D01*
X381819Y653766D01*
X381826Y653061D01*
X381816Y652356D01*
X381789Y651652D01*
X381745Y650948D01*
X381684Y650246D01*
X381606Y649546D01*
X381511Y648847D01*
X381399Y648152D01*
X381270Y647459D01*
X381124Y646769D01*
X380961Y646083D01*
X380782Y645402D01*
X380587Y644724D01*
X380375Y644052D01*
X380146Y643385D01*
X379902Y642724D01*
X379641Y642069D01*
X379365Y641421D01*
X379073Y640779D01*
X378766Y640145D01*
X378443Y639519D01*
X378105Y638900D01*
X377752Y638290D01*
X377384Y637689D01*
X377002Y637096D01*
X376606Y636514D01*
X376196Y635941D01*
X375771Y635378D01*
X375334Y634825D01*
X374883Y634284D01*
X374419Y633753D01*
X373942Y633234D01*
X373452Y632727D01*
X372951Y632232D01*
X372437Y631749D01*
X371912Y631278D01*
X371376Y630821D01*
X370829Y630377D01*
X370271Y629946D01*
X369703Y629529D01*
X369125Y629126D01*
X368537Y628737D01*
X367940Y628362D01*
X367334Y628002D01*
X366720Y627657D01*
X366097Y627327D01*
X365466Y627012D01*
X364828Y626712D01*
X364183Y626428D01*
X363531Y626160D01*
X362873Y625908D01*
X362209Y625672D01*
X306932Y606770D01*
X162037Y355804D01*
X82251Y148624D02*
X82886Y147524D01*
X82251Y148624D02*
X81946Y148448D01*
X81945Y148448D02*
X81914Y148428D01*
X81886Y148404D01*
X81860Y148378D01*
X81836Y148349D01*
X81816Y148318D01*
X81800Y148286D01*
X81786Y148251D01*
X81777Y148215D01*
X81771Y148179D01*
X81769Y148142D01*
X81771Y148105D01*
X81777Y148069D01*
X81786Y148033D01*
X81800Y147998D01*
X81816Y147965D01*
X81836Y147935D01*
X81860Y147906D01*
X81886Y147880D01*
X81915Y147856D01*
X81945Y147836D01*
X81978Y147820D01*
X82013Y147806D01*
X82049Y147797D01*
X82085Y147791D01*
X82122Y147789D01*
X82159Y147791D01*
X82195Y147797D01*
X82231Y147806D01*
X82266Y147820D01*
X82298Y147836D01*
X82299Y147837D02*
X82604Y148013D01*
X81694Y146836D02*
X81450Y146695D01*
X81694Y146836D02*
X81720Y146853D01*
X81745Y146873D01*
X81767Y146896D01*
X81786Y146921D01*
X81802Y146948D01*
X81816Y146977D01*
X81825Y147007D01*
X81832Y147038D01*
X81835Y147069D01*
X81834Y147101D01*
X81830Y147132D01*
X81822Y147163D01*
X81811Y147193D01*
X81797Y147221D01*
X81445Y147832D01*
X81444Y147832D02*
X81427Y147858D01*
X81407Y147883D01*
X81384Y147905D01*
X81359Y147924D01*
X81332Y147940D01*
X81303Y147954D01*
X81273Y147963D01*
X81242Y147970D01*
X81211Y147973D01*
X81179Y147972D01*
X81148Y147968D01*
X81117Y147960D01*
X81087Y147949D01*
X81059Y147935D01*
X81059Y147936D02*
X80815Y147795D01*
X80719Y147088D02*
X80414Y146911D01*
X80414Y146912D02*
X80383Y146892D01*
X80356Y146870D01*
X80330Y146845D01*
X80307Y146817D01*
X80287Y146788D01*
X80270Y146756D01*
X80257Y146723D01*
X80247Y146689D01*
X80240Y146654D01*
X80237Y146618D01*
X80238Y146582D01*
X80242Y146547D01*
X80250Y146512D01*
X80261Y146478D01*
X80276Y146445D01*
X80294Y146414D01*
X80315Y146385D01*
X80338Y146359D01*
X80365Y146334D01*
X80393Y146313D01*
X80424Y146294D01*
X80456Y146279D01*
X80490Y146267D01*
X80525Y146259D01*
X80560Y146254D01*
X80596Y146253D01*
X80632Y146255D01*
X80667Y146261D01*
X80701Y146271D01*
X80735Y146284D01*
X80767Y146300D01*
X80766Y146300D02*
X81072Y146477D01*
X80437Y147576D01*
X80131Y147400D01*
X80104Y147382D01*
X80078Y147361D01*
X80056Y147337D01*
X80036Y147311D01*
X80020Y147283D01*
X80007Y147252D01*
X79998Y147221D01*
X79992Y147189D01*
X79990Y147156D01*
X79992Y147123D01*
X79998Y147091D01*
X80007Y147060D01*
X80020Y147029D01*
X80036Y147001D01*
X80056Y146975D01*
X80078Y146951D01*
X80104Y146930D01*
X80131Y146912D01*
X80160Y146897D01*
X80191Y146886D01*
X80223Y146878D01*
X80256Y146874D01*
X80288Y146874D01*
X80321Y146878D01*
X80353Y146886D01*
X80384Y146897D01*
X80413Y146912D01*
X79351Y145483D02*
X79107Y145342D01*
X79351Y145484D02*
X79377Y145501D01*
X79402Y145521D01*
X79424Y145544D01*
X79443Y145569D01*
X79459Y145596D01*
X79473Y145625D01*
X79482Y145655D01*
X79489Y145686D01*
X79492Y145717D01*
X79491Y145749D01*
X79487Y145780D01*
X79479Y145811D01*
X79468Y145841D01*
X79454Y145869D01*
X79455Y145869D02*
X79102Y146480D01*
X79085Y146506D01*
X79065Y146531D01*
X79042Y146553D01*
X79017Y146572D01*
X78990Y146588D01*
X78961Y146602D01*
X78931Y146611D01*
X78900Y146618D01*
X78869Y146621D01*
X78837Y146620D01*
X78806Y146616D01*
X78775Y146608D01*
X78745Y146597D01*
X78717Y146583D01*
X78716Y146583D02*
X78472Y146442D01*
X78318Y145864D02*
X78636Y145314D01*
X78648Y145289D01*
X78657Y145263D01*
X78662Y145236D01*
X78664Y145208D01*
X78662Y145180D01*
X78657Y145153D01*
X78648Y145127D01*
X78636Y145102D01*
X78620Y145079D01*
X78602Y145058D01*
X78581Y145040D01*
X78558Y145024D01*
X78558Y145025D02*
X78253Y144849D01*
X77829Y145582D01*
X77502Y145393D02*
X77136Y145181D01*
X77168Y145689D02*
X77698Y144773D01*
X77710Y144748D01*
X77719Y144722D01*
X77724Y144695D01*
X77726Y144667D01*
X77724Y144639D01*
X77719Y144612D01*
X77710Y144586D01*
X77698Y144561D01*
X77682Y144538D01*
X77664Y144517D01*
X77643Y144499D01*
X77620Y144483D01*
X77620Y144484D02*
X77559Y144448D01*
X77083Y144499D02*
X76942Y144744D01*
X76941Y144743D02*
X76923Y144770D01*
X76902Y144796D01*
X76878Y144818D01*
X76852Y144838D01*
X76824Y144854D01*
X76793Y144867D01*
X76762Y144876D01*
X76730Y144882D01*
X76697Y144884D01*
X76664Y144882D01*
X76632Y144876D01*
X76601Y144867D01*
X76570Y144854D01*
X76542Y144838D01*
X76516Y144818D01*
X76492Y144796D01*
X76471Y144770D01*
X76453Y144743D01*
X76438Y144714D01*
X76427Y144683D01*
X76419Y144651D01*
X76415Y144618D01*
X76415Y144586D01*
X76419Y144553D01*
X76427Y144521D01*
X76438Y144490D01*
X76453Y144461D01*
X76594Y144217D01*
X76612Y144190D01*
X76633Y144164D01*
X76657Y144142D01*
X76683Y144122D01*
X76711Y144106D01*
X76742Y144093D01*
X76773Y144084D01*
X76805Y144078D01*
X76838Y144076D01*
X76871Y144078D01*
X76903Y144084D01*
X76934Y144093D01*
X76965Y144106D01*
X76993Y144122D01*
X77019Y144142D01*
X77043Y144164D01*
X77064Y144190D01*
X77082Y144217D01*
X77097Y144246D01*
X77108Y144277D01*
X77116Y144309D01*
X77120Y144342D01*
X77120Y144374D01*
X77116Y144407D01*
X77108Y144439D01*
X77097Y144470D01*
X77082Y144499D01*
X76227Y143924D02*
X75910Y144474D01*
X76228Y143924D02*
X76240Y143899D01*
X76249Y143873D01*
X76254Y143846D01*
X76256Y143818D01*
X76254Y143790D01*
X76249Y143763D01*
X76240Y143737D01*
X76228Y143712D01*
X76212Y143689D01*
X76194Y143668D01*
X76173Y143650D01*
X76150Y143634D01*
X76150Y143635D02*
X75844Y143458D01*
X75421Y144191D01*
X75094Y144003D02*
X74727Y143791D01*
X74760Y144299D02*
X75289Y143382D01*
X75290Y143382D02*
X75302Y143357D01*
X75311Y143331D01*
X75316Y143304D01*
X75318Y143276D01*
X75316Y143248D01*
X75311Y143221D01*
X75302Y143195D01*
X75290Y143170D01*
X75274Y143147D01*
X75256Y143126D01*
X75235Y143108D01*
X75212Y143092D01*
X75212Y143093D02*
X75150Y143058D01*
X74344Y142592D02*
X73342Y143480D01*
X73610Y142168D01*
X73543Y142496D02*
X74093Y142814D01*
X73262Y141967D02*
X72838Y142700D01*
X72472Y142489D01*
X72542Y142366D01*
X72422Y141482D02*
X72116Y141306D01*
X72422Y141481D02*
X72445Y141497D01*
X72466Y141515D01*
X72484Y141536D01*
X72500Y141559D01*
X72512Y141584D01*
X72521Y141610D01*
X72526Y141637D01*
X72528Y141665D01*
X72526Y141693D01*
X72521Y141720D01*
X72512Y141746D01*
X72500Y141771D01*
X72499Y141771D02*
X72323Y142077D01*
X72322Y142077D02*
X72304Y142104D01*
X72283Y142130D01*
X72259Y142152D01*
X72233Y142172D01*
X72205Y142188D01*
X72174Y142201D01*
X72143Y142210D01*
X72111Y142216D01*
X72078Y142218D01*
X72045Y142216D01*
X72013Y142210D01*
X71982Y142201D01*
X71951Y142188D01*
X71923Y142172D01*
X71897Y142152D01*
X71873Y142130D01*
X71852Y142104D01*
X71834Y142077D01*
X71819Y142048D01*
X71808Y142017D01*
X71800Y141985D01*
X71796Y141952D01*
X71796Y141920D01*
X71800Y141887D01*
X71808Y141855D01*
X71819Y141824D01*
X71834Y141795D01*
X71834Y141794D02*
X71904Y141672D01*
X72393Y141954D01*
X71289Y141398D02*
X71014Y141239D01*
X71288Y141398D02*
X71315Y141411D01*
X71343Y141421D01*
X71372Y141428D01*
X71402Y141431D01*
X71432Y141430D01*
X71461Y141426D01*
X71490Y141418D01*
X71518Y141407D01*
X71544Y141393D01*
X71568Y141375D01*
X71590Y141355D01*
X71609Y141332D01*
X71626Y141308D01*
X71639Y141281D01*
X71649Y141253D01*
X71656Y141224D01*
X71659Y141194D01*
X71658Y141164D01*
X71654Y141135D01*
X71646Y141106D01*
X71635Y141078D01*
X71621Y141052D01*
X71603Y141028D01*
X71583Y141006D01*
X71560Y140987D01*
X71536Y140970D01*
X71536Y140971D02*
X71261Y140812D01*
X70943Y141362D01*
X70931Y141387D01*
X70922Y141413D01*
X70917Y141440D01*
X70915Y141468D01*
X70917Y141496D01*
X70922Y141523D01*
X70931Y141549D01*
X70943Y141574D01*
X70959Y141597D01*
X70977Y141618D01*
X70998Y141636D01*
X71021Y141652D01*
X71021Y141651D02*
X71265Y141792D01*
X125251Y74146D02*
X125886Y73046D01*
X125251Y74146D02*
X124946Y73970D01*
X124945Y73970D02*
X124914Y73950D01*
X124886Y73926D01*
X124860Y73900D01*
X124836Y73871D01*
X124816Y73840D01*
X124800Y73808D01*
X124786Y73773D01*
X124777Y73737D01*
X124771Y73701D01*
X124769Y73664D01*
X124771Y73627D01*
X124777Y73591D01*
X124786Y73555D01*
X124800Y73520D01*
X124816Y73487D01*
X124836Y73457D01*
X124860Y73428D01*
X124886Y73402D01*
X124915Y73378D01*
X124945Y73358D01*
X124978Y73342D01*
X125013Y73328D01*
X125049Y73319D01*
X125085Y73313D01*
X125122Y73311D01*
X125159Y73313D01*
X125195Y73319D01*
X125231Y73328D01*
X125266Y73342D01*
X125298Y73358D01*
X125299Y73359D02*
X125604Y73535D01*
X124694Y72358D02*
X124450Y72217D01*
X124694Y72358D02*
X124720Y72375D01*
X124745Y72395D01*
X124767Y72418D01*
X124786Y72443D01*
X124802Y72470D01*
X124816Y72499D01*
X124825Y72529D01*
X124832Y72560D01*
X124835Y72591D01*
X124834Y72623D01*
X124830Y72654D01*
X124822Y72685D01*
X124811Y72715D01*
X124797Y72743D01*
X124445Y73354D01*
X124444Y73354D02*
X124427Y73380D01*
X124407Y73405D01*
X124384Y73427D01*
X124359Y73446D01*
X124332Y73462D01*
X124303Y73476D01*
X124273Y73485D01*
X124242Y73492D01*
X124211Y73495D01*
X124179Y73494D01*
X124148Y73490D01*
X124117Y73482D01*
X124087Y73471D01*
X124059Y73457D01*
X123815Y73316D01*
X123719Y72609D02*
X123414Y72433D01*
X123383Y72413D01*
X123356Y72391D01*
X123330Y72366D01*
X123307Y72338D01*
X123287Y72309D01*
X123270Y72277D01*
X123257Y72244D01*
X123247Y72210D01*
X123240Y72175D01*
X123237Y72139D01*
X123238Y72103D01*
X123242Y72068D01*
X123250Y72033D01*
X123261Y71999D01*
X123276Y71966D01*
X123294Y71935D01*
X123315Y71906D01*
X123338Y71880D01*
X123365Y71855D01*
X123393Y71834D01*
X123424Y71815D01*
X123456Y71800D01*
X123490Y71788D01*
X123525Y71780D01*
X123560Y71775D01*
X123596Y71774D01*
X123632Y71776D01*
X123667Y71782D01*
X123701Y71792D01*
X123735Y71805D01*
X123767Y71821D01*
X123766Y71822D02*
X124072Y71998D01*
X123437Y73098D01*
X123131Y72922D01*
X123131Y72921D02*
X123104Y72903D01*
X123078Y72882D01*
X123056Y72858D01*
X123036Y72832D01*
X123020Y72804D01*
X123007Y72773D01*
X122998Y72742D01*
X122992Y72710D01*
X122990Y72677D01*
X122992Y72644D01*
X122998Y72612D01*
X123007Y72581D01*
X123020Y72550D01*
X123036Y72522D01*
X123056Y72496D01*
X123078Y72472D01*
X123104Y72451D01*
X123131Y72433D01*
X123160Y72418D01*
X123191Y72407D01*
X123223Y72399D01*
X123256Y72395D01*
X123288Y72395D01*
X123321Y72399D01*
X123353Y72407D01*
X123384Y72418D01*
X123413Y72433D01*
X122351Y71005D02*
X122107Y70864D01*
X122351Y71005D02*
X122377Y71022D01*
X122402Y71042D01*
X122424Y71065D01*
X122443Y71090D01*
X122459Y71117D01*
X122473Y71146D01*
X122482Y71176D01*
X122489Y71207D01*
X122492Y71238D01*
X122491Y71270D01*
X122487Y71301D01*
X122479Y71332D01*
X122468Y71362D01*
X122454Y71390D01*
X122455Y71391D02*
X122102Y72002D01*
X122102Y72001D02*
X122085Y72027D01*
X122065Y72052D01*
X122042Y72074D01*
X122017Y72093D01*
X121990Y72109D01*
X121961Y72123D01*
X121931Y72132D01*
X121900Y72139D01*
X121869Y72142D01*
X121837Y72141D01*
X121806Y72137D01*
X121775Y72129D01*
X121745Y72118D01*
X121717Y72104D01*
X121716Y72105D02*
X121472Y71964D01*
X121318Y71386D02*
X121636Y70836D01*
X121648Y70811D01*
X121657Y70785D01*
X121662Y70758D01*
X121664Y70730D01*
X121662Y70702D01*
X121657Y70675D01*
X121648Y70649D01*
X121636Y70624D01*
X121620Y70601D01*
X121602Y70580D01*
X121581Y70562D01*
X121558Y70546D01*
X121558Y70547D02*
X121253Y70371D01*
X120829Y71104D01*
X120502Y70915D02*
X120136Y70703D01*
X120168Y71211D02*
X120698Y70295D01*
X120710Y70270D01*
X120719Y70244D01*
X120724Y70217D01*
X120726Y70189D01*
X120724Y70161D01*
X120719Y70134D01*
X120710Y70108D01*
X120698Y70083D01*
X120682Y70060D01*
X120664Y70039D01*
X120643Y70021D01*
X120620Y70005D01*
X120559Y69970D01*
X120083Y70021D02*
X119942Y70265D01*
X119941Y70265D02*
X119923Y70292D01*
X119902Y70318D01*
X119878Y70340D01*
X119852Y70360D01*
X119824Y70376D01*
X119793Y70389D01*
X119762Y70398D01*
X119730Y70404D01*
X119697Y70406D01*
X119664Y70404D01*
X119632Y70398D01*
X119601Y70389D01*
X119570Y70376D01*
X119542Y70360D01*
X119516Y70340D01*
X119492Y70318D01*
X119471Y70292D01*
X119453Y70265D01*
X119438Y70236D01*
X119427Y70205D01*
X119419Y70173D01*
X119415Y70140D01*
X119415Y70108D01*
X119419Y70075D01*
X119427Y70043D01*
X119438Y70012D01*
X119453Y69983D01*
X119594Y69739D01*
X119612Y69712D01*
X119633Y69686D01*
X119657Y69664D01*
X119683Y69644D01*
X119711Y69628D01*
X119742Y69615D01*
X119773Y69606D01*
X119805Y69600D01*
X119838Y69598D01*
X119871Y69600D01*
X119903Y69606D01*
X119934Y69615D01*
X119965Y69628D01*
X119993Y69644D01*
X120019Y69664D01*
X120043Y69686D01*
X120064Y69712D01*
X120082Y69739D01*
X120097Y69768D01*
X120108Y69799D01*
X120116Y69831D01*
X120120Y69864D01*
X120120Y69896D01*
X120116Y69929D01*
X120108Y69961D01*
X120097Y69992D01*
X120082Y70021D01*
X119227Y69446D02*
X118910Y69995D01*
X119228Y69446D02*
X119240Y69421D01*
X119249Y69395D01*
X119254Y69368D01*
X119256Y69340D01*
X119254Y69312D01*
X119249Y69285D01*
X119240Y69259D01*
X119228Y69234D01*
X119212Y69211D01*
X119194Y69190D01*
X119173Y69172D01*
X119150Y69156D01*
X118844Y68980D01*
X118421Y69713D01*
X118094Y69524D02*
X117727Y69313D01*
X117760Y69820D02*
X118289Y68904D01*
X118290Y68904D02*
X118302Y68879D01*
X118311Y68853D01*
X118316Y68826D01*
X118318Y68798D01*
X118316Y68770D01*
X118311Y68743D01*
X118302Y68717D01*
X118290Y68692D01*
X118274Y68669D01*
X118256Y68648D01*
X118235Y68630D01*
X118212Y68614D01*
X118212Y68615D02*
X118150Y68579D01*
X117344Y68114D02*
X116342Y69002D01*
X116610Y67690D01*
X116543Y68018D02*
X117093Y68336D01*
X116262Y67489D02*
X115838Y68222D01*
X115472Y68011D01*
X115542Y67888D01*
X115422Y67004D02*
X115116Y66827D01*
X115422Y67003D02*
X115445Y67019D01*
X115466Y67037D01*
X115484Y67058D01*
X115500Y67081D01*
X115512Y67106D01*
X115521Y67132D01*
X115526Y67159D01*
X115528Y67187D01*
X115526Y67215D01*
X115521Y67242D01*
X115512Y67268D01*
X115500Y67293D01*
X115499Y67293D02*
X115323Y67598D01*
X115322Y67598D02*
X115304Y67625D01*
X115283Y67651D01*
X115259Y67673D01*
X115233Y67693D01*
X115205Y67709D01*
X115174Y67722D01*
X115143Y67731D01*
X115111Y67737D01*
X115078Y67739D01*
X115045Y67737D01*
X115013Y67731D01*
X114982Y67722D01*
X114951Y67709D01*
X114923Y67693D01*
X114897Y67673D01*
X114873Y67651D01*
X114852Y67625D01*
X114834Y67598D01*
X114819Y67569D01*
X114808Y67538D01*
X114800Y67506D01*
X114796Y67473D01*
X114796Y67441D01*
X114800Y67408D01*
X114808Y67376D01*
X114819Y67345D01*
X114834Y67316D01*
X114904Y67194D01*
X115393Y67476D01*
X114289Y66920D02*
X114014Y66761D01*
X114288Y66920D02*
X114315Y66933D01*
X114343Y66943D01*
X114372Y66950D01*
X114402Y66953D01*
X114432Y66952D01*
X114461Y66948D01*
X114490Y66940D01*
X114518Y66929D01*
X114544Y66915D01*
X114568Y66897D01*
X114590Y66877D01*
X114609Y66854D01*
X114626Y66830D01*
X114639Y66803D01*
X114649Y66775D01*
X114656Y66746D01*
X114659Y66716D01*
X114658Y66686D01*
X114654Y66657D01*
X114646Y66628D01*
X114635Y66600D01*
X114621Y66574D01*
X114603Y66550D01*
X114583Y66528D01*
X114560Y66509D01*
X114536Y66492D01*
X114261Y66334D01*
X113943Y66884D01*
X113943Y66883D02*
X113931Y66908D01*
X113922Y66934D01*
X113917Y66961D01*
X113915Y66989D01*
X113917Y67017D01*
X113922Y67044D01*
X113931Y67070D01*
X113943Y67095D01*
X113959Y67118D01*
X113977Y67139D01*
X113998Y67157D01*
X114021Y67173D01*
X114265Y67314D01*
X88878Y53146D02*
X89513Y52046D01*
X88878Y53146D02*
X88573Y52970D01*
X88572Y52970D02*
X88541Y52950D01*
X88513Y52926D01*
X88487Y52900D01*
X88463Y52871D01*
X88443Y52840D01*
X88427Y52808D01*
X88413Y52773D01*
X88404Y52737D01*
X88398Y52701D01*
X88396Y52664D01*
X88398Y52627D01*
X88404Y52591D01*
X88413Y52555D01*
X88427Y52520D01*
X88443Y52487D01*
X88463Y52457D01*
X88487Y52428D01*
X88513Y52402D01*
X88542Y52378D01*
X88572Y52358D01*
X88605Y52342D01*
X88640Y52328D01*
X88676Y52319D01*
X88712Y52313D01*
X88749Y52311D01*
X88786Y52313D01*
X88822Y52319D01*
X88858Y52328D01*
X88893Y52342D01*
X88925Y52358D01*
X88926Y52359D02*
X89231Y52535D01*
X88321Y51358D02*
X88077Y51217D01*
X88321Y51358D02*
X88347Y51375D01*
X88372Y51395D01*
X88394Y51418D01*
X88413Y51443D01*
X88429Y51470D01*
X88443Y51499D01*
X88452Y51529D01*
X88459Y51560D01*
X88462Y51591D01*
X88461Y51623D01*
X88457Y51654D01*
X88449Y51685D01*
X88438Y51715D01*
X88424Y51743D01*
X88071Y52354D01*
X88054Y52380D01*
X88034Y52405D01*
X88011Y52427D01*
X87986Y52446D01*
X87959Y52462D01*
X87930Y52476D01*
X87900Y52485D01*
X87869Y52492D01*
X87838Y52495D01*
X87806Y52494D01*
X87775Y52490D01*
X87744Y52482D01*
X87714Y52471D01*
X87686Y52457D01*
X87442Y52316D01*
X87346Y51609D02*
X87040Y51433D01*
X87041Y51433D02*
X87010Y51413D01*
X86983Y51391D01*
X86957Y51366D01*
X86934Y51338D01*
X86914Y51309D01*
X86897Y51277D01*
X86884Y51244D01*
X86874Y51210D01*
X86867Y51175D01*
X86864Y51139D01*
X86865Y51103D01*
X86869Y51068D01*
X86877Y51033D01*
X86888Y50999D01*
X86903Y50966D01*
X86921Y50935D01*
X86942Y50906D01*
X86965Y50880D01*
X86992Y50855D01*
X87020Y50834D01*
X87051Y50815D01*
X87083Y50800D01*
X87117Y50788D01*
X87152Y50780D01*
X87187Y50775D01*
X87223Y50774D01*
X87259Y50776D01*
X87294Y50782D01*
X87328Y50792D01*
X87362Y50805D01*
X87394Y50821D01*
X87393Y50822D02*
X87699Y50998D01*
X87064Y52098D01*
X86758Y51922D01*
X86758Y51921D02*
X86731Y51903D01*
X86705Y51882D01*
X86683Y51858D01*
X86663Y51832D01*
X86647Y51804D01*
X86634Y51773D01*
X86625Y51742D01*
X86619Y51710D01*
X86617Y51677D01*
X86619Y51644D01*
X86625Y51612D01*
X86634Y51581D01*
X86647Y51550D01*
X86663Y51522D01*
X86683Y51496D01*
X86705Y51472D01*
X86731Y51451D01*
X86758Y51433D01*
X86787Y51418D01*
X86818Y51407D01*
X86850Y51399D01*
X86883Y51395D01*
X86915Y51395D01*
X86948Y51399D01*
X86980Y51407D01*
X87011Y51418D01*
X87040Y51433D01*
X85978Y50005D02*
X85734Y49864D01*
X85978Y50005D02*
X86004Y50022D01*
X86029Y50042D01*
X86051Y50065D01*
X86070Y50090D01*
X86086Y50117D01*
X86100Y50146D01*
X86109Y50176D01*
X86116Y50207D01*
X86119Y50238D01*
X86118Y50270D01*
X86114Y50301D01*
X86106Y50332D01*
X86095Y50362D01*
X86081Y50390D01*
X86082Y50391D02*
X85729Y51002D01*
X85728Y51001D02*
X85711Y51027D01*
X85691Y51052D01*
X85668Y51074D01*
X85643Y51093D01*
X85616Y51109D01*
X85587Y51123D01*
X85557Y51132D01*
X85526Y51139D01*
X85495Y51142D01*
X85463Y51141D01*
X85432Y51137D01*
X85401Y51129D01*
X85371Y51118D01*
X85343Y51104D01*
X85343Y51105D02*
X85099Y50964D01*
X84945Y50386D02*
X85263Y49836D01*
X85275Y49811D01*
X85284Y49785D01*
X85289Y49758D01*
X85291Y49730D01*
X85289Y49702D01*
X85284Y49675D01*
X85275Y49649D01*
X85263Y49624D01*
X85247Y49601D01*
X85229Y49580D01*
X85208Y49562D01*
X85185Y49546D01*
X85185Y49547D02*
X84880Y49371D01*
X84456Y50104D01*
X84129Y49915D02*
X83763Y49703D01*
X83795Y50211D02*
X84324Y49295D01*
X84325Y49295D02*
X84337Y49270D01*
X84346Y49244D01*
X84351Y49217D01*
X84353Y49189D01*
X84351Y49161D01*
X84346Y49134D01*
X84337Y49108D01*
X84325Y49083D01*
X84309Y49060D01*
X84291Y49039D01*
X84270Y49021D01*
X84247Y49005D01*
X84186Y48970D01*
X83710Y49021D02*
X83569Y49265D01*
X83568Y49265D02*
X83550Y49292D01*
X83529Y49318D01*
X83505Y49340D01*
X83479Y49360D01*
X83451Y49376D01*
X83420Y49389D01*
X83389Y49398D01*
X83357Y49404D01*
X83324Y49406D01*
X83291Y49404D01*
X83259Y49398D01*
X83228Y49389D01*
X83197Y49376D01*
X83169Y49360D01*
X83143Y49340D01*
X83119Y49318D01*
X83098Y49292D01*
X83080Y49265D01*
X83065Y49236D01*
X83054Y49205D01*
X83046Y49173D01*
X83042Y49140D01*
X83042Y49108D01*
X83046Y49075D01*
X83054Y49043D01*
X83065Y49012D01*
X83080Y48983D01*
X83221Y48739D01*
X83239Y48712D01*
X83260Y48686D01*
X83284Y48664D01*
X83310Y48644D01*
X83338Y48628D01*
X83369Y48615D01*
X83400Y48606D01*
X83432Y48600D01*
X83465Y48598D01*
X83498Y48600D01*
X83530Y48606D01*
X83561Y48615D01*
X83592Y48628D01*
X83620Y48644D01*
X83646Y48664D01*
X83670Y48686D01*
X83691Y48712D01*
X83709Y48739D01*
X83724Y48768D01*
X83735Y48799D01*
X83743Y48831D01*
X83747Y48864D01*
X83747Y48896D01*
X83743Y48929D01*
X83735Y48961D01*
X83724Y48992D01*
X83709Y49021D01*
X82854Y48446D02*
X82537Y48995D01*
X82855Y48446D02*
X82867Y48421D01*
X82876Y48395D01*
X82881Y48368D01*
X82883Y48340D01*
X82881Y48312D01*
X82876Y48285D01*
X82867Y48259D01*
X82855Y48234D01*
X82839Y48211D01*
X82821Y48190D01*
X82800Y48172D01*
X82777Y48156D01*
X82471Y47980D01*
X82048Y48713D01*
X81721Y48524D02*
X81354Y48313D01*
X81387Y48820D02*
X81916Y47904D01*
X81917Y47904D02*
X81929Y47879D01*
X81938Y47853D01*
X81943Y47826D01*
X81945Y47798D01*
X81943Y47770D01*
X81938Y47743D01*
X81929Y47717D01*
X81917Y47692D01*
X81901Y47669D01*
X81883Y47648D01*
X81862Y47630D01*
X81839Y47614D01*
X81839Y47615D02*
X81777Y47579D01*
X80971Y47114D02*
X79969Y48002D01*
X80237Y46690D01*
X80170Y47018D02*
X80720Y47336D01*
X79889Y46489D02*
X79465Y47222D01*
X79099Y47011D01*
X79169Y46888D01*
X79048Y46004D02*
X78743Y45827D01*
X79049Y46003D02*
X79072Y46019D01*
X79093Y46037D01*
X79111Y46058D01*
X79127Y46081D01*
X79139Y46106D01*
X79148Y46132D01*
X79153Y46159D01*
X79155Y46187D01*
X79153Y46215D01*
X79148Y46242D01*
X79139Y46268D01*
X79127Y46293D01*
X79126Y46293D02*
X78950Y46598D01*
X78949Y46598D02*
X78931Y46625D01*
X78910Y46651D01*
X78886Y46673D01*
X78860Y46693D01*
X78832Y46709D01*
X78801Y46722D01*
X78770Y46731D01*
X78738Y46737D01*
X78705Y46739D01*
X78672Y46737D01*
X78640Y46731D01*
X78609Y46722D01*
X78578Y46709D01*
X78550Y46693D01*
X78524Y46673D01*
X78500Y46651D01*
X78479Y46625D01*
X78461Y46598D01*
X78446Y46569D01*
X78435Y46538D01*
X78427Y46506D01*
X78423Y46473D01*
X78423Y46441D01*
X78427Y46408D01*
X78435Y46376D01*
X78446Y46345D01*
X78461Y46316D01*
X78531Y46194D01*
X79020Y46476D01*
X77916Y45920D02*
X77641Y45761D01*
X77915Y45920D02*
X77942Y45933D01*
X77970Y45943D01*
X77999Y45950D01*
X78029Y45953D01*
X78059Y45952D01*
X78088Y45948D01*
X78117Y45940D01*
X78145Y45929D01*
X78171Y45915D01*
X78195Y45897D01*
X78217Y45877D01*
X78236Y45854D01*
X78253Y45830D01*
X78266Y45803D01*
X78276Y45775D01*
X78283Y45746D01*
X78286Y45716D01*
X78285Y45686D01*
X78281Y45657D01*
X78273Y45628D01*
X78262Y45600D01*
X78248Y45574D01*
X78230Y45550D01*
X78210Y45528D01*
X78187Y45509D01*
X78163Y45492D01*
X77888Y45334D01*
X77570Y45884D01*
X77569Y45883D02*
X77557Y45908D01*
X77548Y45934D01*
X77543Y45961D01*
X77541Y45989D01*
X77543Y46017D01*
X77548Y46044D01*
X77557Y46070D01*
X77569Y46095D01*
X77585Y46118D01*
X77603Y46139D01*
X77624Y46157D01*
X77647Y46173D01*
X77648Y46173D02*
X77892Y46314D01*
X46513Y126524D02*
X45878Y127624D01*
X45573Y127448D01*
X45572Y127448D02*
X45541Y127428D01*
X45513Y127404D01*
X45487Y127378D01*
X45463Y127349D01*
X45443Y127318D01*
X45427Y127286D01*
X45413Y127251D01*
X45404Y127215D01*
X45398Y127179D01*
X45396Y127142D01*
X45398Y127105D01*
X45404Y127069D01*
X45413Y127033D01*
X45427Y126998D01*
X45443Y126965D01*
X45463Y126935D01*
X45487Y126906D01*
X45513Y126880D01*
X45542Y126856D01*
X45572Y126836D01*
X45605Y126820D01*
X45640Y126806D01*
X45676Y126797D01*
X45712Y126791D01*
X45749Y126789D01*
X45786Y126791D01*
X45822Y126797D01*
X45858Y126806D01*
X45893Y126820D01*
X45925Y126836D01*
X45926Y126837D02*
X46231Y127013D01*
X45321Y125836D02*
X45077Y125695D01*
X45321Y125836D02*
X45347Y125853D01*
X45372Y125873D01*
X45394Y125896D01*
X45413Y125921D01*
X45429Y125948D01*
X45443Y125977D01*
X45452Y126007D01*
X45459Y126038D01*
X45462Y126069D01*
X45461Y126101D01*
X45457Y126132D01*
X45449Y126163D01*
X45438Y126193D01*
X45424Y126221D01*
X45071Y126832D01*
X45054Y126858D01*
X45034Y126883D01*
X45011Y126905D01*
X44986Y126924D01*
X44959Y126940D01*
X44930Y126954D01*
X44900Y126963D01*
X44869Y126970D01*
X44838Y126973D01*
X44806Y126972D01*
X44775Y126968D01*
X44744Y126960D01*
X44714Y126949D01*
X44686Y126935D01*
X44686Y126936D02*
X44442Y126795D01*
X44346Y126088D02*
X44040Y125911D01*
X44041Y125912D02*
X44010Y125892D01*
X43983Y125870D01*
X43957Y125845D01*
X43934Y125817D01*
X43914Y125788D01*
X43897Y125756D01*
X43884Y125723D01*
X43874Y125689D01*
X43867Y125654D01*
X43864Y125618D01*
X43865Y125582D01*
X43869Y125547D01*
X43877Y125512D01*
X43888Y125478D01*
X43903Y125445D01*
X43921Y125414D01*
X43942Y125385D01*
X43965Y125359D01*
X43992Y125334D01*
X44020Y125313D01*
X44051Y125294D01*
X44083Y125279D01*
X44117Y125267D01*
X44152Y125259D01*
X44187Y125254D01*
X44223Y125253D01*
X44259Y125255D01*
X44294Y125261D01*
X44328Y125271D01*
X44362Y125284D01*
X44394Y125300D01*
X44393Y125300D02*
X44699Y125477D01*
X44064Y126576D01*
X43758Y126400D01*
X43731Y126382D01*
X43705Y126361D01*
X43683Y126337D01*
X43663Y126311D01*
X43647Y126283D01*
X43634Y126252D01*
X43625Y126221D01*
X43619Y126189D01*
X43617Y126156D01*
X43619Y126123D01*
X43625Y126091D01*
X43634Y126060D01*
X43647Y126029D01*
X43663Y126001D01*
X43683Y125975D01*
X43705Y125951D01*
X43731Y125930D01*
X43758Y125912D01*
X43787Y125897D01*
X43818Y125886D01*
X43850Y125878D01*
X43883Y125874D01*
X43915Y125874D01*
X43948Y125878D01*
X43980Y125886D01*
X44011Y125897D01*
X44040Y125912D01*
X42978Y124483D02*
X42734Y124342D01*
X42978Y124484D02*
X43004Y124501D01*
X43029Y124521D01*
X43051Y124544D01*
X43070Y124569D01*
X43086Y124596D01*
X43100Y124625D01*
X43109Y124655D01*
X43116Y124686D01*
X43119Y124717D01*
X43118Y124749D01*
X43114Y124780D01*
X43106Y124811D01*
X43095Y124841D01*
X43081Y124869D01*
X43082Y124869D02*
X42729Y125480D01*
X42728Y125480D02*
X42711Y125506D01*
X42691Y125531D01*
X42668Y125553D01*
X42643Y125572D01*
X42616Y125588D01*
X42587Y125602D01*
X42557Y125611D01*
X42526Y125618D01*
X42495Y125621D01*
X42463Y125620D01*
X42432Y125616D01*
X42401Y125608D01*
X42371Y125597D01*
X42343Y125583D01*
X42099Y125442D01*
X41945Y124864D02*
X42263Y124314D01*
X42275Y124289D01*
X42284Y124263D01*
X42289Y124236D01*
X42291Y124208D01*
X42289Y124180D01*
X42284Y124153D01*
X42275Y124127D01*
X42263Y124102D01*
X42247Y124079D01*
X42229Y124058D01*
X42208Y124040D01*
X42185Y124024D01*
X42185Y124025D02*
X41880Y123849D01*
X41456Y124582D01*
X41129Y124393D02*
X40763Y124181D01*
X40795Y124689D02*
X41324Y123773D01*
X41325Y123773D02*
X41337Y123748D01*
X41346Y123722D01*
X41351Y123695D01*
X41353Y123667D01*
X41351Y123639D01*
X41346Y123612D01*
X41337Y123586D01*
X41325Y123561D01*
X41309Y123538D01*
X41291Y123517D01*
X41270Y123499D01*
X41247Y123483D01*
X41247Y123484D02*
X41186Y123448D01*
X40710Y123499D02*
X40569Y123744D01*
X40568Y123743D02*
X40550Y123770D01*
X40529Y123796D01*
X40505Y123818D01*
X40479Y123838D01*
X40451Y123854D01*
X40420Y123867D01*
X40389Y123876D01*
X40357Y123882D01*
X40324Y123884D01*
X40291Y123882D01*
X40259Y123876D01*
X40228Y123867D01*
X40197Y123854D01*
X40169Y123838D01*
X40143Y123818D01*
X40119Y123796D01*
X40098Y123770D01*
X40080Y123743D01*
X40065Y123714D01*
X40054Y123683D01*
X40046Y123651D01*
X40042Y123618D01*
X40042Y123586D01*
X40046Y123553D01*
X40054Y123521D01*
X40065Y123490D01*
X40080Y123461D01*
X40221Y123217D01*
X40239Y123190D01*
X40260Y123164D01*
X40284Y123142D01*
X40310Y123122D01*
X40338Y123106D01*
X40369Y123093D01*
X40400Y123084D01*
X40432Y123078D01*
X40465Y123076D01*
X40498Y123078D01*
X40530Y123084D01*
X40561Y123093D01*
X40592Y123106D01*
X40620Y123122D01*
X40646Y123142D01*
X40670Y123164D01*
X40691Y123190D01*
X40709Y123217D01*
X40724Y123246D01*
X40735Y123277D01*
X40743Y123309D01*
X40747Y123342D01*
X40747Y123374D01*
X40743Y123407D01*
X40735Y123439D01*
X40724Y123470D01*
X40709Y123499D01*
X39854Y122924D02*
X39537Y123474D01*
X39855Y122924D02*
X39867Y122899D01*
X39876Y122873D01*
X39881Y122846D01*
X39883Y122818D01*
X39881Y122790D01*
X39876Y122763D01*
X39867Y122737D01*
X39855Y122712D01*
X39839Y122689D01*
X39821Y122668D01*
X39800Y122650D01*
X39777Y122634D01*
X39777Y122635D02*
X39471Y122458D01*
X39048Y123191D01*
X38721Y123003D02*
X38354Y122791D01*
X38387Y123299D02*
X38916Y122382D01*
X38917Y122382D02*
X38929Y122357D01*
X38938Y122331D01*
X38943Y122304D01*
X38945Y122276D01*
X38943Y122248D01*
X38938Y122221D01*
X38929Y122195D01*
X38917Y122170D01*
X38901Y122147D01*
X38883Y122126D01*
X38862Y122108D01*
X38839Y122092D01*
X38839Y122093D02*
X38777Y122058D01*
X37971Y121592D02*
X36969Y122480D01*
X37237Y121168D01*
X37170Y121496D02*
X37720Y121814D01*
X36889Y120967D02*
X36465Y121700D01*
X36099Y121489D01*
X36169Y121366D01*
X36048Y120482D02*
X35743Y120306D01*
X36049Y120481D02*
X36072Y120497D01*
X36093Y120515D01*
X36111Y120536D01*
X36127Y120559D01*
X36139Y120584D01*
X36148Y120610D01*
X36153Y120637D01*
X36155Y120665D01*
X36153Y120693D01*
X36148Y120720D01*
X36139Y120746D01*
X36127Y120771D01*
X36126Y120771D02*
X35950Y121077D01*
X35949Y121077D02*
X35931Y121104D01*
X35910Y121130D01*
X35886Y121152D01*
X35860Y121172D01*
X35832Y121188D01*
X35801Y121201D01*
X35770Y121210D01*
X35738Y121216D01*
X35705Y121218D01*
X35672Y121216D01*
X35640Y121210D01*
X35609Y121201D01*
X35578Y121188D01*
X35550Y121172D01*
X35524Y121152D01*
X35500Y121130D01*
X35479Y121104D01*
X35461Y121077D01*
X35446Y121048D01*
X35435Y121017D01*
X35427Y120985D01*
X35423Y120952D01*
X35423Y120920D01*
X35427Y120887D01*
X35435Y120855D01*
X35446Y120824D01*
X35461Y120795D01*
X35461Y120794D02*
X35531Y120672D01*
X36020Y120954D01*
X34916Y120398D02*
X34641Y120239D01*
X34915Y120398D02*
X34942Y120411D01*
X34970Y120421D01*
X34999Y120428D01*
X35029Y120431D01*
X35059Y120430D01*
X35088Y120426D01*
X35117Y120418D01*
X35145Y120407D01*
X35171Y120393D01*
X35195Y120375D01*
X35217Y120355D01*
X35236Y120332D01*
X35253Y120308D01*
X35266Y120281D01*
X35276Y120253D01*
X35283Y120224D01*
X35286Y120194D01*
X35285Y120164D01*
X35281Y120135D01*
X35273Y120106D01*
X35262Y120078D01*
X35248Y120052D01*
X35230Y120028D01*
X35210Y120006D01*
X35187Y119987D01*
X35163Y119970D01*
X35163Y119971D02*
X34888Y119812D01*
X34570Y120362D01*
X34569Y120362D02*
X34557Y120387D01*
X34548Y120413D01*
X34543Y120440D01*
X34541Y120468D01*
X34543Y120496D01*
X34548Y120523D01*
X34557Y120549D01*
X34569Y120574D01*
X34585Y120597D01*
X34603Y120618D01*
X34624Y120636D01*
X34647Y120652D01*
X34648Y120651D02*
X34892Y120792D01*
X105126Y79951D02*
X105128Y80064D01*
X105134Y80178D01*
X105144Y80291D01*
X105158Y80403D01*
X105175Y80515D01*
X105197Y80627D01*
X105223Y80737D01*
X105252Y80847D01*
X105285Y80955D01*
X105322Y81063D01*
X105363Y81168D01*
X105407Y81273D01*
X105455Y81376D01*
X105506Y81477D01*
X105561Y81576D01*
X105620Y81673D01*
X105682Y81768D01*
X105747Y81861D01*
X105815Y81952D01*
X105886Y82040D01*
X105961Y82126D01*
X106038Y82209D01*
X106118Y82289D01*
X106201Y82366D01*
X106287Y82441D01*
X106375Y82512D01*
X106466Y82580D01*
X106559Y82645D01*
X106654Y82707D01*
X106751Y82766D01*
X106850Y82821D01*
X106951Y82872D01*
X107054Y82920D01*
X107159Y82964D01*
X107264Y83005D01*
X107372Y83042D01*
X107480Y83075D01*
X107590Y83104D01*
X107700Y83130D01*
X107812Y83152D01*
X107924Y83169D01*
X108036Y83183D01*
X108149Y83193D01*
X108263Y83199D01*
X108376Y83201D01*
X108489Y83199D01*
X108603Y83193D01*
X108716Y83183D01*
X108828Y83169D01*
X108940Y83152D01*
X109052Y83130D01*
X109162Y83104D01*
X109272Y83075D01*
X109380Y83042D01*
X109488Y83005D01*
X109593Y82964D01*
X109698Y82920D01*
X109801Y82872D01*
X109902Y82821D01*
X110001Y82766D01*
X110098Y82707D01*
X110193Y82645D01*
X110286Y82580D01*
X110377Y82512D01*
X110465Y82441D01*
X110551Y82366D01*
X110634Y82289D01*
X110714Y82209D01*
X110791Y82126D01*
X110866Y82040D01*
X110937Y81952D01*
X111005Y81861D01*
X111070Y81768D01*
X111132Y81673D01*
X111191Y81576D01*
X111246Y81477D01*
X111297Y81376D01*
X111345Y81273D01*
X111389Y81168D01*
X111430Y81063D01*
X111467Y80955D01*
X111500Y80847D01*
X111529Y80737D01*
X111555Y80627D01*
X111577Y80515D01*
X111594Y80403D01*
X111608Y80291D01*
X111618Y80178D01*
X111624Y80064D01*
X111626Y79951D01*
X111624Y79838D01*
X111618Y79724D01*
X111608Y79611D01*
X111594Y79499D01*
X111577Y79387D01*
X111555Y79275D01*
X111529Y79165D01*
X111500Y79055D01*
X111467Y78947D01*
X111430Y78839D01*
X111389Y78734D01*
X111345Y78629D01*
X111297Y78526D01*
X111246Y78425D01*
X111191Y78326D01*
X111132Y78229D01*
X111070Y78134D01*
X111005Y78041D01*
X110937Y77950D01*
X110866Y77862D01*
X110791Y77776D01*
X110714Y77693D01*
X110634Y77613D01*
X110551Y77536D01*
X110465Y77461D01*
X110377Y77390D01*
X110286Y77322D01*
X110193Y77257D01*
X110098Y77195D01*
X110001Y77136D01*
X109902Y77081D01*
X109801Y77030D01*
X109698Y76982D01*
X109593Y76938D01*
X109488Y76897D01*
X109380Y76860D01*
X109272Y76827D01*
X109162Y76798D01*
X109052Y76772D01*
X108940Y76750D01*
X108828Y76733D01*
X108716Y76719D01*
X108603Y76709D01*
X108489Y76703D01*
X108376Y76701D01*
X108263Y76703D01*
X108149Y76709D01*
X108036Y76719D01*
X107924Y76733D01*
X107812Y76750D01*
X107700Y76772D01*
X107590Y76798D01*
X107480Y76827D01*
X107372Y76860D01*
X107264Y76897D01*
X107159Y76938D01*
X107054Y76982D01*
X106951Y77030D01*
X106850Y77081D01*
X106751Y77136D01*
X106654Y77195D01*
X106559Y77257D01*
X106466Y77322D01*
X106375Y77390D01*
X106287Y77461D01*
X106201Y77536D01*
X106118Y77613D01*
X106038Y77693D01*
X105961Y77776D01*
X105886Y77862D01*
X105815Y77950D01*
X105747Y78041D01*
X105682Y78134D01*
X105620Y78229D01*
X105561Y78326D01*
X105506Y78425D01*
X105455Y78526D01*
X105407Y78629D01*
X105363Y78734D01*
X105322Y78839D01*
X105285Y78947D01*
X105252Y79055D01*
X105223Y79165D01*
X105197Y79275D01*
X105175Y79387D01*
X105158Y79499D01*
X105144Y79611D01*
X105134Y79724D01*
X105128Y79838D01*
X105126Y79951D01*
X76226Y130007D02*
X76228Y130120D01*
X76234Y130234D01*
X76244Y130347D01*
X76258Y130459D01*
X76275Y130571D01*
X76297Y130683D01*
X76323Y130793D01*
X76352Y130903D01*
X76385Y131011D01*
X76422Y131119D01*
X76463Y131224D01*
X76507Y131329D01*
X76555Y131432D01*
X76606Y131533D01*
X76661Y131632D01*
X76720Y131729D01*
X76782Y131824D01*
X76847Y131917D01*
X76915Y132008D01*
X76986Y132096D01*
X77061Y132182D01*
X77138Y132265D01*
X77218Y132345D01*
X77301Y132422D01*
X77387Y132497D01*
X77475Y132568D01*
X77566Y132636D01*
X77659Y132701D01*
X77754Y132763D01*
X77851Y132822D01*
X77950Y132877D01*
X78051Y132928D01*
X78154Y132976D01*
X78259Y133020D01*
X78364Y133061D01*
X78472Y133098D01*
X78580Y133131D01*
X78690Y133160D01*
X78800Y133186D01*
X78912Y133208D01*
X79024Y133225D01*
X79136Y133239D01*
X79249Y133249D01*
X79363Y133255D01*
X79476Y133257D01*
X79589Y133255D01*
X79703Y133249D01*
X79816Y133239D01*
X79928Y133225D01*
X80040Y133208D01*
X80152Y133186D01*
X80262Y133160D01*
X80372Y133131D01*
X80480Y133098D01*
X80588Y133061D01*
X80693Y133020D01*
X80798Y132976D01*
X80901Y132928D01*
X81002Y132877D01*
X81101Y132822D01*
X81198Y132763D01*
X81293Y132701D01*
X81386Y132636D01*
X81477Y132568D01*
X81565Y132497D01*
X81651Y132422D01*
X81734Y132345D01*
X81814Y132265D01*
X81891Y132182D01*
X81966Y132096D01*
X82037Y132008D01*
X82105Y131917D01*
X82170Y131824D01*
X82232Y131729D01*
X82291Y131632D01*
X82346Y131533D01*
X82397Y131432D01*
X82445Y131329D01*
X82489Y131224D01*
X82530Y131119D01*
X82567Y131011D01*
X82600Y130903D01*
X82629Y130793D01*
X82655Y130683D01*
X82677Y130571D01*
X82694Y130459D01*
X82708Y130347D01*
X82718Y130234D01*
X82724Y130120D01*
X82726Y130007D01*
X82724Y129894D01*
X82718Y129780D01*
X82708Y129667D01*
X82694Y129555D01*
X82677Y129443D01*
X82655Y129331D01*
X82629Y129221D01*
X82600Y129111D01*
X82567Y129003D01*
X82530Y128895D01*
X82489Y128790D01*
X82445Y128685D01*
X82397Y128582D01*
X82346Y128481D01*
X82291Y128382D01*
X82232Y128285D01*
X82170Y128190D01*
X82105Y128097D01*
X82037Y128006D01*
X81966Y127918D01*
X81891Y127832D01*
X81814Y127749D01*
X81734Y127669D01*
X81651Y127592D01*
X81565Y127517D01*
X81477Y127446D01*
X81386Y127378D01*
X81293Y127313D01*
X81198Y127251D01*
X81101Y127192D01*
X81002Y127137D01*
X80901Y127086D01*
X80798Y127038D01*
X80693Y126994D01*
X80588Y126953D01*
X80480Y126916D01*
X80372Y126883D01*
X80262Y126854D01*
X80152Y126828D01*
X80040Y126806D01*
X79928Y126789D01*
X79816Y126775D01*
X79703Y126765D01*
X79589Y126759D01*
X79476Y126757D01*
X79363Y126759D01*
X79249Y126765D01*
X79136Y126775D01*
X79024Y126789D01*
X78912Y126806D01*
X78800Y126828D01*
X78690Y126854D01*
X78580Y126883D01*
X78472Y126916D01*
X78364Y126953D01*
X78259Y126994D01*
X78154Y127038D01*
X78051Y127086D01*
X77950Y127137D01*
X77851Y127192D01*
X77754Y127251D01*
X77659Y127313D01*
X77566Y127378D01*
X77475Y127446D01*
X77387Y127517D01*
X77301Y127592D01*
X77218Y127669D01*
X77138Y127749D01*
X77061Y127832D01*
X76986Y127918D01*
X76915Y128006D01*
X76847Y128097D01*
X76782Y128190D01*
X76720Y128285D01*
X76661Y128382D01*
X76606Y128481D01*
X76555Y128582D01*
X76507Y128685D01*
X76463Y128790D01*
X76422Y128895D01*
X76385Y129003D01*
X76352Y129111D01*
X76323Y129221D01*
X76297Y129331D01*
X76275Y129443D01*
X76258Y129555D01*
X76244Y129667D01*
X76234Y129780D01*
X76228Y129894D01*
X76226Y130007D01*
D11*
X0Y160000D02*
X92376Y0D01*
X252087Y0D01*
X250892Y58407D01*
X250951Y60936D01*
X251230Y63451D01*
X251727Y65931D01*
X252438Y68359D01*
X253358Y70716D01*
X254480Y72983D01*
X255795Y75144D01*
X255988Y75428D01*
X234076Y113381D01*
X233673Y114155D01*
X233339Y114961D01*
X233077Y115793D01*
X232888Y116644D01*
X232774Y117509D01*
X232736Y118381D01*
X232774Y119252D01*
X232888Y120117D01*
X233077Y120969D01*
X233339Y121801D01*
X233673Y122607D01*
X234076Y123381D01*
X234545Y124117D01*
X235076Y124809D01*
X235665Y125452D01*
X236308Y126041D01*
X237000Y126572D01*
X237736Y127041D01*
X242036Y129523D01*
X242810Y129926D01*
X243616Y130260D01*
X244448Y130522D01*
X245299Y130711D01*
X246164Y130825D01*
X247036Y130863D01*
X247907Y130825D01*
X248772Y130711D01*
X249624Y130522D01*
X250456Y130260D01*
X251262Y129926D01*
X252036Y129523D01*
X252772Y129054D01*
X253464Y128523D01*
X254107Y127934D01*
X254696Y127291D01*
X255227Y126599D01*
X255696Y125863D01*
X277608Y87910D01*
X280136Y87999D01*
X282663Y87866D01*
X285168Y87515D01*
X287633Y86946D01*
X290039Y86164D01*
X292368Y85176D01*
X294602Y83988D01*
X296724Y82611D01*
X298718Y81053D01*
X298958Y80846D01*
X342966Y42426D01*
X632756Y42426D01*
X676764Y80846D01*
X678741Y82425D01*
X680847Y83826D01*
X683068Y85038D01*
X685386Y86052D01*
X687783Y86859D01*
X690242Y87455D01*
X692743Y87835D01*
X695268Y87994D01*
X697798Y87934D01*
X700312Y87653D01*
X702792Y87153D01*
X705219Y86440D01*
X707575Y85518D01*
X709842Y84394D01*
X712001Y83077D01*
X714038Y81576D01*
X715937Y79904D01*
X717682Y78072D01*
X719261Y76096D01*
X720662Y73989D01*
X721874Y71768D01*
X722888Y69450D01*
X723696Y67053D01*
X724291Y64594D01*
X724671Y62093D01*
X724831Y59568D01*
X724830Y58407D01*
X723635Y0D01*
X883346Y0D01*
X975722Y160000D01*
X895866Y298314D01*
X845882Y268076D01*
X843662Y266862D01*
X841345Y265846D01*
X838949Y265036D01*
X836490Y264438D01*
X833989Y264057D01*
X831465Y263895D01*
X828936Y263953D01*
X826421Y264232D01*
X823940Y264729D01*
X821513Y265440D01*
X819156Y266360D01*
X816888Y267482D01*
X814727Y268798D01*
X812689Y270296D01*
X810789Y271967D01*
X809042Y273797D01*
X807461Y275772D01*
X806059Y277878D01*
X804845Y280097D01*
X803829Y282414D01*
X803019Y284811D01*
X802421Y287269D01*
X802040Y289770D01*
X801878Y292295D01*
X801936Y294824D01*
X802215Y297339D01*
X802416Y298482D01*
X813685Y355804D01*
X668790Y606770D01*
X613513Y625672D01*
X611157Y626594D01*
X608891Y627718D01*
X606731Y629036D01*
X604694Y630536D01*
X602796Y632208D01*
X601050Y634040D01*
X599471Y636016D01*
X598070Y638123D01*
X596858Y640344D01*
X595845Y642662D01*
X595037Y645059D01*
X594441Y647518D01*
X594062Y650019D01*
X593902Y652544D01*
X593963Y655073D01*
X594244Y657588D01*
X594743Y660068D01*
X595456Y662495D01*
X596378Y664851D01*
X597502Y667117D01*
X598820Y669277D01*
X600320Y671314D01*
X601993Y673213D01*
X603824Y674958D01*
X605801Y676537D01*
X607907Y677938D01*
X608913Y678518D01*
X660093Y706686D01*
X580237Y845000D01*
X395485Y845000D01*
X315629Y706686D01*
X366809Y678518D01*
X368970Y677203D01*
X371008Y675704D01*
X372908Y674033D01*
X374655Y672203D01*
X376236Y670228D01*
X377639Y668123D01*
X378853Y665903D01*
X379868Y663586D01*
X380678Y661189D01*
X381276Y658731D01*
X381658Y656230D01*
X381820Y653705D01*
X381761Y651176D01*
X381482Y648661D01*
X380985Y646181D01*
X380274Y643753D01*
X379354Y641396D01*
X378232Y639129D01*
X376917Y636968D01*
X375418Y634930D01*
X373747Y633030D01*
X371917Y631283D01*
X369942Y629702D01*
X367837Y628299D01*
X365617Y627085D01*
X363300Y626070D01*
X362209Y625672D01*
X306932Y606770D01*
X162037Y355804D01*
X173306Y298482D01*
X173685Y295981D01*
X173845Y293456D01*
X173784Y290927D01*
X173503Y288412D01*
X173004Y285932D01*
X172291Y283505D01*
X171369Y281149D01*
X170245Y278882D01*
X168927Y276723D01*
X168749Y276460D01*
X190661Y238508D01*
X191064Y237734D01*
X191398Y236928D01*
X191660Y236096D01*
X191849Y235244D01*
X191962Y234380D01*
X192000Y233508D01*
X191962Y232636D01*
X191848Y231771D01*
X191660Y230920D01*
X191397Y230088D01*
X191063Y229282D01*
X190660Y228508D01*
X190192Y227772D01*
X189661Y227080D01*
X189071Y226437D01*
X188428Y225848D01*
X187736Y225317D01*
X187000Y224848D01*
X182701Y222365D01*
X181927Y221962D01*
X181121Y221628D01*
X180289Y221366D01*
X179437Y221177D01*
X178572Y221063D01*
X177701Y221025D01*
X176829Y221063D01*
X175964Y221177D01*
X175113Y221366D01*
X174280Y221628D01*
X173474Y221962D01*
X172701Y222365D01*
X171965Y222833D01*
X171273Y223365D01*
X170629Y223954D01*
X170040Y224597D01*
X169509Y225289D01*
X169040Y226025D01*
X147129Y263978D01*
X144601Y263890D01*
X142074Y264022D01*
X139569Y264374D01*
X137104Y264943D01*
X134697Y265724D01*
X132368Y266713D01*
X130135Y267900D01*
X129840Y268076D01*
X79856Y298314D01*
X0Y160000D01*
X350640Y249563D02*
X350564Y248694D01*
X350412Y247834D01*
X350186Y246990D01*
X349888Y246170D01*
X349519Y245378D01*
X349082Y244622D01*
X348581Y243907D01*
X348020Y243238D01*
X347402Y242620D01*
X346733Y242059D01*
X346018Y241558D01*
X345262Y241121D01*
X344470Y240752D01*
X343650Y240454D01*
X342806Y240228D01*
X341947Y240076D01*
X341077Y240000D01*
X340203Y240000D01*
X339334Y240076D01*
X338474Y240228D01*
X337630Y240454D01*
X336810Y240752D01*
X336018Y241121D01*
X335262Y241558D01*
X334547Y242059D01*
X333878Y242620D01*
X333260Y243238D01*
X332699Y243907D01*
X332198Y244622D01*
X331761Y245378D01*
X331392Y246170D01*
X331094Y246990D01*
X330868Y247834D01*
X330716Y248694D01*
X330640Y249563D01*
X330640Y250437D01*
X330716Y251307D01*
X330868Y252166D01*
X331094Y253010D01*
X331392Y253830D01*
X331761Y254622D01*
X332198Y255378D01*
X332699Y256093D01*
X333260Y256762D01*
X333878Y257380D01*
X334547Y257941D01*
X335262Y258442D01*
X336018Y258879D01*
X336810Y259248D01*
X337630Y259546D01*
X338474Y259772D01*
X339334Y259924D01*
X340203Y260000D01*
X341077Y260000D01*
X341947Y259924D01*
X342806Y259772D01*
X343650Y259546D01*
X344470Y259248D01*
X345262Y258879D01*
X346018Y258442D01*
X346733Y257941D01*
X347402Y257380D01*
X348020Y256762D01*
X348581Y256093D01*
X349082Y255378D01*
X349519Y254622D01*
X349888Y253830D01*
X350186Y253010D01*
X350412Y252166D01*
X350564Y251307D01*
X350640Y250437D01*
X350640Y249563D01*
X645080Y249563D02*
X645004Y248694D01*
X644852Y247834D01*
X644626Y246990D01*
X644328Y246170D01*
X643959Y245378D01*
X643522Y244622D01*
X643021Y243907D01*
X642460Y243238D01*
X641842Y242620D01*
X641173Y242059D01*
X640458Y241558D01*
X639702Y241121D01*
X638910Y240752D01*
X638090Y240454D01*
X637246Y240228D01*
X636387Y240076D01*
X635517Y240000D01*
X634643Y240000D01*
X633774Y240076D01*
X632914Y240228D01*
X632070Y240454D01*
X631250Y240752D01*
X630458Y241121D01*
X629702Y241558D01*
X628987Y242059D01*
X628318Y242620D01*
X627700Y243238D01*
X627139Y243907D01*
X626638Y244622D01*
X626201Y245378D01*
X625832Y246170D01*
X625534Y246990D01*
X625308Y247834D01*
X625156Y248694D01*
X625080Y249563D01*
X625080Y250437D01*
X625156Y251307D01*
X625308Y252166D01*
X625534Y253010D01*
X625832Y253830D01*
X626201Y254622D01*
X626638Y255378D01*
X627139Y256093D01*
X627700Y256762D01*
X628318Y257380D01*
X628987Y257941D01*
X629702Y258442D01*
X630458Y258879D01*
X631250Y259248D01*
X632070Y259546D01*
X632914Y259772D01*
X633774Y259924D01*
X634643Y260000D01*
X635517Y260000D01*
X636387Y259924D01*
X637246Y259772D01*
X638090Y259546D01*
X638910Y259248D01*
X639702Y258879D01*
X640458Y258442D01*
X641173Y257941D01*
X641842Y257380D01*
X642460Y256762D01*
X643021Y256093D01*
X643522Y255378D01*
X643959Y254622D01*
X644328Y253830D01*
X644626Y253010D01*
X644852Y252166D01*
X645004Y251307D01*
X645080Y250437D01*
X645080Y249563D01*
X497860Y504563D02*
X497784Y503694D01*
X497632Y502834D01*
X497406Y501990D01*
X497108Y501170D01*
X496739Y500378D01*
X496302Y499622D01*
X495801Y498907D01*
X495240Y498238D01*
X494622Y497620D01*
X493953Y497059D01*
X493238Y496558D01*
X492482Y496121D01*
X491690Y495752D01*
X490870Y495454D01*
X490026Y495228D01*
X489167Y495076D01*
X488297Y495000D01*
X487423Y495000D01*
X486554Y495076D01*
X485694Y495228D01*
X484850Y495454D01*
X484030Y495752D01*
X483238Y496121D01*
X482482Y496558D01*
X481767Y497059D01*
X481098Y497620D01*
X480480Y498238D01*
X479919Y498907D01*
X479418Y499622D01*
X478981Y500378D01*
X478612Y501170D01*
X478314Y501990D01*
X478088Y502834D01*
X477936Y503694D01*
X477860Y504563D01*
X477860Y505437D01*
X477936Y506307D01*
X478088Y507166D01*
X478314Y508010D01*
X478612Y508830D01*
X478981Y509622D01*
X479418Y510378D01*
X479919Y511093D01*
X480480Y511762D01*
X481098Y512380D01*
X481767Y512941D01*
X482482Y513442D01*
X483238Y513879D01*
X484030Y514248D01*
X484850Y514546D01*
X485694Y514772D01*
X486554Y514924D01*
X487423Y515000D01*
X488297Y515000D01*
X489167Y514924D01*
X490026Y514772D01*
X490870Y514546D01*
X491690Y514248D01*
X492482Y513879D01*
X493238Y513442D01*
X493953Y512941D01*
X494622Y512380D01*
X495240Y511762D01*
X495801Y511093D01*
X496302Y510378D01*
X496739Y509622D01*
X497108Y508830D01*
X497406Y508010D01*
X497632Y507166D01*
X497784Y506307D01*
X497860Y505437D01*
X497860Y504563D01*
X106566Y82659D02*
X106228Y82400D01*
X105927Y82098D01*
X105668Y81760D01*
X105455Y81391D01*
X105292Y80998D01*
X105181Y80586D01*
X105126Y80164D01*
X105126Y79738D01*
X105181Y79315D01*
X105292Y78904D01*
X105455Y78510D01*
X105668Y78141D01*
X105927Y77803D01*
X106228Y77502D01*
X106566Y77243D01*
X106935Y77030D01*
X107329Y76867D01*
X107740Y76756D01*
X108163Y76701D01*
X108589Y76701D01*
X109011Y76756D01*
X109423Y76867D01*
X109816Y77030D01*
X110185Y77243D01*
X110523Y77502D01*
X110824Y77803D01*
X111084Y78141D01*
X111297Y78510D01*
X111460Y78904D01*
X111570Y79315D01*
X111626Y79738D01*
X111626Y80164D01*
X111570Y80586D01*
X111460Y80998D01*
X111297Y81391D01*
X111084Y81760D01*
X110824Y82098D01*
X110523Y82400D01*
X110185Y82659D01*
X109816Y82872D01*
X109423Y83035D01*
X109011Y83145D01*
X108589Y83201D01*
X108163Y83201D01*
X107740Y83145D01*
X107329Y83035D01*
X106935Y82872D01*
X106566Y82659D01*
X77666Y132715D02*
X77328Y132456D01*
X77027Y132155D01*
X76768Y131817D01*
X76555Y131448D01*
X76392Y131054D01*
X76281Y130643D01*
X76226Y130220D01*
X76226Y129794D01*
X76281Y129372D01*
X76392Y128960D01*
X76555Y128567D01*
X76768Y128198D01*
X77027Y127860D01*
X77328Y127558D01*
X77666Y127299D01*
X78035Y127086D01*
X78429Y126923D01*
X78840Y126813D01*
X79263Y126757D01*
X79689Y126757D01*
X80111Y126813D01*
X80523Y126923D01*
X80916Y127086D01*
X81285Y127299D01*
X81623Y127558D01*
X81924Y127860D01*
X82184Y128198D01*
X82397Y128567D01*
X82560Y128960D01*
X82670Y129372D01*
X82726Y129794D01*
X82726Y130220D01*
X82670Y130643D01*
X82560Y131054D01*
X82397Y131448D01*
X82184Y131817D01*
X81924Y132155D01*
X81623Y132456D01*
X81285Y132715D01*
X80916Y132928D01*
X80523Y133091D01*
X80111Y133202D01*
X79689Y133257D01*
X79263Y133257D01*
X78840Y133202D01*
X78429Y133091D01*
X78035Y132928D01*
X77666Y132715D01*
M02*
