G04 EAGLE Gerber RS-274X export*
G75*
%MOMM*%
%FSLAX34Y34*%
%LPD*%
%INTop Solder Mask*%
%IPPOS*%
%AMOC8*
5,1,8,0,0,1.08239X$1,22.5*%
G01*
%ADD10C,2.101600*%
%ADD11C,0.751600*%
%ADD12R,1.601600X0.736600*%
%ADD13R,0.736600X1.601600*%
%ADD14R,0.301600X0.501600*%
%ADD15R,5.701600X5.701600*%
%ADD16R,0.401600X0.651600*%
%ADD17R,0.651600X0.401600*%
%ADD18R,1.601600X1.401600*%
%ADD19R,1.301600X1.601600*%
%ADD20R,0.400000X1.700000*%
%ADD21R,0.901600X1.901600*%
%ADD22R,1.101600X1.501600*%
%ADD23R,1.117600X3.403600*%
%ADD24R,2.601600X1.141600*%
%ADD25R,2.601600X1.121600*%

G36*
X573042Y390919D02*
X573042Y390919D01*
X573183Y390935D01*
X573195Y390939D01*
X573207Y390941D01*
X573339Y390995D01*
X573472Y391046D01*
X573481Y391053D01*
X573493Y391057D01*
X573607Y391144D01*
X573722Y391227D01*
X573730Y391236D01*
X573739Y391244D01*
X573828Y391356D01*
X573918Y391466D01*
X573923Y391477D01*
X573930Y391487D01*
X573987Y391617D01*
X574046Y391747D01*
X574048Y391758D01*
X574053Y391770D01*
X574099Y392076D01*
X574098Y392089D01*
X574099Y392100D01*
X574099Y407900D01*
X574081Y408042D01*
X574065Y408183D01*
X574061Y408195D01*
X574059Y408207D01*
X574005Y408339D01*
X573954Y408472D01*
X573947Y408481D01*
X573943Y408493D01*
X573856Y408607D01*
X573773Y408722D01*
X573764Y408730D01*
X573756Y408739D01*
X573644Y408828D01*
X573534Y408918D01*
X573523Y408923D01*
X573513Y408930D01*
X573383Y408987D01*
X573253Y409046D01*
X573242Y409048D01*
X573230Y409053D01*
X572924Y409099D01*
X572911Y409098D01*
X572900Y409099D01*
X557100Y409099D01*
X556958Y409081D01*
X556817Y409065D01*
X556806Y409061D01*
X556793Y409059D01*
X556661Y409005D01*
X556528Y408954D01*
X556519Y408947D01*
X556507Y408943D01*
X556393Y408856D01*
X556278Y408773D01*
X556270Y408764D01*
X556261Y408756D01*
X556172Y408644D01*
X556082Y408534D01*
X556077Y408523D01*
X556070Y408513D01*
X556013Y408383D01*
X555954Y408253D01*
X555952Y408242D01*
X555947Y408230D01*
X555901Y407924D01*
X555902Y407911D01*
X555901Y407900D01*
X555901Y392100D01*
X555919Y391958D01*
X555935Y391817D01*
X555939Y391806D01*
X555941Y391793D01*
X555995Y391661D01*
X556046Y391528D01*
X556053Y391519D01*
X556057Y391507D01*
X556144Y391393D01*
X556227Y391278D01*
X556236Y391270D01*
X556244Y391261D01*
X556356Y391172D01*
X556466Y391082D01*
X556477Y391077D01*
X556487Y391070D01*
X556617Y391013D01*
X556747Y390954D01*
X556758Y390952D01*
X556770Y390947D01*
X557076Y390901D01*
X557089Y390902D01*
X557100Y390901D01*
X572900Y390901D01*
X573042Y390919D01*
G37*
G36*
X573042Y340919D02*
X573042Y340919D01*
X573183Y340935D01*
X573195Y340939D01*
X573207Y340941D01*
X573339Y340995D01*
X573472Y341046D01*
X573481Y341053D01*
X573493Y341057D01*
X573607Y341144D01*
X573722Y341227D01*
X573730Y341236D01*
X573739Y341244D01*
X573828Y341356D01*
X573918Y341466D01*
X573923Y341477D01*
X573930Y341487D01*
X573987Y341617D01*
X574046Y341747D01*
X574048Y341758D01*
X574053Y341770D01*
X574099Y342076D01*
X574098Y342089D01*
X574099Y342100D01*
X574099Y357900D01*
X574081Y358042D01*
X574065Y358183D01*
X574061Y358195D01*
X574059Y358207D01*
X574005Y358339D01*
X573954Y358472D01*
X573947Y358481D01*
X573943Y358493D01*
X573856Y358607D01*
X573773Y358722D01*
X573764Y358730D01*
X573756Y358739D01*
X573644Y358828D01*
X573534Y358918D01*
X573523Y358923D01*
X573513Y358930D01*
X573383Y358987D01*
X573253Y359046D01*
X573242Y359048D01*
X573230Y359053D01*
X572924Y359099D01*
X572911Y359098D01*
X572900Y359099D01*
X557100Y359099D01*
X556958Y359081D01*
X556817Y359065D01*
X556806Y359061D01*
X556793Y359059D01*
X556661Y359005D01*
X556528Y358954D01*
X556519Y358947D01*
X556507Y358943D01*
X556393Y358856D01*
X556278Y358773D01*
X556270Y358764D01*
X556261Y358756D01*
X556172Y358644D01*
X556082Y358534D01*
X556077Y358523D01*
X556070Y358513D01*
X556013Y358383D01*
X555954Y358253D01*
X555952Y358242D01*
X555947Y358230D01*
X555901Y357924D01*
X555902Y357911D01*
X555901Y357900D01*
X555901Y342100D01*
X555919Y341958D01*
X555935Y341817D01*
X555939Y341806D01*
X555941Y341793D01*
X555995Y341661D01*
X556046Y341528D01*
X556053Y341519D01*
X556057Y341507D01*
X556144Y341393D01*
X556227Y341278D01*
X556236Y341270D01*
X556244Y341261D01*
X556356Y341172D01*
X556466Y341082D01*
X556477Y341077D01*
X556487Y341070D01*
X556617Y341013D01*
X556747Y340954D01*
X556758Y340952D01*
X556770Y340947D01*
X557076Y340901D01*
X557089Y340902D01*
X557100Y340901D01*
X572900Y340901D01*
X573042Y340919D01*
G37*
G36*
X72561Y135683D02*
X72561Y135683D01*
X72624Y135686D01*
X73851Y135947D01*
X73889Y135963D01*
X73950Y135979D01*
X75096Y136489D01*
X75115Y136502D01*
X75142Y136513D01*
X84669Y142013D01*
X84686Y142028D01*
X84713Y142041D01*
X85727Y142779D01*
X85754Y142808D01*
X85767Y142817D01*
X85769Y142820D01*
X85805Y142848D01*
X86644Y143781D01*
X86665Y143816D01*
X86706Y143865D01*
X87333Y144951D01*
X87342Y144980D01*
X87343Y144981D01*
X87343Y144983D01*
X87346Y144991D01*
X87375Y145047D01*
X87763Y146240D01*
X87767Y146281D01*
X87784Y146342D01*
X87916Y147589D01*
X87912Y147630D01*
X87913Y147654D01*
X87916Y147673D01*
X87915Y147680D01*
X87916Y147693D01*
X87784Y148941D01*
X87772Y148980D01*
X87763Y149043D01*
X87375Y150236D01*
X87355Y150272D01*
X87333Y150331D01*
X86706Y151418D01*
X86678Y151449D01*
X86644Y151502D01*
X85805Y152434D01*
X85771Y152459D01*
X85727Y152504D01*
X84712Y153241D01*
X84675Y153259D01*
X84622Y153294D01*
X83476Y153804D01*
X83436Y153813D01*
X83377Y153836D01*
X82150Y154097D01*
X82109Y154097D01*
X82046Y154108D01*
X80792Y154108D01*
X80751Y154099D01*
X80688Y154097D01*
X79461Y153836D01*
X79423Y153819D01*
X79362Y153804D01*
X78216Y153294D01*
X78197Y153280D01*
X78169Y153270D01*
X68643Y147770D01*
X68626Y147755D01*
X68599Y147741D01*
X67585Y147004D01*
X67557Y146974D01*
X67507Y146934D01*
X66668Y146002D01*
X66647Y145966D01*
X66606Y145918D01*
X65979Y144831D01*
X65966Y144792D01*
X65937Y144736D01*
X65549Y143543D01*
X65544Y143502D01*
X65527Y143441D01*
X65396Y142193D01*
X65399Y142165D01*
X65396Y142149D01*
X65399Y142136D01*
X65396Y142089D01*
X65527Y140842D01*
X65540Y140802D01*
X65549Y140740D01*
X65937Y139547D01*
X65957Y139511D01*
X65979Y139451D01*
X66606Y138365D01*
X66634Y138334D01*
X66668Y138281D01*
X67507Y137348D01*
X67540Y137324D01*
X67544Y137320D01*
X67557Y137302D01*
X67568Y137296D01*
X67585Y137279D01*
X68599Y136541D01*
X68637Y136524D01*
X68690Y136489D01*
X69836Y135979D01*
X69876Y135970D01*
X69935Y135947D01*
X71162Y135686D01*
X71203Y135685D01*
X71266Y135675D01*
X72520Y135675D01*
X72561Y135683D01*
G37*
G36*
X115761Y60859D02*
X115761Y60859D01*
X115824Y60861D01*
X117051Y61122D01*
X117089Y61139D01*
X117150Y61154D01*
X118296Y61664D01*
X118315Y61678D01*
X118342Y61688D01*
X127869Y67188D01*
X127886Y67203D01*
X127912Y67217D01*
X128927Y67954D01*
X128954Y67983D01*
X128967Y67992D01*
X128969Y67995D01*
X129005Y68024D01*
X129844Y68956D01*
X129865Y68992D01*
X129905Y69040D01*
X130533Y70127D01*
X130542Y70156D01*
X130543Y70157D01*
X130543Y70158D01*
X130546Y70166D01*
X130575Y70222D01*
X130963Y71415D01*
X130967Y71456D01*
X130984Y71517D01*
X131116Y72765D01*
X131112Y72806D01*
X131113Y72829D01*
X131116Y72849D01*
X131115Y72856D01*
X131116Y72869D01*
X130984Y74116D01*
X130972Y74156D01*
X130963Y74218D01*
X130575Y75411D01*
X130555Y75447D01*
X130533Y75507D01*
X129905Y76593D01*
X129878Y76624D01*
X129844Y76677D01*
X129005Y77610D01*
X128971Y77634D01*
X128927Y77679D01*
X127912Y78417D01*
X127875Y78434D01*
X127822Y78469D01*
X126676Y78979D01*
X126636Y78988D01*
X126577Y79011D01*
X125350Y79272D01*
X125309Y79273D01*
X125246Y79283D01*
X123992Y79283D01*
X123951Y79275D01*
X123888Y79272D01*
X122661Y79011D01*
X122623Y78995D01*
X122562Y78979D01*
X121416Y78469D01*
X121397Y78456D01*
X121369Y78445D01*
X111843Y72945D01*
X111826Y72930D01*
X111799Y72917D01*
X110785Y72179D01*
X110757Y72149D01*
X110707Y72110D01*
X109868Y71177D01*
X109847Y71142D01*
X109806Y71093D01*
X109179Y70007D01*
X109166Y69967D01*
X109137Y69911D01*
X108749Y68718D01*
X108744Y68677D01*
X108727Y68616D01*
X108596Y67369D01*
X108599Y67340D01*
X108596Y67324D01*
X108599Y67312D01*
X108596Y67265D01*
X108727Y66017D01*
X108740Y65977D01*
X108749Y65915D01*
X109137Y64722D01*
X109157Y64686D01*
X109179Y64627D01*
X109806Y63540D01*
X109834Y63509D01*
X109868Y63456D01*
X110707Y62524D01*
X110740Y62499D01*
X110744Y62495D01*
X110757Y62477D01*
X110768Y62471D01*
X110785Y62454D01*
X111799Y61717D01*
X111837Y61699D01*
X111890Y61664D01*
X113036Y61154D01*
X113076Y61145D01*
X113135Y61122D01*
X114362Y60861D01*
X114403Y60861D01*
X114466Y60850D01*
X115720Y60850D01*
X115761Y60859D01*
G37*
G36*
X37660Y115533D02*
X37660Y115533D01*
X37723Y115536D01*
X38950Y115797D01*
X38988Y115813D01*
X39049Y115829D01*
X40195Y116339D01*
X40214Y116352D01*
X40242Y116363D01*
X47170Y120363D01*
X47187Y120378D01*
X47214Y120391D01*
X48228Y121129D01*
X48256Y121158D01*
X48271Y121169D01*
X48273Y121173D01*
X48306Y121198D01*
X49145Y122131D01*
X49166Y122166D01*
X49207Y122215D01*
X49834Y123301D01*
X49844Y123331D01*
X49845Y123333D01*
X49846Y123338D01*
X49847Y123341D01*
X49876Y123397D01*
X50264Y124590D01*
X50269Y124631D01*
X50286Y124692D01*
X50417Y125939D01*
X50413Y125980D01*
X50415Y126010D01*
X50417Y126026D01*
X50416Y126031D01*
X50417Y126043D01*
X50286Y127291D01*
X50273Y127330D01*
X50264Y127393D01*
X49876Y128586D01*
X49856Y128622D01*
X49834Y128681D01*
X49207Y129768D01*
X49179Y129799D01*
X49145Y129852D01*
X48306Y130784D01*
X48273Y130809D01*
X48228Y130854D01*
X47214Y131591D01*
X47176Y131609D01*
X47123Y131644D01*
X45977Y132154D01*
X45937Y132163D01*
X45878Y132186D01*
X44651Y132447D01*
X44610Y132447D01*
X44547Y132458D01*
X43293Y132458D01*
X43252Y132449D01*
X43189Y132447D01*
X41962Y132186D01*
X41924Y132169D01*
X41863Y132154D01*
X40717Y131644D01*
X40698Y131630D01*
X40671Y131620D01*
X33742Y127620D01*
X33725Y127605D01*
X33698Y127591D01*
X32684Y126854D01*
X32656Y126824D01*
X32606Y126784D01*
X31767Y125852D01*
X31746Y125816D01*
X31705Y125768D01*
X31078Y124681D01*
X31065Y124642D01*
X31036Y124586D01*
X30648Y123393D01*
X30644Y123352D01*
X30627Y123291D01*
X30495Y122043D01*
X30498Y122015D01*
X30495Y121999D01*
X30498Y121986D01*
X30495Y121939D01*
X30627Y120692D01*
X30639Y120652D01*
X30648Y120590D01*
X31036Y119397D01*
X31056Y119361D01*
X31078Y119301D01*
X31705Y118215D01*
X31733Y118184D01*
X31767Y118131D01*
X32606Y117198D01*
X32639Y117174D01*
X32644Y117170D01*
X32657Y117152D01*
X32667Y117146D01*
X32684Y117129D01*
X33698Y116391D01*
X33736Y116374D01*
X33789Y116339D01*
X34935Y115829D01*
X34975Y115820D01*
X35034Y115797D01*
X36261Y115536D01*
X36302Y115535D01*
X36365Y115525D01*
X37619Y115525D01*
X37660Y115533D01*
G37*
G36*
X80860Y40709D02*
X80860Y40709D01*
X80923Y40711D01*
X82150Y40972D01*
X82188Y40989D01*
X82249Y41004D01*
X83395Y41514D01*
X83414Y41528D01*
X83442Y41538D01*
X90370Y45538D01*
X90387Y45553D01*
X90414Y45567D01*
X91428Y46304D01*
X91456Y46334D01*
X91471Y46344D01*
X91473Y46348D01*
X91506Y46374D01*
X92345Y47306D01*
X92366Y47342D01*
X92407Y47390D01*
X93034Y48477D01*
X93044Y48506D01*
X93045Y48509D01*
X93046Y48514D01*
X93047Y48516D01*
X93076Y48572D01*
X93464Y49765D01*
X93469Y49806D01*
X93486Y49867D01*
X93617Y51115D01*
X93613Y51156D01*
X93615Y51185D01*
X93617Y51201D01*
X93616Y51207D01*
X93617Y51219D01*
X93486Y52466D01*
X93473Y52506D01*
X93464Y52568D01*
X93076Y53761D01*
X93056Y53797D01*
X93034Y53857D01*
X92407Y54943D01*
X92379Y54974D01*
X92345Y55027D01*
X91506Y55960D01*
X91473Y55984D01*
X91428Y56029D01*
X90414Y56767D01*
X90376Y56784D01*
X90323Y56819D01*
X89177Y57329D01*
X89137Y57338D01*
X89078Y57361D01*
X87851Y57622D01*
X87810Y57623D01*
X87747Y57633D01*
X86493Y57633D01*
X86452Y57625D01*
X86389Y57622D01*
X85162Y57361D01*
X85124Y57345D01*
X85063Y57329D01*
X83917Y56819D01*
X83898Y56806D01*
X83871Y56795D01*
X76942Y52795D01*
X76925Y52780D01*
X76898Y52767D01*
X75884Y52029D01*
X75856Y51999D01*
X75806Y51960D01*
X74967Y51027D01*
X74946Y50992D01*
X74905Y50943D01*
X74278Y49857D01*
X74265Y49817D01*
X74236Y49761D01*
X73848Y48568D01*
X73844Y48527D01*
X73827Y48466D01*
X73695Y47219D01*
X73698Y47190D01*
X73695Y47174D01*
X73698Y47162D01*
X73695Y47115D01*
X73827Y45867D01*
X73839Y45828D01*
X73848Y45765D01*
X74236Y44572D01*
X74256Y44536D01*
X74278Y44477D01*
X74905Y43390D01*
X74933Y43359D01*
X74967Y43306D01*
X75806Y42374D01*
X75839Y42349D01*
X75843Y42345D01*
X75857Y42327D01*
X75867Y42321D01*
X75884Y42304D01*
X76898Y41567D01*
X76936Y41549D01*
X76989Y41514D01*
X78135Y41004D01*
X78175Y40995D01*
X78234Y40972D01*
X79461Y40711D01*
X79502Y40711D01*
X79565Y40700D01*
X80819Y40700D01*
X80860Y40709D01*
G37*
G36*
X553642Y405619D02*
X553642Y405619D01*
X553783Y405635D01*
X553795Y405639D01*
X553807Y405641D01*
X553939Y405695D01*
X554072Y405746D01*
X554081Y405753D01*
X554093Y405757D01*
X554207Y405844D01*
X554322Y405927D01*
X554330Y405936D01*
X554339Y405944D01*
X554428Y406056D01*
X554518Y406166D01*
X554523Y406177D01*
X554530Y406187D01*
X554587Y406317D01*
X554646Y406447D01*
X554648Y406458D01*
X554653Y406470D01*
X554699Y406776D01*
X554698Y406789D01*
X554699Y406800D01*
X554699Y408200D01*
X554681Y408342D01*
X554665Y408483D01*
X554661Y408495D01*
X554659Y408507D01*
X554605Y408639D01*
X554554Y408772D01*
X554547Y408781D01*
X554543Y408793D01*
X554456Y408907D01*
X554373Y409022D01*
X554364Y409030D01*
X554356Y409039D01*
X554244Y409128D01*
X554134Y409218D01*
X554123Y409223D01*
X554113Y409230D01*
X553983Y409287D01*
X553853Y409346D01*
X553842Y409348D01*
X553830Y409353D01*
X553524Y409399D01*
X553511Y409398D01*
X553500Y409399D01*
X548500Y409399D01*
X548358Y409381D01*
X548217Y409365D01*
X548206Y409361D01*
X548193Y409359D01*
X548061Y409305D01*
X547928Y409254D01*
X547919Y409247D01*
X547907Y409243D01*
X547793Y409156D01*
X547678Y409073D01*
X547670Y409064D01*
X547661Y409056D01*
X547572Y408944D01*
X547482Y408834D01*
X547477Y408823D01*
X547470Y408813D01*
X547413Y408683D01*
X547354Y408553D01*
X547352Y408542D01*
X547347Y408530D01*
X547301Y408224D01*
X547302Y408211D01*
X547301Y408200D01*
X547301Y406800D01*
X547319Y406658D01*
X547335Y406517D01*
X547339Y406506D01*
X547341Y406493D01*
X547395Y406361D01*
X547446Y406228D01*
X547453Y406219D01*
X547457Y406207D01*
X547544Y406093D01*
X547627Y405978D01*
X547636Y405970D01*
X547644Y405961D01*
X547756Y405872D01*
X547866Y405782D01*
X547877Y405777D01*
X547887Y405770D01*
X548017Y405713D01*
X548147Y405654D01*
X548158Y405652D01*
X548170Y405647D01*
X548476Y405601D01*
X548489Y405602D01*
X548500Y405601D01*
X553500Y405601D01*
X553642Y405619D01*
G37*
G36*
X581642Y400619D02*
X581642Y400619D01*
X581783Y400635D01*
X581795Y400639D01*
X581807Y400641D01*
X581939Y400695D01*
X582072Y400746D01*
X582081Y400753D01*
X582093Y400757D01*
X582207Y400844D01*
X582322Y400927D01*
X582330Y400936D01*
X582339Y400944D01*
X582428Y401056D01*
X582518Y401166D01*
X582523Y401177D01*
X582530Y401187D01*
X582587Y401317D01*
X582646Y401447D01*
X582648Y401458D01*
X582653Y401470D01*
X582699Y401776D01*
X582698Y401789D01*
X582699Y401800D01*
X582699Y403200D01*
X582681Y403342D01*
X582665Y403483D01*
X582661Y403495D01*
X582659Y403507D01*
X582605Y403639D01*
X582554Y403772D01*
X582547Y403781D01*
X582543Y403793D01*
X582456Y403907D01*
X582373Y404022D01*
X582364Y404030D01*
X582356Y404039D01*
X582244Y404128D01*
X582134Y404218D01*
X582123Y404223D01*
X582113Y404230D01*
X581983Y404287D01*
X581853Y404346D01*
X581842Y404348D01*
X581830Y404353D01*
X581524Y404399D01*
X581511Y404398D01*
X581500Y404399D01*
X576500Y404399D01*
X576358Y404381D01*
X576217Y404365D01*
X576206Y404361D01*
X576193Y404359D01*
X576061Y404305D01*
X575928Y404254D01*
X575919Y404247D01*
X575907Y404243D01*
X575793Y404156D01*
X575678Y404073D01*
X575670Y404064D01*
X575661Y404056D01*
X575572Y403944D01*
X575482Y403834D01*
X575477Y403823D01*
X575470Y403813D01*
X575413Y403683D01*
X575354Y403553D01*
X575352Y403542D01*
X575347Y403530D01*
X575301Y403224D01*
X575302Y403211D01*
X575301Y403200D01*
X575301Y401800D01*
X575319Y401658D01*
X575335Y401517D01*
X575339Y401506D01*
X575341Y401493D01*
X575395Y401361D01*
X575446Y401228D01*
X575453Y401219D01*
X575457Y401207D01*
X575544Y401093D01*
X575627Y400978D01*
X575636Y400970D01*
X575644Y400961D01*
X575756Y400872D01*
X575866Y400782D01*
X575877Y400777D01*
X575887Y400770D01*
X576017Y400713D01*
X576147Y400654D01*
X576158Y400652D01*
X576170Y400647D01*
X576476Y400601D01*
X576489Y400602D01*
X576500Y400601D01*
X581500Y400601D01*
X581642Y400619D01*
G37*
G36*
X553642Y400619D02*
X553642Y400619D01*
X553783Y400635D01*
X553795Y400639D01*
X553807Y400641D01*
X553939Y400695D01*
X554072Y400746D01*
X554081Y400753D01*
X554093Y400757D01*
X554207Y400844D01*
X554322Y400927D01*
X554330Y400936D01*
X554339Y400944D01*
X554428Y401056D01*
X554518Y401166D01*
X554523Y401177D01*
X554530Y401187D01*
X554587Y401317D01*
X554646Y401447D01*
X554648Y401458D01*
X554653Y401470D01*
X554699Y401776D01*
X554698Y401789D01*
X554699Y401800D01*
X554699Y403200D01*
X554681Y403342D01*
X554665Y403483D01*
X554661Y403495D01*
X554659Y403507D01*
X554605Y403639D01*
X554554Y403772D01*
X554547Y403781D01*
X554543Y403793D01*
X554456Y403907D01*
X554373Y404022D01*
X554364Y404030D01*
X554356Y404039D01*
X554244Y404128D01*
X554134Y404218D01*
X554123Y404223D01*
X554113Y404230D01*
X553983Y404287D01*
X553853Y404346D01*
X553842Y404348D01*
X553830Y404353D01*
X553524Y404399D01*
X553511Y404398D01*
X553500Y404399D01*
X548500Y404399D01*
X548358Y404381D01*
X548217Y404365D01*
X548206Y404361D01*
X548193Y404359D01*
X548061Y404305D01*
X547928Y404254D01*
X547919Y404247D01*
X547907Y404243D01*
X547793Y404156D01*
X547678Y404073D01*
X547670Y404064D01*
X547661Y404056D01*
X547572Y403944D01*
X547482Y403834D01*
X547477Y403823D01*
X547470Y403813D01*
X547413Y403683D01*
X547354Y403553D01*
X547352Y403542D01*
X547347Y403530D01*
X547301Y403224D01*
X547302Y403211D01*
X547301Y403200D01*
X547301Y401800D01*
X547319Y401658D01*
X547335Y401517D01*
X547339Y401506D01*
X547341Y401493D01*
X547395Y401361D01*
X547446Y401228D01*
X547453Y401219D01*
X547457Y401207D01*
X547544Y401093D01*
X547627Y400978D01*
X547636Y400970D01*
X547644Y400961D01*
X547756Y400872D01*
X547866Y400782D01*
X547877Y400777D01*
X547887Y400770D01*
X548017Y400713D01*
X548147Y400654D01*
X548158Y400652D01*
X548170Y400647D01*
X548476Y400601D01*
X548489Y400602D01*
X548500Y400601D01*
X553500Y400601D01*
X553642Y400619D01*
G37*
G36*
X553642Y395619D02*
X553642Y395619D01*
X553783Y395635D01*
X553795Y395639D01*
X553807Y395641D01*
X553939Y395695D01*
X554072Y395746D01*
X554081Y395753D01*
X554093Y395757D01*
X554207Y395844D01*
X554322Y395927D01*
X554330Y395936D01*
X554339Y395944D01*
X554428Y396056D01*
X554518Y396166D01*
X554523Y396177D01*
X554530Y396187D01*
X554587Y396317D01*
X554646Y396447D01*
X554648Y396458D01*
X554653Y396470D01*
X554699Y396776D01*
X554698Y396789D01*
X554699Y396800D01*
X554699Y398200D01*
X554681Y398342D01*
X554665Y398483D01*
X554661Y398495D01*
X554659Y398507D01*
X554605Y398639D01*
X554554Y398772D01*
X554547Y398781D01*
X554543Y398793D01*
X554456Y398907D01*
X554373Y399022D01*
X554364Y399030D01*
X554356Y399039D01*
X554244Y399128D01*
X554134Y399218D01*
X554123Y399223D01*
X554113Y399230D01*
X553983Y399287D01*
X553853Y399346D01*
X553842Y399348D01*
X553830Y399353D01*
X553524Y399399D01*
X553511Y399398D01*
X553500Y399399D01*
X548500Y399399D01*
X548358Y399381D01*
X548217Y399365D01*
X548206Y399361D01*
X548193Y399359D01*
X548061Y399305D01*
X547928Y399254D01*
X547919Y399247D01*
X547907Y399243D01*
X547793Y399156D01*
X547678Y399073D01*
X547670Y399064D01*
X547661Y399056D01*
X547572Y398944D01*
X547482Y398834D01*
X547477Y398823D01*
X547470Y398813D01*
X547413Y398683D01*
X547354Y398553D01*
X547352Y398542D01*
X547347Y398530D01*
X547301Y398224D01*
X547302Y398211D01*
X547301Y398200D01*
X547301Y396800D01*
X547319Y396658D01*
X547335Y396517D01*
X547339Y396506D01*
X547341Y396493D01*
X547395Y396361D01*
X547446Y396228D01*
X547453Y396219D01*
X547457Y396207D01*
X547544Y396093D01*
X547627Y395978D01*
X547636Y395970D01*
X547644Y395961D01*
X547756Y395872D01*
X547866Y395782D01*
X547877Y395777D01*
X547887Y395770D01*
X548017Y395713D01*
X548147Y395654D01*
X548158Y395652D01*
X548170Y395647D01*
X548476Y395601D01*
X548489Y395602D01*
X548500Y395601D01*
X553500Y395601D01*
X553642Y395619D01*
G37*
G36*
X581642Y395619D02*
X581642Y395619D01*
X581783Y395635D01*
X581795Y395639D01*
X581807Y395641D01*
X581939Y395695D01*
X582072Y395746D01*
X582081Y395753D01*
X582093Y395757D01*
X582207Y395844D01*
X582322Y395927D01*
X582330Y395936D01*
X582339Y395944D01*
X582428Y396056D01*
X582518Y396166D01*
X582523Y396177D01*
X582530Y396187D01*
X582587Y396317D01*
X582646Y396447D01*
X582648Y396458D01*
X582653Y396470D01*
X582699Y396776D01*
X582698Y396789D01*
X582699Y396800D01*
X582699Y398200D01*
X582681Y398342D01*
X582665Y398483D01*
X582661Y398495D01*
X582659Y398507D01*
X582605Y398639D01*
X582554Y398772D01*
X582547Y398781D01*
X582543Y398793D01*
X582456Y398907D01*
X582373Y399022D01*
X582364Y399030D01*
X582356Y399039D01*
X582244Y399128D01*
X582134Y399218D01*
X582123Y399223D01*
X582113Y399230D01*
X581983Y399287D01*
X581853Y399346D01*
X581842Y399348D01*
X581830Y399353D01*
X581524Y399399D01*
X581511Y399398D01*
X581500Y399399D01*
X576500Y399399D01*
X576358Y399381D01*
X576217Y399365D01*
X576206Y399361D01*
X576193Y399359D01*
X576061Y399305D01*
X575928Y399254D01*
X575919Y399247D01*
X575907Y399243D01*
X575793Y399156D01*
X575678Y399073D01*
X575670Y399064D01*
X575661Y399056D01*
X575572Y398944D01*
X575482Y398834D01*
X575477Y398823D01*
X575470Y398813D01*
X575413Y398683D01*
X575354Y398553D01*
X575352Y398542D01*
X575347Y398530D01*
X575301Y398224D01*
X575302Y398211D01*
X575301Y398200D01*
X575301Y396800D01*
X575319Y396658D01*
X575335Y396517D01*
X575339Y396506D01*
X575341Y396493D01*
X575395Y396361D01*
X575446Y396228D01*
X575453Y396219D01*
X575457Y396207D01*
X575544Y396093D01*
X575627Y395978D01*
X575636Y395970D01*
X575644Y395961D01*
X575756Y395872D01*
X575866Y395782D01*
X575877Y395777D01*
X575887Y395770D01*
X576017Y395713D01*
X576147Y395654D01*
X576158Y395652D01*
X576170Y395647D01*
X576476Y395601D01*
X576489Y395602D01*
X576500Y395601D01*
X581500Y395601D01*
X581642Y395619D01*
G37*
G36*
X553642Y390619D02*
X553642Y390619D01*
X553783Y390635D01*
X553795Y390639D01*
X553807Y390641D01*
X553939Y390695D01*
X554072Y390746D01*
X554081Y390753D01*
X554093Y390757D01*
X554207Y390844D01*
X554322Y390927D01*
X554330Y390936D01*
X554339Y390944D01*
X554428Y391056D01*
X554518Y391166D01*
X554523Y391177D01*
X554530Y391187D01*
X554587Y391317D01*
X554646Y391447D01*
X554648Y391458D01*
X554653Y391470D01*
X554699Y391776D01*
X554698Y391789D01*
X554699Y391800D01*
X554699Y393200D01*
X554681Y393342D01*
X554665Y393483D01*
X554661Y393495D01*
X554659Y393507D01*
X554605Y393639D01*
X554554Y393772D01*
X554547Y393781D01*
X554543Y393793D01*
X554456Y393907D01*
X554373Y394022D01*
X554364Y394030D01*
X554356Y394039D01*
X554244Y394128D01*
X554134Y394218D01*
X554123Y394223D01*
X554113Y394230D01*
X553983Y394287D01*
X553853Y394346D01*
X553842Y394348D01*
X553830Y394353D01*
X553524Y394399D01*
X553511Y394398D01*
X553500Y394399D01*
X548500Y394399D01*
X548358Y394381D01*
X548217Y394365D01*
X548206Y394361D01*
X548193Y394359D01*
X548061Y394305D01*
X547928Y394254D01*
X547919Y394247D01*
X547907Y394243D01*
X547793Y394156D01*
X547678Y394073D01*
X547670Y394064D01*
X547661Y394056D01*
X547572Y393944D01*
X547482Y393834D01*
X547477Y393823D01*
X547470Y393813D01*
X547413Y393683D01*
X547354Y393553D01*
X547352Y393542D01*
X547347Y393530D01*
X547301Y393224D01*
X547302Y393211D01*
X547301Y393200D01*
X547301Y391800D01*
X547319Y391658D01*
X547335Y391517D01*
X547339Y391506D01*
X547341Y391493D01*
X547395Y391361D01*
X547446Y391228D01*
X547453Y391219D01*
X547457Y391207D01*
X547544Y391093D01*
X547627Y390978D01*
X547636Y390970D01*
X547644Y390961D01*
X547756Y390872D01*
X547866Y390782D01*
X547877Y390777D01*
X547887Y390770D01*
X548017Y390713D01*
X548147Y390654D01*
X548158Y390652D01*
X548170Y390647D01*
X548476Y390601D01*
X548489Y390602D01*
X548500Y390601D01*
X553500Y390601D01*
X553642Y390619D01*
G37*
G36*
X581642Y390619D02*
X581642Y390619D01*
X581783Y390635D01*
X581795Y390639D01*
X581807Y390641D01*
X581939Y390695D01*
X582072Y390746D01*
X582081Y390753D01*
X582093Y390757D01*
X582207Y390844D01*
X582322Y390927D01*
X582330Y390936D01*
X582339Y390944D01*
X582428Y391056D01*
X582518Y391166D01*
X582523Y391177D01*
X582530Y391187D01*
X582587Y391317D01*
X582646Y391447D01*
X582648Y391458D01*
X582653Y391470D01*
X582699Y391776D01*
X582698Y391789D01*
X582699Y391800D01*
X582699Y393200D01*
X582681Y393342D01*
X582665Y393483D01*
X582661Y393495D01*
X582659Y393507D01*
X582605Y393639D01*
X582554Y393772D01*
X582547Y393781D01*
X582543Y393793D01*
X582456Y393907D01*
X582373Y394022D01*
X582364Y394030D01*
X582356Y394039D01*
X582244Y394128D01*
X582134Y394218D01*
X582123Y394223D01*
X582113Y394230D01*
X581983Y394287D01*
X581853Y394346D01*
X581842Y394348D01*
X581830Y394353D01*
X581524Y394399D01*
X581511Y394398D01*
X581500Y394399D01*
X576500Y394399D01*
X576358Y394381D01*
X576217Y394365D01*
X576206Y394361D01*
X576193Y394359D01*
X576061Y394305D01*
X575928Y394254D01*
X575919Y394247D01*
X575907Y394243D01*
X575793Y394156D01*
X575678Y394073D01*
X575670Y394064D01*
X575661Y394056D01*
X575572Y393944D01*
X575482Y393834D01*
X575477Y393823D01*
X575470Y393813D01*
X575413Y393683D01*
X575354Y393553D01*
X575352Y393542D01*
X575347Y393530D01*
X575301Y393224D01*
X575302Y393211D01*
X575301Y393200D01*
X575301Y391800D01*
X575319Y391658D01*
X575335Y391517D01*
X575339Y391506D01*
X575341Y391493D01*
X575395Y391361D01*
X575446Y391228D01*
X575453Y391219D01*
X575457Y391207D01*
X575544Y391093D01*
X575627Y390978D01*
X575636Y390970D01*
X575644Y390961D01*
X575756Y390872D01*
X575866Y390782D01*
X575877Y390777D01*
X575887Y390770D01*
X576017Y390713D01*
X576147Y390654D01*
X576158Y390652D01*
X576170Y390647D01*
X576476Y390601D01*
X576489Y390602D01*
X576500Y390601D01*
X581500Y390601D01*
X581642Y390619D01*
G37*
G36*
X558342Y382319D02*
X558342Y382319D01*
X558483Y382335D01*
X558495Y382339D01*
X558507Y382341D01*
X558639Y382395D01*
X558772Y382446D01*
X558781Y382453D01*
X558793Y382457D01*
X558907Y382544D01*
X559022Y382627D01*
X559030Y382636D01*
X559039Y382644D01*
X559128Y382756D01*
X559218Y382866D01*
X559223Y382877D01*
X559230Y382887D01*
X559287Y383017D01*
X559346Y383147D01*
X559348Y383158D01*
X559353Y383170D01*
X559399Y383476D01*
X559398Y383489D01*
X559399Y383500D01*
X559399Y388500D01*
X559381Y388642D01*
X559365Y388783D01*
X559361Y388795D01*
X559359Y388807D01*
X559305Y388939D01*
X559254Y389072D01*
X559247Y389081D01*
X559243Y389093D01*
X559156Y389207D01*
X559073Y389322D01*
X559064Y389330D01*
X559056Y389339D01*
X558944Y389428D01*
X558834Y389518D01*
X558823Y389523D01*
X558813Y389530D01*
X558683Y389587D01*
X558553Y389646D01*
X558542Y389648D01*
X558530Y389653D01*
X558224Y389699D01*
X558211Y389698D01*
X558200Y389699D01*
X556800Y389699D01*
X556658Y389681D01*
X556517Y389665D01*
X556506Y389661D01*
X556493Y389659D01*
X556361Y389605D01*
X556228Y389554D01*
X556219Y389547D01*
X556207Y389543D01*
X556093Y389456D01*
X555978Y389373D01*
X555970Y389364D01*
X555961Y389356D01*
X555872Y389244D01*
X555782Y389134D01*
X555777Y389123D01*
X555770Y389113D01*
X555713Y388983D01*
X555654Y388853D01*
X555652Y388842D01*
X555647Y388830D01*
X555601Y388524D01*
X555602Y388511D01*
X555601Y388500D01*
X555601Y383500D01*
X555619Y383358D01*
X555635Y383217D01*
X555639Y383206D01*
X555641Y383193D01*
X555695Y383061D01*
X555746Y382928D01*
X555753Y382919D01*
X555757Y382907D01*
X555844Y382793D01*
X555927Y382678D01*
X555936Y382670D01*
X555944Y382661D01*
X556056Y382572D01*
X556166Y382482D01*
X556177Y382477D01*
X556187Y382470D01*
X556317Y382413D01*
X556447Y382354D01*
X556458Y382352D01*
X556470Y382347D01*
X556776Y382301D01*
X556789Y382302D01*
X556800Y382301D01*
X558200Y382301D01*
X558342Y382319D01*
G37*
G36*
X573342Y382319D02*
X573342Y382319D01*
X573483Y382335D01*
X573495Y382339D01*
X573507Y382341D01*
X573639Y382395D01*
X573772Y382446D01*
X573781Y382453D01*
X573793Y382457D01*
X573907Y382544D01*
X574022Y382627D01*
X574030Y382636D01*
X574039Y382644D01*
X574128Y382756D01*
X574218Y382866D01*
X574223Y382877D01*
X574230Y382887D01*
X574287Y383017D01*
X574346Y383147D01*
X574348Y383158D01*
X574353Y383170D01*
X574399Y383476D01*
X574398Y383489D01*
X574399Y383500D01*
X574399Y388500D01*
X574381Y388642D01*
X574365Y388783D01*
X574361Y388795D01*
X574359Y388807D01*
X574305Y388939D01*
X574254Y389072D01*
X574247Y389081D01*
X574243Y389093D01*
X574156Y389207D01*
X574073Y389322D01*
X574064Y389330D01*
X574056Y389339D01*
X573944Y389428D01*
X573834Y389518D01*
X573823Y389523D01*
X573813Y389530D01*
X573683Y389587D01*
X573553Y389646D01*
X573542Y389648D01*
X573530Y389653D01*
X573224Y389699D01*
X573211Y389698D01*
X573200Y389699D01*
X571800Y389699D01*
X571658Y389681D01*
X571517Y389665D01*
X571506Y389661D01*
X571493Y389659D01*
X571361Y389605D01*
X571228Y389554D01*
X571219Y389547D01*
X571207Y389543D01*
X571093Y389456D01*
X570978Y389373D01*
X570970Y389364D01*
X570961Y389356D01*
X570872Y389244D01*
X570782Y389134D01*
X570777Y389123D01*
X570770Y389113D01*
X570713Y388983D01*
X570654Y388853D01*
X570652Y388842D01*
X570647Y388830D01*
X570601Y388524D01*
X570602Y388511D01*
X570601Y388500D01*
X570601Y383500D01*
X570619Y383358D01*
X570635Y383217D01*
X570639Y383206D01*
X570641Y383193D01*
X570695Y383061D01*
X570746Y382928D01*
X570753Y382919D01*
X570757Y382907D01*
X570844Y382793D01*
X570927Y382678D01*
X570936Y382670D01*
X570944Y382661D01*
X571056Y382572D01*
X571166Y382482D01*
X571177Y382477D01*
X571187Y382470D01*
X571317Y382413D01*
X571447Y382354D01*
X571458Y382352D01*
X571470Y382347D01*
X571776Y382301D01*
X571789Y382302D01*
X571800Y382301D01*
X573200Y382301D01*
X573342Y382319D01*
G37*
G36*
X563342Y382319D02*
X563342Y382319D01*
X563483Y382335D01*
X563495Y382339D01*
X563507Y382341D01*
X563639Y382395D01*
X563772Y382446D01*
X563781Y382453D01*
X563793Y382457D01*
X563907Y382544D01*
X564022Y382627D01*
X564030Y382636D01*
X564039Y382644D01*
X564128Y382756D01*
X564218Y382866D01*
X564223Y382877D01*
X564230Y382887D01*
X564287Y383017D01*
X564346Y383147D01*
X564348Y383158D01*
X564353Y383170D01*
X564399Y383476D01*
X564398Y383489D01*
X564399Y383500D01*
X564399Y388500D01*
X564381Y388642D01*
X564365Y388783D01*
X564361Y388795D01*
X564359Y388807D01*
X564305Y388939D01*
X564254Y389072D01*
X564247Y389081D01*
X564243Y389093D01*
X564156Y389207D01*
X564073Y389322D01*
X564064Y389330D01*
X564056Y389339D01*
X563944Y389428D01*
X563834Y389518D01*
X563823Y389523D01*
X563813Y389530D01*
X563683Y389587D01*
X563553Y389646D01*
X563542Y389648D01*
X563530Y389653D01*
X563224Y389699D01*
X563211Y389698D01*
X563200Y389699D01*
X561800Y389699D01*
X561658Y389681D01*
X561517Y389665D01*
X561506Y389661D01*
X561493Y389659D01*
X561361Y389605D01*
X561228Y389554D01*
X561219Y389547D01*
X561207Y389543D01*
X561093Y389456D01*
X560978Y389373D01*
X560970Y389364D01*
X560961Y389356D01*
X560872Y389244D01*
X560782Y389134D01*
X560777Y389123D01*
X560770Y389113D01*
X560713Y388983D01*
X560654Y388853D01*
X560652Y388842D01*
X560647Y388830D01*
X560601Y388524D01*
X560602Y388511D01*
X560601Y388500D01*
X560601Y383500D01*
X560619Y383358D01*
X560635Y383217D01*
X560639Y383206D01*
X560641Y383193D01*
X560695Y383061D01*
X560746Y382928D01*
X560753Y382919D01*
X560757Y382907D01*
X560844Y382793D01*
X560927Y382678D01*
X560936Y382670D01*
X560944Y382661D01*
X561056Y382572D01*
X561166Y382482D01*
X561177Y382477D01*
X561187Y382470D01*
X561317Y382413D01*
X561447Y382354D01*
X561458Y382352D01*
X561470Y382347D01*
X561776Y382301D01*
X561789Y382302D01*
X561800Y382301D01*
X563200Y382301D01*
X563342Y382319D01*
G37*
G36*
X568342Y382319D02*
X568342Y382319D01*
X568483Y382335D01*
X568495Y382339D01*
X568507Y382341D01*
X568639Y382395D01*
X568772Y382446D01*
X568781Y382453D01*
X568793Y382457D01*
X568907Y382544D01*
X569022Y382627D01*
X569030Y382636D01*
X569039Y382644D01*
X569128Y382756D01*
X569218Y382866D01*
X569223Y382877D01*
X569230Y382887D01*
X569287Y383017D01*
X569346Y383147D01*
X569348Y383158D01*
X569353Y383170D01*
X569399Y383476D01*
X569398Y383489D01*
X569399Y383500D01*
X569399Y388500D01*
X569381Y388642D01*
X569365Y388783D01*
X569361Y388795D01*
X569359Y388807D01*
X569305Y388939D01*
X569254Y389072D01*
X569247Y389081D01*
X569243Y389093D01*
X569156Y389207D01*
X569073Y389322D01*
X569064Y389330D01*
X569056Y389339D01*
X568944Y389428D01*
X568834Y389518D01*
X568823Y389523D01*
X568813Y389530D01*
X568683Y389587D01*
X568553Y389646D01*
X568542Y389648D01*
X568530Y389653D01*
X568224Y389699D01*
X568211Y389698D01*
X568200Y389699D01*
X566800Y389699D01*
X566658Y389681D01*
X566517Y389665D01*
X566506Y389661D01*
X566493Y389659D01*
X566361Y389605D01*
X566228Y389554D01*
X566219Y389547D01*
X566207Y389543D01*
X566093Y389456D01*
X565978Y389373D01*
X565970Y389364D01*
X565961Y389356D01*
X565872Y389244D01*
X565782Y389134D01*
X565777Y389123D01*
X565770Y389113D01*
X565713Y388983D01*
X565654Y388853D01*
X565652Y388842D01*
X565647Y388830D01*
X565601Y388524D01*
X565602Y388511D01*
X565601Y388500D01*
X565601Y383500D01*
X565619Y383358D01*
X565635Y383217D01*
X565639Y383206D01*
X565641Y383193D01*
X565695Y383061D01*
X565746Y382928D01*
X565753Y382919D01*
X565757Y382907D01*
X565844Y382793D01*
X565927Y382678D01*
X565936Y382670D01*
X565944Y382661D01*
X566056Y382572D01*
X566166Y382482D01*
X566177Y382477D01*
X566187Y382470D01*
X566317Y382413D01*
X566447Y382354D01*
X566458Y382352D01*
X566470Y382347D01*
X566776Y382301D01*
X566789Y382302D01*
X566800Y382301D01*
X568200Y382301D01*
X568342Y382319D01*
G37*
G36*
X573342Y360319D02*
X573342Y360319D01*
X573483Y360335D01*
X573495Y360339D01*
X573507Y360341D01*
X573639Y360395D01*
X573772Y360446D01*
X573781Y360453D01*
X573793Y360457D01*
X573907Y360544D01*
X574022Y360627D01*
X574030Y360636D01*
X574039Y360644D01*
X574128Y360756D01*
X574218Y360866D01*
X574223Y360877D01*
X574230Y360887D01*
X574287Y361017D01*
X574346Y361147D01*
X574348Y361158D01*
X574353Y361170D01*
X574399Y361476D01*
X574398Y361489D01*
X574399Y361500D01*
X574399Y366500D01*
X574381Y366642D01*
X574365Y366783D01*
X574361Y366795D01*
X574359Y366807D01*
X574305Y366939D01*
X574254Y367072D01*
X574247Y367081D01*
X574243Y367093D01*
X574156Y367207D01*
X574073Y367322D01*
X574064Y367330D01*
X574056Y367339D01*
X573944Y367428D01*
X573834Y367518D01*
X573823Y367523D01*
X573813Y367530D01*
X573683Y367587D01*
X573553Y367646D01*
X573542Y367648D01*
X573530Y367653D01*
X573224Y367699D01*
X573211Y367698D01*
X573200Y367699D01*
X571800Y367699D01*
X571658Y367681D01*
X571517Y367665D01*
X571506Y367661D01*
X571493Y367659D01*
X571361Y367605D01*
X571228Y367554D01*
X571219Y367547D01*
X571207Y367543D01*
X571093Y367456D01*
X570978Y367373D01*
X570970Y367364D01*
X570961Y367356D01*
X570872Y367244D01*
X570782Y367134D01*
X570777Y367123D01*
X570770Y367113D01*
X570713Y366983D01*
X570654Y366853D01*
X570652Y366842D01*
X570647Y366830D01*
X570601Y366524D01*
X570602Y366511D01*
X570601Y366500D01*
X570601Y361500D01*
X570619Y361358D01*
X570635Y361217D01*
X570639Y361206D01*
X570641Y361193D01*
X570695Y361061D01*
X570746Y360928D01*
X570753Y360919D01*
X570757Y360907D01*
X570844Y360793D01*
X570927Y360678D01*
X570936Y360670D01*
X570944Y360661D01*
X571056Y360572D01*
X571166Y360482D01*
X571177Y360477D01*
X571187Y360470D01*
X571317Y360413D01*
X571447Y360354D01*
X571458Y360352D01*
X571470Y360347D01*
X571776Y360301D01*
X571789Y360302D01*
X571800Y360301D01*
X573200Y360301D01*
X573342Y360319D01*
G37*
G36*
X558342Y360319D02*
X558342Y360319D01*
X558483Y360335D01*
X558495Y360339D01*
X558507Y360341D01*
X558639Y360395D01*
X558772Y360446D01*
X558781Y360453D01*
X558793Y360457D01*
X558907Y360544D01*
X559022Y360627D01*
X559030Y360636D01*
X559039Y360644D01*
X559128Y360756D01*
X559218Y360866D01*
X559223Y360877D01*
X559230Y360887D01*
X559287Y361017D01*
X559346Y361147D01*
X559348Y361158D01*
X559353Y361170D01*
X559399Y361476D01*
X559398Y361489D01*
X559399Y361500D01*
X559399Y366500D01*
X559381Y366642D01*
X559365Y366783D01*
X559361Y366795D01*
X559359Y366807D01*
X559305Y366939D01*
X559254Y367072D01*
X559247Y367081D01*
X559243Y367093D01*
X559156Y367207D01*
X559073Y367322D01*
X559064Y367330D01*
X559056Y367339D01*
X558944Y367428D01*
X558834Y367518D01*
X558823Y367523D01*
X558813Y367530D01*
X558683Y367587D01*
X558553Y367646D01*
X558542Y367648D01*
X558530Y367653D01*
X558224Y367699D01*
X558211Y367698D01*
X558200Y367699D01*
X556800Y367699D01*
X556658Y367681D01*
X556517Y367665D01*
X556506Y367661D01*
X556493Y367659D01*
X556361Y367605D01*
X556228Y367554D01*
X556219Y367547D01*
X556207Y367543D01*
X556093Y367456D01*
X555978Y367373D01*
X555970Y367364D01*
X555961Y367356D01*
X555872Y367244D01*
X555782Y367134D01*
X555777Y367123D01*
X555770Y367113D01*
X555713Y366983D01*
X555654Y366853D01*
X555652Y366842D01*
X555647Y366830D01*
X555601Y366524D01*
X555602Y366511D01*
X555601Y366500D01*
X555601Y361500D01*
X555619Y361358D01*
X555635Y361217D01*
X555639Y361206D01*
X555641Y361193D01*
X555695Y361061D01*
X555746Y360928D01*
X555753Y360919D01*
X555757Y360907D01*
X555844Y360793D01*
X555927Y360678D01*
X555936Y360670D01*
X555944Y360661D01*
X556056Y360572D01*
X556166Y360482D01*
X556177Y360477D01*
X556187Y360470D01*
X556317Y360413D01*
X556447Y360354D01*
X556458Y360352D01*
X556470Y360347D01*
X556776Y360301D01*
X556789Y360302D01*
X556800Y360301D01*
X558200Y360301D01*
X558342Y360319D01*
G37*
G36*
X563342Y410319D02*
X563342Y410319D01*
X563483Y410335D01*
X563495Y410339D01*
X563507Y410341D01*
X563639Y410395D01*
X563772Y410446D01*
X563781Y410453D01*
X563793Y410457D01*
X563907Y410544D01*
X564022Y410627D01*
X564030Y410636D01*
X564039Y410644D01*
X564128Y410756D01*
X564218Y410866D01*
X564223Y410877D01*
X564230Y410887D01*
X564287Y411017D01*
X564346Y411147D01*
X564348Y411158D01*
X564353Y411170D01*
X564399Y411476D01*
X564398Y411489D01*
X564399Y411500D01*
X564399Y416500D01*
X564381Y416642D01*
X564365Y416783D01*
X564361Y416795D01*
X564359Y416807D01*
X564305Y416939D01*
X564254Y417072D01*
X564247Y417081D01*
X564243Y417093D01*
X564156Y417207D01*
X564073Y417322D01*
X564064Y417330D01*
X564056Y417339D01*
X563944Y417428D01*
X563834Y417518D01*
X563823Y417523D01*
X563813Y417530D01*
X563683Y417587D01*
X563553Y417646D01*
X563542Y417648D01*
X563530Y417653D01*
X563224Y417699D01*
X563211Y417698D01*
X563200Y417699D01*
X561800Y417699D01*
X561658Y417681D01*
X561517Y417665D01*
X561506Y417661D01*
X561493Y417659D01*
X561361Y417605D01*
X561228Y417554D01*
X561219Y417547D01*
X561207Y417543D01*
X561093Y417456D01*
X560978Y417373D01*
X560970Y417364D01*
X560961Y417356D01*
X560872Y417244D01*
X560782Y417134D01*
X560777Y417123D01*
X560770Y417113D01*
X560713Y416983D01*
X560654Y416853D01*
X560652Y416842D01*
X560647Y416830D01*
X560601Y416524D01*
X560602Y416511D01*
X560601Y416500D01*
X560601Y411500D01*
X560619Y411358D01*
X560635Y411217D01*
X560639Y411206D01*
X560641Y411193D01*
X560695Y411061D01*
X560746Y410928D01*
X560753Y410919D01*
X560757Y410907D01*
X560844Y410793D01*
X560927Y410678D01*
X560936Y410670D01*
X560944Y410661D01*
X561056Y410572D01*
X561166Y410482D01*
X561177Y410477D01*
X561187Y410470D01*
X561317Y410413D01*
X561447Y410354D01*
X561458Y410352D01*
X561470Y410347D01*
X561776Y410301D01*
X561789Y410302D01*
X561800Y410301D01*
X563200Y410301D01*
X563342Y410319D01*
G37*
G36*
X563342Y360319D02*
X563342Y360319D01*
X563483Y360335D01*
X563495Y360339D01*
X563507Y360341D01*
X563639Y360395D01*
X563772Y360446D01*
X563781Y360453D01*
X563793Y360457D01*
X563907Y360544D01*
X564022Y360627D01*
X564030Y360636D01*
X564039Y360644D01*
X564128Y360756D01*
X564218Y360866D01*
X564223Y360877D01*
X564230Y360887D01*
X564287Y361017D01*
X564346Y361147D01*
X564348Y361158D01*
X564353Y361170D01*
X564399Y361476D01*
X564398Y361489D01*
X564399Y361500D01*
X564399Y366500D01*
X564381Y366642D01*
X564365Y366783D01*
X564361Y366795D01*
X564359Y366807D01*
X564305Y366939D01*
X564254Y367072D01*
X564247Y367081D01*
X564243Y367093D01*
X564156Y367207D01*
X564073Y367322D01*
X564064Y367330D01*
X564056Y367339D01*
X563944Y367428D01*
X563834Y367518D01*
X563823Y367523D01*
X563813Y367530D01*
X563683Y367587D01*
X563553Y367646D01*
X563542Y367648D01*
X563530Y367653D01*
X563224Y367699D01*
X563211Y367698D01*
X563200Y367699D01*
X561800Y367699D01*
X561658Y367681D01*
X561517Y367665D01*
X561506Y367661D01*
X561493Y367659D01*
X561361Y367605D01*
X561228Y367554D01*
X561219Y367547D01*
X561207Y367543D01*
X561093Y367456D01*
X560978Y367373D01*
X560970Y367364D01*
X560961Y367356D01*
X560872Y367244D01*
X560782Y367134D01*
X560777Y367123D01*
X560770Y367113D01*
X560713Y366983D01*
X560654Y366853D01*
X560652Y366842D01*
X560647Y366830D01*
X560601Y366524D01*
X560602Y366511D01*
X560601Y366500D01*
X560601Y361500D01*
X560619Y361358D01*
X560635Y361217D01*
X560639Y361206D01*
X560641Y361193D01*
X560695Y361061D01*
X560746Y360928D01*
X560753Y360919D01*
X560757Y360907D01*
X560844Y360793D01*
X560927Y360678D01*
X560936Y360670D01*
X560944Y360661D01*
X561056Y360572D01*
X561166Y360482D01*
X561177Y360477D01*
X561187Y360470D01*
X561317Y360413D01*
X561447Y360354D01*
X561458Y360352D01*
X561470Y360347D01*
X561776Y360301D01*
X561789Y360302D01*
X561800Y360301D01*
X563200Y360301D01*
X563342Y360319D01*
G37*
G36*
X581642Y355619D02*
X581642Y355619D01*
X581783Y355635D01*
X581795Y355639D01*
X581807Y355641D01*
X581939Y355695D01*
X582072Y355746D01*
X582081Y355753D01*
X582093Y355757D01*
X582207Y355844D01*
X582322Y355927D01*
X582330Y355936D01*
X582339Y355944D01*
X582428Y356056D01*
X582518Y356166D01*
X582523Y356177D01*
X582530Y356187D01*
X582587Y356317D01*
X582646Y356447D01*
X582648Y356458D01*
X582653Y356470D01*
X582699Y356776D01*
X582698Y356789D01*
X582699Y356800D01*
X582699Y358200D01*
X582681Y358342D01*
X582665Y358483D01*
X582661Y358495D01*
X582659Y358507D01*
X582605Y358639D01*
X582554Y358772D01*
X582547Y358781D01*
X582543Y358793D01*
X582456Y358907D01*
X582373Y359022D01*
X582364Y359030D01*
X582356Y359039D01*
X582244Y359128D01*
X582134Y359218D01*
X582123Y359223D01*
X582113Y359230D01*
X581983Y359287D01*
X581853Y359346D01*
X581842Y359348D01*
X581830Y359353D01*
X581524Y359399D01*
X581511Y359398D01*
X581500Y359399D01*
X576500Y359399D01*
X576358Y359381D01*
X576217Y359365D01*
X576206Y359361D01*
X576193Y359359D01*
X576061Y359305D01*
X575928Y359254D01*
X575919Y359247D01*
X575907Y359243D01*
X575793Y359156D01*
X575678Y359073D01*
X575670Y359064D01*
X575661Y359056D01*
X575572Y358944D01*
X575482Y358834D01*
X575477Y358823D01*
X575470Y358813D01*
X575413Y358683D01*
X575354Y358553D01*
X575352Y358542D01*
X575347Y358530D01*
X575301Y358224D01*
X575302Y358211D01*
X575301Y358200D01*
X575301Y356800D01*
X575319Y356658D01*
X575335Y356517D01*
X575339Y356506D01*
X575341Y356493D01*
X575395Y356361D01*
X575446Y356228D01*
X575453Y356219D01*
X575457Y356207D01*
X575544Y356093D01*
X575627Y355978D01*
X575636Y355970D01*
X575644Y355961D01*
X575756Y355872D01*
X575866Y355782D01*
X575877Y355777D01*
X575887Y355770D01*
X576017Y355713D01*
X576147Y355654D01*
X576158Y355652D01*
X576170Y355647D01*
X576476Y355601D01*
X576489Y355602D01*
X576500Y355601D01*
X581500Y355601D01*
X581642Y355619D01*
G37*
G36*
X553642Y355619D02*
X553642Y355619D01*
X553783Y355635D01*
X553795Y355639D01*
X553807Y355641D01*
X553939Y355695D01*
X554072Y355746D01*
X554081Y355753D01*
X554093Y355757D01*
X554207Y355844D01*
X554322Y355927D01*
X554330Y355936D01*
X554339Y355944D01*
X554428Y356056D01*
X554518Y356166D01*
X554523Y356177D01*
X554530Y356187D01*
X554587Y356317D01*
X554646Y356447D01*
X554648Y356458D01*
X554653Y356470D01*
X554699Y356776D01*
X554698Y356789D01*
X554699Y356800D01*
X554699Y358200D01*
X554681Y358342D01*
X554665Y358483D01*
X554661Y358495D01*
X554659Y358507D01*
X554605Y358639D01*
X554554Y358772D01*
X554547Y358781D01*
X554543Y358793D01*
X554456Y358907D01*
X554373Y359022D01*
X554364Y359030D01*
X554356Y359039D01*
X554244Y359128D01*
X554134Y359218D01*
X554123Y359223D01*
X554113Y359230D01*
X553983Y359287D01*
X553853Y359346D01*
X553842Y359348D01*
X553830Y359353D01*
X553524Y359399D01*
X553511Y359398D01*
X553500Y359399D01*
X548500Y359399D01*
X548358Y359381D01*
X548217Y359365D01*
X548206Y359361D01*
X548193Y359359D01*
X548061Y359305D01*
X547928Y359254D01*
X547919Y359247D01*
X547907Y359243D01*
X547793Y359156D01*
X547678Y359073D01*
X547670Y359064D01*
X547661Y359056D01*
X547572Y358944D01*
X547482Y358834D01*
X547477Y358823D01*
X547470Y358813D01*
X547413Y358683D01*
X547354Y358553D01*
X547352Y358542D01*
X547347Y358530D01*
X547301Y358224D01*
X547302Y358211D01*
X547301Y358200D01*
X547301Y356800D01*
X547319Y356658D01*
X547335Y356517D01*
X547339Y356506D01*
X547341Y356493D01*
X547395Y356361D01*
X547446Y356228D01*
X547453Y356219D01*
X547457Y356207D01*
X547544Y356093D01*
X547627Y355978D01*
X547636Y355970D01*
X547644Y355961D01*
X547756Y355872D01*
X547866Y355782D01*
X547877Y355777D01*
X547887Y355770D01*
X548017Y355713D01*
X548147Y355654D01*
X548158Y355652D01*
X548170Y355647D01*
X548476Y355601D01*
X548489Y355602D01*
X548500Y355601D01*
X553500Y355601D01*
X553642Y355619D01*
G37*
G36*
X573342Y410319D02*
X573342Y410319D01*
X573483Y410335D01*
X573495Y410339D01*
X573507Y410341D01*
X573639Y410395D01*
X573772Y410446D01*
X573781Y410453D01*
X573793Y410457D01*
X573907Y410544D01*
X574022Y410627D01*
X574030Y410636D01*
X574039Y410644D01*
X574128Y410756D01*
X574218Y410866D01*
X574223Y410877D01*
X574230Y410887D01*
X574287Y411017D01*
X574346Y411147D01*
X574348Y411158D01*
X574353Y411170D01*
X574399Y411476D01*
X574398Y411489D01*
X574399Y411500D01*
X574399Y416500D01*
X574381Y416642D01*
X574365Y416783D01*
X574361Y416795D01*
X574359Y416807D01*
X574305Y416939D01*
X574254Y417072D01*
X574247Y417081D01*
X574243Y417093D01*
X574156Y417207D01*
X574073Y417322D01*
X574064Y417330D01*
X574056Y417339D01*
X573944Y417428D01*
X573834Y417518D01*
X573823Y417523D01*
X573813Y417530D01*
X573683Y417587D01*
X573553Y417646D01*
X573542Y417648D01*
X573530Y417653D01*
X573224Y417699D01*
X573211Y417698D01*
X573200Y417699D01*
X571800Y417699D01*
X571658Y417681D01*
X571517Y417665D01*
X571506Y417661D01*
X571493Y417659D01*
X571361Y417605D01*
X571228Y417554D01*
X571219Y417547D01*
X571207Y417543D01*
X571093Y417456D01*
X570978Y417373D01*
X570970Y417364D01*
X570961Y417356D01*
X570872Y417244D01*
X570782Y417134D01*
X570777Y417123D01*
X570770Y417113D01*
X570713Y416983D01*
X570654Y416853D01*
X570652Y416842D01*
X570647Y416830D01*
X570601Y416524D01*
X570602Y416511D01*
X570601Y416500D01*
X570601Y411500D01*
X570619Y411358D01*
X570635Y411217D01*
X570639Y411206D01*
X570641Y411193D01*
X570695Y411061D01*
X570746Y410928D01*
X570753Y410919D01*
X570757Y410907D01*
X570844Y410793D01*
X570927Y410678D01*
X570936Y410670D01*
X570944Y410661D01*
X571056Y410572D01*
X571166Y410482D01*
X571177Y410477D01*
X571187Y410470D01*
X571317Y410413D01*
X571447Y410354D01*
X571458Y410352D01*
X571470Y410347D01*
X571776Y410301D01*
X571789Y410302D01*
X571800Y410301D01*
X573200Y410301D01*
X573342Y410319D01*
G37*
G36*
X581642Y350619D02*
X581642Y350619D01*
X581783Y350635D01*
X581795Y350639D01*
X581807Y350641D01*
X581939Y350695D01*
X582072Y350746D01*
X582081Y350753D01*
X582093Y350757D01*
X582207Y350844D01*
X582322Y350927D01*
X582330Y350936D01*
X582339Y350944D01*
X582428Y351056D01*
X582518Y351166D01*
X582523Y351177D01*
X582530Y351187D01*
X582587Y351317D01*
X582646Y351447D01*
X582648Y351458D01*
X582653Y351470D01*
X582699Y351776D01*
X582698Y351789D01*
X582699Y351800D01*
X582699Y353200D01*
X582681Y353342D01*
X582665Y353483D01*
X582661Y353495D01*
X582659Y353507D01*
X582605Y353639D01*
X582554Y353772D01*
X582547Y353781D01*
X582543Y353793D01*
X582456Y353907D01*
X582373Y354022D01*
X582364Y354030D01*
X582356Y354039D01*
X582244Y354128D01*
X582134Y354218D01*
X582123Y354223D01*
X582113Y354230D01*
X581983Y354287D01*
X581853Y354346D01*
X581842Y354348D01*
X581830Y354353D01*
X581524Y354399D01*
X581511Y354398D01*
X581500Y354399D01*
X576500Y354399D01*
X576358Y354381D01*
X576217Y354365D01*
X576206Y354361D01*
X576193Y354359D01*
X576061Y354305D01*
X575928Y354254D01*
X575919Y354247D01*
X575907Y354243D01*
X575793Y354156D01*
X575678Y354073D01*
X575670Y354064D01*
X575661Y354056D01*
X575572Y353944D01*
X575482Y353834D01*
X575477Y353823D01*
X575470Y353813D01*
X575413Y353683D01*
X575354Y353553D01*
X575352Y353542D01*
X575347Y353530D01*
X575301Y353224D01*
X575302Y353211D01*
X575301Y353200D01*
X575301Y351800D01*
X575319Y351658D01*
X575335Y351517D01*
X575339Y351506D01*
X575341Y351493D01*
X575395Y351361D01*
X575446Y351228D01*
X575453Y351219D01*
X575457Y351207D01*
X575544Y351093D01*
X575627Y350978D01*
X575636Y350970D01*
X575644Y350961D01*
X575756Y350872D01*
X575866Y350782D01*
X575877Y350777D01*
X575887Y350770D01*
X576017Y350713D01*
X576147Y350654D01*
X576158Y350652D01*
X576170Y350647D01*
X576476Y350601D01*
X576489Y350602D01*
X576500Y350601D01*
X581500Y350601D01*
X581642Y350619D01*
G37*
G36*
X553642Y350619D02*
X553642Y350619D01*
X553783Y350635D01*
X553795Y350639D01*
X553807Y350641D01*
X553939Y350695D01*
X554072Y350746D01*
X554081Y350753D01*
X554093Y350757D01*
X554207Y350844D01*
X554322Y350927D01*
X554330Y350936D01*
X554339Y350944D01*
X554428Y351056D01*
X554518Y351166D01*
X554523Y351177D01*
X554530Y351187D01*
X554587Y351317D01*
X554646Y351447D01*
X554648Y351458D01*
X554653Y351470D01*
X554699Y351776D01*
X554698Y351789D01*
X554699Y351800D01*
X554699Y353200D01*
X554681Y353342D01*
X554665Y353483D01*
X554661Y353495D01*
X554659Y353507D01*
X554605Y353639D01*
X554554Y353772D01*
X554547Y353781D01*
X554543Y353793D01*
X554456Y353907D01*
X554373Y354022D01*
X554364Y354030D01*
X554356Y354039D01*
X554244Y354128D01*
X554134Y354218D01*
X554123Y354223D01*
X554113Y354230D01*
X553983Y354287D01*
X553853Y354346D01*
X553842Y354348D01*
X553830Y354353D01*
X553524Y354399D01*
X553511Y354398D01*
X553500Y354399D01*
X548500Y354399D01*
X548358Y354381D01*
X548217Y354365D01*
X548206Y354361D01*
X548193Y354359D01*
X548061Y354305D01*
X547928Y354254D01*
X547919Y354247D01*
X547907Y354243D01*
X547793Y354156D01*
X547678Y354073D01*
X547670Y354064D01*
X547661Y354056D01*
X547572Y353944D01*
X547482Y353834D01*
X547477Y353823D01*
X547470Y353813D01*
X547413Y353683D01*
X547354Y353553D01*
X547352Y353542D01*
X547347Y353530D01*
X547301Y353224D01*
X547302Y353211D01*
X547301Y353200D01*
X547301Y351800D01*
X547319Y351658D01*
X547335Y351517D01*
X547339Y351506D01*
X547341Y351493D01*
X547395Y351361D01*
X547446Y351228D01*
X547453Y351219D01*
X547457Y351207D01*
X547544Y351093D01*
X547627Y350978D01*
X547636Y350970D01*
X547644Y350961D01*
X547756Y350872D01*
X547866Y350782D01*
X547877Y350777D01*
X547887Y350770D01*
X548017Y350713D01*
X548147Y350654D01*
X548158Y350652D01*
X548170Y350647D01*
X548476Y350601D01*
X548489Y350602D01*
X548500Y350601D01*
X553500Y350601D01*
X553642Y350619D01*
G37*
G36*
X553642Y345619D02*
X553642Y345619D01*
X553783Y345635D01*
X553795Y345639D01*
X553807Y345641D01*
X553939Y345695D01*
X554072Y345746D01*
X554081Y345753D01*
X554093Y345757D01*
X554207Y345844D01*
X554322Y345927D01*
X554330Y345936D01*
X554339Y345944D01*
X554428Y346056D01*
X554518Y346166D01*
X554523Y346177D01*
X554530Y346187D01*
X554587Y346317D01*
X554646Y346447D01*
X554648Y346458D01*
X554653Y346470D01*
X554699Y346776D01*
X554698Y346789D01*
X554699Y346800D01*
X554699Y348200D01*
X554681Y348342D01*
X554665Y348483D01*
X554661Y348495D01*
X554659Y348507D01*
X554605Y348639D01*
X554554Y348772D01*
X554547Y348781D01*
X554543Y348793D01*
X554456Y348907D01*
X554373Y349022D01*
X554364Y349030D01*
X554356Y349039D01*
X554244Y349128D01*
X554134Y349218D01*
X554123Y349223D01*
X554113Y349230D01*
X553983Y349287D01*
X553853Y349346D01*
X553842Y349348D01*
X553830Y349353D01*
X553524Y349399D01*
X553511Y349398D01*
X553500Y349399D01*
X548500Y349399D01*
X548358Y349381D01*
X548217Y349365D01*
X548206Y349361D01*
X548193Y349359D01*
X548061Y349305D01*
X547928Y349254D01*
X547919Y349247D01*
X547907Y349243D01*
X547793Y349156D01*
X547678Y349073D01*
X547670Y349064D01*
X547661Y349056D01*
X547572Y348944D01*
X547482Y348834D01*
X547477Y348823D01*
X547470Y348813D01*
X547413Y348683D01*
X547354Y348553D01*
X547352Y348542D01*
X547347Y348530D01*
X547301Y348224D01*
X547302Y348211D01*
X547301Y348200D01*
X547301Y346800D01*
X547319Y346658D01*
X547335Y346517D01*
X547339Y346506D01*
X547341Y346493D01*
X547395Y346361D01*
X547446Y346228D01*
X547453Y346219D01*
X547457Y346207D01*
X547544Y346093D01*
X547627Y345978D01*
X547636Y345970D01*
X547644Y345961D01*
X547756Y345872D01*
X547866Y345782D01*
X547877Y345777D01*
X547887Y345770D01*
X548017Y345713D01*
X548147Y345654D01*
X548158Y345652D01*
X548170Y345647D01*
X548476Y345601D01*
X548489Y345602D01*
X548500Y345601D01*
X553500Y345601D01*
X553642Y345619D01*
G37*
G36*
X581642Y345619D02*
X581642Y345619D01*
X581783Y345635D01*
X581795Y345639D01*
X581807Y345641D01*
X581939Y345695D01*
X582072Y345746D01*
X582081Y345753D01*
X582093Y345757D01*
X582207Y345844D01*
X582322Y345927D01*
X582330Y345936D01*
X582339Y345944D01*
X582428Y346056D01*
X582518Y346166D01*
X582523Y346177D01*
X582530Y346187D01*
X582587Y346317D01*
X582646Y346447D01*
X582648Y346458D01*
X582653Y346470D01*
X582699Y346776D01*
X582698Y346789D01*
X582699Y346800D01*
X582699Y348200D01*
X582681Y348342D01*
X582665Y348483D01*
X582661Y348495D01*
X582659Y348507D01*
X582605Y348639D01*
X582554Y348772D01*
X582547Y348781D01*
X582543Y348793D01*
X582456Y348907D01*
X582373Y349022D01*
X582364Y349030D01*
X582356Y349039D01*
X582244Y349128D01*
X582134Y349218D01*
X582123Y349223D01*
X582113Y349230D01*
X581983Y349287D01*
X581853Y349346D01*
X581842Y349348D01*
X581830Y349353D01*
X581524Y349399D01*
X581511Y349398D01*
X581500Y349399D01*
X576500Y349399D01*
X576358Y349381D01*
X576217Y349365D01*
X576206Y349361D01*
X576193Y349359D01*
X576061Y349305D01*
X575928Y349254D01*
X575919Y349247D01*
X575907Y349243D01*
X575793Y349156D01*
X575678Y349073D01*
X575670Y349064D01*
X575661Y349056D01*
X575572Y348944D01*
X575482Y348834D01*
X575477Y348823D01*
X575470Y348813D01*
X575413Y348683D01*
X575354Y348553D01*
X575352Y348542D01*
X575347Y348530D01*
X575301Y348224D01*
X575302Y348211D01*
X575301Y348200D01*
X575301Y346800D01*
X575319Y346658D01*
X575335Y346517D01*
X575339Y346506D01*
X575341Y346493D01*
X575395Y346361D01*
X575446Y346228D01*
X575453Y346219D01*
X575457Y346207D01*
X575544Y346093D01*
X575627Y345978D01*
X575636Y345970D01*
X575644Y345961D01*
X575756Y345872D01*
X575866Y345782D01*
X575877Y345777D01*
X575887Y345770D01*
X576017Y345713D01*
X576147Y345654D01*
X576158Y345652D01*
X576170Y345647D01*
X576476Y345601D01*
X576489Y345602D01*
X576500Y345601D01*
X581500Y345601D01*
X581642Y345619D01*
G37*
G36*
X581642Y340619D02*
X581642Y340619D01*
X581783Y340635D01*
X581795Y340639D01*
X581807Y340641D01*
X581939Y340695D01*
X582072Y340746D01*
X582081Y340753D01*
X582093Y340757D01*
X582207Y340844D01*
X582322Y340927D01*
X582330Y340936D01*
X582339Y340944D01*
X582428Y341056D01*
X582518Y341166D01*
X582523Y341177D01*
X582530Y341187D01*
X582587Y341317D01*
X582646Y341447D01*
X582648Y341458D01*
X582653Y341470D01*
X582699Y341776D01*
X582698Y341789D01*
X582699Y341800D01*
X582699Y343200D01*
X582681Y343342D01*
X582665Y343483D01*
X582661Y343495D01*
X582659Y343507D01*
X582605Y343639D01*
X582554Y343772D01*
X582547Y343781D01*
X582543Y343793D01*
X582456Y343907D01*
X582373Y344022D01*
X582364Y344030D01*
X582356Y344039D01*
X582244Y344128D01*
X582134Y344218D01*
X582123Y344223D01*
X582113Y344230D01*
X581983Y344287D01*
X581853Y344346D01*
X581842Y344348D01*
X581830Y344353D01*
X581524Y344399D01*
X581511Y344398D01*
X581500Y344399D01*
X576500Y344399D01*
X576358Y344381D01*
X576217Y344365D01*
X576206Y344361D01*
X576193Y344359D01*
X576061Y344305D01*
X575928Y344254D01*
X575919Y344247D01*
X575907Y344243D01*
X575793Y344156D01*
X575678Y344073D01*
X575670Y344064D01*
X575661Y344056D01*
X575572Y343944D01*
X575482Y343834D01*
X575477Y343823D01*
X575470Y343813D01*
X575413Y343683D01*
X575354Y343553D01*
X575352Y343542D01*
X575347Y343530D01*
X575301Y343224D01*
X575302Y343211D01*
X575301Y343200D01*
X575301Y341800D01*
X575319Y341658D01*
X575335Y341517D01*
X575339Y341506D01*
X575341Y341493D01*
X575395Y341361D01*
X575446Y341228D01*
X575453Y341219D01*
X575457Y341207D01*
X575544Y341093D01*
X575627Y340978D01*
X575636Y340970D01*
X575644Y340961D01*
X575756Y340872D01*
X575866Y340782D01*
X575877Y340777D01*
X575887Y340770D01*
X576017Y340713D01*
X576147Y340654D01*
X576158Y340652D01*
X576170Y340647D01*
X576476Y340601D01*
X576489Y340602D01*
X576500Y340601D01*
X581500Y340601D01*
X581642Y340619D01*
G37*
G36*
X553642Y340619D02*
X553642Y340619D01*
X553783Y340635D01*
X553795Y340639D01*
X553807Y340641D01*
X553939Y340695D01*
X554072Y340746D01*
X554081Y340753D01*
X554093Y340757D01*
X554207Y340844D01*
X554322Y340927D01*
X554330Y340936D01*
X554339Y340944D01*
X554428Y341056D01*
X554518Y341166D01*
X554523Y341177D01*
X554530Y341187D01*
X554587Y341317D01*
X554646Y341447D01*
X554648Y341458D01*
X554653Y341470D01*
X554699Y341776D01*
X554698Y341789D01*
X554699Y341800D01*
X554699Y343200D01*
X554681Y343342D01*
X554665Y343483D01*
X554661Y343495D01*
X554659Y343507D01*
X554605Y343639D01*
X554554Y343772D01*
X554547Y343781D01*
X554543Y343793D01*
X554456Y343907D01*
X554373Y344022D01*
X554364Y344030D01*
X554356Y344039D01*
X554244Y344128D01*
X554134Y344218D01*
X554123Y344223D01*
X554113Y344230D01*
X553983Y344287D01*
X553853Y344346D01*
X553842Y344348D01*
X553830Y344353D01*
X553524Y344399D01*
X553511Y344398D01*
X553500Y344399D01*
X548500Y344399D01*
X548358Y344381D01*
X548217Y344365D01*
X548206Y344361D01*
X548193Y344359D01*
X548061Y344305D01*
X547928Y344254D01*
X547919Y344247D01*
X547907Y344243D01*
X547793Y344156D01*
X547678Y344073D01*
X547670Y344064D01*
X547661Y344056D01*
X547572Y343944D01*
X547482Y343834D01*
X547477Y343823D01*
X547470Y343813D01*
X547413Y343683D01*
X547354Y343553D01*
X547352Y343542D01*
X547347Y343530D01*
X547301Y343224D01*
X547302Y343211D01*
X547301Y343200D01*
X547301Y341800D01*
X547319Y341658D01*
X547335Y341517D01*
X547339Y341506D01*
X547341Y341493D01*
X547395Y341361D01*
X547446Y341228D01*
X547453Y341219D01*
X547457Y341207D01*
X547544Y341093D01*
X547627Y340978D01*
X547636Y340970D01*
X547644Y340961D01*
X547756Y340872D01*
X547866Y340782D01*
X547877Y340777D01*
X547887Y340770D01*
X548017Y340713D01*
X548147Y340654D01*
X548158Y340652D01*
X548170Y340647D01*
X548476Y340601D01*
X548489Y340602D01*
X548500Y340601D01*
X553500Y340601D01*
X553642Y340619D01*
G37*
G36*
X573342Y332319D02*
X573342Y332319D01*
X573483Y332335D01*
X573495Y332339D01*
X573507Y332341D01*
X573639Y332395D01*
X573772Y332446D01*
X573781Y332453D01*
X573793Y332457D01*
X573907Y332544D01*
X574022Y332627D01*
X574030Y332636D01*
X574039Y332644D01*
X574128Y332756D01*
X574218Y332866D01*
X574223Y332877D01*
X574230Y332887D01*
X574287Y333017D01*
X574346Y333147D01*
X574348Y333158D01*
X574353Y333170D01*
X574399Y333476D01*
X574398Y333489D01*
X574399Y333500D01*
X574399Y338500D01*
X574381Y338642D01*
X574365Y338783D01*
X574361Y338795D01*
X574359Y338807D01*
X574305Y338939D01*
X574254Y339072D01*
X574247Y339081D01*
X574243Y339093D01*
X574156Y339207D01*
X574073Y339322D01*
X574064Y339330D01*
X574056Y339339D01*
X573944Y339428D01*
X573834Y339518D01*
X573823Y339523D01*
X573813Y339530D01*
X573683Y339587D01*
X573553Y339646D01*
X573542Y339648D01*
X573530Y339653D01*
X573224Y339699D01*
X573211Y339698D01*
X573200Y339699D01*
X571800Y339699D01*
X571658Y339681D01*
X571517Y339665D01*
X571506Y339661D01*
X571493Y339659D01*
X571361Y339605D01*
X571228Y339554D01*
X571219Y339547D01*
X571207Y339543D01*
X571093Y339456D01*
X570978Y339373D01*
X570970Y339364D01*
X570961Y339356D01*
X570872Y339244D01*
X570782Y339134D01*
X570777Y339123D01*
X570770Y339113D01*
X570713Y338983D01*
X570654Y338853D01*
X570652Y338842D01*
X570647Y338830D01*
X570601Y338524D01*
X570602Y338511D01*
X570601Y338500D01*
X570601Y333500D01*
X570619Y333358D01*
X570635Y333217D01*
X570639Y333206D01*
X570641Y333193D01*
X570695Y333061D01*
X570746Y332928D01*
X570753Y332919D01*
X570757Y332907D01*
X570844Y332793D01*
X570927Y332678D01*
X570936Y332670D01*
X570944Y332661D01*
X571056Y332572D01*
X571166Y332482D01*
X571177Y332477D01*
X571187Y332470D01*
X571317Y332413D01*
X571447Y332354D01*
X571458Y332352D01*
X571470Y332347D01*
X571776Y332301D01*
X571789Y332302D01*
X571800Y332301D01*
X573200Y332301D01*
X573342Y332319D01*
G37*
G36*
X568342Y332319D02*
X568342Y332319D01*
X568483Y332335D01*
X568495Y332339D01*
X568507Y332341D01*
X568639Y332395D01*
X568772Y332446D01*
X568781Y332453D01*
X568793Y332457D01*
X568907Y332544D01*
X569022Y332627D01*
X569030Y332636D01*
X569039Y332644D01*
X569128Y332756D01*
X569218Y332866D01*
X569223Y332877D01*
X569230Y332887D01*
X569287Y333017D01*
X569346Y333147D01*
X569348Y333158D01*
X569353Y333170D01*
X569399Y333476D01*
X569398Y333489D01*
X569399Y333500D01*
X569399Y338500D01*
X569381Y338642D01*
X569365Y338783D01*
X569361Y338795D01*
X569359Y338807D01*
X569305Y338939D01*
X569254Y339072D01*
X569247Y339081D01*
X569243Y339093D01*
X569156Y339207D01*
X569073Y339322D01*
X569064Y339330D01*
X569056Y339339D01*
X568944Y339428D01*
X568834Y339518D01*
X568823Y339523D01*
X568813Y339530D01*
X568683Y339587D01*
X568553Y339646D01*
X568542Y339648D01*
X568530Y339653D01*
X568224Y339699D01*
X568211Y339698D01*
X568200Y339699D01*
X566800Y339699D01*
X566658Y339681D01*
X566517Y339665D01*
X566506Y339661D01*
X566493Y339659D01*
X566361Y339605D01*
X566228Y339554D01*
X566219Y339547D01*
X566207Y339543D01*
X566093Y339456D01*
X565978Y339373D01*
X565970Y339364D01*
X565961Y339356D01*
X565872Y339244D01*
X565782Y339134D01*
X565777Y339123D01*
X565770Y339113D01*
X565713Y338983D01*
X565654Y338853D01*
X565652Y338842D01*
X565647Y338830D01*
X565601Y338524D01*
X565602Y338511D01*
X565601Y338500D01*
X565601Y333500D01*
X565619Y333358D01*
X565635Y333217D01*
X565639Y333206D01*
X565641Y333193D01*
X565695Y333061D01*
X565746Y332928D01*
X565753Y332919D01*
X565757Y332907D01*
X565844Y332793D01*
X565927Y332678D01*
X565936Y332670D01*
X565944Y332661D01*
X566056Y332572D01*
X566166Y332482D01*
X566177Y332477D01*
X566187Y332470D01*
X566317Y332413D01*
X566447Y332354D01*
X566458Y332352D01*
X566470Y332347D01*
X566776Y332301D01*
X566789Y332302D01*
X566800Y332301D01*
X568200Y332301D01*
X568342Y332319D01*
G37*
G36*
X558342Y332319D02*
X558342Y332319D01*
X558483Y332335D01*
X558495Y332339D01*
X558507Y332341D01*
X558639Y332395D01*
X558772Y332446D01*
X558781Y332453D01*
X558793Y332457D01*
X558907Y332544D01*
X559022Y332627D01*
X559030Y332636D01*
X559039Y332644D01*
X559128Y332756D01*
X559218Y332866D01*
X559223Y332877D01*
X559230Y332887D01*
X559287Y333017D01*
X559346Y333147D01*
X559348Y333158D01*
X559353Y333170D01*
X559399Y333476D01*
X559398Y333489D01*
X559399Y333500D01*
X559399Y338500D01*
X559381Y338642D01*
X559365Y338783D01*
X559361Y338795D01*
X559359Y338807D01*
X559305Y338939D01*
X559254Y339072D01*
X559247Y339081D01*
X559243Y339093D01*
X559156Y339207D01*
X559073Y339322D01*
X559064Y339330D01*
X559056Y339339D01*
X558944Y339428D01*
X558834Y339518D01*
X558823Y339523D01*
X558813Y339530D01*
X558683Y339587D01*
X558553Y339646D01*
X558542Y339648D01*
X558530Y339653D01*
X558224Y339699D01*
X558211Y339698D01*
X558200Y339699D01*
X556800Y339699D01*
X556658Y339681D01*
X556517Y339665D01*
X556506Y339661D01*
X556493Y339659D01*
X556361Y339605D01*
X556228Y339554D01*
X556219Y339547D01*
X556207Y339543D01*
X556093Y339456D01*
X555978Y339373D01*
X555970Y339364D01*
X555961Y339356D01*
X555872Y339244D01*
X555782Y339134D01*
X555777Y339123D01*
X555770Y339113D01*
X555713Y338983D01*
X555654Y338853D01*
X555652Y338842D01*
X555647Y338830D01*
X555601Y338524D01*
X555602Y338511D01*
X555601Y338500D01*
X555601Y333500D01*
X555619Y333358D01*
X555635Y333217D01*
X555639Y333206D01*
X555641Y333193D01*
X555695Y333061D01*
X555746Y332928D01*
X555753Y332919D01*
X555757Y332907D01*
X555844Y332793D01*
X555927Y332678D01*
X555936Y332670D01*
X555944Y332661D01*
X556056Y332572D01*
X556166Y332482D01*
X556177Y332477D01*
X556187Y332470D01*
X556317Y332413D01*
X556447Y332354D01*
X556458Y332352D01*
X556470Y332347D01*
X556776Y332301D01*
X556789Y332302D01*
X556800Y332301D01*
X558200Y332301D01*
X558342Y332319D01*
G37*
G36*
X563342Y332319D02*
X563342Y332319D01*
X563483Y332335D01*
X563495Y332339D01*
X563507Y332341D01*
X563639Y332395D01*
X563772Y332446D01*
X563781Y332453D01*
X563793Y332457D01*
X563907Y332544D01*
X564022Y332627D01*
X564030Y332636D01*
X564039Y332644D01*
X564128Y332756D01*
X564218Y332866D01*
X564223Y332877D01*
X564230Y332887D01*
X564287Y333017D01*
X564346Y333147D01*
X564348Y333158D01*
X564353Y333170D01*
X564399Y333476D01*
X564398Y333489D01*
X564399Y333500D01*
X564399Y338500D01*
X564381Y338642D01*
X564365Y338783D01*
X564361Y338795D01*
X564359Y338807D01*
X564305Y338939D01*
X564254Y339072D01*
X564247Y339081D01*
X564243Y339093D01*
X564156Y339207D01*
X564073Y339322D01*
X564064Y339330D01*
X564056Y339339D01*
X563944Y339428D01*
X563834Y339518D01*
X563823Y339523D01*
X563813Y339530D01*
X563683Y339587D01*
X563553Y339646D01*
X563542Y339648D01*
X563530Y339653D01*
X563224Y339699D01*
X563211Y339698D01*
X563200Y339699D01*
X561800Y339699D01*
X561658Y339681D01*
X561517Y339665D01*
X561506Y339661D01*
X561493Y339659D01*
X561361Y339605D01*
X561228Y339554D01*
X561219Y339547D01*
X561207Y339543D01*
X561093Y339456D01*
X560978Y339373D01*
X560970Y339364D01*
X560961Y339356D01*
X560872Y339244D01*
X560782Y339134D01*
X560777Y339123D01*
X560770Y339113D01*
X560713Y338983D01*
X560654Y338853D01*
X560652Y338842D01*
X560647Y338830D01*
X560601Y338524D01*
X560602Y338511D01*
X560601Y338500D01*
X560601Y333500D01*
X560619Y333358D01*
X560635Y333217D01*
X560639Y333206D01*
X560641Y333193D01*
X560695Y333061D01*
X560746Y332928D01*
X560753Y332919D01*
X560757Y332907D01*
X560844Y332793D01*
X560927Y332678D01*
X560936Y332670D01*
X560944Y332661D01*
X561056Y332572D01*
X561166Y332482D01*
X561177Y332477D01*
X561187Y332470D01*
X561317Y332413D01*
X561447Y332354D01*
X561458Y332352D01*
X561470Y332347D01*
X561776Y332301D01*
X561789Y332302D01*
X561800Y332301D01*
X563200Y332301D01*
X563342Y332319D01*
G37*
G36*
X558342Y410319D02*
X558342Y410319D01*
X558483Y410335D01*
X558495Y410339D01*
X558507Y410341D01*
X558639Y410395D01*
X558772Y410446D01*
X558781Y410453D01*
X558793Y410457D01*
X558907Y410544D01*
X559022Y410627D01*
X559030Y410636D01*
X559039Y410644D01*
X559128Y410756D01*
X559218Y410866D01*
X559223Y410877D01*
X559230Y410887D01*
X559287Y411017D01*
X559346Y411147D01*
X559348Y411158D01*
X559353Y411170D01*
X559399Y411476D01*
X559398Y411489D01*
X559399Y411500D01*
X559399Y416500D01*
X559381Y416642D01*
X559365Y416783D01*
X559361Y416795D01*
X559359Y416807D01*
X559305Y416939D01*
X559254Y417072D01*
X559247Y417081D01*
X559243Y417093D01*
X559156Y417207D01*
X559073Y417322D01*
X559064Y417330D01*
X559056Y417339D01*
X558944Y417428D01*
X558834Y417518D01*
X558823Y417523D01*
X558813Y417530D01*
X558683Y417587D01*
X558553Y417646D01*
X558542Y417648D01*
X558530Y417653D01*
X558224Y417699D01*
X558211Y417698D01*
X558200Y417699D01*
X556800Y417699D01*
X556658Y417681D01*
X556517Y417665D01*
X556506Y417661D01*
X556493Y417659D01*
X556361Y417605D01*
X556228Y417554D01*
X556219Y417547D01*
X556207Y417543D01*
X556093Y417456D01*
X555978Y417373D01*
X555970Y417364D01*
X555961Y417356D01*
X555872Y417244D01*
X555782Y417134D01*
X555777Y417123D01*
X555770Y417113D01*
X555713Y416983D01*
X555654Y416853D01*
X555652Y416842D01*
X555647Y416830D01*
X555601Y416524D01*
X555602Y416511D01*
X555601Y416500D01*
X555601Y411500D01*
X555619Y411358D01*
X555635Y411217D01*
X555639Y411206D01*
X555641Y411193D01*
X555695Y411061D01*
X555746Y410928D01*
X555753Y410919D01*
X555757Y410907D01*
X555844Y410793D01*
X555927Y410678D01*
X555936Y410670D01*
X555944Y410661D01*
X556056Y410572D01*
X556166Y410482D01*
X556177Y410477D01*
X556187Y410470D01*
X556317Y410413D01*
X556447Y410354D01*
X556458Y410352D01*
X556470Y410347D01*
X556776Y410301D01*
X556789Y410302D01*
X556800Y410301D01*
X558200Y410301D01*
X558342Y410319D01*
G37*
G36*
X568342Y410319D02*
X568342Y410319D01*
X568483Y410335D01*
X568495Y410339D01*
X568507Y410341D01*
X568639Y410395D01*
X568772Y410446D01*
X568781Y410453D01*
X568793Y410457D01*
X568907Y410544D01*
X569022Y410627D01*
X569030Y410636D01*
X569039Y410644D01*
X569128Y410756D01*
X569218Y410866D01*
X569223Y410877D01*
X569230Y410887D01*
X569287Y411017D01*
X569346Y411147D01*
X569348Y411158D01*
X569353Y411170D01*
X569399Y411476D01*
X569398Y411489D01*
X569399Y411500D01*
X569399Y416500D01*
X569381Y416642D01*
X569365Y416783D01*
X569361Y416795D01*
X569359Y416807D01*
X569305Y416939D01*
X569254Y417072D01*
X569247Y417081D01*
X569243Y417093D01*
X569156Y417207D01*
X569073Y417322D01*
X569064Y417330D01*
X569056Y417339D01*
X568944Y417428D01*
X568834Y417518D01*
X568823Y417523D01*
X568813Y417530D01*
X568683Y417587D01*
X568553Y417646D01*
X568542Y417648D01*
X568530Y417653D01*
X568224Y417699D01*
X568211Y417698D01*
X568200Y417699D01*
X566800Y417699D01*
X566658Y417681D01*
X566517Y417665D01*
X566506Y417661D01*
X566493Y417659D01*
X566361Y417605D01*
X566228Y417554D01*
X566219Y417547D01*
X566207Y417543D01*
X566093Y417456D01*
X565978Y417373D01*
X565970Y417364D01*
X565961Y417356D01*
X565872Y417244D01*
X565782Y417134D01*
X565777Y417123D01*
X565770Y417113D01*
X565713Y416983D01*
X565654Y416853D01*
X565652Y416842D01*
X565647Y416830D01*
X565601Y416524D01*
X565602Y416511D01*
X565601Y416500D01*
X565601Y411500D01*
X565619Y411358D01*
X565635Y411217D01*
X565639Y411206D01*
X565641Y411193D01*
X565695Y411061D01*
X565746Y410928D01*
X565753Y410919D01*
X565757Y410907D01*
X565844Y410793D01*
X565927Y410678D01*
X565936Y410670D01*
X565944Y410661D01*
X566056Y410572D01*
X566166Y410482D01*
X566177Y410477D01*
X566187Y410470D01*
X566317Y410413D01*
X566447Y410354D01*
X566458Y410352D01*
X566470Y410347D01*
X566776Y410301D01*
X566789Y410302D01*
X566800Y410301D01*
X568200Y410301D01*
X568342Y410319D01*
G37*
G36*
X581642Y405619D02*
X581642Y405619D01*
X581783Y405635D01*
X581795Y405639D01*
X581807Y405641D01*
X581939Y405695D01*
X582072Y405746D01*
X582081Y405753D01*
X582093Y405757D01*
X582207Y405844D01*
X582322Y405927D01*
X582330Y405936D01*
X582339Y405944D01*
X582428Y406056D01*
X582518Y406166D01*
X582523Y406177D01*
X582530Y406187D01*
X582587Y406317D01*
X582646Y406447D01*
X582648Y406458D01*
X582653Y406470D01*
X582699Y406776D01*
X582698Y406789D01*
X582699Y406800D01*
X582699Y408200D01*
X582681Y408342D01*
X582665Y408483D01*
X582661Y408495D01*
X582659Y408507D01*
X582605Y408639D01*
X582554Y408772D01*
X582547Y408781D01*
X582543Y408793D01*
X582456Y408907D01*
X582373Y409022D01*
X582364Y409030D01*
X582356Y409039D01*
X582244Y409128D01*
X582134Y409218D01*
X582123Y409223D01*
X582113Y409230D01*
X581983Y409287D01*
X581853Y409346D01*
X581842Y409348D01*
X581830Y409353D01*
X581524Y409399D01*
X581511Y409398D01*
X581500Y409399D01*
X576500Y409399D01*
X576358Y409381D01*
X576217Y409365D01*
X576206Y409361D01*
X576193Y409359D01*
X576061Y409305D01*
X575928Y409254D01*
X575919Y409247D01*
X575907Y409243D01*
X575793Y409156D01*
X575678Y409073D01*
X575670Y409064D01*
X575661Y409056D01*
X575572Y408944D01*
X575482Y408834D01*
X575477Y408823D01*
X575470Y408813D01*
X575413Y408683D01*
X575354Y408553D01*
X575352Y408542D01*
X575347Y408530D01*
X575301Y408224D01*
X575302Y408211D01*
X575301Y408200D01*
X575301Y406800D01*
X575319Y406658D01*
X575335Y406517D01*
X575339Y406506D01*
X575341Y406493D01*
X575395Y406361D01*
X575446Y406228D01*
X575453Y406219D01*
X575457Y406207D01*
X575544Y406093D01*
X575627Y405978D01*
X575636Y405970D01*
X575644Y405961D01*
X575756Y405872D01*
X575866Y405782D01*
X575877Y405777D01*
X575887Y405770D01*
X576017Y405713D01*
X576147Y405654D01*
X576158Y405652D01*
X576170Y405647D01*
X576476Y405601D01*
X576489Y405602D01*
X576500Y405601D01*
X581500Y405601D01*
X581642Y405619D01*
G37*
G36*
X568342Y360319D02*
X568342Y360319D01*
X568483Y360335D01*
X568495Y360339D01*
X568507Y360341D01*
X568639Y360395D01*
X568772Y360446D01*
X568781Y360453D01*
X568793Y360457D01*
X568907Y360544D01*
X569022Y360627D01*
X569030Y360636D01*
X569039Y360644D01*
X569128Y360756D01*
X569218Y360866D01*
X569223Y360877D01*
X569230Y360887D01*
X569287Y361017D01*
X569346Y361147D01*
X569348Y361158D01*
X569353Y361170D01*
X569399Y361476D01*
X569398Y361489D01*
X569399Y361500D01*
X569399Y366500D01*
X569381Y366642D01*
X569365Y366783D01*
X569361Y366795D01*
X569359Y366807D01*
X569305Y366939D01*
X569254Y367072D01*
X569247Y367081D01*
X569243Y367093D01*
X569156Y367207D01*
X569073Y367322D01*
X569064Y367330D01*
X569056Y367339D01*
X568944Y367428D01*
X568834Y367518D01*
X568823Y367523D01*
X568813Y367530D01*
X568683Y367587D01*
X568553Y367646D01*
X568542Y367648D01*
X568530Y367653D01*
X568224Y367699D01*
X568211Y367698D01*
X568200Y367699D01*
X566800Y367699D01*
X566658Y367681D01*
X566517Y367665D01*
X566506Y367661D01*
X566493Y367659D01*
X566361Y367605D01*
X566228Y367554D01*
X566219Y367547D01*
X566207Y367543D01*
X566093Y367456D01*
X565978Y367373D01*
X565970Y367364D01*
X565961Y367356D01*
X565872Y367244D01*
X565782Y367134D01*
X565777Y367123D01*
X565770Y367113D01*
X565713Y366983D01*
X565654Y366853D01*
X565652Y366842D01*
X565647Y366830D01*
X565601Y366524D01*
X565602Y366511D01*
X565601Y366500D01*
X565601Y361500D01*
X565619Y361358D01*
X565635Y361217D01*
X565639Y361206D01*
X565641Y361193D01*
X565695Y361061D01*
X565746Y360928D01*
X565753Y360919D01*
X565757Y360907D01*
X565844Y360793D01*
X565927Y360678D01*
X565936Y360670D01*
X565944Y360661D01*
X566056Y360572D01*
X566166Y360482D01*
X566177Y360477D01*
X566187Y360470D01*
X566317Y360413D01*
X566447Y360354D01*
X566458Y360352D01*
X566470Y360347D01*
X566776Y360301D01*
X566789Y360302D01*
X566800Y360301D01*
X568200Y360301D01*
X568342Y360319D01*
G37*
D10*
X340640Y250000D03*
X635080Y250000D03*
X487860Y505000D03*
D11*
X108376Y79951D03*
X79476Y130007D03*
D12*
X411860Y762000D03*
X411860Y747000D03*
X411860Y732000D03*
X411860Y717000D03*
X411860Y702000D03*
X411860Y687000D03*
X411860Y672000D03*
X411860Y657000D03*
D13*
X435160Y640700D03*
X450160Y640700D03*
X465160Y640700D03*
X480160Y640700D03*
X495160Y640700D03*
X510160Y640700D03*
X525160Y640700D03*
X540160Y640700D03*
D12*
X563860Y657000D03*
X563860Y673000D03*
X563860Y688000D03*
X563860Y703000D03*
X563860Y718000D03*
X563860Y733000D03*
X563860Y748000D03*
X563860Y762000D03*
D14*
X367500Y391250D03*
D15*
X395000Y425000D03*
D16*
X372500Y391250D03*
X377500Y391250D03*
X382500Y391250D03*
X387500Y391250D03*
X392500Y391250D03*
X397500Y391250D03*
X402500Y391250D03*
X407500Y391250D03*
X412500Y391250D03*
X417500Y391250D03*
X422500Y391250D03*
D17*
X428750Y397500D03*
X428750Y402500D03*
X428750Y407500D03*
X428750Y412500D03*
X428750Y417500D03*
X428750Y422500D03*
X428750Y427500D03*
X428750Y432500D03*
X428750Y437500D03*
X428750Y442500D03*
X428750Y447500D03*
X428750Y452500D03*
D16*
X422500Y458750D03*
X417500Y458750D03*
X412500Y458750D03*
X407500Y458750D03*
X402500Y458750D03*
X397500Y458750D03*
X392500Y458750D03*
X387500Y458750D03*
X382500Y458750D03*
X377500Y458750D03*
X372500Y458750D03*
X367500Y458750D03*
D17*
X361250Y452500D03*
X361250Y447500D03*
X361250Y442500D03*
X361250Y437500D03*
X361250Y432500D03*
X361250Y427500D03*
X361250Y422500D03*
X361250Y417500D03*
X361250Y412500D03*
X361250Y407500D03*
X361250Y402500D03*
X361250Y397500D03*
D18*
X475000Y459500D03*
X475000Y440500D03*
X325000Y459500D03*
X325000Y440500D03*
X325000Y390500D03*
X325000Y409500D03*
X475000Y390500D03*
X475000Y409500D03*
X580000Y309500D03*
X580000Y290500D03*
X615000Y290500D03*
X615000Y309500D03*
X545000Y290500D03*
X545000Y309500D03*
X430000Y359500D03*
X430000Y340500D03*
X510000Y440500D03*
X510000Y459500D03*
X615000Y359500D03*
X615000Y340500D03*
X615000Y390500D03*
X615000Y409500D03*
X545000Y459500D03*
X545000Y440500D03*
X580000Y440500D03*
X580000Y459500D03*
X615000Y459500D03*
X615000Y440500D03*
D19*
X510000Y386500D03*
X510000Y413500D03*
D20*
X487860Y317000D03*
X487860Y353000D03*
X482860Y317000D03*
X477860Y317000D03*
X492860Y317000D03*
X497860Y317000D03*
X482860Y353000D03*
X477860Y353000D03*
X492860Y353000D03*
X497860Y353000D03*
D21*
X515360Y335000D03*
X460360Y335000D03*
D18*
X590000Y740500D03*
X590000Y759500D03*
X360000Y359500D03*
X360000Y340500D03*
X325000Y340500D03*
X325000Y359500D03*
D22*
X425000Y289000D03*
X415500Y311000D03*
X434500Y311000D03*
D23*
X449760Y97700D03*
X475160Y72300D03*
X500560Y97700D03*
X525960Y72300D03*
D24*
G36*
X304447Y266506D02*
X281917Y253499D01*
X276209Y263386D01*
X298739Y276393D01*
X304447Y266506D01*
G37*
G36*
X317147Y244509D02*
X294617Y231502D01*
X288909Y241389D01*
X311439Y254396D01*
X317147Y244509D01*
G37*
G36*
X329847Y222511D02*
X307317Y209504D01*
X301609Y219391D01*
X324139Y232398D01*
X329847Y222511D01*
G37*
G36*
X342547Y200514D02*
X320017Y187507D01*
X314309Y197394D01*
X336839Y210401D01*
X342547Y200514D01*
G37*
D25*
G36*
X173717Y116107D02*
X196247Y129114D01*
X201855Y119401D01*
X179325Y106394D01*
X173717Y116107D01*
G37*
G36*
X161017Y138104D02*
X183547Y151111D01*
X189155Y141398D01*
X166625Y128391D01*
X161017Y138104D01*
G37*
G36*
X148317Y160102D02*
X170847Y173109D01*
X176455Y163396D01*
X153925Y150389D01*
X148317Y160102D01*
G37*
G36*
X135617Y182099D02*
X158147Y195106D01*
X163755Y185393D01*
X141225Y172386D01*
X135617Y182099D01*
G37*
D18*
X395000Y340500D03*
X395000Y359500D03*
M02*
