G04 EAGLE Gerber RS-274X export*
G75*
%MOMM*%
%FSLAX34Y34*%
%LPD*%
%INTop Paste*%
%IPPOS*%
%AMOC8*
5,1,8,0,0,1.08239X$1,22.5*%
G01*
%ADD10R,1.000000X0.900000*%
%ADD11R,0.420000X1.300000*%


D10*
X180820Y174500D03*
X219820Y174500D03*
X219820Y135500D03*
X180820Y135500D03*
D11*
X187570Y32500D03*
X196070Y32500D03*
X204570Y32500D03*
X213070Y32500D03*
G36*
X93925Y228723D02*
X96025Y232360D01*
X107283Y225861D01*
X105183Y222224D01*
X93925Y228723D01*
G37*
G36*
X89675Y221362D02*
X91775Y224999D01*
X103033Y218500D01*
X100933Y214863D01*
X89675Y221362D01*
G37*
G36*
X85425Y214000D02*
X87525Y217637D01*
X98783Y211138D01*
X96683Y207501D01*
X85425Y214000D01*
G37*
G36*
X81175Y206639D02*
X83275Y210276D01*
X94533Y203777D01*
X92433Y200140D01*
X81175Y206639D01*
G37*
G36*
X317365Y210276D02*
X319465Y206639D01*
X308207Y200140D01*
X306107Y203777D01*
X317365Y210276D01*
G37*
G36*
X313115Y217637D02*
X315215Y214000D01*
X303957Y207501D01*
X301857Y211138D01*
X313115Y217637D01*
G37*
G36*
X308865Y224999D02*
X310965Y221362D01*
X299707Y214863D01*
X297607Y218500D01*
X308865Y224999D01*
G37*
G36*
X304615Y232360D02*
X306715Y228723D01*
X295457Y222224D01*
X293357Y225861D01*
X304615Y232360D01*
G37*
M02*
