G04 EAGLE Gerber RS-274X export*
G75*
%MOMM*%
%FSLAX34Y34*%
%LPD*%
%INTop Paste*%
%IPPOS*%
%AMOC8*
5,1,8,0,0,1.08239X$1,22.5*%
G01*
%ADD10R,1.500000X0.635000*%
%ADD11R,0.635000X1.500000*%
%ADD12R,0.200000X0.400000*%
%ADD13R,5.600000X5.600000*%
%ADD14R,0.300000X0.550000*%
%ADD15R,0.550000X0.300000*%
%ADD16R,1.500000X1.300000*%
%ADD17R,1.200000X1.500000*%
%ADD18R,0.280000X1.200000*%
%ADD19R,0.800000X1.800000*%
%ADD20R,1.000000X1.400000*%
%ADD21R,1.016000X3.302000*%
%ADD22R,2.500000X1.040000*%
%ADD23R,2.500000X1.020000*%

G36*
X572258Y392252D02*
X572258Y392252D01*
X572267Y392251D01*
X572355Y392272D01*
X572445Y392290D01*
X572452Y392295D01*
X572460Y392297D01*
X572533Y392351D01*
X572609Y392403D01*
X572613Y392410D01*
X572620Y392415D01*
X572667Y392493D01*
X572716Y392570D01*
X572717Y392579D01*
X572722Y392586D01*
X572749Y392750D01*
X572749Y407250D01*
X572748Y407258D01*
X572749Y407267D01*
X572728Y407355D01*
X572710Y407445D01*
X572705Y407452D01*
X572703Y407460D01*
X572649Y407533D01*
X572597Y407609D01*
X572590Y407613D01*
X572585Y407620D01*
X572507Y407667D01*
X572430Y407716D01*
X572421Y407717D01*
X572414Y407722D01*
X572250Y407749D01*
X557750Y407749D01*
X557742Y407748D01*
X557733Y407749D01*
X557645Y407728D01*
X557555Y407710D01*
X557548Y407705D01*
X557540Y407703D01*
X557467Y407649D01*
X557391Y407597D01*
X557387Y407590D01*
X557380Y407585D01*
X557333Y407507D01*
X557284Y407430D01*
X557283Y407421D01*
X557278Y407414D01*
X557251Y407250D01*
X557251Y392750D01*
X557252Y392742D01*
X557251Y392733D01*
X557272Y392645D01*
X557290Y392555D01*
X557295Y392548D01*
X557297Y392540D01*
X557351Y392467D01*
X557403Y392391D01*
X557410Y392387D01*
X557415Y392380D01*
X557493Y392333D01*
X557570Y392284D01*
X557579Y392283D01*
X557586Y392278D01*
X557750Y392251D01*
X572250Y392251D01*
X572258Y392252D01*
G37*
G36*
X572258Y342252D02*
X572258Y342252D01*
X572267Y342251D01*
X572355Y342272D01*
X572445Y342290D01*
X572452Y342295D01*
X572460Y342297D01*
X572533Y342351D01*
X572609Y342403D01*
X572613Y342410D01*
X572620Y342415D01*
X572667Y342493D01*
X572716Y342570D01*
X572717Y342579D01*
X572722Y342586D01*
X572749Y342750D01*
X572749Y357250D01*
X572748Y357258D01*
X572749Y357267D01*
X572728Y357355D01*
X572710Y357445D01*
X572705Y357452D01*
X572703Y357460D01*
X572649Y357533D01*
X572597Y357609D01*
X572590Y357613D01*
X572585Y357620D01*
X572507Y357667D01*
X572430Y357716D01*
X572421Y357717D01*
X572414Y357722D01*
X572250Y357749D01*
X557750Y357749D01*
X557742Y357748D01*
X557733Y357749D01*
X557645Y357728D01*
X557555Y357710D01*
X557548Y357705D01*
X557540Y357703D01*
X557467Y357649D01*
X557391Y357597D01*
X557387Y357590D01*
X557380Y357585D01*
X557333Y357507D01*
X557284Y357430D01*
X557283Y357421D01*
X557278Y357414D01*
X557251Y357250D01*
X557251Y342750D01*
X557252Y342742D01*
X557251Y342733D01*
X557272Y342645D01*
X557290Y342555D01*
X557295Y342548D01*
X557297Y342540D01*
X557351Y342467D01*
X557403Y342391D01*
X557410Y342387D01*
X557415Y342380D01*
X557493Y342333D01*
X557570Y342284D01*
X557579Y342283D01*
X557586Y342278D01*
X557750Y342251D01*
X572250Y342251D01*
X572258Y342252D01*
G37*
G36*
X563208Y411002D02*
X563208Y411002D01*
X563217Y411001D01*
X563305Y411022D01*
X563395Y411040D01*
X563402Y411045D01*
X563410Y411047D01*
X563483Y411101D01*
X563559Y411153D01*
X563563Y411160D01*
X563570Y411165D01*
X563617Y411243D01*
X563666Y411320D01*
X563667Y411329D01*
X563672Y411336D01*
X563699Y411500D01*
X563699Y416500D01*
X563698Y416505D01*
X563699Y416509D01*
X563698Y416512D01*
X563699Y416517D01*
X563678Y416605D01*
X563660Y416695D01*
X563655Y416702D01*
X563653Y416710D01*
X563599Y416783D01*
X563547Y416859D01*
X563540Y416863D01*
X563535Y416870D01*
X563457Y416917D01*
X563380Y416966D01*
X563371Y416967D01*
X563364Y416972D01*
X563200Y416999D01*
X561800Y416999D01*
X561792Y416998D01*
X561783Y416999D01*
X561695Y416978D01*
X561605Y416960D01*
X561598Y416955D01*
X561590Y416953D01*
X561517Y416899D01*
X561441Y416847D01*
X561437Y416840D01*
X561430Y416835D01*
X561383Y416757D01*
X561334Y416680D01*
X561333Y416671D01*
X561328Y416664D01*
X561301Y416500D01*
X561301Y411500D01*
X561302Y411492D01*
X561301Y411483D01*
X561322Y411395D01*
X561340Y411305D01*
X561345Y411298D01*
X561347Y411290D01*
X561401Y411217D01*
X561453Y411141D01*
X561460Y411137D01*
X561465Y411130D01*
X561543Y411083D01*
X561620Y411034D01*
X561629Y411033D01*
X561636Y411028D01*
X561800Y411001D01*
X563200Y411001D01*
X563208Y411002D01*
G37*
G36*
X568208Y411002D02*
X568208Y411002D01*
X568217Y411001D01*
X568305Y411022D01*
X568395Y411040D01*
X568402Y411045D01*
X568410Y411047D01*
X568483Y411101D01*
X568559Y411153D01*
X568563Y411160D01*
X568570Y411165D01*
X568617Y411243D01*
X568666Y411320D01*
X568667Y411329D01*
X568672Y411336D01*
X568699Y411500D01*
X568699Y416500D01*
X568698Y416505D01*
X568699Y416509D01*
X568698Y416512D01*
X568699Y416517D01*
X568678Y416605D01*
X568660Y416695D01*
X568655Y416702D01*
X568653Y416710D01*
X568599Y416783D01*
X568547Y416859D01*
X568540Y416863D01*
X568535Y416870D01*
X568457Y416917D01*
X568380Y416966D01*
X568371Y416967D01*
X568364Y416972D01*
X568200Y416999D01*
X566800Y416999D01*
X566792Y416998D01*
X566783Y416999D01*
X566695Y416978D01*
X566605Y416960D01*
X566598Y416955D01*
X566590Y416953D01*
X566517Y416899D01*
X566441Y416847D01*
X566437Y416840D01*
X566430Y416835D01*
X566383Y416757D01*
X566334Y416680D01*
X566333Y416671D01*
X566328Y416664D01*
X566301Y416500D01*
X566301Y411500D01*
X566302Y411492D01*
X566301Y411483D01*
X566322Y411395D01*
X566340Y411305D01*
X566345Y411298D01*
X566347Y411290D01*
X566401Y411217D01*
X566453Y411141D01*
X566460Y411137D01*
X566465Y411130D01*
X566543Y411083D01*
X566620Y411034D01*
X566629Y411033D01*
X566636Y411028D01*
X566800Y411001D01*
X568200Y411001D01*
X568208Y411002D01*
G37*
G36*
X558208Y411002D02*
X558208Y411002D01*
X558217Y411001D01*
X558305Y411022D01*
X558395Y411040D01*
X558402Y411045D01*
X558410Y411047D01*
X558483Y411101D01*
X558559Y411153D01*
X558563Y411160D01*
X558570Y411165D01*
X558617Y411243D01*
X558666Y411320D01*
X558667Y411329D01*
X558672Y411336D01*
X558699Y411500D01*
X558699Y416500D01*
X558698Y416505D01*
X558699Y416509D01*
X558698Y416512D01*
X558699Y416517D01*
X558678Y416605D01*
X558660Y416695D01*
X558655Y416702D01*
X558653Y416710D01*
X558599Y416783D01*
X558547Y416859D01*
X558540Y416863D01*
X558535Y416870D01*
X558457Y416917D01*
X558380Y416966D01*
X558371Y416967D01*
X558364Y416972D01*
X558200Y416999D01*
X556800Y416999D01*
X556792Y416998D01*
X556783Y416999D01*
X556695Y416978D01*
X556605Y416960D01*
X556598Y416955D01*
X556590Y416953D01*
X556517Y416899D01*
X556441Y416847D01*
X556437Y416840D01*
X556430Y416835D01*
X556383Y416757D01*
X556334Y416680D01*
X556333Y416671D01*
X556328Y416664D01*
X556301Y416500D01*
X556301Y411500D01*
X556302Y411492D01*
X556301Y411483D01*
X556322Y411395D01*
X556340Y411305D01*
X556345Y411298D01*
X556347Y411290D01*
X556401Y411217D01*
X556453Y411141D01*
X556460Y411137D01*
X556465Y411130D01*
X556543Y411083D01*
X556620Y411034D01*
X556629Y411033D01*
X556636Y411028D01*
X556800Y411001D01*
X558200Y411001D01*
X558208Y411002D01*
G37*
G36*
X573208Y411002D02*
X573208Y411002D01*
X573217Y411001D01*
X573305Y411022D01*
X573395Y411040D01*
X573402Y411045D01*
X573410Y411047D01*
X573483Y411101D01*
X573559Y411153D01*
X573563Y411160D01*
X573570Y411165D01*
X573617Y411243D01*
X573666Y411320D01*
X573667Y411329D01*
X573672Y411336D01*
X573699Y411500D01*
X573699Y416500D01*
X573698Y416505D01*
X573699Y416509D01*
X573698Y416512D01*
X573699Y416517D01*
X573678Y416605D01*
X573660Y416695D01*
X573655Y416702D01*
X573653Y416710D01*
X573599Y416783D01*
X573547Y416859D01*
X573540Y416863D01*
X573535Y416870D01*
X573457Y416917D01*
X573380Y416966D01*
X573371Y416967D01*
X573364Y416972D01*
X573200Y416999D01*
X571800Y416999D01*
X571792Y416998D01*
X571783Y416999D01*
X571695Y416978D01*
X571605Y416960D01*
X571598Y416955D01*
X571590Y416953D01*
X571517Y416899D01*
X571441Y416847D01*
X571437Y416840D01*
X571430Y416835D01*
X571383Y416757D01*
X571334Y416680D01*
X571333Y416671D01*
X571328Y416664D01*
X571301Y416500D01*
X571301Y411500D01*
X571302Y411492D01*
X571301Y411483D01*
X571322Y411395D01*
X571340Y411305D01*
X571345Y411298D01*
X571347Y411290D01*
X571401Y411217D01*
X571453Y411141D01*
X571460Y411137D01*
X571465Y411130D01*
X571543Y411083D01*
X571620Y411034D01*
X571629Y411033D01*
X571636Y411028D01*
X571800Y411001D01*
X573200Y411001D01*
X573208Y411002D01*
G37*
G36*
X568208Y361002D02*
X568208Y361002D01*
X568217Y361001D01*
X568305Y361022D01*
X568395Y361040D01*
X568402Y361045D01*
X568410Y361047D01*
X568483Y361101D01*
X568559Y361153D01*
X568563Y361160D01*
X568570Y361165D01*
X568617Y361243D01*
X568666Y361320D01*
X568667Y361329D01*
X568672Y361336D01*
X568699Y361500D01*
X568699Y366500D01*
X568698Y366505D01*
X568699Y366509D01*
X568698Y366512D01*
X568699Y366517D01*
X568678Y366605D01*
X568660Y366695D01*
X568655Y366702D01*
X568653Y366710D01*
X568599Y366783D01*
X568547Y366859D01*
X568540Y366863D01*
X568535Y366870D01*
X568457Y366917D01*
X568380Y366966D01*
X568371Y366967D01*
X568364Y366972D01*
X568200Y366999D01*
X566800Y366999D01*
X566792Y366998D01*
X566783Y366999D01*
X566695Y366978D01*
X566605Y366960D01*
X566598Y366955D01*
X566590Y366953D01*
X566517Y366899D01*
X566441Y366847D01*
X566437Y366840D01*
X566430Y366835D01*
X566383Y366757D01*
X566334Y366680D01*
X566333Y366671D01*
X566328Y366664D01*
X566301Y366500D01*
X566301Y361500D01*
X566302Y361492D01*
X566301Y361483D01*
X566322Y361395D01*
X566340Y361305D01*
X566345Y361298D01*
X566347Y361290D01*
X566401Y361217D01*
X566453Y361141D01*
X566460Y361137D01*
X566465Y361130D01*
X566543Y361083D01*
X566620Y361034D01*
X566629Y361033D01*
X566636Y361028D01*
X566800Y361001D01*
X568200Y361001D01*
X568208Y361002D01*
G37*
G36*
X558208Y361002D02*
X558208Y361002D01*
X558217Y361001D01*
X558305Y361022D01*
X558395Y361040D01*
X558402Y361045D01*
X558410Y361047D01*
X558483Y361101D01*
X558559Y361153D01*
X558563Y361160D01*
X558570Y361165D01*
X558617Y361243D01*
X558666Y361320D01*
X558667Y361329D01*
X558672Y361336D01*
X558699Y361500D01*
X558699Y366500D01*
X558698Y366505D01*
X558699Y366509D01*
X558698Y366512D01*
X558699Y366517D01*
X558678Y366605D01*
X558660Y366695D01*
X558655Y366702D01*
X558653Y366710D01*
X558599Y366783D01*
X558547Y366859D01*
X558540Y366863D01*
X558535Y366870D01*
X558457Y366917D01*
X558380Y366966D01*
X558371Y366967D01*
X558364Y366972D01*
X558200Y366999D01*
X556800Y366999D01*
X556792Y366998D01*
X556783Y366999D01*
X556695Y366978D01*
X556605Y366960D01*
X556598Y366955D01*
X556590Y366953D01*
X556517Y366899D01*
X556441Y366847D01*
X556437Y366840D01*
X556430Y366835D01*
X556383Y366757D01*
X556334Y366680D01*
X556333Y366671D01*
X556328Y366664D01*
X556301Y366500D01*
X556301Y361500D01*
X556302Y361492D01*
X556301Y361483D01*
X556322Y361395D01*
X556340Y361305D01*
X556345Y361298D01*
X556347Y361290D01*
X556401Y361217D01*
X556453Y361141D01*
X556460Y361137D01*
X556465Y361130D01*
X556543Y361083D01*
X556620Y361034D01*
X556629Y361033D01*
X556636Y361028D01*
X556800Y361001D01*
X558200Y361001D01*
X558208Y361002D01*
G37*
G36*
X573208Y361002D02*
X573208Y361002D01*
X573217Y361001D01*
X573305Y361022D01*
X573395Y361040D01*
X573402Y361045D01*
X573410Y361047D01*
X573483Y361101D01*
X573559Y361153D01*
X573563Y361160D01*
X573570Y361165D01*
X573617Y361243D01*
X573666Y361320D01*
X573667Y361329D01*
X573672Y361336D01*
X573699Y361500D01*
X573699Y366500D01*
X573698Y366505D01*
X573699Y366509D01*
X573698Y366512D01*
X573699Y366517D01*
X573678Y366605D01*
X573660Y366695D01*
X573655Y366702D01*
X573653Y366710D01*
X573599Y366783D01*
X573547Y366859D01*
X573540Y366863D01*
X573535Y366870D01*
X573457Y366917D01*
X573380Y366966D01*
X573371Y366967D01*
X573364Y366972D01*
X573200Y366999D01*
X571800Y366999D01*
X571792Y366998D01*
X571783Y366999D01*
X571695Y366978D01*
X571605Y366960D01*
X571598Y366955D01*
X571590Y366953D01*
X571517Y366899D01*
X571441Y366847D01*
X571437Y366840D01*
X571430Y366835D01*
X571383Y366757D01*
X571334Y366680D01*
X571333Y366671D01*
X571328Y366664D01*
X571301Y366500D01*
X571301Y361500D01*
X571302Y361492D01*
X571301Y361483D01*
X571322Y361395D01*
X571340Y361305D01*
X571345Y361298D01*
X571347Y361290D01*
X571401Y361217D01*
X571453Y361141D01*
X571460Y361137D01*
X571465Y361130D01*
X571543Y361083D01*
X571620Y361034D01*
X571629Y361033D01*
X571636Y361028D01*
X571800Y361001D01*
X573200Y361001D01*
X573208Y361002D01*
G37*
G36*
X563208Y333002D02*
X563208Y333002D01*
X563217Y333001D01*
X563305Y333022D01*
X563395Y333040D01*
X563402Y333045D01*
X563410Y333047D01*
X563483Y333101D01*
X563559Y333153D01*
X563563Y333160D01*
X563570Y333165D01*
X563617Y333243D01*
X563666Y333320D01*
X563667Y333329D01*
X563672Y333336D01*
X563699Y333500D01*
X563699Y338500D01*
X563698Y338505D01*
X563699Y338509D01*
X563698Y338512D01*
X563699Y338517D01*
X563678Y338605D01*
X563660Y338695D01*
X563655Y338702D01*
X563653Y338710D01*
X563599Y338783D01*
X563547Y338859D01*
X563540Y338863D01*
X563535Y338870D01*
X563457Y338917D01*
X563380Y338966D01*
X563371Y338967D01*
X563364Y338972D01*
X563200Y338999D01*
X561800Y338999D01*
X561792Y338998D01*
X561783Y338999D01*
X561695Y338978D01*
X561605Y338960D01*
X561598Y338955D01*
X561590Y338953D01*
X561517Y338899D01*
X561441Y338847D01*
X561437Y338840D01*
X561430Y338835D01*
X561383Y338757D01*
X561334Y338680D01*
X561333Y338671D01*
X561328Y338664D01*
X561301Y338500D01*
X561301Y333500D01*
X561302Y333492D01*
X561301Y333483D01*
X561322Y333395D01*
X561340Y333305D01*
X561345Y333298D01*
X561347Y333290D01*
X561401Y333217D01*
X561453Y333141D01*
X561460Y333137D01*
X561465Y333130D01*
X561543Y333083D01*
X561620Y333034D01*
X561629Y333033D01*
X561636Y333028D01*
X561800Y333001D01*
X563200Y333001D01*
X563208Y333002D01*
G37*
G36*
X568208Y333002D02*
X568208Y333002D01*
X568217Y333001D01*
X568305Y333022D01*
X568395Y333040D01*
X568402Y333045D01*
X568410Y333047D01*
X568483Y333101D01*
X568559Y333153D01*
X568563Y333160D01*
X568570Y333165D01*
X568617Y333243D01*
X568666Y333320D01*
X568667Y333329D01*
X568672Y333336D01*
X568699Y333500D01*
X568699Y338500D01*
X568698Y338505D01*
X568699Y338509D01*
X568698Y338512D01*
X568699Y338517D01*
X568678Y338605D01*
X568660Y338695D01*
X568655Y338702D01*
X568653Y338710D01*
X568599Y338783D01*
X568547Y338859D01*
X568540Y338863D01*
X568535Y338870D01*
X568457Y338917D01*
X568380Y338966D01*
X568371Y338967D01*
X568364Y338972D01*
X568200Y338999D01*
X566800Y338999D01*
X566792Y338998D01*
X566783Y338999D01*
X566695Y338978D01*
X566605Y338960D01*
X566598Y338955D01*
X566590Y338953D01*
X566517Y338899D01*
X566441Y338847D01*
X566437Y338840D01*
X566430Y338835D01*
X566383Y338757D01*
X566334Y338680D01*
X566333Y338671D01*
X566328Y338664D01*
X566301Y338500D01*
X566301Y333500D01*
X566302Y333492D01*
X566301Y333483D01*
X566322Y333395D01*
X566340Y333305D01*
X566345Y333298D01*
X566347Y333290D01*
X566401Y333217D01*
X566453Y333141D01*
X566460Y333137D01*
X566465Y333130D01*
X566543Y333083D01*
X566620Y333034D01*
X566629Y333033D01*
X566636Y333028D01*
X566800Y333001D01*
X568200Y333001D01*
X568208Y333002D01*
G37*
G36*
X558208Y333002D02*
X558208Y333002D01*
X558217Y333001D01*
X558305Y333022D01*
X558395Y333040D01*
X558402Y333045D01*
X558410Y333047D01*
X558483Y333101D01*
X558559Y333153D01*
X558563Y333160D01*
X558570Y333165D01*
X558617Y333243D01*
X558666Y333320D01*
X558667Y333329D01*
X558672Y333336D01*
X558699Y333500D01*
X558699Y338500D01*
X558698Y338505D01*
X558699Y338509D01*
X558698Y338512D01*
X558699Y338517D01*
X558678Y338605D01*
X558660Y338695D01*
X558655Y338702D01*
X558653Y338710D01*
X558599Y338783D01*
X558547Y338859D01*
X558540Y338863D01*
X558535Y338870D01*
X558457Y338917D01*
X558380Y338966D01*
X558371Y338967D01*
X558364Y338972D01*
X558200Y338999D01*
X556800Y338999D01*
X556792Y338998D01*
X556783Y338999D01*
X556695Y338978D01*
X556605Y338960D01*
X556598Y338955D01*
X556590Y338953D01*
X556517Y338899D01*
X556441Y338847D01*
X556437Y338840D01*
X556430Y338835D01*
X556383Y338757D01*
X556334Y338680D01*
X556333Y338671D01*
X556328Y338664D01*
X556301Y338500D01*
X556301Y333500D01*
X556302Y333492D01*
X556301Y333483D01*
X556322Y333395D01*
X556340Y333305D01*
X556345Y333298D01*
X556347Y333290D01*
X556401Y333217D01*
X556453Y333141D01*
X556460Y333137D01*
X556465Y333130D01*
X556543Y333083D01*
X556620Y333034D01*
X556629Y333033D01*
X556636Y333028D01*
X556800Y333001D01*
X558200Y333001D01*
X558208Y333002D01*
G37*
G36*
X573208Y333002D02*
X573208Y333002D01*
X573217Y333001D01*
X573305Y333022D01*
X573395Y333040D01*
X573402Y333045D01*
X573410Y333047D01*
X573483Y333101D01*
X573559Y333153D01*
X573563Y333160D01*
X573570Y333165D01*
X573617Y333243D01*
X573666Y333320D01*
X573667Y333329D01*
X573672Y333336D01*
X573699Y333500D01*
X573699Y338500D01*
X573698Y338505D01*
X573699Y338509D01*
X573698Y338512D01*
X573699Y338517D01*
X573678Y338605D01*
X573660Y338695D01*
X573655Y338702D01*
X573653Y338710D01*
X573599Y338783D01*
X573547Y338859D01*
X573540Y338863D01*
X573535Y338870D01*
X573457Y338917D01*
X573380Y338966D01*
X573371Y338967D01*
X573364Y338972D01*
X573200Y338999D01*
X571800Y338999D01*
X571792Y338998D01*
X571783Y338999D01*
X571695Y338978D01*
X571605Y338960D01*
X571598Y338955D01*
X571590Y338953D01*
X571517Y338899D01*
X571441Y338847D01*
X571437Y338840D01*
X571430Y338835D01*
X571383Y338757D01*
X571334Y338680D01*
X571333Y338671D01*
X571328Y338664D01*
X571301Y338500D01*
X571301Y333500D01*
X571302Y333492D01*
X571301Y333483D01*
X571322Y333395D01*
X571340Y333305D01*
X571345Y333298D01*
X571347Y333290D01*
X571401Y333217D01*
X571453Y333141D01*
X571460Y333137D01*
X571465Y333130D01*
X571543Y333083D01*
X571620Y333034D01*
X571629Y333033D01*
X571636Y333028D01*
X571800Y333001D01*
X573200Y333001D01*
X573208Y333002D01*
G37*
G36*
X568208Y383002D02*
X568208Y383002D01*
X568217Y383001D01*
X568305Y383022D01*
X568395Y383040D01*
X568402Y383045D01*
X568410Y383047D01*
X568483Y383101D01*
X568559Y383153D01*
X568563Y383160D01*
X568570Y383165D01*
X568617Y383243D01*
X568666Y383320D01*
X568667Y383329D01*
X568672Y383336D01*
X568699Y383500D01*
X568699Y388500D01*
X568698Y388505D01*
X568699Y388509D01*
X568698Y388512D01*
X568699Y388517D01*
X568678Y388605D01*
X568660Y388695D01*
X568655Y388702D01*
X568653Y388710D01*
X568599Y388783D01*
X568547Y388859D01*
X568540Y388863D01*
X568535Y388870D01*
X568457Y388917D01*
X568380Y388966D01*
X568371Y388967D01*
X568364Y388972D01*
X568200Y388999D01*
X566800Y388999D01*
X566792Y388998D01*
X566783Y388999D01*
X566695Y388978D01*
X566605Y388960D01*
X566598Y388955D01*
X566590Y388953D01*
X566517Y388899D01*
X566441Y388847D01*
X566437Y388840D01*
X566430Y388835D01*
X566383Y388757D01*
X566334Y388680D01*
X566333Y388671D01*
X566328Y388664D01*
X566301Y388500D01*
X566301Y383500D01*
X566302Y383492D01*
X566301Y383483D01*
X566322Y383395D01*
X566340Y383305D01*
X566345Y383298D01*
X566347Y383290D01*
X566401Y383217D01*
X566453Y383141D01*
X566460Y383137D01*
X566465Y383130D01*
X566543Y383083D01*
X566620Y383034D01*
X566629Y383033D01*
X566636Y383028D01*
X566800Y383001D01*
X568200Y383001D01*
X568208Y383002D01*
G37*
G36*
X573208Y383002D02*
X573208Y383002D01*
X573217Y383001D01*
X573305Y383022D01*
X573395Y383040D01*
X573402Y383045D01*
X573410Y383047D01*
X573483Y383101D01*
X573559Y383153D01*
X573563Y383160D01*
X573570Y383165D01*
X573617Y383243D01*
X573666Y383320D01*
X573667Y383329D01*
X573672Y383336D01*
X573699Y383500D01*
X573699Y388500D01*
X573698Y388505D01*
X573699Y388509D01*
X573698Y388512D01*
X573699Y388517D01*
X573678Y388605D01*
X573660Y388695D01*
X573655Y388702D01*
X573653Y388710D01*
X573599Y388783D01*
X573547Y388859D01*
X573540Y388863D01*
X573535Y388870D01*
X573457Y388917D01*
X573380Y388966D01*
X573371Y388967D01*
X573364Y388972D01*
X573200Y388999D01*
X571800Y388999D01*
X571792Y388998D01*
X571783Y388999D01*
X571695Y388978D01*
X571605Y388960D01*
X571598Y388955D01*
X571590Y388953D01*
X571517Y388899D01*
X571441Y388847D01*
X571437Y388840D01*
X571430Y388835D01*
X571383Y388757D01*
X571334Y388680D01*
X571333Y388671D01*
X571328Y388664D01*
X571301Y388500D01*
X571301Y383500D01*
X571302Y383492D01*
X571301Y383483D01*
X571322Y383395D01*
X571340Y383305D01*
X571345Y383298D01*
X571347Y383290D01*
X571401Y383217D01*
X571453Y383141D01*
X571460Y383137D01*
X571465Y383130D01*
X571543Y383083D01*
X571620Y383034D01*
X571629Y383033D01*
X571636Y383028D01*
X571800Y383001D01*
X573200Y383001D01*
X573208Y383002D01*
G37*
G36*
X558208Y383002D02*
X558208Y383002D01*
X558217Y383001D01*
X558305Y383022D01*
X558395Y383040D01*
X558402Y383045D01*
X558410Y383047D01*
X558483Y383101D01*
X558559Y383153D01*
X558563Y383160D01*
X558570Y383165D01*
X558617Y383243D01*
X558666Y383320D01*
X558667Y383329D01*
X558672Y383336D01*
X558699Y383500D01*
X558699Y388500D01*
X558698Y388505D01*
X558699Y388509D01*
X558698Y388512D01*
X558699Y388517D01*
X558678Y388605D01*
X558660Y388695D01*
X558655Y388702D01*
X558653Y388710D01*
X558599Y388783D01*
X558547Y388859D01*
X558540Y388863D01*
X558535Y388870D01*
X558457Y388917D01*
X558380Y388966D01*
X558371Y388967D01*
X558364Y388972D01*
X558200Y388999D01*
X556800Y388999D01*
X556792Y388998D01*
X556783Y388999D01*
X556695Y388978D01*
X556605Y388960D01*
X556598Y388955D01*
X556590Y388953D01*
X556517Y388899D01*
X556441Y388847D01*
X556437Y388840D01*
X556430Y388835D01*
X556383Y388757D01*
X556334Y388680D01*
X556333Y388671D01*
X556328Y388664D01*
X556301Y388500D01*
X556301Y383500D01*
X556302Y383492D01*
X556301Y383483D01*
X556322Y383395D01*
X556340Y383305D01*
X556345Y383298D01*
X556347Y383290D01*
X556401Y383217D01*
X556453Y383141D01*
X556460Y383137D01*
X556465Y383130D01*
X556543Y383083D01*
X556620Y383034D01*
X556629Y383033D01*
X556636Y383028D01*
X556800Y383001D01*
X558200Y383001D01*
X558208Y383002D01*
G37*
G36*
X563208Y383002D02*
X563208Y383002D01*
X563217Y383001D01*
X563305Y383022D01*
X563395Y383040D01*
X563402Y383045D01*
X563410Y383047D01*
X563483Y383101D01*
X563559Y383153D01*
X563563Y383160D01*
X563570Y383165D01*
X563617Y383243D01*
X563666Y383320D01*
X563667Y383329D01*
X563672Y383336D01*
X563699Y383500D01*
X563699Y388500D01*
X563698Y388505D01*
X563699Y388509D01*
X563698Y388512D01*
X563699Y388517D01*
X563678Y388605D01*
X563660Y388695D01*
X563655Y388702D01*
X563653Y388710D01*
X563599Y388783D01*
X563547Y388859D01*
X563540Y388863D01*
X563535Y388870D01*
X563457Y388917D01*
X563380Y388966D01*
X563371Y388967D01*
X563364Y388972D01*
X563200Y388999D01*
X561800Y388999D01*
X561792Y388998D01*
X561783Y388999D01*
X561695Y388978D01*
X561605Y388960D01*
X561598Y388955D01*
X561590Y388953D01*
X561517Y388899D01*
X561441Y388847D01*
X561437Y388840D01*
X561430Y388835D01*
X561383Y388757D01*
X561334Y388680D01*
X561333Y388671D01*
X561328Y388664D01*
X561301Y388500D01*
X561301Y383500D01*
X561302Y383492D01*
X561301Y383483D01*
X561322Y383395D01*
X561340Y383305D01*
X561345Y383298D01*
X561347Y383290D01*
X561401Y383217D01*
X561453Y383141D01*
X561460Y383137D01*
X561465Y383130D01*
X561543Y383083D01*
X561620Y383034D01*
X561629Y383033D01*
X561636Y383028D01*
X561800Y383001D01*
X563200Y383001D01*
X563208Y383002D01*
G37*
G36*
X563208Y361002D02*
X563208Y361002D01*
X563217Y361001D01*
X563305Y361022D01*
X563395Y361040D01*
X563402Y361045D01*
X563410Y361047D01*
X563483Y361101D01*
X563559Y361153D01*
X563563Y361160D01*
X563570Y361165D01*
X563617Y361243D01*
X563666Y361320D01*
X563667Y361329D01*
X563672Y361336D01*
X563699Y361500D01*
X563699Y366500D01*
X563698Y366505D01*
X563699Y366509D01*
X563698Y366512D01*
X563699Y366517D01*
X563678Y366605D01*
X563660Y366695D01*
X563655Y366702D01*
X563653Y366710D01*
X563599Y366783D01*
X563547Y366859D01*
X563540Y366863D01*
X563535Y366870D01*
X563457Y366917D01*
X563380Y366966D01*
X563371Y366967D01*
X563364Y366972D01*
X563200Y366999D01*
X561800Y366999D01*
X561792Y366998D01*
X561783Y366999D01*
X561695Y366978D01*
X561605Y366960D01*
X561598Y366955D01*
X561590Y366953D01*
X561517Y366899D01*
X561441Y366847D01*
X561437Y366840D01*
X561430Y366835D01*
X561383Y366757D01*
X561334Y366680D01*
X561333Y366671D01*
X561328Y366664D01*
X561301Y366500D01*
X561301Y361500D01*
X561302Y361492D01*
X561301Y361483D01*
X561322Y361395D01*
X561340Y361305D01*
X561345Y361298D01*
X561347Y361290D01*
X561401Y361217D01*
X561453Y361141D01*
X561460Y361137D01*
X561465Y361130D01*
X561543Y361083D01*
X561620Y361034D01*
X561629Y361033D01*
X561636Y361028D01*
X561800Y361001D01*
X563200Y361001D01*
X563208Y361002D01*
G37*
G36*
X581508Y406302D02*
X581508Y406302D01*
X581517Y406301D01*
X581605Y406322D01*
X581695Y406340D01*
X581702Y406345D01*
X581710Y406347D01*
X581783Y406401D01*
X581859Y406453D01*
X581863Y406460D01*
X581870Y406465D01*
X581917Y406543D01*
X581966Y406620D01*
X581967Y406629D01*
X581972Y406636D01*
X581999Y406800D01*
X581999Y408200D01*
X581998Y408208D01*
X581999Y408217D01*
X581978Y408305D01*
X581960Y408395D01*
X581955Y408402D01*
X581953Y408410D01*
X581899Y408483D01*
X581847Y408559D01*
X581840Y408563D01*
X581835Y408570D01*
X581757Y408617D01*
X581680Y408666D01*
X581671Y408667D01*
X581664Y408672D01*
X581500Y408699D01*
X576500Y408699D01*
X576492Y408698D01*
X576483Y408699D01*
X576395Y408678D01*
X576305Y408660D01*
X576298Y408655D01*
X576290Y408653D01*
X576217Y408599D01*
X576141Y408547D01*
X576137Y408540D01*
X576130Y408535D01*
X576083Y408457D01*
X576034Y408380D01*
X576033Y408371D01*
X576028Y408364D01*
X576001Y408200D01*
X576001Y406800D01*
X576002Y406792D01*
X576001Y406783D01*
X576022Y406695D01*
X576040Y406605D01*
X576045Y406598D01*
X576047Y406590D01*
X576101Y406517D01*
X576153Y406441D01*
X576160Y406437D01*
X576165Y406430D01*
X576243Y406383D01*
X576320Y406334D01*
X576329Y406333D01*
X576336Y406328D01*
X576500Y406301D01*
X581500Y406301D01*
X581508Y406302D01*
G37*
G36*
X553508Y406302D02*
X553508Y406302D01*
X553517Y406301D01*
X553605Y406322D01*
X553695Y406340D01*
X553702Y406345D01*
X553710Y406347D01*
X553783Y406401D01*
X553859Y406453D01*
X553863Y406460D01*
X553870Y406465D01*
X553917Y406543D01*
X553966Y406620D01*
X553967Y406629D01*
X553972Y406636D01*
X553999Y406800D01*
X553999Y408200D01*
X553998Y408208D01*
X553999Y408217D01*
X553978Y408305D01*
X553960Y408395D01*
X553955Y408402D01*
X553953Y408410D01*
X553899Y408483D01*
X553847Y408559D01*
X553840Y408563D01*
X553835Y408570D01*
X553757Y408617D01*
X553680Y408666D01*
X553671Y408667D01*
X553664Y408672D01*
X553500Y408699D01*
X548500Y408699D01*
X548492Y408698D01*
X548483Y408699D01*
X548395Y408678D01*
X548305Y408660D01*
X548298Y408655D01*
X548290Y408653D01*
X548217Y408599D01*
X548141Y408547D01*
X548137Y408540D01*
X548130Y408535D01*
X548083Y408457D01*
X548034Y408380D01*
X548033Y408371D01*
X548028Y408364D01*
X548001Y408200D01*
X548001Y406800D01*
X548002Y406792D01*
X548001Y406783D01*
X548022Y406695D01*
X548040Y406605D01*
X548045Y406598D01*
X548047Y406590D01*
X548101Y406517D01*
X548153Y406441D01*
X548160Y406437D01*
X548165Y406430D01*
X548243Y406383D01*
X548320Y406334D01*
X548329Y406333D01*
X548336Y406328D01*
X548500Y406301D01*
X553500Y406301D01*
X553508Y406302D01*
G37*
G36*
X581508Y401302D02*
X581508Y401302D01*
X581517Y401301D01*
X581605Y401322D01*
X581695Y401340D01*
X581702Y401345D01*
X581710Y401347D01*
X581783Y401401D01*
X581859Y401453D01*
X581863Y401460D01*
X581870Y401465D01*
X581917Y401543D01*
X581966Y401620D01*
X581967Y401629D01*
X581972Y401636D01*
X581999Y401800D01*
X581999Y403200D01*
X581998Y403208D01*
X581999Y403217D01*
X581978Y403305D01*
X581960Y403395D01*
X581955Y403402D01*
X581953Y403410D01*
X581899Y403483D01*
X581847Y403559D01*
X581840Y403563D01*
X581835Y403570D01*
X581757Y403617D01*
X581680Y403666D01*
X581671Y403667D01*
X581664Y403672D01*
X581500Y403699D01*
X576500Y403699D01*
X576492Y403698D01*
X576483Y403699D01*
X576395Y403678D01*
X576305Y403660D01*
X576298Y403655D01*
X576290Y403653D01*
X576217Y403599D01*
X576141Y403547D01*
X576137Y403540D01*
X576130Y403535D01*
X576083Y403457D01*
X576034Y403380D01*
X576033Y403371D01*
X576028Y403364D01*
X576001Y403200D01*
X576001Y401800D01*
X576002Y401792D01*
X576001Y401783D01*
X576022Y401695D01*
X576040Y401605D01*
X576045Y401598D01*
X576047Y401590D01*
X576101Y401517D01*
X576153Y401441D01*
X576160Y401437D01*
X576165Y401430D01*
X576243Y401383D01*
X576320Y401334D01*
X576329Y401333D01*
X576336Y401328D01*
X576500Y401301D01*
X581500Y401301D01*
X581508Y401302D01*
G37*
G36*
X553508Y401302D02*
X553508Y401302D01*
X553517Y401301D01*
X553605Y401322D01*
X553695Y401340D01*
X553702Y401345D01*
X553710Y401347D01*
X553783Y401401D01*
X553859Y401453D01*
X553863Y401460D01*
X553870Y401465D01*
X553917Y401543D01*
X553966Y401620D01*
X553967Y401629D01*
X553972Y401636D01*
X553999Y401800D01*
X553999Y403200D01*
X553998Y403208D01*
X553999Y403217D01*
X553978Y403305D01*
X553960Y403395D01*
X553955Y403402D01*
X553953Y403410D01*
X553899Y403483D01*
X553847Y403559D01*
X553840Y403563D01*
X553835Y403570D01*
X553757Y403617D01*
X553680Y403666D01*
X553671Y403667D01*
X553664Y403672D01*
X553500Y403699D01*
X548500Y403699D01*
X548492Y403698D01*
X548483Y403699D01*
X548395Y403678D01*
X548305Y403660D01*
X548298Y403655D01*
X548290Y403653D01*
X548217Y403599D01*
X548141Y403547D01*
X548137Y403540D01*
X548130Y403535D01*
X548083Y403457D01*
X548034Y403380D01*
X548033Y403371D01*
X548028Y403364D01*
X548001Y403200D01*
X548001Y401800D01*
X548002Y401792D01*
X548001Y401783D01*
X548022Y401695D01*
X548040Y401605D01*
X548045Y401598D01*
X548047Y401590D01*
X548101Y401517D01*
X548153Y401441D01*
X548160Y401437D01*
X548165Y401430D01*
X548243Y401383D01*
X548320Y401334D01*
X548329Y401333D01*
X548336Y401328D01*
X548500Y401301D01*
X553500Y401301D01*
X553508Y401302D01*
G37*
G36*
X581508Y396302D02*
X581508Y396302D01*
X581517Y396301D01*
X581605Y396322D01*
X581695Y396340D01*
X581702Y396345D01*
X581710Y396347D01*
X581783Y396401D01*
X581859Y396453D01*
X581863Y396460D01*
X581870Y396465D01*
X581917Y396543D01*
X581966Y396620D01*
X581967Y396629D01*
X581972Y396636D01*
X581999Y396800D01*
X581999Y398200D01*
X581998Y398208D01*
X581999Y398217D01*
X581978Y398305D01*
X581960Y398395D01*
X581955Y398402D01*
X581953Y398410D01*
X581899Y398483D01*
X581847Y398559D01*
X581840Y398563D01*
X581835Y398570D01*
X581757Y398617D01*
X581680Y398666D01*
X581671Y398667D01*
X581664Y398672D01*
X581500Y398699D01*
X576500Y398699D01*
X576492Y398698D01*
X576483Y398699D01*
X576395Y398678D01*
X576305Y398660D01*
X576298Y398655D01*
X576290Y398653D01*
X576217Y398599D01*
X576141Y398547D01*
X576137Y398540D01*
X576130Y398535D01*
X576083Y398457D01*
X576034Y398380D01*
X576033Y398371D01*
X576028Y398364D01*
X576001Y398200D01*
X576001Y396800D01*
X576002Y396792D01*
X576001Y396783D01*
X576022Y396695D01*
X576040Y396605D01*
X576045Y396598D01*
X576047Y396590D01*
X576101Y396517D01*
X576153Y396441D01*
X576160Y396437D01*
X576165Y396430D01*
X576243Y396383D01*
X576320Y396334D01*
X576329Y396333D01*
X576336Y396328D01*
X576500Y396301D01*
X581500Y396301D01*
X581508Y396302D01*
G37*
G36*
X553508Y396302D02*
X553508Y396302D01*
X553517Y396301D01*
X553605Y396322D01*
X553695Y396340D01*
X553702Y396345D01*
X553710Y396347D01*
X553783Y396401D01*
X553859Y396453D01*
X553863Y396460D01*
X553870Y396465D01*
X553917Y396543D01*
X553966Y396620D01*
X553967Y396629D01*
X553972Y396636D01*
X553999Y396800D01*
X553999Y398200D01*
X553998Y398208D01*
X553999Y398217D01*
X553978Y398305D01*
X553960Y398395D01*
X553955Y398402D01*
X553953Y398410D01*
X553899Y398483D01*
X553847Y398559D01*
X553840Y398563D01*
X553835Y398570D01*
X553757Y398617D01*
X553680Y398666D01*
X553671Y398667D01*
X553664Y398672D01*
X553500Y398699D01*
X548500Y398699D01*
X548492Y398698D01*
X548483Y398699D01*
X548395Y398678D01*
X548305Y398660D01*
X548298Y398655D01*
X548290Y398653D01*
X548217Y398599D01*
X548141Y398547D01*
X548137Y398540D01*
X548130Y398535D01*
X548083Y398457D01*
X548034Y398380D01*
X548033Y398371D01*
X548028Y398364D01*
X548001Y398200D01*
X548001Y396800D01*
X548002Y396792D01*
X548001Y396783D01*
X548022Y396695D01*
X548040Y396605D01*
X548045Y396598D01*
X548047Y396590D01*
X548101Y396517D01*
X548153Y396441D01*
X548160Y396437D01*
X548165Y396430D01*
X548243Y396383D01*
X548320Y396334D01*
X548329Y396333D01*
X548336Y396328D01*
X548500Y396301D01*
X553500Y396301D01*
X553508Y396302D01*
G37*
G36*
X553508Y391302D02*
X553508Y391302D01*
X553517Y391301D01*
X553605Y391322D01*
X553695Y391340D01*
X553702Y391345D01*
X553710Y391347D01*
X553783Y391401D01*
X553859Y391453D01*
X553863Y391460D01*
X553870Y391465D01*
X553917Y391543D01*
X553966Y391620D01*
X553967Y391629D01*
X553972Y391636D01*
X553999Y391800D01*
X553999Y393200D01*
X553998Y393208D01*
X553999Y393217D01*
X553978Y393305D01*
X553960Y393395D01*
X553955Y393402D01*
X553953Y393410D01*
X553899Y393483D01*
X553847Y393559D01*
X553840Y393563D01*
X553835Y393570D01*
X553757Y393617D01*
X553680Y393666D01*
X553671Y393667D01*
X553664Y393672D01*
X553500Y393699D01*
X548500Y393699D01*
X548492Y393698D01*
X548483Y393699D01*
X548395Y393678D01*
X548305Y393660D01*
X548298Y393655D01*
X548290Y393653D01*
X548217Y393599D01*
X548141Y393547D01*
X548137Y393540D01*
X548130Y393535D01*
X548083Y393457D01*
X548034Y393380D01*
X548033Y393371D01*
X548028Y393364D01*
X548001Y393200D01*
X548001Y391800D01*
X548002Y391792D01*
X548001Y391783D01*
X548022Y391695D01*
X548040Y391605D01*
X548045Y391598D01*
X548047Y391590D01*
X548101Y391517D01*
X548153Y391441D01*
X548160Y391437D01*
X548165Y391430D01*
X548243Y391383D01*
X548320Y391334D01*
X548329Y391333D01*
X548336Y391328D01*
X548500Y391301D01*
X553500Y391301D01*
X553508Y391302D01*
G37*
G36*
X553508Y351302D02*
X553508Y351302D01*
X553517Y351301D01*
X553605Y351322D01*
X553695Y351340D01*
X553702Y351345D01*
X553710Y351347D01*
X553783Y351401D01*
X553859Y351453D01*
X553863Y351460D01*
X553870Y351465D01*
X553917Y351543D01*
X553966Y351620D01*
X553967Y351629D01*
X553972Y351636D01*
X553999Y351800D01*
X553999Y353200D01*
X553998Y353208D01*
X553999Y353217D01*
X553978Y353305D01*
X553960Y353395D01*
X553955Y353402D01*
X553953Y353410D01*
X553899Y353483D01*
X553847Y353559D01*
X553840Y353563D01*
X553835Y353570D01*
X553757Y353617D01*
X553680Y353666D01*
X553671Y353667D01*
X553664Y353672D01*
X553500Y353699D01*
X548500Y353699D01*
X548492Y353698D01*
X548483Y353699D01*
X548395Y353678D01*
X548305Y353660D01*
X548298Y353655D01*
X548290Y353653D01*
X548217Y353599D01*
X548141Y353547D01*
X548137Y353540D01*
X548130Y353535D01*
X548083Y353457D01*
X548034Y353380D01*
X548033Y353371D01*
X548028Y353364D01*
X548001Y353200D01*
X548001Y351800D01*
X548002Y351792D01*
X548001Y351783D01*
X548022Y351695D01*
X548040Y351605D01*
X548045Y351598D01*
X548047Y351590D01*
X548101Y351517D01*
X548153Y351441D01*
X548160Y351437D01*
X548165Y351430D01*
X548243Y351383D01*
X548320Y351334D01*
X548329Y351333D01*
X548336Y351328D01*
X548500Y351301D01*
X553500Y351301D01*
X553508Y351302D01*
G37*
G36*
X581508Y346302D02*
X581508Y346302D01*
X581517Y346301D01*
X581605Y346322D01*
X581695Y346340D01*
X581702Y346345D01*
X581710Y346347D01*
X581783Y346401D01*
X581859Y346453D01*
X581863Y346460D01*
X581870Y346465D01*
X581917Y346543D01*
X581966Y346620D01*
X581967Y346629D01*
X581972Y346636D01*
X581999Y346800D01*
X581999Y348200D01*
X581998Y348208D01*
X581999Y348217D01*
X581978Y348305D01*
X581960Y348395D01*
X581955Y348402D01*
X581953Y348410D01*
X581899Y348483D01*
X581847Y348559D01*
X581840Y348563D01*
X581835Y348570D01*
X581757Y348617D01*
X581680Y348666D01*
X581671Y348667D01*
X581664Y348672D01*
X581500Y348699D01*
X576500Y348699D01*
X576492Y348698D01*
X576483Y348699D01*
X576395Y348678D01*
X576305Y348660D01*
X576298Y348655D01*
X576290Y348653D01*
X576217Y348599D01*
X576141Y348547D01*
X576137Y348540D01*
X576130Y348535D01*
X576083Y348457D01*
X576034Y348380D01*
X576033Y348371D01*
X576028Y348364D01*
X576001Y348200D01*
X576001Y346800D01*
X576002Y346792D01*
X576001Y346783D01*
X576022Y346695D01*
X576040Y346605D01*
X576045Y346598D01*
X576047Y346590D01*
X576101Y346517D01*
X576153Y346441D01*
X576160Y346437D01*
X576165Y346430D01*
X576243Y346383D01*
X576320Y346334D01*
X576329Y346333D01*
X576336Y346328D01*
X576500Y346301D01*
X581500Y346301D01*
X581508Y346302D01*
G37*
G36*
X553508Y346302D02*
X553508Y346302D01*
X553517Y346301D01*
X553605Y346322D01*
X553695Y346340D01*
X553702Y346345D01*
X553710Y346347D01*
X553783Y346401D01*
X553859Y346453D01*
X553863Y346460D01*
X553870Y346465D01*
X553917Y346543D01*
X553966Y346620D01*
X553967Y346629D01*
X553972Y346636D01*
X553999Y346800D01*
X553999Y348200D01*
X553998Y348208D01*
X553999Y348217D01*
X553978Y348305D01*
X553960Y348395D01*
X553955Y348402D01*
X553953Y348410D01*
X553899Y348483D01*
X553847Y348559D01*
X553840Y348563D01*
X553835Y348570D01*
X553757Y348617D01*
X553680Y348666D01*
X553671Y348667D01*
X553664Y348672D01*
X553500Y348699D01*
X548500Y348699D01*
X548492Y348698D01*
X548483Y348699D01*
X548395Y348678D01*
X548305Y348660D01*
X548298Y348655D01*
X548290Y348653D01*
X548217Y348599D01*
X548141Y348547D01*
X548137Y348540D01*
X548130Y348535D01*
X548083Y348457D01*
X548034Y348380D01*
X548033Y348371D01*
X548028Y348364D01*
X548001Y348200D01*
X548001Y346800D01*
X548002Y346792D01*
X548001Y346783D01*
X548022Y346695D01*
X548040Y346605D01*
X548045Y346598D01*
X548047Y346590D01*
X548101Y346517D01*
X548153Y346441D01*
X548160Y346437D01*
X548165Y346430D01*
X548243Y346383D01*
X548320Y346334D01*
X548329Y346333D01*
X548336Y346328D01*
X548500Y346301D01*
X553500Y346301D01*
X553508Y346302D01*
G37*
G36*
X553508Y341302D02*
X553508Y341302D01*
X553517Y341301D01*
X553605Y341322D01*
X553695Y341340D01*
X553702Y341345D01*
X553710Y341347D01*
X553783Y341401D01*
X553859Y341453D01*
X553863Y341460D01*
X553870Y341465D01*
X553917Y341543D01*
X553966Y341620D01*
X553967Y341629D01*
X553972Y341636D01*
X553999Y341800D01*
X553999Y343200D01*
X553998Y343208D01*
X553999Y343217D01*
X553978Y343305D01*
X553960Y343395D01*
X553955Y343402D01*
X553953Y343410D01*
X553899Y343483D01*
X553847Y343559D01*
X553840Y343563D01*
X553835Y343570D01*
X553757Y343617D01*
X553680Y343666D01*
X553671Y343667D01*
X553664Y343672D01*
X553500Y343699D01*
X548500Y343699D01*
X548492Y343698D01*
X548483Y343699D01*
X548395Y343678D01*
X548305Y343660D01*
X548298Y343655D01*
X548290Y343653D01*
X548217Y343599D01*
X548141Y343547D01*
X548137Y343540D01*
X548130Y343535D01*
X548083Y343457D01*
X548034Y343380D01*
X548033Y343371D01*
X548028Y343364D01*
X548001Y343200D01*
X548001Y341800D01*
X548002Y341792D01*
X548001Y341783D01*
X548022Y341695D01*
X548040Y341605D01*
X548045Y341598D01*
X548047Y341590D01*
X548101Y341517D01*
X548153Y341441D01*
X548160Y341437D01*
X548165Y341430D01*
X548243Y341383D01*
X548320Y341334D01*
X548329Y341333D01*
X548336Y341328D01*
X548500Y341301D01*
X553500Y341301D01*
X553508Y341302D01*
G37*
G36*
X581508Y341302D02*
X581508Y341302D01*
X581517Y341301D01*
X581605Y341322D01*
X581695Y341340D01*
X581702Y341345D01*
X581710Y341347D01*
X581783Y341401D01*
X581859Y341453D01*
X581863Y341460D01*
X581870Y341465D01*
X581917Y341543D01*
X581966Y341620D01*
X581967Y341629D01*
X581972Y341636D01*
X581999Y341800D01*
X581999Y343200D01*
X581998Y343208D01*
X581999Y343217D01*
X581978Y343305D01*
X581960Y343395D01*
X581955Y343402D01*
X581953Y343410D01*
X581899Y343483D01*
X581847Y343559D01*
X581840Y343563D01*
X581835Y343570D01*
X581757Y343617D01*
X581680Y343666D01*
X581671Y343667D01*
X581664Y343672D01*
X581500Y343699D01*
X576500Y343699D01*
X576492Y343698D01*
X576483Y343699D01*
X576395Y343678D01*
X576305Y343660D01*
X576298Y343655D01*
X576290Y343653D01*
X576217Y343599D01*
X576141Y343547D01*
X576137Y343540D01*
X576130Y343535D01*
X576083Y343457D01*
X576034Y343380D01*
X576033Y343371D01*
X576028Y343364D01*
X576001Y343200D01*
X576001Y341800D01*
X576002Y341792D01*
X576001Y341783D01*
X576022Y341695D01*
X576040Y341605D01*
X576045Y341598D01*
X576047Y341590D01*
X576101Y341517D01*
X576153Y341441D01*
X576160Y341437D01*
X576165Y341430D01*
X576243Y341383D01*
X576320Y341334D01*
X576329Y341333D01*
X576336Y341328D01*
X576500Y341301D01*
X581500Y341301D01*
X581508Y341302D01*
G37*
G36*
X581508Y356302D02*
X581508Y356302D01*
X581517Y356301D01*
X581605Y356322D01*
X581695Y356340D01*
X581702Y356345D01*
X581710Y356347D01*
X581783Y356401D01*
X581859Y356453D01*
X581863Y356460D01*
X581870Y356465D01*
X581917Y356543D01*
X581966Y356620D01*
X581967Y356629D01*
X581972Y356636D01*
X581999Y356800D01*
X581999Y358200D01*
X581998Y358208D01*
X581999Y358217D01*
X581978Y358305D01*
X581960Y358395D01*
X581955Y358402D01*
X581953Y358410D01*
X581899Y358483D01*
X581847Y358559D01*
X581840Y358563D01*
X581835Y358570D01*
X581757Y358617D01*
X581680Y358666D01*
X581671Y358667D01*
X581664Y358672D01*
X581500Y358699D01*
X576500Y358699D01*
X576492Y358698D01*
X576483Y358699D01*
X576395Y358678D01*
X576305Y358660D01*
X576298Y358655D01*
X576290Y358653D01*
X576217Y358599D01*
X576141Y358547D01*
X576137Y358540D01*
X576130Y358535D01*
X576083Y358457D01*
X576034Y358380D01*
X576033Y358371D01*
X576028Y358364D01*
X576001Y358200D01*
X576001Y356800D01*
X576002Y356792D01*
X576001Y356783D01*
X576022Y356695D01*
X576040Y356605D01*
X576045Y356598D01*
X576047Y356590D01*
X576101Y356517D01*
X576153Y356441D01*
X576160Y356437D01*
X576165Y356430D01*
X576243Y356383D01*
X576320Y356334D01*
X576329Y356333D01*
X576336Y356328D01*
X576500Y356301D01*
X581500Y356301D01*
X581508Y356302D01*
G37*
G36*
X553508Y356302D02*
X553508Y356302D01*
X553517Y356301D01*
X553605Y356322D01*
X553695Y356340D01*
X553702Y356345D01*
X553710Y356347D01*
X553783Y356401D01*
X553859Y356453D01*
X553863Y356460D01*
X553870Y356465D01*
X553917Y356543D01*
X553966Y356620D01*
X553967Y356629D01*
X553972Y356636D01*
X553999Y356800D01*
X553999Y358200D01*
X553998Y358208D01*
X553999Y358217D01*
X553978Y358305D01*
X553960Y358395D01*
X553955Y358402D01*
X553953Y358410D01*
X553899Y358483D01*
X553847Y358559D01*
X553840Y358563D01*
X553835Y358570D01*
X553757Y358617D01*
X553680Y358666D01*
X553671Y358667D01*
X553664Y358672D01*
X553500Y358699D01*
X548500Y358699D01*
X548492Y358698D01*
X548483Y358699D01*
X548395Y358678D01*
X548305Y358660D01*
X548298Y358655D01*
X548290Y358653D01*
X548217Y358599D01*
X548141Y358547D01*
X548137Y358540D01*
X548130Y358535D01*
X548083Y358457D01*
X548034Y358380D01*
X548033Y358371D01*
X548028Y358364D01*
X548001Y358200D01*
X548001Y356800D01*
X548002Y356792D01*
X548001Y356783D01*
X548022Y356695D01*
X548040Y356605D01*
X548045Y356598D01*
X548047Y356590D01*
X548101Y356517D01*
X548153Y356441D01*
X548160Y356437D01*
X548165Y356430D01*
X548243Y356383D01*
X548320Y356334D01*
X548329Y356333D01*
X548336Y356328D01*
X548500Y356301D01*
X553500Y356301D01*
X553508Y356302D01*
G37*
G36*
X581508Y391302D02*
X581508Y391302D01*
X581517Y391301D01*
X581605Y391322D01*
X581695Y391340D01*
X581702Y391345D01*
X581710Y391347D01*
X581783Y391401D01*
X581859Y391453D01*
X581863Y391460D01*
X581870Y391465D01*
X581917Y391543D01*
X581966Y391620D01*
X581967Y391629D01*
X581972Y391636D01*
X581999Y391800D01*
X581999Y393200D01*
X581998Y393208D01*
X581999Y393217D01*
X581978Y393305D01*
X581960Y393395D01*
X581955Y393402D01*
X581953Y393410D01*
X581899Y393483D01*
X581847Y393559D01*
X581840Y393563D01*
X581835Y393570D01*
X581757Y393617D01*
X581680Y393666D01*
X581671Y393667D01*
X581664Y393672D01*
X581500Y393699D01*
X576500Y393699D01*
X576492Y393698D01*
X576483Y393699D01*
X576395Y393678D01*
X576305Y393660D01*
X576298Y393655D01*
X576290Y393653D01*
X576217Y393599D01*
X576141Y393547D01*
X576137Y393540D01*
X576130Y393535D01*
X576083Y393457D01*
X576034Y393380D01*
X576033Y393371D01*
X576028Y393364D01*
X576001Y393200D01*
X576001Y391800D01*
X576002Y391792D01*
X576001Y391783D01*
X576022Y391695D01*
X576040Y391605D01*
X576045Y391598D01*
X576047Y391590D01*
X576101Y391517D01*
X576153Y391441D01*
X576160Y391437D01*
X576165Y391430D01*
X576243Y391383D01*
X576320Y391334D01*
X576329Y391333D01*
X576336Y391328D01*
X576500Y391301D01*
X581500Y391301D01*
X581508Y391302D01*
G37*
G36*
X581508Y351302D02*
X581508Y351302D01*
X581517Y351301D01*
X581605Y351322D01*
X581695Y351340D01*
X581702Y351345D01*
X581710Y351347D01*
X581783Y351401D01*
X581859Y351453D01*
X581863Y351460D01*
X581870Y351465D01*
X581917Y351543D01*
X581966Y351620D01*
X581967Y351629D01*
X581972Y351636D01*
X581999Y351800D01*
X581999Y353200D01*
X581998Y353208D01*
X581999Y353217D01*
X581978Y353305D01*
X581960Y353395D01*
X581955Y353402D01*
X581953Y353410D01*
X581899Y353483D01*
X581847Y353559D01*
X581840Y353563D01*
X581835Y353570D01*
X581757Y353617D01*
X581680Y353666D01*
X581671Y353667D01*
X581664Y353672D01*
X581500Y353699D01*
X576500Y353699D01*
X576492Y353698D01*
X576483Y353699D01*
X576395Y353678D01*
X576305Y353660D01*
X576298Y353655D01*
X576290Y353653D01*
X576217Y353599D01*
X576141Y353547D01*
X576137Y353540D01*
X576130Y353535D01*
X576083Y353457D01*
X576034Y353380D01*
X576033Y353371D01*
X576028Y353364D01*
X576001Y353200D01*
X576001Y351800D01*
X576002Y351792D01*
X576001Y351783D01*
X576022Y351695D01*
X576040Y351605D01*
X576045Y351598D01*
X576047Y351590D01*
X576101Y351517D01*
X576153Y351441D01*
X576160Y351437D01*
X576165Y351430D01*
X576243Y351383D01*
X576320Y351334D01*
X576329Y351333D01*
X576336Y351328D01*
X576500Y351301D01*
X581500Y351301D01*
X581508Y351302D01*
G37*
D10*
X411860Y762000D03*
X411860Y747000D03*
X411860Y732000D03*
X411860Y717000D03*
X411860Y702000D03*
X411860Y687000D03*
X411860Y672000D03*
X411860Y657000D03*
D11*
X435160Y640700D03*
X450160Y640700D03*
X465160Y640700D03*
X480160Y640700D03*
X495160Y640700D03*
X510160Y640700D03*
X525160Y640700D03*
X540160Y640700D03*
D10*
X563860Y657000D03*
X563860Y673000D03*
X563860Y688000D03*
X563860Y703000D03*
X563860Y718000D03*
X563860Y733000D03*
X563860Y748000D03*
X563860Y762000D03*
D12*
X367500Y391250D03*
D13*
X395000Y425000D03*
D14*
X372500Y391250D03*
X377500Y391250D03*
X382500Y391250D03*
X387500Y391250D03*
X392500Y391250D03*
X397500Y391250D03*
X402500Y391250D03*
X407500Y391250D03*
X412500Y391250D03*
X417500Y391250D03*
X422500Y391250D03*
D15*
X428750Y397500D03*
X428750Y402500D03*
X428750Y407500D03*
X428750Y412500D03*
X428750Y417500D03*
X428750Y422500D03*
X428750Y427500D03*
X428750Y432500D03*
X428750Y437500D03*
X428750Y442500D03*
X428750Y447500D03*
X428750Y452500D03*
D14*
X422500Y458750D03*
X417500Y458750D03*
X412500Y458750D03*
X407500Y458750D03*
X402500Y458750D03*
X397500Y458750D03*
X392500Y458750D03*
X387500Y458750D03*
X382500Y458750D03*
X377500Y458750D03*
X372500Y458750D03*
X367500Y458750D03*
D15*
X361250Y452500D03*
X361250Y447500D03*
X361250Y442500D03*
X361250Y437500D03*
X361250Y432500D03*
X361250Y427500D03*
X361250Y422500D03*
X361250Y417500D03*
X361250Y412500D03*
X361250Y407500D03*
X361250Y402500D03*
X361250Y397500D03*
D16*
X475000Y459500D03*
X475000Y440500D03*
X325000Y459500D03*
X325000Y440500D03*
X325000Y390500D03*
X325000Y409500D03*
X475000Y390500D03*
X475000Y409500D03*
X580000Y309500D03*
X580000Y290500D03*
X615000Y290500D03*
X615000Y309500D03*
X545000Y290500D03*
X545000Y309500D03*
X430000Y359500D03*
X430000Y340500D03*
X510000Y440500D03*
X510000Y459500D03*
X615000Y359500D03*
X615000Y340500D03*
X615000Y390500D03*
X615000Y409500D03*
X545000Y459500D03*
X545000Y440500D03*
X580000Y440500D03*
X580000Y459500D03*
X615000Y459500D03*
X615000Y440500D03*
D17*
X510000Y386500D03*
X510000Y413500D03*
D18*
X487860Y315000D03*
X482860Y315000D03*
X477860Y315000D03*
X492860Y315000D03*
X497860Y315000D03*
X487860Y355000D03*
X482860Y355000D03*
X477860Y355000D03*
X492860Y355000D03*
X497860Y355000D03*
D19*
X515360Y335000D03*
X460360Y335000D03*
D16*
X590000Y740500D03*
X590000Y759500D03*
X360000Y359500D03*
X360000Y340500D03*
X325000Y340500D03*
X325000Y359500D03*
D20*
X425000Y289000D03*
X415500Y311000D03*
X434500Y311000D03*
D21*
X449760Y97700D03*
X475160Y72300D03*
X500560Y97700D03*
X525960Y72300D03*
D22*
G36*
X303753Y266692D02*
X282103Y254193D01*
X276903Y263200D01*
X298553Y275699D01*
X303753Y266692D01*
G37*
G36*
X316453Y244695D02*
X294803Y232196D01*
X289603Y241203D01*
X311253Y253702D01*
X316453Y244695D01*
G37*
G36*
X329153Y222697D02*
X307503Y210198D01*
X302303Y219205D01*
X323953Y231704D01*
X329153Y222697D01*
G37*
G36*
X341853Y200700D02*
X320203Y188201D01*
X315003Y197208D01*
X336653Y209707D01*
X341853Y200700D01*
G37*
D23*
G36*
X174411Y115921D02*
X196061Y128420D01*
X201161Y119587D01*
X179511Y107088D01*
X174411Y115921D01*
G37*
G36*
X161711Y137918D02*
X183361Y150417D01*
X188461Y141584D01*
X166811Y129085D01*
X161711Y137918D01*
G37*
G36*
X149011Y159916D02*
X170661Y172415D01*
X175761Y163582D01*
X154111Y151083D01*
X149011Y159916D01*
G37*
G36*
X136311Y181913D02*
X157961Y194412D01*
X163061Y185579D01*
X141411Y173080D01*
X136311Y181913D01*
G37*
D16*
X395000Y340500D03*
X395000Y359500D03*
M02*
