G04 EAGLE Gerber RS-274X export*
G75*
%MOMM*%
%FSLAX34Y34*%
%LPD*%
%INTop Silkscreen*%
%IPPOS*%
%AMOC8*
5,1,8,0,0,1.08239X$1,22.5*%
G01*
%ADD10C,0.101600*%
%ADD11C,0.150000*%
%ADD12C,0.127000*%
%ADD13C,0.250000*%
%ADD14C,0.200000*%
%ADD15C,0.152400*%
%ADD16C,0.254000*%
%ADD17R,0.600000X1.150000*%
%ADD18R,0.640000X7.120000*%
%ADD19R,0.640000X1.520000*%


D10*
X526464Y127874D02*
X527438Y129561D01*
X533060Y126315D01*
X531112Y122943D01*
X531061Y122858D01*
X531006Y122775D01*
X530949Y122694D01*
X530888Y122615D01*
X530824Y122539D01*
X530757Y122465D01*
X530688Y122394D01*
X530616Y122325D01*
X530541Y122259D01*
X530464Y122197D01*
X530385Y122137D01*
X530303Y122080D01*
X530219Y122027D01*
X530133Y121976D01*
X530046Y121929D01*
X529956Y121886D01*
X529865Y121846D01*
X529773Y121809D01*
X529679Y121776D01*
X529584Y121747D01*
X529488Y121721D01*
X529391Y121699D01*
X529293Y121681D01*
X529195Y121666D01*
X529096Y121655D01*
X528997Y121648D01*
X528897Y121645D01*
X528798Y121646D01*
X528698Y121650D01*
X528599Y121659D01*
X528500Y121671D01*
X528402Y121686D01*
X528305Y121706D01*
X528208Y121729D01*
X528112Y121756D01*
X528018Y121787D01*
X527924Y121821D01*
X527832Y121859D01*
X527742Y121900D01*
X527653Y121945D01*
X527566Y121993D01*
X527565Y121992D02*
X521944Y125238D01*
X521859Y125289D01*
X521776Y125344D01*
X521695Y125401D01*
X521616Y125462D01*
X521540Y125526D01*
X521466Y125593D01*
X521395Y125662D01*
X521326Y125734D01*
X521260Y125809D01*
X521198Y125886D01*
X521138Y125965D01*
X521081Y126047D01*
X521028Y126131D01*
X520977Y126217D01*
X520930Y126304D01*
X520887Y126394D01*
X520847Y126485D01*
X520810Y126577D01*
X520777Y126671D01*
X520748Y126766D01*
X520722Y126862D01*
X520700Y126959D01*
X520682Y127057D01*
X520667Y127155D01*
X520656Y127254D01*
X520649Y127353D01*
X520646Y127453D01*
X520647Y127552D01*
X520651Y127652D01*
X520660Y127751D01*
X520672Y127849D01*
X520687Y127948D01*
X520707Y128045D01*
X520730Y128142D01*
X520757Y128238D01*
X520788Y128332D01*
X520822Y128426D01*
X520860Y128518D01*
X520901Y128608D01*
X520946Y128697D01*
X520994Y128784D01*
X520994Y128785D02*
X522941Y132157D01*
X525791Y137094D02*
X535910Y131252D01*
X539156Y136874D02*
X525791Y137094D01*
X529037Y142716D02*
X539156Y136874D01*
X542006Y141811D02*
X531887Y147653D01*
X533510Y150464D01*
X533568Y150561D01*
X533630Y150656D01*
X533695Y150749D01*
X533763Y150839D01*
X533834Y150927D01*
X533909Y151013D01*
X533986Y151096D01*
X534066Y151176D01*
X534149Y151253D01*
X534235Y151328D01*
X534323Y151399D01*
X534413Y151467D01*
X534506Y151532D01*
X534601Y151594D01*
X534698Y151652D01*
X534797Y151707D01*
X534898Y151758D01*
X535001Y151806D01*
X535105Y151851D01*
X535211Y151891D01*
X535318Y151928D01*
X535426Y151961D01*
X535536Y151991D01*
X535646Y152016D01*
X535757Y152038D01*
X535869Y152055D01*
X535982Y152069D01*
X536095Y152079D01*
X536208Y152085D01*
X536321Y152087D01*
X536434Y152085D01*
X536547Y152079D01*
X536660Y152069D01*
X536773Y152055D01*
X536885Y152038D01*
X536996Y152016D01*
X537106Y151991D01*
X537216Y151961D01*
X537324Y151928D01*
X537431Y151891D01*
X537537Y151851D01*
X537641Y151806D01*
X537744Y151758D01*
X537845Y151707D01*
X537944Y151652D01*
X542441Y149055D01*
X542538Y148997D01*
X542633Y148935D01*
X542726Y148870D01*
X542816Y148802D01*
X542904Y148731D01*
X542990Y148656D01*
X543073Y148579D01*
X543153Y148499D01*
X543230Y148416D01*
X543305Y148330D01*
X543376Y148242D01*
X543444Y148152D01*
X543509Y148059D01*
X543571Y147964D01*
X543629Y147867D01*
X543684Y147768D01*
X543735Y147667D01*
X543783Y147564D01*
X543828Y147460D01*
X543868Y147354D01*
X543905Y147247D01*
X543938Y147139D01*
X543968Y147029D01*
X543993Y146919D01*
X544015Y146808D01*
X544032Y146696D01*
X544046Y146583D01*
X544056Y146470D01*
X544062Y146357D01*
X544064Y146244D01*
X544062Y146131D01*
X544056Y146018D01*
X544046Y145905D01*
X544032Y145792D01*
X544015Y145680D01*
X543993Y145569D01*
X543968Y145459D01*
X543938Y145349D01*
X543905Y145241D01*
X543868Y145134D01*
X543828Y145028D01*
X543783Y144924D01*
X543735Y144821D01*
X543684Y144720D01*
X543629Y144621D01*
X543629Y144622D02*
X542006Y141811D01*
X507410Y125191D02*
X506112Y122943D01*
X506061Y122858D01*
X506006Y122775D01*
X505949Y122694D01*
X505888Y122615D01*
X505824Y122539D01*
X505757Y122465D01*
X505688Y122394D01*
X505616Y122325D01*
X505541Y122259D01*
X505464Y122197D01*
X505385Y122137D01*
X505303Y122080D01*
X505219Y122027D01*
X505133Y121976D01*
X505045Y121929D01*
X504956Y121886D01*
X504865Y121846D01*
X504773Y121809D01*
X504679Y121776D01*
X504584Y121747D01*
X504488Y121721D01*
X504391Y121699D01*
X504293Y121681D01*
X504195Y121666D01*
X504096Y121655D01*
X503997Y121648D01*
X503897Y121645D01*
X503798Y121646D01*
X503698Y121650D01*
X503599Y121659D01*
X503500Y121671D01*
X503402Y121686D01*
X503305Y121706D01*
X503208Y121729D01*
X503112Y121756D01*
X503018Y121787D01*
X502924Y121821D01*
X502832Y121859D01*
X502742Y121900D01*
X502653Y121945D01*
X502566Y121993D01*
X502565Y121992D02*
X496944Y125238D01*
X496859Y125289D01*
X496776Y125344D01*
X496695Y125401D01*
X496616Y125462D01*
X496540Y125526D01*
X496466Y125593D01*
X496395Y125662D01*
X496326Y125734D01*
X496260Y125809D01*
X496198Y125886D01*
X496138Y125965D01*
X496081Y126047D01*
X496028Y126131D01*
X495977Y126217D01*
X495930Y126304D01*
X495887Y126394D01*
X495847Y126485D01*
X495810Y126577D01*
X495777Y126671D01*
X495748Y126766D01*
X495722Y126862D01*
X495700Y126959D01*
X495682Y127057D01*
X495667Y127155D01*
X495656Y127254D01*
X495649Y127353D01*
X495646Y127453D01*
X495647Y127552D01*
X495651Y127652D01*
X495660Y127751D01*
X495672Y127849D01*
X495687Y127948D01*
X495707Y128045D01*
X495730Y128142D01*
X495757Y128238D01*
X495788Y128332D01*
X495822Y128426D01*
X495860Y128518D01*
X495901Y128608D01*
X495946Y128697D01*
X495994Y128784D01*
X495994Y128785D02*
X497292Y131033D01*
X499676Y135163D02*
X509795Y129321D01*
X512391Y133818D01*
X514821Y138027D02*
X504703Y143869D01*
X507948Y149490D02*
X510886Y140299D01*
X509936Y143846D02*
X518067Y143648D01*
X479814Y120694D02*
X469695Y126536D01*
X471318Y129347D01*
X471376Y129444D01*
X471438Y129539D01*
X471503Y129632D01*
X471571Y129722D01*
X471642Y129810D01*
X471717Y129896D01*
X471794Y129979D01*
X471874Y130059D01*
X471957Y130136D01*
X472043Y130211D01*
X472131Y130282D01*
X472221Y130350D01*
X472314Y130415D01*
X472409Y130477D01*
X472506Y130535D01*
X472605Y130590D01*
X472706Y130641D01*
X472809Y130689D01*
X472913Y130734D01*
X473019Y130774D01*
X473126Y130811D01*
X473234Y130844D01*
X473344Y130874D01*
X473454Y130899D01*
X473565Y130921D01*
X473677Y130938D01*
X473790Y130952D01*
X473903Y130962D01*
X474016Y130968D01*
X474129Y130970D01*
X474242Y130968D01*
X474355Y130962D01*
X474468Y130952D01*
X474581Y130938D01*
X474693Y130921D01*
X474804Y130899D01*
X474914Y130874D01*
X475024Y130844D01*
X475132Y130811D01*
X475239Y130774D01*
X475345Y130734D01*
X475449Y130689D01*
X475552Y130641D01*
X475653Y130590D01*
X475752Y130535D01*
X480249Y127938D01*
X480346Y127880D01*
X480441Y127818D01*
X480534Y127753D01*
X480624Y127685D01*
X480712Y127614D01*
X480798Y127539D01*
X480881Y127462D01*
X480961Y127382D01*
X481038Y127299D01*
X481113Y127213D01*
X481184Y127125D01*
X481252Y127035D01*
X481317Y126942D01*
X481379Y126847D01*
X481437Y126750D01*
X481492Y126651D01*
X481543Y126550D01*
X481591Y126447D01*
X481636Y126343D01*
X481676Y126237D01*
X481713Y126130D01*
X481746Y126022D01*
X481776Y125912D01*
X481801Y125802D01*
X481823Y125691D01*
X481840Y125579D01*
X481854Y125466D01*
X481864Y125353D01*
X481870Y125240D01*
X481872Y125127D01*
X481870Y125014D01*
X481864Y124901D01*
X481854Y124788D01*
X481840Y124675D01*
X481823Y124563D01*
X481801Y124452D01*
X481776Y124342D01*
X481746Y124232D01*
X481713Y124124D01*
X481676Y124017D01*
X481636Y123911D01*
X481591Y123807D01*
X481543Y123704D01*
X481492Y123603D01*
X481437Y123504D01*
X481437Y123505D02*
X479814Y120694D01*
X486199Y131754D02*
X476081Y137596D01*
X485550Y130629D02*
X486848Y132878D01*
X476730Y138720D02*
X475432Y136471D01*
X481841Y141081D02*
X486338Y138484D01*
X481840Y141081D02*
X481743Y141139D01*
X481648Y141201D01*
X481555Y141266D01*
X481465Y141334D01*
X481377Y141405D01*
X481291Y141480D01*
X481208Y141557D01*
X481128Y141637D01*
X481051Y141720D01*
X480976Y141806D01*
X480905Y141894D01*
X480837Y141984D01*
X480772Y142077D01*
X480710Y142172D01*
X480652Y142269D01*
X480597Y142368D01*
X480546Y142469D01*
X480498Y142572D01*
X480453Y142676D01*
X480413Y142782D01*
X480376Y142889D01*
X480343Y142997D01*
X480313Y143107D01*
X480288Y143217D01*
X480266Y143328D01*
X480249Y143440D01*
X480235Y143553D01*
X480225Y143666D01*
X480219Y143779D01*
X480217Y143892D01*
X480219Y144005D01*
X480225Y144118D01*
X480235Y144231D01*
X480249Y144344D01*
X480266Y144456D01*
X480288Y144567D01*
X480313Y144677D01*
X480343Y144787D01*
X480376Y144895D01*
X480413Y145002D01*
X480453Y145108D01*
X480498Y145212D01*
X480546Y145315D01*
X480597Y145416D01*
X480652Y145515D01*
X480710Y145612D01*
X480772Y145707D01*
X480837Y145800D01*
X480905Y145890D01*
X480976Y145978D01*
X481051Y146064D01*
X481128Y146147D01*
X481208Y146227D01*
X481291Y146304D01*
X481377Y146379D01*
X481465Y146450D01*
X481555Y146518D01*
X481648Y146583D01*
X481743Y146645D01*
X481840Y146703D01*
X481939Y146758D01*
X482040Y146809D01*
X482143Y146857D01*
X482247Y146902D01*
X482353Y146942D01*
X482460Y146979D01*
X482568Y147012D01*
X482678Y147042D01*
X482788Y147067D01*
X482899Y147089D01*
X483011Y147106D01*
X483124Y147120D01*
X483237Y147130D01*
X483350Y147136D01*
X483463Y147138D01*
X483576Y147136D01*
X483689Y147130D01*
X483802Y147120D01*
X483915Y147106D01*
X484027Y147089D01*
X484138Y147067D01*
X484248Y147042D01*
X484358Y147012D01*
X484466Y146979D01*
X484573Y146942D01*
X484679Y146902D01*
X484783Y146857D01*
X484886Y146809D01*
X484987Y146758D01*
X485086Y146703D01*
X485086Y146702D02*
X489583Y144106D01*
X489584Y144106D02*
X489681Y144048D01*
X489776Y143986D01*
X489869Y143921D01*
X489959Y143853D01*
X490047Y143782D01*
X490133Y143707D01*
X490216Y143630D01*
X490296Y143550D01*
X490373Y143467D01*
X490448Y143381D01*
X490519Y143293D01*
X490587Y143203D01*
X490652Y143110D01*
X490714Y143015D01*
X490772Y142918D01*
X490827Y142819D01*
X490878Y142718D01*
X490926Y142615D01*
X490971Y142511D01*
X491011Y142405D01*
X491048Y142298D01*
X491081Y142190D01*
X491111Y142080D01*
X491136Y141970D01*
X491158Y141859D01*
X491175Y141747D01*
X491189Y141634D01*
X491199Y141521D01*
X491205Y141408D01*
X491207Y141295D01*
X491205Y141182D01*
X491199Y141069D01*
X491189Y140956D01*
X491175Y140843D01*
X491158Y140731D01*
X491136Y140620D01*
X491111Y140510D01*
X491081Y140400D01*
X491048Y140292D01*
X491011Y140185D01*
X490971Y140079D01*
X490926Y139975D01*
X490878Y139872D01*
X490827Y139771D01*
X490772Y139672D01*
X490714Y139575D01*
X490652Y139480D01*
X490587Y139387D01*
X490519Y139297D01*
X490448Y139209D01*
X490373Y139123D01*
X490296Y139040D01*
X490216Y138960D01*
X490133Y138883D01*
X490047Y138808D01*
X489959Y138737D01*
X489869Y138669D01*
X489776Y138604D01*
X489681Y138542D01*
X489584Y138484D01*
X489485Y138429D01*
X489384Y138378D01*
X489281Y138330D01*
X489177Y138285D01*
X489071Y138245D01*
X488964Y138208D01*
X488856Y138175D01*
X488746Y138145D01*
X488636Y138120D01*
X488525Y138098D01*
X488413Y138081D01*
X488300Y138067D01*
X488187Y138057D01*
X488074Y138051D01*
X487961Y138049D01*
X487848Y138051D01*
X487735Y138057D01*
X487622Y138067D01*
X487509Y138081D01*
X487397Y138098D01*
X487286Y138120D01*
X487176Y138145D01*
X487066Y138175D01*
X486958Y138208D01*
X486851Y138245D01*
X486745Y138285D01*
X486641Y138330D01*
X486538Y138378D01*
X486437Y138429D01*
X486338Y138484D01*
X456761Y124067D02*
X444695Y126536D01*
X448590Y133282D02*
X456761Y124067D01*
X462135Y133375D02*
X463433Y135623D01*
X462135Y133375D02*
X462084Y133290D01*
X462029Y133207D01*
X461972Y133126D01*
X461911Y133047D01*
X461847Y132971D01*
X461780Y132897D01*
X461711Y132826D01*
X461639Y132757D01*
X461564Y132691D01*
X461487Y132629D01*
X461408Y132569D01*
X461326Y132512D01*
X461242Y132459D01*
X461156Y132408D01*
X461068Y132361D01*
X460979Y132318D01*
X460888Y132278D01*
X460796Y132241D01*
X460702Y132208D01*
X460607Y132179D01*
X460511Y132153D01*
X460414Y132131D01*
X460316Y132113D01*
X460218Y132098D01*
X460119Y132087D01*
X460020Y132080D01*
X459920Y132077D01*
X459821Y132078D01*
X459721Y132082D01*
X459622Y132091D01*
X459523Y132103D01*
X459425Y132118D01*
X459328Y132138D01*
X459231Y132161D01*
X459135Y132188D01*
X459041Y132219D01*
X458947Y132253D01*
X458855Y132291D01*
X458765Y132332D01*
X458676Y132377D01*
X458589Y132425D01*
X458588Y132424D02*
X452967Y135670D01*
X452882Y135721D01*
X452799Y135776D01*
X452718Y135833D01*
X452639Y135894D01*
X452563Y135958D01*
X452489Y136025D01*
X452418Y136094D01*
X452349Y136166D01*
X452283Y136241D01*
X452221Y136318D01*
X452161Y136397D01*
X452104Y136479D01*
X452051Y136563D01*
X452000Y136649D01*
X451953Y136736D01*
X451910Y136826D01*
X451870Y136917D01*
X451833Y137009D01*
X451800Y137103D01*
X451771Y137198D01*
X451745Y137294D01*
X451723Y137391D01*
X451705Y137489D01*
X451690Y137587D01*
X451679Y137686D01*
X451672Y137785D01*
X451669Y137885D01*
X451670Y137984D01*
X451674Y138084D01*
X451683Y138183D01*
X451695Y138281D01*
X451710Y138380D01*
X451730Y138477D01*
X451753Y138574D01*
X451780Y138670D01*
X451811Y138764D01*
X451845Y138858D01*
X451883Y138950D01*
X451924Y139040D01*
X451969Y139129D01*
X452017Y139216D01*
X452017Y139217D02*
X453315Y141465D01*
X466898Y141623D02*
X468196Y143872D01*
X466897Y141624D02*
X466846Y141539D01*
X466791Y141456D01*
X466734Y141375D01*
X466673Y141296D01*
X466609Y141220D01*
X466542Y141146D01*
X466473Y141075D01*
X466401Y141006D01*
X466326Y140940D01*
X466249Y140878D01*
X466170Y140818D01*
X466088Y140761D01*
X466004Y140708D01*
X465918Y140657D01*
X465830Y140610D01*
X465741Y140567D01*
X465650Y140527D01*
X465558Y140490D01*
X465464Y140457D01*
X465369Y140428D01*
X465273Y140402D01*
X465176Y140380D01*
X465078Y140362D01*
X464980Y140347D01*
X464881Y140336D01*
X464782Y140329D01*
X464682Y140326D01*
X464583Y140327D01*
X464483Y140331D01*
X464384Y140340D01*
X464285Y140352D01*
X464187Y140367D01*
X464090Y140387D01*
X463993Y140410D01*
X463897Y140437D01*
X463803Y140468D01*
X463709Y140502D01*
X463617Y140540D01*
X463527Y140581D01*
X463438Y140626D01*
X463351Y140674D01*
X463351Y140673D02*
X457729Y143919D01*
X457730Y143919D02*
X457645Y143970D01*
X457562Y144025D01*
X457481Y144082D01*
X457402Y144143D01*
X457326Y144207D01*
X457252Y144274D01*
X457181Y144343D01*
X457112Y144415D01*
X457046Y144490D01*
X456984Y144567D01*
X456924Y144646D01*
X456867Y144728D01*
X456814Y144812D01*
X456763Y144898D01*
X456716Y144985D01*
X456673Y145075D01*
X456633Y145166D01*
X456596Y145258D01*
X456563Y145352D01*
X456534Y145447D01*
X456508Y145543D01*
X456486Y145640D01*
X456468Y145738D01*
X456453Y145836D01*
X456442Y145935D01*
X456435Y146034D01*
X456432Y146134D01*
X456433Y146233D01*
X456437Y146333D01*
X456446Y146432D01*
X456458Y146530D01*
X456473Y146629D01*
X456493Y146726D01*
X456516Y146823D01*
X456543Y146919D01*
X456574Y147013D01*
X456608Y147107D01*
X456646Y147199D01*
X456687Y147289D01*
X456732Y147378D01*
X456780Y147465D01*
X456779Y147465D02*
X458077Y149714D01*
D11*
X412860Y642000D02*
X412860Y652000D01*
X562860Y652000D02*
X562860Y642000D01*
X544860Y642000D01*
X430860Y642000D02*
X412860Y642000D01*
X439860Y642000D02*
X445860Y642000D01*
X454860Y642000D02*
X460860Y642000D01*
X469860Y642000D02*
X475860Y642000D01*
X484860Y642000D02*
X490860Y642000D01*
X499860Y642000D02*
X505860Y642000D01*
X514860Y642000D02*
X520860Y642000D01*
X529860Y642000D02*
X535860Y642000D01*
X412860Y767000D02*
X412860Y838000D01*
X562860Y838000D02*
X562860Y767000D01*
X562860Y838000D02*
X412860Y838000D01*
X562860Y668000D02*
X562860Y662000D01*
X562860Y678000D02*
X562860Y683000D01*
X562860Y693000D02*
X562860Y698000D01*
X562860Y708000D02*
X562860Y713000D01*
X562860Y723000D02*
X562860Y728000D01*
X562860Y738000D02*
X562860Y743000D01*
X562860Y753000D02*
X562860Y757000D01*
X412860Y667000D02*
X412860Y662000D01*
X412860Y677000D02*
X412860Y682000D01*
X412860Y692000D02*
X412860Y697000D01*
X412860Y707000D02*
X412860Y712000D01*
X412860Y722000D02*
X412860Y727000D01*
X412860Y737000D02*
X412860Y742000D01*
X412860Y752000D02*
X412860Y757000D01*
X422860Y780000D02*
X422860Y830000D01*
X437860Y830000D01*
X437860Y775000D01*
X437860Y830000D02*
X452860Y830000D01*
X452860Y795000D01*
X477860Y795000D01*
X477860Y830000D01*
X502860Y830000D01*
X502860Y795000D01*
X527860Y795000D01*
X527860Y830000D01*
X552860Y830000D01*
X552860Y780000D01*
D12*
X364000Y390000D02*
X360000Y390000D01*
X360000Y394000D01*
X430000Y394000D02*
X430000Y390000D01*
X426000Y390000D01*
X426000Y460000D02*
X430000Y460000D01*
X430000Y456000D01*
X360000Y456000D02*
X360000Y460000D01*
X364000Y460000D01*
D10*
X464492Y440701D02*
X464492Y438104D01*
X464490Y438005D01*
X464484Y437905D01*
X464475Y437806D01*
X464462Y437708D01*
X464445Y437610D01*
X464424Y437512D01*
X464399Y437416D01*
X464371Y437321D01*
X464339Y437227D01*
X464304Y437134D01*
X464265Y437042D01*
X464222Y436952D01*
X464177Y436864D01*
X464127Y436777D01*
X464075Y436693D01*
X464019Y436610D01*
X463961Y436530D01*
X463899Y436452D01*
X463834Y436377D01*
X463766Y436304D01*
X463696Y436234D01*
X463623Y436166D01*
X463548Y436101D01*
X463470Y436039D01*
X463390Y435981D01*
X463307Y435925D01*
X463223Y435873D01*
X463136Y435823D01*
X463048Y435778D01*
X462958Y435735D01*
X462866Y435696D01*
X462773Y435661D01*
X462679Y435629D01*
X462584Y435601D01*
X462488Y435576D01*
X462390Y435555D01*
X462292Y435538D01*
X462194Y435525D01*
X462095Y435516D01*
X461995Y435510D01*
X461896Y435508D01*
X455404Y435508D01*
X455305Y435510D01*
X455205Y435516D01*
X455106Y435525D01*
X455008Y435538D01*
X454910Y435556D01*
X454812Y435576D01*
X454716Y435601D01*
X454620Y435629D01*
X454526Y435661D01*
X454433Y435696D01*
X454342Y435735D01*
X454252Y435778D01*
X454163Y435823D01*
X454077Y435873D01*
X453992Y435925D01*
X453910Y435981D01*
X453830Y436040D01*
X453752Y436101D01*
X453676Y436166D01*
X453603Y436234D01*
X453533Y436304D01*
X453465Y436377D01*
X453400Y436453D01*
X453339Y436531D01*
X453280Y436611D01*
X453224Y436693D01*
X453172Y436778D01*
X453123Y436864D01*
X453077Y436953D01*
X453034Y437043D01*
X452995Y437134D01*
X452960Y437227D01*
X452928Y437321D01*
X452900Y437417D01*
X452875Y437513D01*
X452855Y437611D01*
X452837Y437709D01*
X452824Y437807D01*
X452815Y437906D01*
X452809Y438005D01*
X452807Y438105D01*
X452808Y438104D02*
X452808Y440701D01*
X455404Y445066D02*
X452808Y448312D01*
X464492Y448312D01*
X464492Y451557D02*
X464492Y445066D01*
X314492Y440701D02*
X314492Y438104D01*
X314490Y438005D01*
X314484Y437905D01*
X314475Y437806D01*
X314462Y437708D01*
X314445Y437610D01*
X314424Y437512D01*
X314399Y437416D01*
X314371Y437321D01*
X314339Y437227D01*
X314304Y437134D01*
X314265Y437042D01*
X314222Y436952D01*
X314177Y436864D01*
X314127Y436777D01*
X314075Y436693D01*
X314019Y436610D01*
X313961Y436530D01*
X313899Y436452D01*
X313834Y436377D01*
X313766Y436304D01*
X313696Y436234D01*
X313623Y436166D01*
X313548Y436101D01*
X313470Y436039D01*
X313390Y435981D01*
X313307Y435925D01*
X313223Y435873D01*
X313136Y435823D01*
X313048Y435778D01*
X312958Y435735D01*
X312866Y435696D01*
X312773Y435661D01*
X312679Y435629D01*
X312584Y435601D01*
X312488Y435576D01*
X312390Y435555D01*
X312292Y435538D01*
X312194Y435525D01*
X312095Y435516D01*
X311995Y435510D01*
X311896Y435508D01*
X305404Y435508D01*
X305305Y435510D01*
X305205Y435516D01*
X305106Y435525D01*
X305008Y435538D01*
X304910Y435556D01*
X304812Y435576D01*
X304716Y435601D01*
X304620Y435629D01*
X304526Y435661D01*
X304433Y435696D01*
X304342Y435735D01*
X304252Y435778D01*
X304163Y435823D01*
X304077Y435873D01*
X303992Y435925D01*
X303910Y435981D01*
X303830Y436040D01*
X303752Y436101D01*
X303676Y436166D01*
X303603Y436234D01*
X303533Y436304D01*
X303465Y436377D01*
X303400Y436453D01*
X303339Y436531D01*
X303280Y436611D01*
X303224Y436693D01*
X303172Y436778D01*
X303123Y436864D01*
X303077Y436953D01*
X303034Y437043D01*
X302995Y437134D01*
X302960Y437227D01*
X302928Y437321D01*
X302900Y437417D01*
X302875Y437513D01*
X302855Y437611D01*
X302837Y437709D01*
X302824Y437807D01*
X302815Y437906D01*
X302809Y438005D01*
X302807Y438105D01*
X302808Y438104D02*
X302808Y440701D01*
X302808Y448636D02*
X302810Y448743D01*
X302816Y448849D01*
X302826Y448955D01*
X302839Y449061D01*
X302857Y449167D01*
X302878Y449271D01*
X302903Y449375D01*
X302932Y449478D01*
X302964Y449579D01*
X303001Y449679D01*
X303041Y449778D01*
X303084Y449876D01*
X303131Y449972D01*
X303182Y450066D01*
X303236Y450158D01*
X303293Y450248D01*
X303353Y450336D01*
X303417Y450421D01*
X303484Y450504D01*
X303554Y450585D01*
X303626Y450663D01*
X303702Y450739D01*
X303780Y450811D01*
X303861Y450881D01*
X303944Y450948D01*
X304029Y451012D01*
X304117Y451072D01*
X304207Y451129D01*
X304299Y451183D01*
X304393Y451234D01*
X304489Y451281D01*
X304587Y451324D01*
X304686Y451364D01*
X304786Y451401D01*
X304887Y451433D01*
X304990Y451462D01*
X305094Y451487D01*
X305198Y451508D01*
X305304Y451526D01*
X305410Y451539D01*
X305516Y451549D01*
X305622Y451555D01*
X305729Y451557D01*
X302808Y448636D02*
X302810Y448515D01*
X302816Y448394D01*
X302826Y448274D01*
X302839Y448153D01*
X302857Y448034D01*
X302878Y447914D01*
X302903Y447796D01*
X302932Y447679D01*
X302965Y447562D01*
X303001Y447447D01*
X303042Y447333D01*
X303085Y447220D01*
X303133Y447108D01*
X303184Y446999D01*
X303239Y446891D01*
X303297Y446784D01*
X303358Y446680D01*
X303423Y446578D01*
X303491Y446478D01*
X303562Y446380D01*
X303636Y446284D01*
X303713Y446191D01*
X303794Y446101D01*
X303877Y446013D01*
X303963Y445928D01*
X304052Y445845D01*
X304143Y445766D01*
X304237Y445689D01*
X304333Y445616D01*
X304431Y445546D01*
X304532Y445479D01*
X304635Y445415D01*
X304740Y445355D01*
X304847Y445297D01*
X304955Y445244D01*
X305065Y445194D01*
X305177Y445148D01*
X305290Y445105D01*
X305405Y445066D01*
X308001Y450583D02*
X307923Y450662D01*
X307843Y450738D01*
X307760Y450811D01*
X307674Y450881D01*
X307587Y450948D01*
X307496Y451012D01*
X307404Y451072D01*
X307310Y451130D01*
X307213Y451184D01*
X307115Y451234D01*
X307015Y451281D01*
X306914Y451325D01*
X306811Y451365D01*
X306706Y451401D01*
X306601Y451433D01*
X306494Y451462D01*
X306387Y451487D01*
X306278Y451509D01*
X306169Y451526D01*
X306060Y451540D01*
X305950Y451549D01*
X305839Y451555D01*
X305729Y451557D01*
X308001Y450584D02*
X314492Y445066D01*
X314492Y451557D01*
X314492Y390701D02*
X314492Y388104D01*
X314490Y388005D01*
X314484Y387905D01*
X314475Y387806D01*
X314462Y387708D01*
X314445Y387610D01*
X314424Y387512D01*
X314399Y387416D01*
X314371Y387321D01*
X314339Y387227D01*
X314304Y387134D01*
X314265Y387042D01*
X314222Y386952D01*
X314177Y386864D01*
X314127Y386777D01*
X314075Y386693D01*
X314019Y386610D01*
X313961Y386530D01*
X313899Y386452D01*
X313834Y386377D01*
X313766Y386304D01*
X313696Y386234D01*
X313623Y386166D01*
X313548Y386101D01*
X313470Y386039D01*
X313390Y385981D01*
X313307Y385925D01*
X313223Y385873D01*
X313136Y385823D01*
X313048Y385778D01*
X312958Y385735D01*
X312866Y385696D01*
X312773Y385661D01*
X312679Y385629D01*
X312584Y385601D01*
X312488Y385576D01*
X312390Y385555D01*
X312292Y385538D01*
X312194Y385525D01*
X312095Y385516D01*
X311995Y385510D01*
X311896Y385508D01*
X305404Y385508D01*
X305305Y385510D01*
X305205Y385516D01*
X305106Y385525D01*
X305008Y385538D01*
X304910Y385556D01*
X304812Y385576D01*
X304716Y385601D01*
X304620Y385629D01*
X304526Y385661D01*
X304433Y385696D01*
X304342Y385735D01*
X304252Y385778D01*
X304163Y385823D01*
X304077Y385873D01*
X303992Y385925D01*
X303910Y385981D01*
X303830Y386040D01*
X303752Y386101D01*
X303676Y386166D01*
X303603Y386234D01*
X303533Y386304D01*
X303465Y386377D01*
X303400Y386453D01*
X303339Y386531D01*
X303280Y386611D01*
X303224Y386693D01*
X303172Y386778D01*
X303123Y386864D01*
X303077Y386953D01*
X303034Y387043D01*
X302995Y387134D01*
X302960Y387227D01*
X302928Y387321D01*
X302900Y387417D01*
X302875Y387513D01*
X302855Y387611D01*
X302837Y387709D01*
X302824Y387807D01*
X302815Y387906D01*
X302809Y388005D01*
X302807Y388105D01*
X302808Y388104D02*
X302808Y390701D01*
X314492Y395066D02*
X314492Y398312D01*
X314490Y398425D01*
X314484Y398538D01*
X314474Y398651D01*
X314460Y398764D01*
X314443Y398876D01*
X314421Y398987D01*
X314396Y399097D01*
X314366Y399207D01*
X314333Y399315D01*
X314296Y399422D01*
X314256Y399528D01*
X314211Y399632D01*
X314163Y399735D01*
X314112Y399836D01*
X314057Y399935D01*
X313999Y400032D01*
X313937Y400127D01*
X313872Y400220D01*
X313804Y400310D01*
X313733Y400398D01*
X313658Y400484D01*
X313581Y400567D01*
X313501Y400647D01*
X313418Y400724D01*
X313332Y400799D01*
X313244Y400870D01*
X313154Y400938D01*
X313061Y401003D01*
X312966Y401065D01*
X312869Y401123D01*
X312770Y401178D01*
X312669Y401229D01*
X312566Y401277D01*
X312462Y401322D01*
X312356Y401362D01*
X312249Y401399D01*
X312141Y401432D01*
X312031Y401462D01*
X311921Y401487D01*
X311810Y401509D01*
X311698Y401526D01*
X311585Y401540D01*
X311472Y401550D01*
X311359Y401556D01*
X311246Y401558D01*
X311133Y401556D01*
X311020Y401550D01*
X310907Y401540D01*
X310794Y401526D01*
X310682Y401509D01*
X310571Y401487D01*
X310461Y401462D01*
X310351Y401432D01*
X310243Y401399D01*
X310136Y401362D01*
X310030Y401322D01*
X309926Y401277D01*
X309823Y401229D01*
X309722Y401178D01*
X309623Y401123D01*
X309526Y401065D01*
X309431Y401003D01*
X309338Y400938D01*
X309248Y400870D01*
X309160Y400799D01*
X309074Y400724D01*
X308991Y400647D01*
X308911Y400567D01*
X308834Y400484D01*
X308759Y400398D01*
X308688Y400310D01*
X308620Y400220D01*
X308555Y400127D01*
X308493Y400032D01*
X308435Y399935D01*
X308380Y399836D01*
X308329Y399735D01*
X308281Y399632D01*
X308236Y399528D01*
X308196Y399422D01*
X308159Y399315D01*
X308126Y399207D01*
X308096Y399097D01*
X308071Y398987D01*
X308049Y398876D01*
X308032Y398764D01*
X308018Y398651D01*
X308008Y398538D01*
X308002Y398425D01*
X308000Y398312D01*
X302808Y398961D02*
X302808Y395066D01*
X302808Y398961D02*
X302810Y399062D01*
X302816Y399162D01*
X302826Y399262D01*
X302839Y399362D01*
X302857Y399461D01*
X302878Y399560D01*
X302903Y399657D01*
X302932Y399754D01*
X302965Y399849D01*
X303001Y399943D01*
X303041Y400035D01*
X303084Y400126D01*
X303131Y400215D01*
X303181Y400302D01*
X303235Y400388D01*
X303292Y400471D01*
X303352Y400551D01*
X303415Y400630D01*
X303482Y400706D01*
X303551Y400779D01*
X303623Y400849D01*
X303697Y400917D01*
X303774Y400982D01*
X303854Y401043D01*
X303936Y401102D01*
X304020Y401157D01*
X304106Y401209D01*
X304194Y401258D01*
X304284Y401303D01*
X304376Y401345D01*
X304469Y401383D01*
X304564Y401417D01*
X304659Y401448D01*
X304756Y401475D01*
X304854Y401498D01*
X304953Y401518D01*
X305053Y401533D01*
X305153Y401545D01*
X305253Y401553D01*
X305354Y401557D01*
X305454Y401557D01*
X305555Y401553D01*
X305655Y401545D01*
X305755Y401533D01*
X305855Y401518D01*
X305954Y401498D01*
X306052Y401475D01*
X306149Y401448D01*
X306244Y401417D01*
X306339Y401383D01*
X306432Y401345D01*
X306524Y401303D01*
X306614Y401258D01*
X306702Y401209D01*
X306788Y401157D01*
X306872Y401102D01*
X306954Y401043D01*
X307034Y400982D01*
X307111Y400917D01*
X307185Y400849D01*
X307257Y400779D01*
X307326Y400706D01*
X307393Y400630D01*
X307456Y400551D01*
X307516Y400471D01*
X307573Y400388D01*
X307627Y400302D01*
X307677Y400215D01*
X307724Y400126D01*
X307767Y400035D01*
X307807Y399943D01*
X307843Y399849D01*
X307876Y399754D01*
X307905Y399657D01*
X307930Y399560D01*
X307951Y399461D01*
X307969Y399362D01*
X307982Y399262D01*
X307992Y399162D01*
X307998Y399062D01*
X308000Y398961D01*
X308001Y398961D02*
X308001Y396364D01*
X464492Y390701D02*
X464492Y388104D01*
X464490Y388005D01*
X464484Y387905D01*
X464475Y387806D01*
X464462Y387708D01*
X464445Y387610D01*
X464424Y387512D01*
X464399Y387416D01*
X464371Y387321D01*
X464339Y387227D01*
X464304Y387134D01*
X464265Y387042D01*
X464222Y386952D01*
X464177Y386864D01*
X464127Y386777D01*
X464075Y386693D01*
X464019Y386610D01*
X463961Y386530D01*
X463899Y386452D01*
X463834Y386377D01*
X463766Y386304D01*
X463696Y386234D01*
X463623Y386166D01*
X463548Y386101D01*
X463470Y386039D01*
X463390Y385981D01*
X463307Y385925D01*
X463223Y385873D01*
X463136Y385823D01*
X463048Y385778D01*
X462958Y385735D01*
X462866Y385696D01*
X462773Y385661D01*
X462679Y385629D01*
X462584Y385601D01*
X462488Y385576D01*
X462390Y385555D01*
X462292Y385538D01*
X462194Y385525D01*
X462095Y385516D01*
X461995Y385510D01*
X461896Y385508D01*
X455404Y385508D01*
X455305Y385510D01*
X455205Y385516D01*
X455106Y385525D01*
X455008Y385538D01*
X454910Y385556D01*
X454812Y385576D01*
X454716Y385601D01*
X454620Y385629D01*
X454526Y385661D01*
X454433Y385696D01*
X454342Y385735D01*
X454252Y385778D01*
X454163Y385823D01*
X454077Y385873D01*
X453992Y385925D01*
X453910Y385981D01*
X453830Y386040D01*
X453752Y386101D01*
X453676Y386166D01*
X453603Y386234D01*
X453533Y386304D01*
X453465Y386377D01*
X453400Y386453D01*
X453339Y386531D01*
X453280Y386611D01*
X453224Y386693D01*
X453172Y386778D01*
X453123Y386864D01*
X453077Y386953D01*
X453034Y387043D01*
X452995Y387134D01*
X452960Y387227D01*
X452928Y387321D01*
X452900Y387417D01*
X452875Y387513D01*
X452855Y387611D01*
X452837Y387709D01*
X452824Y387807D01*
X452815Y387906D01*
X452809Y388005D01*
X452807Y388105D01*
X452808Y388104D02*
X452808Y390701D01*
X452808Y397663D02*
X461896Y395066D01*
X461896Y401557D01*
X459299Y399610D02*
X464492Y399610D01*
D12*
X550000Y365000D02*
X550000Y361000D01*
X550000Y365000D02*
X554000Y365000D01*
X576000Y365000D02*
X580000Y365000D01*
X580000Y361000D01*
X550000Y339000D02*
X550000Y335000D01*
X554000Y335000D01*
X576000Y335000D02*
X580000Y335000D01*
X580000Y339000D01*
D13*
X543750Y364000D02*
X543752Y364070D01*
X543758Y364140D01*
X543768Y364209D01*
X543781Y364278D01*
X543799Y364346D01*
X543820Y364413D01*
X543845Y364478D01*
X543874Y364542D01*
X543906Y364605D01*
X543942Y364665D01*
X543981Y364723D01*
X544023Y364779D01*
X544068Y364833D01*
X544116Y364884D01*
X544167Y364932D01*
X544221Y364977D01*
X544277Y365019D01*
X544335Y365058D01*
X544395Y365094D01*
X544458Y365126D01*
X544522Y365155D01*
X544587Y365180D01*
X544654Y365201D01*
X544722Y365219D01*
X544791Y365232D01*
X544860Y365242D01*
X544930Y365248D01*
X545000Y365250D01*
X545070Y365248D01*
X545140Y365242D01*
X545209Y365232D01*
X545278Y365219D01*
X545346Y365201D01*
X545413Y365180D01*
X545478Y365155D01*
X545542Y365126D01*
X545605Y365094D01*
X545665Y365058D01*
X545723Y365019D01*
X545779Y364977D01*
X545833Y364932D01*
X545884Y364884D01*
X545932Y364833D01*
X545977Y364779D01*
X546019Y364723D01*
X546058Y364665D01*
X546094Y364605D01*
X546126Y364542D01*
X546155Y364478D01*
X546180Y364413D01*
X546201Y364346D01*
X546219Y364278D01*
X546232Y364209D01*
X546242Y364140D01*
X546248Y364070D01*
X546250Y364000D01*
X546248Y363930D01*
X546242Y363860D01*
X546232Y363791D01*
X546219Y363722D01*
X546201Y363654D01*
X546180Y363587D01*
X546155Y363522D01*
X546126Y363458D01*
X546094Y363395D01*
X546058Y363335D01*
X546019Y363277D01*
X545977Y363221D01*
X545932Y363167D01*
X545884Y363116D01*
X545833Y363068D01*
X545779Y363023D01*
X545723Y362981D01*
X545665Y362942D01*
X545605Y362906D01*
X545542Y362874D01*
X545478Y362845D01*
X545413Y362820D01*
X545346Y362799D01*
X545278Y362781D01*
X545209Y362768D01*
X545140Y362758D01*
X545070Y362752D01*
X545000Y362750D01*
X544930Y362752D01*
X544860Y362758D01*
X544791Y362768D01*
X544722Y362781D01*
X544654Y362799D01*
X544587Y362820D01*
X544522Y362845D01*
X544458Y362874D01*
X544395Y362906D01*
X544335Y362942D01*
X544277Y362981D01*
X544221Y363023D01*
X544167Y363068D01*
X544116Y363116D01*
X544068Y363167D01*
X544023Y363221D01*
X543981Y363277D01*
X543942Y363335D01*
X543906Y363395D01*
X543874Y363458D01*
X543845Y363522D01*
X543820Y363587D01*
X543799Y363654D01*
X543781Y363722D01*
X543768Y363791D01*
X543758Y363860D01*
X543752Y363930D01*
X543750Y364000D01*
D10*
X569492Y290701D02*
X569492Y288104D01*
X569490Y288005D01*
X569484Y287905D01*
X569475Y287806D01*
X569462Y287708D01*
X569445Y287610D01*
X569424Y287512D01*
X569399Y287416D01*
X569371Y287321D01*
X569339Y287227D01*
X569304Y287134D01*
X569265Y287042D01*
X569222Y286952D01*
X569177Y286864D01*
X569127Y286777D01*
X569075Y286693D01*
X569019Y286610D01*
X568961Y286530D01*
X568899Y286452D01*
X568834Y286377D01*
X568766Y286304D01*
X568696Y286234D01*
X568623Y286166D01*
X568548Y286101D01*
X568470Y286039D01*
X568390Y285981D01*
X568307Y285925D01*
X568223Y285873D01*
X568136Y285823D01*
X568048Y285778D01*
X567958Y285735D01*
X567866Y285696D01*
X567773Y285661D01*
X567679Y285629D01*
X567584Y285601D01*
X567488Y285576D01*
X567390Y285555D01*
X567292Y285538D01*
X567194Y285525D01*
X567095Y285516D01*
X566995Y285510D01*
X566896Y285508D01*
X560404Y285508D01*
X560305Y285510D01*
X560205Y285516D01*
X560106Y285525D01*
X560008Y285538D01*
X559910Y285556D01*
X559812Y285576D01*
X559716Y285601D01*
X559620Y285629D01*
X559526Y285661D01*
X559433Y285696D01*
X559342Y285735D01*
X559252Y285778D01*
X559163Y285823D01*
X559077Y285873D01*
X558992Y285925D01*
X558910Y285981D01*
X558830Y286040D01*
X558752Y286101D01*
X558676Y286166D01*
X558603Y286234D01*
X558533Y286304D01*
X558465Y286377D01*
X558400Y286453D01*
X558339Y286531D01*
X558280Y286611D01*
X558224Y286693D01*
X558172Y286778D01*
X558123Y286864D01*
X558077Y286953D01*
X558034Y287043D01*
X557995Y287134D01*
X557960Y287227D01*
X557928Y287321D01*
X557900Y287417D01*
X557875Y287513D01*
X557855Y287611D01*
X557837Y287709D01*
X557824Y287807D01*
X557815Y287906D01*
X557809Y288005D01*
X557807Y288105D01*
X557808Y288104D02*
X557808Y290701D01*
X569492Y295066D02*
X569492Y298961D01*
X569490Y299060D01*
X569484Y299160D01*
X569475Y299259D01*
X569462Y299357D01*
X569445Y299455D01*
X569424Y299553D01*
X569399Y299649D01*
X569371Y299744D01*
X569339Y299838D01*
X569304Y299931D01*
X569265Y300023D01*
X569222Y300113D01*
X569177Y300201D01*
X569127Y300288D01*
X569075Y300372D01*
X569019Y300455D01*
X568961Y300535D01*
X568899Y300613D01*
X568834Y300688D01*
X568766Y300761D01*
X568696Y300831D01*
X568623Y300899D01*
X568548Y300964D01*
X568470Y301026D01*
X568390Y301084D01*
X568307Y301140D01*
X568223Y301192D01*
X568136Y301242D01*
X568048Y301287D01*
X567958Y301330D01*
X567866Y301369D01*
X567773Y301404D01*
X567679Y301436D01*
X567584Y301464D01*
X567488Y301489D01*
X567390Y301510D01*
X567292Y301527D01*
X567194Y301540D01*
X567095Y301549D01*
X566995Y301555D01*
X566896Y301557D01*
X565597Y301557D01*
X565498Y301555D01*
X565398Y301549D01*
X565299Y301540D01*
X565201Y301527D01*
X565103Y301510D01*
X565005Y301489D01*
X564909Y301464D01*
X564814Y301436D01*
X564720Y301404D01*
X564627Y301369D01*
X564535Y301330D01*
X564445Y301287D01*
X564357Y301242D01*
X564270Y301192D01*
X564186Y301140D01*
X564103Y301084D01*
X564023Y301026D01*
X563945Y300964D01*
X563870Y300899D01*
X563797Y300831D01*
X563727Y300761D01*
X563659Y300688D01*
X563594Y300613D01*
X563532Y300535D01*
X563474Y300455D01*
X563418Y300372D01*
X563366Y300288D01*
X563316Y300201D01*
X563271Y300113D01*
X563228Y300023D01*
X563189Y299931D01*
X563154Y299838D01*
X563122Y299744D01*
X563094Y299649D01*
X563069Y299553D01*
X563048Y299455D01*
X563031Y299357D01*
X563018Y299259D01*
X563009Y299160D01*
X563003Y299060D01*
X563001Y298961D01*
X563001Y295066D01*
X557808Y295066D01*
X557808Y301557D01*
X592808Y285508D02*
X604492Y285508D01*
X592808Y285508D02*
X592808Y288754D01*
X592810Y288867D01*
X592816Y288980D01*
X592826Y289093D01*
X592840Y289206D01*
X592857Y289318D01*
X592879Y289429D01*
X592904Y289539D01*
X592934Y289649D01*
X592967Y289757D01*
X593004Y289864D01*
X593044Y289970D01*
X593089Y290074D01*
X593137Y290177D01*
X593188Y290278D01*
X593243Y290377D01*
X593301Y290474D01*
X593363Y290569D01*
X593428Y290662D01*
X593496Y290752D01*
X593567Y290840D01*
X593642Y290926D01*
X593719Y291009D01*
X593799Y291089D01*
X593882Y291166D01*
X593968Y291241D01*
X594056Y291312D01*
X594146Y291380D01*
X594239Y291445D01*
X594334Y291507D01*
X594431Y291565D01*
X594530Y291620D01*
X594631Y291671D01*
X594734Y291719D01*
X594838Y291764D01*
X594944Y291804D01*
X595051Y291841D01*
X595159Y291874D01*
X595269Y291904D01*
X595379Y291929D01*
X595490Y291951D01*
X595602Y291968D01*
X595715Y291982D01*
X595828Y291992D01*
X595941Y291998D01*
X596054Y292000D01*
X596167Y291998D01*
X596280Y291992D01*
X596393Y291982D01*
X596506Y291968D01*
X596618Y291951D01*
X596729Y291929D01*
X596839Y291904D01*
X596949Y291874D01*
X597057Y291841D01*
X597164Y291804D01*
X597270Y291764D01*
X597374Y291719D01*
X597477Y291671D01*
X597578Y291620D01*
X597677Y291565D01*
X597774Y291507D01*
X597869Y291445D01*
X597962Y291380D01*
X598052Y291312D01*
X598140Y291241D01*
X598226Y291166D01*
X598309Y291089D01*
X598389Y291009D01*
X598466Y290926D01*
X598541Y290840D01*
X598612Y290752D01*
X598680Y290662D01*
X598745Y290569D01*
X598807Y290474D01*
X598865Y290377D01*
X598920Y290278D01*
X598971Y290177D01*
X599019Y290074D01*
X599064Y289970D01*
X599104Y289864D01*
X599141Y289757D01*
X599174Y289649D01*
X599204Y289539D01*
X599229Y289429D01*
X599251Y289318D01*
X599268Y289206D01*
X599282Y289093D01*
X599292Y288980D01*
X599298Y288867D01*
X599300Y288754D01*
X599299Y288754D02*
X599299Y285508D01*
X599299Y289403D02*
X604492Y291999D01*
X604492Y296864D02*
X604492Y300110D01*
X604490Y300223D01*
X604484Y300336D01*
X604474Y300449D01*
X604460Y300562D01*
X604443Y300674D01*
X604421Y300785D01*
X604396Y300895D01*
X604366Y301005D01*
X604333Y301113D01*
X604296Y301220D01*
X604256Y301326D01*
X604211Y301430D01*
X604163Y301533D01*
X604112Y301634D01*
X604057Y301733D01*
X603999Y301830D01*
X603937Y301925D01*
X603872Y302018D01*
X603804Y302108D01*
X603733Y302196D01*
X603658Y302282D01*
X603581Y302365D01*
X603501Y302445D01*
X603418Y302522D01*
X603332Y302597D01*
X603244Y302668D01*
X603154Y302736D01*
X603061Y302801D01*
X602966Y302863D01*
X602869Y302921D01*
X602770Y302976D01*
X602669Y303027D01*
X602566Y303075D01*
X602462Y303120D01*
X602356Y303160D01*
X602249Y303197D01*
X602141Y303230D01*
X602031Y303260D01*
X601921Y303285D01*
X601810Y303307D01*
X601698Y303324D01*
X601585Y303338D01*
X601472Y303348D01*
X601359Y303354D01*
X601246Y303356D01*
X601133Y303354D01*
X601020Y303348D01*
X600907Y303338D01*
X600794Y303324D01*
X600682Y303307D01*
X600571Y303285D01*
X600461Y303260D01*
X600351Y303230D01*
X600243Y303197D01*
X600136Y303160D01*
X600030Y303120D01*
X599926Y303075D01*
X599823Y303027D01*
X599722Y302976D01*
X599623Y302921D01*
X599526Y302863D01*
X599431Y302801D01*
X599338Y302736D01*
X599248Y302668D01*
X599160Y302597D01*
X599074Y302522D01*
X598991Y302445D01*
X598911Y302365D01*
X598834Y302282D01*
X598759Y302196D01*
X598688Y302108D01*
X598620Y302018D01*
X598555Y301925D01*
X598493Y301830D01*
X598435Y301733D01*
X598380Y301634D01*
X598329Y301533D01*
X598281Y301430D01*
X598236Y301326D01*
X598196Y301220D01*
X598159Y301113D01*
X598126Y301005D01*
X598096Y300895D01*
X598071Y300785D01*
X598049Y300674D01*
X598032Y300562D01*
X598018Y300449D01*
X598008Y300336D01*
X598002Y300223D01*
X598000Y300110D01*
X592808Y300759D02*
X592808Y296864D01*
X592808Y300759D02*
X592810Y300860D01*
X592816Y300960D01*
X592826Y301060D01*
X592839Y301160D01*
X592857Y301259D01*
X592878Y301358D01*
X592903Y301455D01*
X592932Y301552D01*
X592965Y301647D01*
X593001Y301741D01*
X593041Y301833D01*
X593084Y301924D01*
X593131Y302013D01*
X593181Y302100D01*
X593235Y302186D01*
X593292Y302269D01*
X593352Y302349D01*
X593415Y302428D01*
X593482Y302504D01*
X593551Y302577D01*
X593623Y302647D01*
X593697Y302715D01*
X593774Y302780D01*
X593854Y302841D01*
X593936Y302900D01*
X594020Y302955D01*
X594106Y303007D01*
X594194Y303056D01*
X594284Y303101D01*
X594376Y303143D01*
X594469Y303181D01*
X594564Y303215D01*
X594659Y303246D01*
X594756Y303273D01*
X594854Y303296D01*
X594953Y303316D01*
X595053Y303331D01*
X595153Y303343D01*
X595253Y303351D01*
X595354Y303355D01*
X595454Y303355D01*
X595555Y303351D01*
X595655Y303343D01*
X595755Y303331D01*
X595855Y303316D01*
X595954Y303296D01*
X596052Y303273D01*
X596149Y303246D01*
X596244Y303215D01*
X596339Y303181D01*
X596432Y303143D01*
X596524Y303101D01*
X596614Y303056D01*
X596702Y303007D01*
X596788Y302955D01*
X596872Y302900D01*
X596954Y302841D01*
X597034Y302780D01*
X597111Y302715D01*
X597185Y302647D01*
X597257Y302577D01*
X597326Y302504D01*
X597393Y302428D01*
X597456Y302349D01*
X597516Y302269D01*
X597573Y302186D01*
X597627Y302100D01*
X597677Y302013D01*
X597724Y301924D01*
X597767Y301833D01*
X597807Y301741D01*
X597843Y301647D01*
X597876Y301552D01*
X597905Y301455D01*
X597930Y301358D01*
X597951Y301259D01*
X597969Y301160D01*
X597982Y301060D01*
X597992Y300960D01*
X597998Y300860D01*
X598000Y300759D01*
X598001Y300759D02*
X598001Y298163D01*
X534492Y285508D02*
X522808Y285508D01*
X522808Y288754D01*
X522810Y288867D01*
X522816Y288980D01*
X522826Y289093D01*
X522840Y289206D01*
X522857Y289318D01*
X522879Y289429D01*
X522904Y289539D01*
X522934Y289649D01*
X522967Y289757D01*
X523004Y289864D01*
X523044Y289970D01*
X523089Y290074D01*
X523137Y290177D01*
X523188Y290278D01*
X523243Y290377D01*
X523301Y290474D01*
X523363Y290569D01*
X523428Y290662D01*
X523496Y290752D01*
X523567Y290840D01*
X523642Y290926D01*
X523719Y291009D01*
X523799Y291089D01*
X523882Y291166D01*
X523968Y291241D01*
X524056Y291312D01*
X524146Y291380D01*
X524239Y291445D01*
X524334Y291507D01*
X524431Y291565D01*
X524530Y291620D01*
X524631Y291671D01*
X524734Y291719D01*
X524838Y291764D01*
X524944Y291804D01*
X525051Y291841D01*
X525159Y291874D01*
X525269Y291904D01*
X525379Y291929D01*
X525490Y291951D01*
X525602Y291968D01*
X525715Y291982D01*
X525828Y291992D01*
X525941Y291998D01*
X526054Y292000D01*
X526167Y291998D01*
X526280Y291992D01*
X526393Y291982D01*
X526506Y291968D01*
X526618Y291951D01*
X526729Y291929D01*
X526839Y291904D01*
X526949Y291874D01*
X527057Y291841D01*
X527164Y291804D01*
X527270Y291764D01*
X527374Y291719D01*
X527477Y291671D01*
X527578Y291620D01*
X527677Y291565D01*
X527774Y291507D01*
X527869Y291445D01*
X527962Y291380D01*
X528052Y291312D01*
X528140Y291241D01*
X528226Y291166D01*
X528309Y291089D01*
X528389Y291009D01*
X528466Y290926D01*
X528541Y290840D01*
X528612Y290752D01*
X528680Y290662D01*
X528745Y290569D01*
X528807Y290474D01*
X528865Y290377D01*
X528920Y290278D01*
X528971Y290177D01*
X529019Y290074D01*
X529064Y289970D01*
X529104Y289864D01*
X529141Y289757D01*
X529174Y289649D01*
X529204Y289539D01*
X529229Y289429D01*
X529251Y289318D01*
X529268Y289206D01*
X529282Y289093D01*
X529292Y288980D01*
X529298Y288867D01*
X529300Y288754D01*
X529299Y288754D02*
X529299Y285508D01*
X529299Y289403D02*
X534492Y291999D01*
X531896Y296864D02*
X522808Y299461D01*
X531896Y296864D02*
X531896Y303355D01*
X529299Y301408D02*
X534492Y301408D01*
X419492Y335508D02*
X407808Y335508D01*
X407808Y338754D01*
X407810Y338867D01*
X407816Y338980D01*
X407826Y339093D01*
X407840Y339206D01*
X407857Y339318D01*
X407879Y339429D01*
X407904Y339539D01*
X407934Y339649D01*
X407967Y339757D01*
X408004Y339864D01*
X408044Y339970D01*
X408089Y340074D01*
X408137Y340177D01*
X408188Y340278D01*
X408243Y340377D01*
X408301Y340474D01*
X408363Y340569D01*
X408428Y340662D01*
X408496Y340752D01*
X408567Y340840D01*
X408642Y340926D01*
X408719Y341009D01*
X408799Y341089D01*
X408882Y341166D01*
X408968Y341241D01*
X409056Y341312D01*
X409146Y341380D01*
X409239Y341445D01*
X409334Y341507D01*
X409431Y341565D01*
X409530Y341620D01*
X409631Y341671D01*
X409734Y341719D01*
X409838Y341764D01*
X409944Y341804D01*
X410051Y341841D01*
X410159Y341874D01*
X410269Y341904D01*
X410379Y341929D01*
X410490Y341951D01*
X410602Y341968D01*
X410715Y341982D01*
X410828Y341992D01*
X410941Y341998D01*
X411054Y342000D01*
X411167Y341998D01*
X411280Y341992D01*
X411393Y341982D01*
X411506Y341968D01*
X411618Y341951D01*
X411729Y341929D01*
X411839Y341904D01*
X411949Y341874D01*
X412057Y341841D01*
X412164Y341804D01*
X412270Y341764D01*
X412374Y341719D01*
X412477Y341671D01*
X412578Y341620D01*
X412677Y341565D01*
X412774Y341507D01*
X412869Y341445D01*
X412962Y341380D01*
X413052Y341312D01*
X413140Y341241D01*
X413226Y341166D01*
X413309Y341089D01*
X413389Y341009D01*
X413466Y340926D01*
X413541Y340840D01*
X413612Y340752D01*
X413680Y340662D01*
X413745Y340569D01*
X413807Y340474D01*
X413865Y340377D01*
X413920Y340278D01*
X413971Y340177D01*
X414019Y340074D01*
X414064Y339970D01*
X414104Y339864D01*
X414141Y339757D01*
X414174Y339649D01*
X414204Y339539D01*
X414229Y339429D01*
X414251Y339318D01*
X414268Y339206D01*
X414282Y339093D01*
X414292Y338980D01*
X414298Y338867D01*
X414300Y338754D01*
X414299Y338754D02*
X414299Y335508D01*
X414299Y339403D02*
X419492Y341999D01*
X419492Y346864D02*
X419492Y350759D01*
X419490Y350858D01*
X419484Y350958D01*
X419475Y351057D01*
X419462Y351155D01*
X419445Y351253D01*
X419424Y351351D01*
X419399Y351447D01*
X419371Y351542D01*
X419339Y351636D01*
X419304Y351729D01*
X419265Y351821D01*
X419222Y351911D01*
X419177Y351999D01*
X419127Y352086D01*
X419075Y352170D01*
X419019Y352253D01*
X418961Y352333D01*
X418899Y352411D01*
X418834Y352486D01*
X418766Y352559D01*
X418696Y352629D01*
X418623Y352697D01*
X418548Y352762D01*
X418470Y352824D01*
X418390Y352882D01*
X418307Y352938D01*
X418223Y352990D01*
X418136Y353040D01*
X418048Y353085D01*
X417958Y353128D01*
X417866Y353167D01*
X417773Y353202D01*
X417679Y353234D01*
X417584Y353262D01*
X417488Y353287D01*
X417390Y353308D01*
X417292Y353325D01*
X417194Y353338D01*
X417095Y353347D01*
X416995Y353353D01*
X416896Y353355D01*
X415597Y353355D01*
X415498Y353353D01*
X415398Y353347D01*
X415299Y353338D01*
X415201Y353325D01*
X415103Y353308D01*
X415005Y353287D01*
X414909Y353262D01*
X414814Y353234D01*
X414720Y353202D01*
X414627Y353167D01*
X414535Y353128D01*
X414445Y353085D01*
X414357Y353040D01*
X414270Y352990D01*
X414186Y352938D01*
X414103Y352882D01*
X414023Y352824D01*
X413945Y352762D01*
X413870Y352697D01*
X413797Y352629D01*
X413727Y352559D01*
X413659Y352486D01*
X413594Y352411D01*
X413532Y352333D01*
X413474Y352253D01*
X413418Y352170D01*
X413366Y352086D01*
X413316Y351999D01*
X413271Y351911D01*
X413228Y351821D01*
X413189Y351729D01*
X413154Y351636D01*
X413122Y351542D01*
X413094Y351447D01*
X413069Y351351D01*
X413048Y351253D01*
X413031Y351155D01*
X413018Y351057D01*
X413009Y350958D01*
X413003Y350858D01*
X413001Y350759D01*
X413001Y346864D01*
X407808Y346864D01*
X407808Y353355D01*
X499492Y438104D02*
X499492Y440701D01*
X499492Y438104D02*
X499490Y438005D01*
X499484Y437905D01*
X499475Y437806D01*
X499462Y437708D01*
X499445Y437610D01*
X499424Y437512D01*
X499399Y437416D01*
X499371Y437321D01*
X499339Y437227D01*
X499304Y437134D01*
X499265Y437042D01*
X499222Y436952D01*
X499177Y436864D01*
X499127Y436777D01*
X499075Y436693D01*
X499019Y436610D01*
X498961Y436530D01*
X498899Y436452D01*
X498834Y436377D01*
X498766Y436304D01*
X498696Y436234D01*
X498623Y436166D01*
X498548Y436101D01*
X498470Y436039D01*
X498390Y435981D01*
X498307Y435925D01*
X498223Y435873D01*
X498136Y435823D01*
X498048Y435778D01*
X497958Y435735D01*
X497866Y435696D01*
X497773Y435661D01*
X497679Y435629D01*
X497584Y435601D01*
X497488Y435576D01*
X497390Y435555D01*
X497292Y435538D01*
X497194Y435525D01*
X497095Y435516D01*
X496995Y435510D01*
X496896Y435508D01*
X490404Y435508D01*
X490305Y435510D01*
X490205Y435516D01*
X490106Y435525D01*
X490008Y435538D01*
X489910Y435556D01*
X489812Y435576D01*
X489716Y435601D01*
X489620Y435629D01*
X489526Y435661D01*
X489433Y435696D01*
X489342Y435735D01*
X489252Y435778D01*
X489163Y435823D01*
X489077Y435873D01*
X488992Y435925D01*
X488910Y435981D01*
X488830Y436040D01*
X488752Y436101D01*
X488676Y436166D01*
X488603Y436234D01*
X488533Y436304D01*
X488465Y436377D01*
X488400Y436453D01*
X488339Y436531D01*
X488280Y436611D01*
X488224Y436693D01*
X488172Y436778D01*
X488123Y436864D01*
X488077Y436953D01*
X488034Y437043D01*
X487995Y437134D01*
X487960Y437227D01*
X487928Y437321D01*
X487900Y437417D01*
X487875Y437513D01*
X487855Y437611D01*
X487837Y437709D01*
X487824Y437807D01*
X487815Y437906D01*
X487809Y438005D01*
X487807Y438105D01*
X487808Y438104D02*
X487808Y440701D01*
X493001Y445066D02*
X493001Y448961D01*
X493003Y449060D01*
X493009Y449160D01*
X493018Y449259D01*
X493031Y449357D01*
X493048Y449455D01*
X493069Y449553D01*
X493094Y449649D01*
X493122Y449744D01*
X493154Y449838D01*
X493189Y449931D01*
X493228Y450023D01*
X493271Y450113D01*
X493316Y450201D01*
X493366Y450288D01*
X493418Y450372D01*
X493474Y450455D01*
X493532Y450535D01*
X493594Y450613D01*
X493659Y450688D01*
X493727Y450761D01*
X493797Y450831D01*
X493870Y450899D01*
X493945Y450964D01*
X494023Y451026D01*
X494103Y451084D01*
X494186Y451140D01*
X494270Y451192D01*
X494357Y451242D01*
X494445Y451287D01*
X494535Y451330D01*
X494627Y451369D01*
X494720Y451404D01*
X494814Y451436D01*
X494909Y451464D01*
X495005Y451489D01*
X495103Y451510D01*
X495201Y451527D01*
X495299Y451540D01*
X495398Y451549D01*
X495498Y451555D01*
X495597Y451557D01*
X496246Y451557D01*
X496246Y451558D02*
X496359Y451556D01*
X496472Y451550D01*
X496585Y451540D01*
X496698Y451526D01*
X496810Y451509D01*
X496921Y451487D01*
X497031Y451462D01*
X497141Y451432D01*
X497249Y451399D01*
X497356Y451362D01*
X497462Y451322D01*
X497566Y451277D01*
X497669Y451229D01*
X497770Y451178D01*
X497869Y451123D01*
X497966Y451065D01*
X498061Y451003D01*
X498154Y450938D01*
X498244Y450870D01*
X498332Y450799D01*
X498418Y450724D01*
X498501Y450647D01*
X498581Y450567D01*
X498658Y450484D01*
X498733Y450398D01*
X498804Y450310D01*
X498872Y450220D01*
X498937Y450127D01*
X498999Y450032D01*
X499057Y449935D01*
X499112Y449836D01*
X499163Y449735D01*
X499211Y449632D01*
X499256Y449528D01*
X499296Y449422D01*
X499333Y449315D01*
X499366Y449207D01*
X499396Y449097D01*
X499421Y448987D01*
X499443Y448876D01*
X499460Y448764D01*
X499474Y448651D01*
X499484Y448538D01*
X499490Y448425D01*
X499492Y448312D01*
X499490Y448199D01*
X499484Y448086D01*
X499474Y447973D01*
X499460Y447860D01*
X499443Y447748D01*
X499421Y447637D01*
X499396Y447527D01*
X499366Y447417D01*
X499333Y447309D01*
X499296Y447202D01*
X499256Y447096D01*
X499211Y446992D01*
X499163Y446889D01*
X499112Y446788D01*
X499057Y446689D01*
X498999Y446592D01*
X498937Y446497D01*
X498872Y446404D01*
X498804Y446314D01*
X498733Y446226D01*
X498658Y446140D01*
X498581Y446057D01*
X498501Y445977D01*
X498418Y445900D01*
X498332Y445825D01*
X498244Y445754D01*
X498154Y445686D01*
X498061Y445621D01*
X497966Y445559D01*
X497869Y445501D01*
X497770Y445446D01*
X497669Y445395D01*
X497566Y445347D01*
X497462Y445302D01*
X497356Y445262D01*
X497249Y445225D01*
X497141Y445192D01*
X497031Y445162D01*
X496921Y445137D01*
X496810Y445115D01*
X496698Y445098D01*
X496585Y445084D01*
X496472Y445074D01*
X496359Y445068D01*
X496246Y445066D01*
X493001Y445066D01*
X492858Y445068D01*
X492715Y445074D01*
X492572Y445084D01*
X492430Y445098D01*
X492288Y445115D01*
X492146Y445137D01*
X492005Y445162D01*
X491865Y445192D01*
X491726Y445225D01*
X491588Y445262D01*
X491451Y445303D01*
X491315Y445347D01*
X491180Y445396D01*
X491047Y445448D01*
X490915Y445503D01*
X490785Y445563D01*
X490656Y445626D01*
X490529Y445692D01*
X490405Y445762D01*
X490282Y445835D01*
X490161Y445912D01*
X490042Y445991D01*
X489926Y446075D01*
X489811Y446161D01*
X489700Y446250D01*
X489591Y446343D01*
X489484Y446438D01*
X489380Y446537D01*
X489279Y446638D01*
X489180Y446742D01*
X489085Y446848D01*
X488992Y446958D01*
X488903Y447069D01*
X488817Y447183D01*
X488734Y447300D01*
X488654Y447419D01*
X488577Y447540D01*
X488504Y447662D01*
X488434Y447787D01*
X488368Y447914D01*
X488305Y448043D01*
X488245Y448173D01*
X488190Y448305D01*
X488138Y448438D01*
X488089Y448573D01*
X488045Y448709D01*
X488004Y448846D01*
X487967Y448984D01*
X487934Y449123D01*
X487904Y449263D01*
X487879Y449404D01*
X487857Y449546D01*
X487840Y449688D01*
X487826Y449830D01*
X487816Y449973D01*
X487810Y450116D01*
X487808Y450259D01*
X604492Y345701D02*
X604492Y343104D01*
X604490Y343005D01*
X604484Y342905D01*
X604475Y342806D01*
X604462Y342708D01*
X604445Y342610D01*
X604424Y342512D01*
X604399Y342416D01*
X604371Y342321D01*
X604339Y342227D01*
X604304Y342134D01*
X604265Y342042D01*
X604222Y341952D01*
X604177Y341864D01*
X604127Y341777D01*
X604075Y341693D01*
X604019Y341610D01*
X603961Y341530D01*
X603899Y341452D01*
X603834Y341377D01*
X603766Y341304D01*
X603696Y341234D01*
X603623Y341166D01*
X603548Y341101D01*
X603470Y341039D01*
X603390Y340981D01*
X603307Y340925D01*
X603223Y340873D01*
X603136Y340823D01*
X603048Y340778D01*
X602958Y340735D01*
X602866Y340696D01*
X602773Y340661D01*
X602679Y340629D01*
X602584Y340601D01*
X602488Y340576D01*
X602390Y340555D01*
X602292Y340538D01*
X602194Y340525D01*
X602095Y340516D01*
X601995Y340510D01*
X601896Y340508D01*
X595404Y340508D01*
X595305Y340510D01*
X595205Y340516D01*
X595106Y340525D01*
X595008Y340538D01*
X594910Y340556D01*
X594812Y340576D01*
X594716Y340601D01*
X594620Y340629D01*
X594526Y340661D01*
X594433Y340696D01*
X594342Y340735D01*
X594252Y340778D01*
X594163Y340823D01*
X594077Y340873D01*
X593992Y340925D01*
X593910Y340981D01*
X593830Y341040D01*
X593752Y341101D01*
X593676Y341166D01*
X593603Y341234D01*
X593533Y341304D01*
X593465Y341377D01*
X593400Y341453D01*
X593339Y341531D01*
X593280Y341611D01*
X593224Y341693D01*
X593172Y341778D01*
X593123Y341864D01*
X593077Y341953D01*
X593034Y342043D01*
X592995Y342134D01*
X592960Y342227D01*
X592928Y342321D01*
X592900Y342417D01*
X592875Y342513D01*
X592855Y342611D01*
X592837Y342709D01*
X592824Y342807D01*
X592815Y342906D01*
X592809Y343005D01*
X592807Y343105D01*
X592808Y343104D02*
X592808Y345701D01*
X592808Y350066D02*
X594106Y350066D01*
X592808Y350066D02*
X592808Y356557D01*
X604492Y353312D01*
D12*
X550000Y411000D02*
X550000Y415000D01*
X554000Y415000D01*
X576000Y415000D02*
X580000Y415000D01*
X580000Y411000D01*
X550000Y389000D02*
X550000Y385000D01*
X554000Y385000D01*
X576000Y385000D02*
X580000Y385000D01*
X580000Y389000D01*
D13*
X543750Y414000D02*
X543752Y414070D01*
X543758Y414140D01*
X543768Y414209D01*
X543781Y414278D01*
X543799Y414346D01*
X543820Y414413D01*
X543845Y414478D01*
X543874Y414542D01*
X543906Y414605D01*
X543942Y414665D01*
X543981Y414723D01*
X544023Y414779D01*
X544068Y414833D01*
X544116Y414884D01*
X544167Y414932D01*
X544221Y414977D01*
X544277Y415019D01*
X544335Y415058D01*
X544395Y415094D01*
X544458Y415126D01*
X544522Y415155D01*
X544587Y415180D01*
X544654Y415201D01*
X544722Y415219D01*
X544791Y415232D01*
X544860Y415242D01*
X544930Y415248D01*
X545000Y415250D01*
X545070Y415248D01*
X545140Y415242D01*
X545209Y415232D01*
X545278Y415219D01*
X545346Y415201D01*
X545413Y415180D01*
X545478Y415155D01*
X545542Y415126D01*
X545605Y415094D01*
X545665Y415058D01*
X545723Y415019D01*
X545779Y414977D01*
X545833Y414932D01*
X545884Y414884D01*
X545932Y414833D01*
X545977Y414779D01*
X546019Y414723D01*
X546058Y414665D01*
X546094Y414605D01*
X546126Y414542D01*
X546155Y414478D01*
X546180Y414413D01*
X546201Y414346D01*
X546219Y414278D01*
X546232Y414209D01*
X546242Y414140D01*
X546248Y414070D01*
X546250Y414000D01*
X546248Y413930D01*
X546242Y413860D01*
X546232Y413791D01*
X546219Y413722D01*
X546201Y413654D01*
X546180Y413587D01*
X546155Y413522D01*
X546126Y413458D01*
X546094Y413395D01*
X546058Y413335D01*
X546019Y413277D01*
X545977Y413221D01*
X545932Y413167D01*
X545884Y413116D01*
X545833Y413068D01*
X545779Y413023D01*
X545723Y412981D01*
X545665Y412942D01*
X545605Y412906D01*
X545542Y412874D01*
X545478Y412845D01*
X545413Y412820D01*
X545346Y412799D01*
X545278Y412781D01*
X545209Y412768D01*
X545140Y412758D01*
X545070Y412752D01*
X545000Y412750D01*
X544930Y412752D01*
X544860Y412758D01*
X544791Y412768D01*
X544722Y412781D01*
X544654Y412799D01*
X544587Y412820D01*
X544522Y412845D01*
X544458Y412874D01*
X544395Y412906D01*
X544335Y412942D01*
X544277Y412981D01*
X544221Y413023D01*
X544167Y413068D01*
X544116Y413116D01*
X544068Y413167D01*
X544023Y413221D01*
X543981Y413277D01*
X543942Y413335D01*
X543906Y413395D01*
X543874Y413458D01*
X543845Y413522D01*
X543820Y413587D01*
X543799Y413654D01*
X543781Y413722D01*
X543768Y413791D01*
X543758Y413860D01*
X543752Y413930D01*
X543750Y414000D01*
D10*
X604492Y390701D02*
X604492Y388104D01*
X604490Y388005D01*
X604484Y387905D01*
X604475Y387806D01*
X604462Y387708D01*
X604445Y387610D01*
X604424Y387512D01*
X604399Y387416D01*
X604371Y387321D01*
X604339Y387227D01*
X604304Y387134D01*
X604265Y387042D01*
X604222Y386952D01*
X604177Y386864D01*
X604127Y386777D01*
X604075Y386693D01*
X604019Y386610D01*
X603961Y386530D01*
X603899Y386452D01*
X603834Y386377D01*
X603766Y386304D01*
X603696Y386234D01*
X603623Y386166D01*
X603548Y386101D01*
X603470Y386039D01*
X603390Y385981D01*
X603307Y385925D01*
X603223Y385873D01*
X603136Y385823D01*
X603048Y385778D01*
X602958Y385735D01*
X602866Y385696D01*
X602773Y385661D01*
X602679Y385629D01*
X602584Y385601D01*
X602488Y385576D01*
X602390Y385555D01*
X602292Y385538D01*
X602194Y385525D01*
X602095Y385516D01*
X601995Y385510D01*
X601896Y385508D01*
X595404Y385508D01*
X595305Y385510D01*
X595205Y385516D01*
X595106Y385525D01*
X595008Y385538D01*
X594910Y385556D01*
X594812Y385576D01*
X594716Y385601D01*
X594620Y385629D01*
X594526Y385661D01*
X594433Y385696D01*
X594342Y385735D01*
X594252Y385778D01*
X594163Y385823D01*
X594077Y385873D01*
X593992Y385925D01*
X593910Y385981D01*
X593830Y386040D01*
X593752Y386101D01*
X593676Y386166D01*
X593603Y386234D01*
X593533Y386304D01*
X593465Y386377D01*
X593400Y386453D01*
X593339Y386531D01*
X593280Y386611D01*
X593224Y386693D01*
X593172Y386778D01*
X593123Y386864D01*
X593077Y386953D01*
X593034Y387043D01*
X592995Y387134D01*
X592960Y387227D01*
X592928Y387321D01*
X592900Y387417D01*
X592875Y387513D01*
X592855Y387611D01*
X592837Y387709D01*
X592824Y387807D01*
X592815Y387906D01*
X592809Y388005D01*
X592807Y388105D01*
X592808Y388104D02*
X592808Y390701D01*
X595404Y395066D02*
X592808Y398312D01*
X604492Y398312D01*
X604492Y401557D02*
X604492Y395066D01*
X595404Y406496D02*
X592808Y409742D01*
X604492Y409742D01*
X604492Y412987D02*
X604492Y406496D01*
X534492Y438104D02*
X534492Y440701D01*
X534492Y438104D02*
X534490Y438005D01*
X534484Y437905D01*
X534475Y437806D01*
X534462Y437708D01*
X534445Y437610D01*
X534424Y437512D01*
X534399Y437416D01*
X534371Y437321D01*
X534339Y437227D01*
X534304Y437134D01*
X534265Y437042D01*
X534222Y436952D01*
X534177Y436864D01*
X534127Y436777D01*
X534075Y436693D01*
X534019Y436610D01*
X533961Y436530D01*
X533899Y436452D01*
X533834Y436377D01*
X533766Y436304D01*
X533696Y436234D01*
X533623Y436166D01*
X533548Y436101D01*
X533470Y436039D01*
X533390Y435981D01*
X533307Y435925D01*
X533223Y435873D01*
X533136Y435823D01*
X533048Y435778D01*
X532958Y435735D01*
X532866Y435696D01*
X532773Y435661D01*
X532679Y435629D01*
X532584Y435601D01*
X532488Y435576D01*
X532390Y435555D01*
X532292Y435538D01*
X532194Y435525D01*
X532095Y435516D01*
X531995Y435510D01*
X531896Y435508D01*
X525404Y435508D01*
X525305Y435510D01*
X525205Y435516D01*
X525106Y435525D01*
X525008Y435538D01*
X524910Y435556D01*
X524812Y435576D01*
X524716Y435601D01*
X524620Y435629D01*
X524526Y435661D01*
X524433Y435696D01*
X524342Y435735D01*
X524252Y435778D01*
X524163Y435823D01*
X524077Y435873D01*
X523992Y435925D01*
X523910Y435981D01*
X523830Y436040D01*
X523752Y436101D01*
X523676Y436166D01*
X523603Y436234D01*
X523533Y436304D01*
X523465Y436377D01*
X523400Y436453D01*
X523339Y436531D01*
X523280Y436611D01*
X523224Y436693D01*
X523172Y436778D01*
X523123Y436864D01*
X523077Y436953D01*
X523034Y437043D01*
X522995Y437134D01*
X522960Y437227D01*
X522928Y437321D01*
X522900Y437417D01*
X522875Y437513D01*
X522855Y437611D01*
X522837Y437709D01*
X522824Y437807D01*
X522815Y437906D01*
X522809Y438005D01*
X522807Y438105D01*
X522808Y438104D02*
X522808Y440701D01*
X525404Y445066D02*
X522808Y448312D01*
X534492Y448312D01*
X534492Y451557D02*
X534492Y445066D01*
X522808Y460066D02*
X522810Y460173D01*
X522816Y460279D01*
X522826Y460385D01*
X522839Y460491D01*
X522857Y460597D01*
X522878Y460701D01*
X522903Y460805D01*
X522932Y460908D01*
X522964Y461009D01*
X523001Y461109D01*
X523041Y461208D01*
X523084Y461306D01*
X523131Y461402D01*
X523182Y461496D01*
X523236Y461588D01*
X523293Y461678D01*
X523353Y461766D01*
X523417Y461851D01*
X523484Y461934D01*
X523554Y462015D01*
X523626Y462093D01*
X523702Y462169D01*
X523780Y462241D01*
X523861Y462311D01*
X523944Y462378D01*
X524029Y462442D01*
X524117Y462502D01*
X524207Y462559D01*
X524299Y462613D01*
X524393Y462664D01*
X524489Y462711D01*
X524587Y462754D01*
X524686Y462794D01*
X524786Y462831D01*
X524887Y462863D01*
X524990Y462892D01*
X525094Y462917D01*
X525198Y462938D01*
X525304Y462956D01*
X525410Y462969D01*
X525516Y462979D01*
X525622Y462985D01*
X525729Y462987D01*
X522808Y460066D02*
X522810Y459945D01*
X522816Y459824D01*
X522826Y459704D01*
X522839Y459583D01*
X522857Y459464D01*
X522878Y459344D01*
X522903Y459226D01*
X522932Y459109D01*
X522965Y458992D01*
X523001Y458877D01*
X523042Y458763D01*
X523085Y458650D01*
X523133Y458538D01*
X523184Y458429D01*
X523239Y458321D01*
X523297Y458214D01*
X523358Y458110D01*
X523423Y458008D01*
X523491Y457908D01*
X523562Y457810D01*
X523636Y457714D01*
X523713Y457621D01*
X523794Y457531D01*
X523877Y457443D01*
X523963Y457358D01*
X524052Y457275D01*
X524143Y457196D01*
X524237Y457119D01*
X524333Y457046D01*
X524431Y456976D01*
X524532Y456909D01*
X524635Y456845D01*
X524740Y456785D01*
X524847Y456727D01*
X524955Y456674D01*
X525065Y456624D01*
X525177Y456578D01*
X525290Y456535D01*
X525405Y456496D01*
X528001Y462013D02*
X527923Y462092D01*
X527843Y462168D01*
X527760Y462241D01*
X527674Y462311D01*
X527587Y462378D01*
X527496Y462442D01*
X527404Y462502D01*
X527310Y462560D01*
X527213Y462614D01*
X527115Y462664D01*
X527015Y462711D01*
X526914Y462755D01*
X526811Y462795D01*
X526706Y462831D01*
X526601Y462863D01*
X526494Y462892D01*
X526387Y462917D01*
X526278Y462939D01*
X526169Y462956D01*
X526060Y462970D01*
X525950Y462979D01*
X525839Y462985D01*
X525729Y462987D01*
X528001Y462014D02*
X534492Y456496D01*
X534492Y462987D01*
X569492Y440701D02*
X569492Y438104D01*
X569490Y438005D01*
X569484Y437905D01*
X569475Y437806D01*
X569462Y437708D01*
X569445Y437610D01*
X569424Y437512D01*
X569399Y437416D01*
X569371Y437321D01*
X569339Y437227D01*
X569304Y437134D01*
X569265Y437042D01*
X569222Y436952D01*
X569177Y436864D01*
X569127Y436777D01*
X569075Y436693D01*
X569019Y436610D01*
X568961Y436530D01*
X568899Y436452D01*
X568834Y436377D01*
X568766Y436304D01*
X568696Y436234D01*
X568623Y436166D01*
X568548Y436101D01*
X568470Y436039D01*
X568390Y435981D01*
X568307Y435925D01*
X568223Y435873D01*
X568136Y435823D01*
X568048Y435778D01*
X567958Y435735D01*
X567866Y435696D01*
X567773Y435661D01*
X567679Y435629D01*
X567584Y435601D01*
X567488Y435576D01*
X567390Y435555D01*
X567292Y435538D01*
X567194Y435525D01*
X567095Y435516D01*
X566995Y435510D01*
X566896Y435508D01*
X560404Y435508D01*
X560305Y435510D01*
X560205Y435516D01*
X560106Y435525D01*
X560008Y435538D01*
X559910Y435556D01*
X559812Y435576D01*
X559716Y435601D01*
X559620Y435629D01*
X559526Y435661D01*
X559433Y435696D01*
X559342Y435735D01*
X559252Y435778D01*
X559163Y435823D01*
X559077Y435873D01*
X558992Y435925D01*
X558910Y435981D01*
X558830Y436040D01*
X558752Y436101D01*
X558676Y436166D01*
X558603Y436234D01*
X558533Y436304D01*
X558465Y436377D01*
X558400Y436453D01*
X558339Y436531D01*
X558280Y436611D01*
X558224Y436693D01*
X558172Y436778D01*
X558123Y436864D01*
X558077Y436953D01*
X558034Y437043D01*
X557995Y437134D01*
X557960Y437227D01*
X557928Y437321D01*
X557900Y437417D01*
X557875Y437513D01*
X557855Y437611D01*
X557837Y437709D01*
X557824Y437807D01*
X557815Y437906D01*
X557809Y438005D01*
X557807Y438105D01*
X557808Y438104D02*
X557808Y440701D01*
X560404Y445066D02*
X557808Y448312D01*
X569492Y448312D01*
X569492Y451557D02*
X569492Y445066D01*
X569492Y456496D02*
X569492Y459742D01*
X569490Y459855D01*
X569484Y459968D01*
X569474Y460081D01*
X569460Y460194D01*
X569443Y460306D01*
X569421Y460417D01*
X569396Y460527D01*
X569366Y460637D01*
X569333Y460745D01*
X569296Y460852D01*
X569256Y460958D01*
X569211Y461062D01*
X569163Y461165D01*
X569112Y461266D01*
X569057Y461365D01*
X568999Y461462D01*
X568937Y461557D01*
X568872Y461650D01*
X568804Y461740D01*
X568733Y461828D01*
X568658Y461914D01*
X568581Y461997D01*
X568501Y462077D01*
X568418Y462154D01*
X568332Y462229D01*
X568244Y462300D01*
X568154Y462368D01*
X568061Y462433D01*
X567966Y462495D01*
X567869Y462553D01*
X567770Y462608D01*
X567669Y462659D01*
X567566Y462707D01*
X567462Y462752D01*
X567356Y462792D01*
X567249Y462829D01*
X567141Y462862D01*
X567031Y462892D01*
X566921Y462917D01*
X566810Y462939D01*
X566698Y462956D01*
X566585Y462970D01*
X566472Y462980D01*
X566359Y462986D01*
X566246Y462988D01*
X566133Y462986D01*
X566020Y462980D01*
X565907Y462970D01*
X565794Y462956D01*
X565682Y462939D01*
X565571Y462917D01*
X565461Y462892D01*
X565351Y462862D01*
X565243Y462829D01*
X565136Y462792D01*
X565030Y462752D01*
X564926Y462707D01*
X564823Y462659D01*
X564722Y462608D01*
X564623Y462553D01*
X564526Y462495D01*
X564431Y462433D01*
X564338Y462368D01*
X564248Y462300D01*
X564160Y462229D01*
X564074Y462154D01*
X563991Y462077D01*
X563911Y461997D01*
X563834Y461914D01*
X563759Y461828D01*
X563688Y461740D01*
X563620Y461650D01*
X563555Y461557D01*
X563493Y461462D01*
X563435Y461365D01*
X563380Y461266D01*
X563329Y461165D01*
X563281Y461062D01*
X563236Y460958D01*
X563196Y460852D01*
X563159Y460745D01*
X563126Y460637D01*
X563096Y460527D01*
X563071Y460417D01*
X563049Y460306D01*
X563032Y460194D01*
X563018Y460081D01*
X563008Y459968D01*
X563002Y459855D01*
X563000Y459742D01*
X557808Y460391D02*
X557808Y456496D01*
X557808Y460391D02*
X557810Y460492D01*
X557816Y460592D01*
X557826Y460692D01*
X557839Y460792D01*
X557857Y460891D01*
X557878Y460990D01*
X557903Y461087D01*
X557932Y461184D01*
X557965Y461279D01*
X558001Y461373D01*
X558041Y461465D01*
X558084Y461556D01*
X558131Y461645D01*
X558181Y461732D01*
X558235Y461818D01*
X558292Y461901D01*
X558352Y461981D01*
X558415Y462060D01*
X558482Y462136D01*
X558551Y462209D01*
X558623Y462279D01*
X558697Y462347D01*
X558774Y462412D01*
X558854Y462473D01*
X558936Y462532D01*
X559020Y462587D01*
X559106Y462639D01*
X559194Y462688D01*
X559284Y462733D01*
X559376Y462775D01*
X559469Y462813D01*
X559564Y462847D01*
X559659Y462878D01*
X559756Y462905D01*
X559854Y462928D01*
X559953Y462948D01*
X560053Y462963D01*
X560153Y462975D01*
X560253Y462983D01*
X560354Y462987D01*
X560454Y462987D01*
X560555Y462983D01*
X560655Y462975D01*
X560755Y462963D01*
X560855Y462948D01*
X560954Y462928D01*
X561052Y462905D01*
X561149Y462878D01*
X561244Y462847D01*
X561339Y462813D01*
X561432Y462775D01*
X561524Y462733D01*
X561614Y462688D01*
X561702Y462639D01*
X561788Y462587D01*
X561872Y462532D01*
X561954Y462473D01*
X562034Y462412D01*
X562111Y462347D01*
X562185Y462279D01*
X562257Y462209D01*
X562326Y462136D01*
X562393Y462060D01*
X562456Y461981D01*
X562516Y461901D01*
X562573Y461818D01*
X562627Y461732D01*
X562677Y461645D01*
X562724Y461556D01*
X562767Y461465D01*
X562807Y461373D01*
X562843Y461279D01*
X562876Y461184D01*
X562905Y461087D01*
X562930Y460990D01*
X562951Y460891D01*
X562969Y460792D01*
X562982Y460692D01*
X562992Y460592D01*
X562998Y460492D01*
X563000Y460391D01*
X563001Y460391D02*
X563001Y457794D01*
X592808Y435508D02*
X604492Y435508D01*
X592808Y435508D02*
X592808Y438754D01*
X592810Y438867D01*
X592816Y438980D01*
X592826Y439093D01*
X592840Y439206D01*
X592857Y439318D01*
X592879Y439429D01*
X592904Y439539D01*
X592934Y439649D01*
X592967Y439757D01*
X593004Y439864D01*
X593044Y439970D01*
X593089Y440074D01*
X593137Y440177D01*
X593188Y440278D01*
X593243Y440377D01*
X593301Y440474D01*
X593363Y440569D01*
X593428Y440662D01*
X593496Y440752D01*
X593567Y440840D01*
X593642Y440926D01*
X593719Y441009D01*
X593799Y441089D01*
X593882Y441166D01*
X593968Y441241D01*
X594056Y441312D01*
X594146Y441380D01*
X594239Y441445D01*
X594334Y441507D01*
X594431Y441565D01*
X594530Y441620D01*
X594631Y441671D01*
X594734Y441719D01*
X594838Y441764D01*
X594944Y441804D01*
X595051Y441841D01*
X595159Y441874D01*
X595269Y441904D01*
X595379Y441929D01*
X595490Y441951D01*
X595602Y441968D01*
X595715Y441982D01*
X595828Y441992D01*
X595941Y441998D01*
X596054Y442000D01*
X596167Y441998D01*
X596280Y441992D01*
X596393Y441982D01*
X596506Y441968D01*
X596618Y441951D01*
X596729Y441929D01*
X596839Y441904D01*
X596949Y441874D01*
X597057Y441841D01*
X597164Y441804D01*
X597270Y441764D01*
X597374Y441719D01*
X597477Y441671D01*
X597578Y441620D01*
X597677Y441565D01*
X597774Y441507D01*
X597869Y441445D01*
X597962Y441380D01*
X598052Y441312D01*
X598140Y441241D01*
X598226Y441166D01*
X598309Y441089D01*
X598389Y441009D01*
X598466Y440926D01*
X598541Y440840D01*
X598612Y440752D01*
X598680Y440662D01*
X598745Y440569D01*
X598807Y440474D01*
X598865Y440377D01*
X598920Y440278D01*
X598971Y440177D01*
X599019Y440074D01*
X599064Y439970D01*
X599104Y439864D01*
X599141Y439757D01*
X599174Y439649D01*
X599204Y439539D01*
X599229Y439429D01*
X599251Y439318D01*
X599268Y439206D01*
X599282Y439093D01*
X599292Y438980D01*
X599298Y438867D01*
X599300Y438754D01*
X599299Y438754D02*
X599299Y435508D01*
X599299Y439403D02*
X604492Y441999D01*
X598001Y446864D02*
X598001Y450759D01*
X598003Y450858D01*
X598009Y450958D01*
X598018Y451057D01*
X598031Y451155D01*
X598048Y451253D01*
X598069Y451351D01*
X598094Y451447D01*
X598122Y451542D01*
X598154Y451636D01*
X598189Y451729D01*
X598228Y451821D01*
X598271Y451911D01*
X598316Y451999D01*
X598366Y452086D01*
X598418Y452170D01*
X598474Y452253D01*
X598532Y452333D01*
X598594Y452411D01*
X598659Y452486D01*
X598727Y452559D01*
X598797Y452629D01*
X598870Y452697D01*
X598945Y452762D01*
X599023Y452824D01*
X599103Y452882D01*
X599186Y452938D01*
X599270Y452990D01*
X599357Y453040D01*
X599445Y453085D01*
X599535Y453128D01*
X599627Y453167D01*
X599720Y453202D01*
X599814Y453234D01*
X599909Y453262D01*
X600005Y453287D01*
X600103Y453308D01*
X600201Y453325D01*
X600299Y453338D01*
X600398Y453347D01*
X600498Y453353D01*
X600597Y453355D01*
X601246Y453355D01*
X601246Y453356D02*
X601359Y453354D01*
X601472Y453348D01*
X601585Y453338D01*
X601698Y453324D01*
X601810Y453307D01*
X601921Y453285D01*
X602031Y453260D01*
X602141Y453230D01*
X602249Y453197D01*
X602356Y453160D01*
X602462Y453120D01*
X602566Y453075D01*
X602669Y453027D01*
X602770Y452976D01*
X602869Y452921D01*
X602966Y452863D01*
X603061Y452801D01*
X603154Y452736D01*
X603244Y452668D01*
X603332Y452597D01*
X603418Y452522D01*
X603501Y452445D01*
X603581Y452365D01*
X603658Y452282D01*
X603733Y452196D01*
X603804Y452108D01*
X603872Y452018D01*
X603937Y451925D01*
X603999Y451830D01*
X604057Y451733D01*
X604112Y451634D01*
X604163Y451533D01*
X604211Y451430D01*
X604256Y451326D01*
X604296Y451220D01*
X604333Y451113D01*
X604366Y451005D01*
X604396Y450895D01*
X604421Y450785D01*
X604443Y450674D01*
X604460Y450562D01*
X604474Y450449D01*
X604484Y450336D01*
X604490Y450223D01*
X604492Y450110D01*
X604490Y449997D01*
X604484Y449884D01*
X604474Y449771D01*
X604460Y449658D01*
X604443Y449546D01*
X604421Y449435D01*
X604396Y449325D01*
X604366Y449215D01*
X604333Y449107D01*
X604296Y449000D01*
X604256Y448894D01*
X604211Y448790D01*
X604163Y448687D01*
X604112Y448586D01*
X604057Y448487D01*
X603999Y448390D01*
X603937Y448295D01*
X603872Y448202D01*
X603804Y448112D01*
X603733Y448024D01*
X603658Y447938D01*
X603581Y447855D01*
X603501Y447775D01*
X603418Y447698D01*
X603332Y447623D01*
X603244Y447552D01*
X603154Y447484D01*
X603061Y447419D01*
X602966Y447357D01*
X602869Y447299D01*
X602770Y447244D01*
X602669Y447193D01*
X602566Y447145D01*
X602462Y447100D01*
X602356Y447060D01*
X602249Y447023D01*
X602141Y446990D01*
X602031Y446960D01*
X601921Y446935D01*
X601810Y446913D01*
X601698Y446896D01*
X601585Y446882D01*
X601472Y446872D01*
X601359Y446866D01*
X601246Y446864D01*
X598001Y446864D01*
X597858Y446866D01*
X597715Y446872D01*
X597572Y446882D01*
X597430Y446896D01*
X597288Y446913D01*
X597146Y446935D01*
X597005Y446960D01*
X596865Y446990D01*
X596726Y447023D01*
X596588Y447060D01*
X596451Y447101D01*
X596315Y447145D01*
X596180Y447194D01*
X596047Y447246D01*
X595915Y447301D01*
X595785Y447361D01*
X595656Y447424D01*
X595529Y447490D01*
X595405Y447560D01*
X595282Y447633D01*
X595161Y447710D01*
X595042Y447789D01*
X594926Y447873D01*
X594811Y447959D01*
X594700Y448048D01*
X594591Y448141D01*
X594484Y448236D01*
X594380Y448335D01*
X594279Y448436D01*
X594180Y448540D01*
X594085Y448646D01*
X593992Y448756D01*
X593903Y448867D01*
X593817Y448981D01*
X593734Y449098D01*
X593654Y449217D01*
X593577Y449338D01*
X593504Y449460D01*
X593434Y449585D01*
X593368Y449712D01*
X593305Y449841D01*
X593245Y449971D01*
X593190Y450103D01*
X593138Y450236D01*
X593089Y450371D01*
X593045Y450507D01*
X593004Y450644D01*
X592967Y450782D01*
X592934Y450921D01*
X592904Y451061D01*
X592879Y451202D01*
X592857Y451344D01*
X592840Y451486D01*
X592826Y451628D01*
X592816Y451771D01*
X592810Y451914D01*
X592808Y452057D01*
D12*
X502000Y385000D02*
X497000Y385000D01*
X496913Y385002D01*
X496826Y385008D01*
X496739Y385017D01*
X496653Y385030D01*
X496567Y385047D01*
X496482Y385068D01*
X496399Y385093D01*
X496316Y385121D01*
X496235Y385152D01*
X496155Y385187D01*
X496077Y385226D01*
X496000Y385268D01*
X495925Y385313D01*
X495853Y385362D01*
X495782Y385413D01*
X495714Y385468D01*
X495649Y385525D01*
X495586Y385586D01*
X495525Y385649D01*
X495468Y385714D01*
X495413Y385782D01*
X495362Y385853D01*
X495313Y385925D01*
X495268Y386000D01*
X495226Y386077D01*
X495187Y386155D01*
X495152Y386235D01*
X495121Y386316D01*
X495093Y386399D01*
X495068Y386482D01*
X495047Y386567D01*
X495030Y386653D01*
X495017Y386739D01*
X495008Y386826D01*
X495002Y386913D01*
X495000Y387000D01*
X495000Y413000D01*
X495002Y413087D01*
X495008Y413174D01*
X495017Y413261D01*
X495030Y413347D01*
X495047Y413433D01*
X495068Y413518D01*
X495093Y413601D01*
X495121Y413684D01*
X495152Y413765D01*
X495187Y413845D01*
X495226Y413923D01*
X495268Y414000D01*
X495313Y414075D01*
X495362Y414147D01*
X495413Y414218D01*
X495468Y414286D01*
X495525Y414351D01*
X495586Y414414D01*
X495649Y414475D01*
X495714Y414532D01*
X495782Y414587D01*
X495853Y414638D01*
X495925Y414687D01*
X496000Y414732D01*
X496077Y414774D01*
X496155Y414813D01*
X496235Y414848D01*
X496316Y414879D01*
X496399Y414907D01*
X496482Y414932D01*
X496567Y414953D01*
X496653Y414970D01*
X496739Y414983D01*
X496826Y414992D01*
X496913Y414998D01*
X497000Y415000D01*
X502000Y415000D01*
X518000Y385000D02*
X523000Y385000D01*
X523087Y385002D01*
X523174Y385008D01*
X523261Y385017D01*
X523347Y385030D01*
X523433Y385047D01*
X523518Y385068D01*
X523601Y385093D01*
X523684Y385121D01*
X523765Y385152D01*
X523845Y385187D01*
X523923Y385226D01*
X524000Y385268D01*
X524075Y385313D01*
X524147Y385362D01*
X524218Y385413D01*
X524286Y385468D01*
X524351Y385525D01*
X524414Y385586D01*
X524475Y385649D01*
X524532Y385714D01*
X524587Y385782D01*
X524638Y385853D01*
X524687Y385925D01*
X524732Y386000D01*
X524774Y386077D01*
X524813Y386155D01*
X524848Y386235D01*
X524879Y386316D01*
X524907Y386399D01*
X524932Y386482D01*
X524953Y386567D01*
X524970Y386653D01*
X524983Y386739D01*
X524992Y386826D01*
X524998Y386913D01*
X525000Y387000D01*
X525000Y413000D01*
X524998Y413087D01*
X524992Y413174D01*
X524983Y413261D01*
X524970Y413347D01*
X524953Y413433D01*
X524932Y413518D01*
X524907Y413601D01*
X524879Y413684D01*
X524848Y413765D01*
X524813Y413845D01*
X524774Y413923D01*
X524732Y414000D01*
X524687Y414075D01*
X524638Y414147D01*
X524587Y414218D01*
X524532Y414286D01*
X524475Y414351D01*
X524414Y414414D01*
X524351Y414475D01*
X524286Y414532D01*
X524218Y414587D01*
X524147Y414638D01*
X524075Y414687D01*
X524000Y414732D01*
X523923Y414774D01*
X523845Y414813D01*
X523765Y414848D01*
X523684Y414879D01*
X523601Y414907D01*
X523518Y414932D01*
X523433Y414953D01*
X523347Y414970D01*
X523261Y414983D01*
X523174Y414992D01*
X523087Y414998D01*
X523000Y415000D01*
X518000Y415000D01*
X511360Y322800D02*
X511360Y316000D01*
X511360Y347200D02*
X511360Y354000D01*
X511360Y316000D02*
X502560Y316000D01*
X473160Y316000D02*
X464360Y316000D01*
X464360Y322800D01*
X464360Y347200D02*
X464360Y354000D01*
X502560Y354000D02*
X511360Y354000D01*
X473160Y354000D02*
X464360Y354000D01*
D14*
X496860Y368500D02*
X496862Y368563D01*
X496868Y368625D01*
X496878Y368687D01*
X496891Y368749D01*
X496909Y368809D01*
X496930Y368868D01*
X496955Y368926D01*
X496984Y368982D01*
X497016Y369036D01*
X497051Y369088D01*
X497089Y369137D01*
X497131Y369185D01*
X497175Y369229D01*
X497223Y369271D01*
X497272Y369309D01*
X497324Y369344D01*
X497378Y369376D01*
X497434Y369405D01*
X497492Y369430D01*
X497551Y369451D01*
X497611Y369469D01*
X497673Y369482D01*
X497735Y369492D01*
X497797Y369498D01*
X497860Y369500D01*
X497923Y369498D01*
X497985Y369492D01*
X498047Y369482D01*
X498109Y369469D01*
X498169Y369451D01*
X498228Y369430D01*
X498286Y369405D01*
X498342Y369376D01*
X498396Y369344D01*
X498448Y369309D01*
X498497Y369271D01*
X498545Y369229D01*
X498589Y369185D01*
X498631Y369137D01*
X498669Y369088D01*
X498704Y369036D01*
X498736Y368982D01*
X498765Y368926D01*
X498790Y368868D01*
X498811Y368809D01*
X498829Y368749D01*
X498842Y368687D01*
X498852Y368625D01*
X498858Y368563D01*
X498860Y368500D01*
X498858Y368437D01*
X498852Y368375D01*
X498842Y368313D01*
X498829Y368251D01*
X498811Y368191D01*
X498790Y368132D01*
X498765Y368074D01*
X498736Y368018D01*
X498704Y367964D01*
X498669Y367912D01*
X498631Y367863D01*
X498589Y367815D01*
X498545Y367771D01*
X498497Y367729D01*
X498448Y367691D01*
X498396Y367656D01*
X498342Y367624D01*
X498286Y367595D01*
X498228Y367570D01*
X498169Y367549D01*
X498109Y367531D01*
X498047Y367518D01*
X497985Y367508D01*
X497923Y367502D01*
X497860Y367500D01*
X497797Y367502D01*
X497735Y367508D01*
X497673Y367518D01*
X497611Y367531D01*
X497551Y367549D01*
X497492Y367570D01*
X497434Y367595D01*
X497378Y367624D01*
X497324Y367656D01*
X497272Y367691D01*
X497223Y367729D01*
X497175Y367771D01*
X497131Y367815D01*
X497089Y367863D01*
X497051Y367912D01*
X497016Y367964D01*
X496984Y368018D01*
X496955Y368074D01*
X496930Y368132D01*
X496909Y368191D01*
X496891Y368251D01*
X496878Y368313D01*
X496868Y368375D01*
X496862Y368437D01*
X496860Y368500D01*
D10*
X612192Y746039D02*
X612192Y748636D01*
X612192Y746039D02*
X612190Y745940D01*
X612184Y745840D01*
X612175Y745741D01*
X612162Y745643D01*
X612145Y745545D01*
X612124Y745447D01*
X612099Y745351D01*
X612071Y745256D01*
X612039Y745162D01*
X612004Y745069D01*
X611965Y744977D01*
X611922Y744887D01*
X611877Y744799D01*
X611827Y744712D01*
X611775Y744628D01*
X611719Y744545D01*
X611661Y744465D01*
X611599Y744387D01*
X611534Y744312D01*
X611466Y744239D01*
X611396Y744169D01*
X611323Y744101D01*
X611248Y744036D01*
X611170Y743974D01*
X611090Y743916D01*
X611007Y743860D01*
X610923Y743808D01*
X610836Y743758D01*
X610748Y743713D01*
X610658Y743670D01*
X610566Y743631D01*
X610473Y743596D01*
X610379Y743564D01*
X610284Y743536D01*
X610188Y743511D01*
X610090Y743490D01*
X609992Y743473D01*
X609894Y743460D01*
X609795Y743451D01*
X609695Y743445D01*
X609596Y743443D01*
X603104Y743443D01*
X603104Y743442D02*
X603005Y743444D01*
X602905Y743450D01*
X602806Y743459D01*
X602708Y743472D01*
X602610Y743490D01*
X602512Y743510D01*
X602416Y743535D01*
X602320Y743563D01*
X602226Y743595D01*
X602133Y743630D01*
X602042Y743669D01*
X601952Y743712D01*
X601863Y743757D01*
X601777Y743807D01*
X601692Y743859D01*
X601610Y743915D01*
X601530Y743974D01*
X601452Y744035D01*
X601376Y744100D01*
X601303Y744168D01*
X601233Y744238D01*
X601165Y744311D01*
X601100Y744387D01*
X601039Y744465D01*
X600980Y744545D01*
X600924Y744627D01*
X600872Y744712D01*
X600823Y744798D01*
X600777Y744887D01*
X600734Y744977D01*
X600695Y745068D01*
X600660Y745161D01*
X600628Y745255D01*
X600600Y745351D01*
X600575Y745447D01*
X600555Y745545D01*
X600537Y745643D01*
X600524Y745741D01*
X600515Y745840D01*
X600509Y745939D01*
X600507Y746039D01*
X600508Y746039D02*
X600508Y748636D01*
X606999Y755597D02*
X606999Y759492D01*
X606999Y755597D02*
X606997Y755498D01*
X606991Y755398D01*
X606982Y755299D01*
X606969Y755201D01*
X606952Y755103D01*
X606931Y755005D01*
X606906Y754909D01*
X606878Y754814D01*
X606846Y754720D01*
X606811Y754627D01*
X606772Y754535D01*
X606729Y754445D01*
X606684Y754357D01*
X606634Y754270D01*
X606582Y754186D01*
X606526Y754103D01*
X606468Y754023D01*
X606406Y753945D01*
X606341Y753870D01*
X606273Y753797D01*
X606203Y753727D01*
X606130Y753659D01*
X606055Y753594D01*
X605977Y753532D01*
X605897Y753474D01*
X605814Y753418D01*
X605730Y753366D01*
X605643Y753316D01*
X605555Y753271D01*
X605465Y753228D01*
X605373Y753189D01*
X605280Y753154D01*
X605186Y753122D01*
X605091Y753094D01*
X604995Y753069D01*
X604897Y753048D01*
X604799Y753031D01*
X604701Y753018D01*
X604602Y753009D01*
X604502Y753003D01*
X604403Y753001D01*
X603754Y753001D01*
X603754Y753000D02*
X603641Y753002D01*
X603528Y753008D01*
X603415Y753018D01*
X603302Y753032D01*
X603190Y753049D01*
X603079Y753071D01*
X602969Y753096D01*
X602859Y753126D01*
X602751Y753159D01*
X602644Y753196D01*
X602538Y753236D01*
X602434Y753281D01*
X602331Y753329D01*
X602230Y753380D01*
X602131Y753435D01*
X602034Y753493D01*
X601939Y753555D01*
X601846Y753620D01*
X601756Y753688D01*
X601668Y753759D01*
X601582Y753834D01*
X601499Y753911D01*
X601419Y753991D01*
X601342Y754074D01*
X601267Y754160D01*
X601196Y754248D01*
X601128Y754338D01*
X601063Y754431D01*
X601001Y754526D01*
X600943Y754623D01*
X600888Y754722D01*
X600837Y754823D01*
X600789Y754926D01*
X600744Y755030D01*
X600704Y755136D01*
X600667Y755243D01*
X600634Y755351D01*
X600604Y755461D01*
X600579Y755571D01*
X600557Y755682D01*
X600540Y755794D01*
X600526Y755907D01*
X600516Y756020D01*
X600510Y756133D01*
X600508Y756246D01*
X600510Y756359D01*
X600516Y756472D01*
X600526Y756585D01*
X600540Y756698D01*
X600557Y756810D01*
X600579Y756921D01*
X600604Y757031D01*
X600634Y757141D01*
X600667Y757249D01*
X600704Y757356D01*
X600744Y757462D01*
X600789Y757566D01*
X600837Y757669D01*
X600888Y757770D01*
X600943Y757869D01*
X601001Y757966D01*
X601063Y758061D01*
X601128Y758154D01*
X601196Y758244D01*
X601267Y758332D01*
X601342Y758418D01*
X601419Y758501D01*
X601499Y758581D01*
X601582Y758658D01*
X601668Y758733D01*
X601756Y758804D01*
X601846Y758872D01*
X601939Y758937D01*
X602034Y758999D01*
X602131Y759057D01*
X602230Y759112D01*
X602331Y759163D01*
X602434Y759211D01*
X602538Y759256D01*
X602644Y759296D01*
X602751Y759333D01*
X602859Y759366D01*
X602969Y759396D01*
X603079Y759421D01*
X603190Y759443D01*
X603302Y759460D01*
X603415Y759474D01*
X603528Y759484D01*
X603641Y759490D01*
X603754Y759492D01*
X606999Y759492D01*
X607142Y759490D01*
X607285Y759484D01*
X607428Y759474D01*
X607570Y759460D01*
X607712Y759443D01*
X607854Y759421D01*
X607995Y759396D01*
X608135Y759366D01*
X608274Y759333D01*
X608412Y759296D01*
X608549Y759255D01*
X608685Y759211D01*
X608820Y759162D01*
X608953Y759110D01*
X609085Y759055D01*
X609215Y758995D01*
X609344Y758932D01*
X609471Y758866D01*
X609596Y758796D01*
X609718Y758723D01*
X609839Y758646D01*
X609958Y758566D01*
X610074Y758483D01*
X610189Y758397D01*
X610300Y758308D01*
X610410Y758215D01*
X610516Y758120D01*
X610620Y758021D01*
X610721Y757920D01*
X610820Y757816D01*
X610915Y757710D01*
X611008Y757600D01*
X611097Y757489D01*
X611183Y757374D01*
X611266Y757258D01*
X611346Y757139D01*
X611423Y757018D01*
X611496Y756896D01*
X611566Y756771D01*
X611632Y756644D01*
X611695Y756515D01*
X611755Y756385D01*
X611810Y756253D01*
X611862Y756120D01*
X611911Y755985D01*
X611955Y755849D01*
X611996Y755712D01*
X612033Y755574D01*
X612066Y755435D01*
X612096Y755295D01*
X612121Y755154D01*
X612143Y755012D01*
X612160Y754870D01*
X612174Y754728D01*
X612184Y754585D01*
X612190Y754442D01*
X612192Y754299D01*
X349492Y340701D02*
X349492Y338104D01*
X349490Y338005D01*
X349484Y337905D01*
X349475Y337806D01*
X349462Y337708D01*
X349445Y337610D01*
X349424Y337512D01*
X349399Y337416D01*
X349371Y337321D01*
X349339Y337227D01*
X349304Y337134D01*
X349265Y337042D01*
X349222Y336952D01*
X349177Y336864D01*
X349127Y336777D01*
X349075Y336693D01*
X349019Y336610D01*
X348961Y336530D01*
X348899Y336452D01*
X348834Y336377D01*
X348766Y336304D01*
X348696Y336234D01*
X348623Y336166D01*
X348548Y336101D01*
X348470Y336039D01*
X348390Y335981D01*
X348307Y335925D01*
X348223Y335873D01*
X348136Y335823D01*
X348048Y335778D01*
X347958Y335735D01*
X347866Y335696D01*
X347773Y335661D01*
X347679Y335629D01*
X347584Y335601D01*
X347488Y335576D01*
X347390Y335555D01*
X347292Y335538D01*
X347194Y335525D01*
X347095Y335516D01*
X346995Y335510D01*
X346896Y335508D01*
X340404Y335508D01*
X340305Y335510D01*
X340205Y335516D01*
X340106Y335525D01*
X340008Y335538D01*
X339910Y335556D01*
X339812Y335576D01*
X339716Y335601D01*
X339620Y335629D01*
X339526Y335661D01*
X339433Y335696D01*
X339342Y335735D01*
X339252Y335778D01*
X339163Y335823D01*
X339077Y335873D01*
X338992Y335925D01*
X338910Y335981D01*
X338830Y336040D01*
X338752Y336101D01*
X338676Y336166D01*
X338603Y336234D01*
X338533Y336304D01*
X338465Y336377D01*
X338400Y336453D01*
X338339Y336531D01*
X338280Y336611D01*
X338224Y336693D01*
X338172Y336778D01*
X338123Y336864D01*
X338077Y336953D01*
X338034Y337043D01*
X337995Y337134D01*
X337960Y337227D01*
X337928Y337321D01*
X337900Y337417D01*
X337875Y337513D01*
X337855Y337611D01*
X337837Y337709D01*
X337824Y337807D01*
X337815Y337906D01*
X337809Y338005D01*
X337807Y338105D01*
X337808Y338104D02*
X337808Y340701D01*
X340404Y345066D02*
X337808Y348312D01*
X349492Y348312D01*
X349492Y351557D02*
X349492Y345066D01*
X346896Y356496D02*
X337808Y359093D01*
X346896Y356496D02*
X346896Y362987D01*
X344299Y361040D02*
X349492Y361040D01*
X314492Y340701D02*
X314492Y338104D01*
X314490Y338005D01*
X314484Y337905D01*
X314475Y337806D01*
X314462Y337708D01*
X314445Y337610D01*
X314424Y337512D01*
X314399Y337416D01*
X314371Y337321D01*
X314339Y337227D01*
X314304Y337134D01*
X314265Y337042D01*
X314222Y336952D01*
X314177Y336864D01*
X314127Y336777D01*
X314075Y336693D01*
X314019Y336610D01*
X313961Y336530D01*
X313899Y336452D01*
X313834Y336377D01*
X313766Y336304D01*
X313696Y336234D01*
X313623Y336166D01*
X313548Y336101D01*
X313470Y336039D01*
X313390Y335981D01*
X313307Y335925D01*
X313223Y335873D01*
X313136Y335823D01*
X313048Y335778D01*
X312958Y335735D01*
X312866Y335696D01*
X312773Y335661D01*
X312679Y335629D01*
X312584Y335601D01*
X312488Y335576D01*
X312390Y335555D01*
X312292Y335538D01*
X312194Y335525D01*
X312095Y335516D01*
X311995Y335510D01*
X311896Y335508D01*
X305404Y335508D01*
X305305Y335510D01*
X305205Y335516D01*
X305106Y335525D01*
X305008Y335538D01*
X304910Y335556D01*
X304812Y335576D01*
X304716Y335601D01*
X304620Y335629D01*
X304526Y335661D01*
X304433Y335696D01*
X304342Y335735D01*
X304252Y335778D01*
X304163Y335823D01*
X304077Y335873D01*
X303992Y335925D01*
X303910Y335981D01*
X303830Y336040D01*
X303752Y336101D01*
X303676Y336166D01*
X303603Y336234D01*
X303533Y336304D01*
X303465Y336377D01*
X303400Y336453D01*
X303339Y336531D01*
X303280Y336611D01*
X303224Y336693D01*
X303172Y336778D01*
X303123Y336864D01*
X303077Y336953D01*
X303034Y337043D01*
X302995Y337134D01*
X302960Y337227D01*
X302928Y337321D01*
X302900Y337417D01*
X302875Y337513D01*
X302855Y337611D01*
X302837Y337709D01*
X302824Y337807D01*
X302815Y337906D01*
X302809Y338005D01*
X302807Y338105D01*
X302808Y338104D02*
X302808Y340701D01*
X305404Y345066D02*
X302808Y348312D01*
X314492Y348312D01*
X314492Y351557D02*
X314492Y345066D01*
X314492Y356496D02*
X314492Y360391D01*
X314490Y360490D01*
X314484Y360590D01*
X314475Y360689D01*
X314462Y360787D01*
X314445Y360885D01*
X314424Y360983D01*
X314399Y361079D01*
X314371Y361174D01*
X314339Y361268D01*
X314304Y361361D01*
X314265Y361453D01*
X314222Y361543D01*
X314177Y361631D01*
X314127Y361718D01*
X314075Y361802D01*
X314019Y361885D01*
X313961Y361965D01*
X313899Y362043D01*
X313834Y362118D01*
X313766Y362191D01*
X313696Y362261D01*
X313623Y362329D01*
X313548Y362394D01*
X313470Y362456D01*
X313390Y362514D01*
X313307Y362570D01*
X313223Y362622D01*
X313136Y362672D01*
X313048Y362717D01*
X312958Y362760D01*
X312866Y362799D01*
X312773Y362834D01*
X312679Y362866D01*
X312584Y362894D01*
X312488Y362919D01*
X312390Y362940D01*
X312292Y362957D01*
X312194Y362970D01*
X312095Y362979D01*
X311995Y362985D01*
X311896Y362987D01*
X310597Y362987D01*
X310498Y362985D01*
X310398Y362979D01*
X310299Y362970D01*
X310201Y362957D01*
X310103Y362940D01*
X310005Y362919D01*
X309909Y362894D01*
X309814Y362866D01*
X309720Y362834D01*
X309627Y362799D01*
X309535Y362760D01*
X309445Y362717D01*
X309357Y362672D01*
X309270Y362622D01*
X309186Y362570D01*
X309103Y362514D01*
X309023Y362456D01*
X308945Y362394D01*
X308870Y362329D01*
X308797Y362261D01*
X308727Y362191D01*
X308659Y362118D01*
X308594Y362043D01*
X308532Y361965D01*
X308474Y361885D01*
X308418Y361802D01*
X308366Y361718D01*
X308316Y361631D01*
X308271Y361543D01*
X308228Y361453D01*
X308189Y361361D01*
X308154Y361268D01*
X308122Y361174D01*
X308094Y361079D01*
X308069Y360983D01*
X308048Y360885D01*
X308031Y360787D01*
X308018Y360689D01*
X308009Y360590D01*
X308003Y360490D01*
X308001Y360391D01*
X308001Y356496D01*
X302808Y356496D01*
X302808Y362987D01*
X396054Y295508D02*
X401246Y295508D01*
X396054Y295508D02*
X395941Y295510D01*
X395828Y295516D01*
X395715Y295526D01*
X395602Y295540D01*
X395490Y295557D01*
X395379Y295579D01*
X395269Y295604D01*
X395159Y295634D01*
X395051Y295667D01*
X394944Y295704D01*
X394838Y295744D01*
X394734Y295789D01*
X394631Y295837D01*
X394530Y295888D01*
X394431Y295943D01*
X394334Y296001D01*
X394239Y296063D01*
X394146Y296128D01*
X394056Y296196D01*
X393968Y296267D01*
X393882Y296342D01*
X393799Y296419D01*
X393719Y296499D01*
X393642Y296582D01*
X393567Y296668D01*
X393496Y296756D01*
X393428Y296846D01*
X393363Y296939D01*
X393301Y297034D01*
X393243Y297131D01*
X393188Y297230D01*
X393137Y297331D01*
X393089Y297434D01*
X393044Y297538D01*
X393004Y297644D01*
X392967Y297751D01*
X392934Y297859D01*
X392904Y297969D01*
X392879Y298079D01*
X392857Y298190D01*
X392840Y298302D01*
X392826Y298415D01*
X392816Y298528D01*
X392810Y298641D01*
X392808Y298754D01*
X392810Y298867D01*
X392816Y298980D01*
X392826Y299093D01*
X392840Y299206D01*
X392857Y299318D01*
X392879Y299429D01*
X392904Y299539D01*
X392934Y299649D01*
X392967Y299757D01*
X393004Y299864D01*
X393044Y299970D01*
X393089Y300074D01*
X393137Y300177D01*
X393188Y300278D01*
X393243Y300377D01*
X393301Y300474D01*
X393363Y300569D01*
X393428Y300662D01*
X393496Y300752D01*
X393567Y300840D01*
X393642Y300926D01*
X393719Y301009D01*
X393799Y301089D01*
X393882Y301166D01*
X393968Y301241D01*
X394056Y301312D01*
X394146Y301380D01*
X394239Y301445D01*
X394334Y301507D01*
X394431Y301565D01*
X394530Y301620D01*
X394631Y301671D01*
X394734Y301719D01*
X394838Y301764D01*
X394944Y301804D01*
X395051Y301841D01*
X395159Y301874D01*
X395269Y301904D01*
X395379Y301929D01*
X395490Y301951D01*
X395602Y301968D01*
X395715Y301982D01*
X395828Y301992D01*
X395941Y301998D01*
X396054Y302000D01*
X396054Y301999D02*
X401246Y301999D01*
X401246Y302000D02*
X401359Y301998D01*
X401472Y301992D01*
X401585Y301982D01*
X401698Y301968D01*
X401810Y301951D01*
X401921Y301929D01*
X402031Y301904D01*
X402141Y301874D01*
X402249Y301841D01*
X402356Y301804D01*
X402462Y301764D01*
X402566Y301719D01*
X402669Y301671D01*
X402770Y301620D01*
X402869Y301565D01*
X402966Y301507D01*
X403061Y301445D01*
X403154Y301380D01*
X403244Y301312D01*
X403332Y301241D01*
X403418Y301166D01*
X403501Y301089D01*
X403581Y301009D01*
X403658Y300926D01*
X403733Y300840D01*
X403804Y300752D01*
X403872Y300662D01*
X403937Y300569D01*
X403999Y300474D01*
X404057Y300377D01*
X404112Y300278D01*
X404163Y300177D01*
X404211Y300074D01*
X404256Y299970D01*
X404296Y299864D01*
X404333Y299757D01*
X404366Y299649D01*
X404396Y299539D01*
X404421Y299429D01*
X404443Y299318D01*
X404460Y299206D01*
X404474Y299093D01*
X404484Y298980D01*
X404490Y298867D01*
X404492Y298754D01*
X404490Y298641D01*
X404484Y298528D01*
X404474Y298415D01*
X404460Y298302D01*
X404443Y298190D01*
X404421Y298079D01*
X404396Y297969D01*
X404366Y297859D01*
X404333Y297751D01*
X404296Y297644D01*
X404256Y297538D01*
X404211Y297434D01*
X404163Y297331D01*
X404112Y297230D01*
X404057Y297131D01*
X403999Y297034D01*
X403937Y296939D01*
X403872Y296846D01*
X403804Y296756D01*
X403733Y296668D01*
X403658Y296582D01*
X403581Y296499D01*
X403501Y296419D01*
X403418Y296342D01*
X403332Y296267D01*
X403244Y296196D01*
X403154Y296128D01*
X403061Y296063D01*
X402966Y296001D01*
X402869Y295943D01*
X402770Y295888D01*
X402669Y295837D01*
X402566Y295789D01*
X402462Y295744D01*
X402356Y295704D01*
X402249Y295667D01*
X402141Y295634D01*
X402031Y295604D01*
X401921Y295579D01*
X401810Y295557D01*
X401698Y295540D01*
X401585Y295526D01*
X401472Y295516D01*
X401359Y295510D01*
X401246Y295508D01*
X401896Y300701D02*
X404492Y303297D01*
X395404Y306652D02*
X392808Y309897D01*
X404492Y309897D01*
X404492Y306652D02*
X404492Y313143D01*
D15*
X443410Y97700D02*
X456110Y97700D01*
X462460Y91350D01*
X462460Y78650D01*
X456110Y72300D01*
X437060Y78650D02*
X437060Y91350D01*
X443410Y97700D01*
X437060Y78650D02*
X443410Y72300D01*
X456110Y72300D01*
X462460Y91350D02*
X468810Y97700D01*
X481510Y97700D01*
X487860Y91350D01*
X487860Y78650D01*
X481510Y72300D01*
X468810Y72300D01*
X462460Y78650D01*
X494210Y97700D02*
X506910Y97700D01*
X494210Y97700D02*
X487860Y91350D01*
X506910Y72300D02*
X513260Y78650D01*
X513260Y91350D02*
X506910Y97700D01*
X513260Y91350D02*
X513260Y78650D01*
X494210Y72300D02*
X487860Y78650D01*
X494210Y72300D02*
X506910Y72300D01*
X532310Y72300D02*
X538660Y78650D01*
X519610Y72300D02*
X513260Y78650D01*
X519610Y72300D02*
X532310Y72300D01*
X538660Y78650D02*
X538660Y91350D01*
X532310Y97700D01*
X519610Y97700D01*
X513260Y91350D01*
D16*
X261510Y265859D02*
X187898Y223359D01*
X241198Y131041D01*
X314810Y173541D01*
X261510Y265859D01*
D17*
G36*
X283311Y228101D02*
X280311Y233298D01*
X290269Y239047D01*
X293269Y233850D01*
X283311Y228101D01*
G37*
G36*
X296011Y206103D02*
X293011Y211300D01*
X302969Y217049D01*
X305969Y211852D01*
X296011Y206103D01*
G37*
G36*
X308711Y184106D02*
X305711Y189303D01*
X315669Y195052D01*
X318669Y189855D01*
X308711Y184106D01*
G37*
G36*
X270611Y250098D02*
X267611Y255295D01*
X277569Y261044D01*
X280569Y255847D01*
X270611Y250098D01*
G37*
D18*
G36*
X293486Y182475D02*
X296686Y176932D01*
X235026Y141333D01*
X231826Y146876D01*
X293486Y182475D01*
G37*
G36*
X280786Y204472D02*
X283986Y198929D01*
X222326Y163330D01*
X219126Y168873D01*
X280786Y204472D01*
G37*
G36*
X268086Y226470D02*
X271286Y220927D01*
X209626Y185328D01*
X206426Y190871D01*
X268086Y226470D01*
G37*
G36*
X255386Y248467D02*
X258586Y242924D01*
X196926Y207325D01*
X193726Y212868D01*
X255386Y248467D01*
G37*
D19*
G36*
X210174Y134375D02*
X213374Y128832D01*
X200212Y121233D01*
X197012Y126776D01*
X210174Y134375D01*
G37*
G36*
X197474Y156372D02*
X200674Y150829D01*
X187512Y143230D01*
X184312Y148773D01*
X197474Y156372D01*
G37*
G36*
X184774Y178370D02*
X187974Y172827D01*
X174812Y165228D01*
X171612Y170771D01*
X184774Y178370D01*
G37*
G36*
X172074Y200367D02*
X175274Y194824D01*
X162112Y187225D01*
X158912Y192768D01*
X172074Y200367D01*
G37*
D16*
X217951Y120506D02*
X239949Y133206D01*
X189149Y221194D01*
X167151Y208494D01*
X217951Y120506D01*
D10*
X372808Y335508D02*
X384492Y335508D01*
X372808Y335508D02*
X372808Y338754D01*
X372810Y338867D01*
X372816Y338980D01*
X372826Y339093D01*
X372840Y339206D01*
X372857Y339318D01*
X372879Y339429D01*
X372904Y339539D01*
X372934Y339649D01*
X372967Y339757D01*
X373004Y339864D01*
X373044Y339970D01*
X373089Y340074D01*
X373137Y340177D01*
X373188Y340278D01*
X373243Y340377D01*
X373301Y340474D01*
X373363Y340569D01*
X373428Y340662D01*
X373496Y340752D01*
X373567Y340840D01*
X373642Y340926D01*
X373719Y341009D01*
X373799Y341089D01*
X373882Y341166D01*
X373968Y341241D01*
X374056Y341312D01*
X374146Y341380D01*
X374239Y341445D01*
X374334Y341507D01*
X374431Y341565D01*
X374530Y341620D01*
X374631Y341671D01*
X374734Y341719D01*
X374838Y341764D01*
X374944Y341804D01*
X375051Y341841D01*
X375159Y341874D01*
X375269Y341904D01*
X375379Y341929D01*
X375490Y341951D01*
X375602Y341968D01*
X375715Y341982D01*
X375828Y341992D01*
X375941Y341998D01*
X376054Y342000D01*
X376167Y341998D01*
X376280Y341992D01*
X376393Y341982D01*
X376506Y341968D01*
X376618Y341951D01*
X376729Y341929D01*
X376839Y341904D01*
X376949Y341874D01*
X377057Y341841D01*
X377164Y341804D01*
X377270Y341764D01*
X377374Y341719D01*
X377477Y341671D01*
X377578Y341620D01*
X377677Y341565D01*
X377774Y341507D01*
X377869Y341445D01*
X377962Y341380D01*
X378052Y341312D01*
X378140Y341241D01*
X378226Y341166D01*
X378309Y341089D01*
X378389Y341009D01*
X378466Y340926D01*
X378541Y340840D01*
X378612Y340752D01*
X378680Y340662D01*
X378745Y340569D01*
X378807Y340474D01*
X378865Y340377D01*
X378920Y340278D01*
X378971Y340177D01*
X379019Y340074D01*
X379064Y339970D01*
X379104Y339864D01*
X379141Y339757D01*
X379174Y339649D01*
X379204Y339539D01*
X379229Y339429D01*
X379251Y339318D01*
X379268Y339206D01*
X379282Y339093D01*
X379292Y338980D01*
X379298Y338867D01*
X379300Y338754D01*
X379299Y338754D02*
X379299Y335508D01*
X379299Y339403D02*
X384492Y341999D01*
X374106Y346864D02*
X372808Y346864D01*
X372808Y353355D01*
X384492Y350110D01*
M02*
