G04 EAGLE Gerber RS-274X export*
G75*
%MOMM*%
%FSLAX34Y34*%
%LPD*%
%INBottom Paste*%
%IPPOS*%
%AMOC8*
5,1,8,0,0,1.08239X$1,22.5*%
G01*
%ADD10R,1.300000X1.500000*%
%ADD11R,1.000000X1.400000*%
%ADD12R,0.600000X1.100000*%
%ADD13R,0.280000X1.200000*%
%ADD14R,0.800000X1.800000*%
%ADD15R,1.500000X1.200000*%
%ADD16R,0.450000X0.300000*%
%ADD17R,1.000000X1.600000*%


D10*
X209500Y30000D03*
X190500Y30000D03*
D11*
X260000Y191000D03*
X250500Y169000D03*
X269500Y169000D03*
X310000Y191000D03*
X300500Y169000D03*
X319500Y169000D03*
X310000Y141000D03*
X300500Y119000D03*
X319500Y119000D03*
X260000Y141000D03*
X250500Y119000D03*
X269500Y119000D03*
D10*
X250500Y30000D03*
X269500Y30000D03*
X269500Y80000D03*
X250500Y80000D03*
D12*
X190500Y93000D03*
X200000Y93000D03*
X209500Y93000D03*
X209500Y67000D03*
X190500Y67000D03*
D13*
X200320Y175000D03*
X195320Y175000D03*
X190320Y175000D03*
X205320Y175000D03*
X210320Y175000D03*
X200320Y135000D03*
X195320Y135000D03*
X190320Y135000D03*
X205320Y135000D03*
X210320Y135000D03*
D14*
X227320Y155000D03*
X173320Y155000D03*
D10*
X130500Y120000D03*
X149500Y120000D03*
X149500Y30000D03*
X130500Y30000D03*
D15*
X153500Y170000D03*
X126500Y170000D03*
D16*
X149750Y86500D03*
X149750Y80000D03*
X149750Y73500D03*
X130250Y73500D03*
X130250Y80000D03*
X130250Y86500D03*
D17*
X140000Y80000D03*
M02*
