G04 EAGLE Gerber RS-274X export*
G75*
%MOMM*%
%FSLAX34Y34*%
%LPD*%
%INBottom Copper*%
%IPPOS*%
%AMOC8*
5,1,8,0,0,1.08239X$1,22.5*%
G01*
%ADD10R,1.300000X1.500000*%
%ADD11R,1.000000X1.400000*%
%ADD12R,0.600000X1.100000*%
%ADD13R,0.300000X1.600000*%
%ADD14R,0.800000X1.800000*%
%ADD15R,1.500000X1.200000*%
%ADD16R,0.450000X0.300000*%
%ADD17R,1.000000X1.600000*%
%ADD18C,0.152400*%
%ADD19C,0.609600*%
%ADD20C,0.654800*%

G36*
X336067Y9250D02*
X336067Y9250D01*
X336134Y9251D01*
X336187Y9269D01*
X336243Y9279D01*
X336302Y9310D01*
X336366Y9333D01*
X336411Y9367D01*
X336460Y9394D01*
X336507Y9443D01*
X336560Y9484D01*
X336607Y9548D01*
X336630Y9572D01*
X336638Y9591D01*
X336659Y9619D01*
X359419Y49044D01*
X359462Y49157D01*
X359505Y49270D01*
X359505Y49272D01*
X359506Y49274D01*
X359510Y49393D01*
X359515Y49515D01*
X359515Y49517D01*
X359515Y49519D01*
X359480Y49636D01*
X359447Y49752D01*
X359446Y49753D01*
X359445Y49755D01*
X359375Y49855D01*
X359307Y49954D01*
X359305Y49955D01*
X359304Y49957D01*
X359206Y50029D01*
X359109Y50100D01*
X359107Y50101D01*
X359105Y50102D01*
X358990Y50139D01*
X358875Y50177D01*
X358873Y50177D01*
X358871Y50177D01*
X358750Y50175D01*
X358629Y50174D01*
X358627Y50174D01*
X358625Y50173D01*
X358618Y50171D01*
X358468Y50127D01*
X352027Y47459D01*
X343059Y47459D01*
X334775Y50891D01*
X328434Y57232D01*
X325002Y65516D01*
X325002Y74484D01*
X328434Y82768D01*
X334775Y89109D01*
X343059Y92541D01*
X352027Y92541D01*
X360311Y89109D01*
X366652Y82768D01*
X370084Y74484D01*
X370084Y70359D01*
X370091Y70311D01*
X370090Y70263D01*
X370111Y70190D01*
X370123Y70116D01*
X370146Y70073D01*
X370160Y70027D01*
X370203Y69965D01*
X370239Y69898D01*
X370273Y69865D01*
X370301Y69826D01*
X370362Y69781D01*
X370417Y69729D01*
X370460Y69709D01*
X370499Y69680D01*
X370571Y69657D01*
X370640Y69625D01*
X370688Y69620D01*
X370733Y69605D01*
X370809Y69607D01*
X370884Y69598D01*
X370931Y69608D01*
X370979Y69609D01*
X371051Y69634D01*
X371125Y69651D01*
X371166Y69675D01*
X371211Y69691D01*
X371271Y69738D01*
X371336Y69777D01*
X371367Y69813D01*
X371405Y69843D01*
X371481Y69946D01*
X371496Y69964D01*
X371498Y69970D01*
X371504Y69978D01*
X394389Y109619D01*
X394413Y109683D01*
X394446Y109742D01*
X394456Y109797D01*
X394476Y109850D01*
X394479Y109917D01*
X394491Y109983D01*
X394483Y110039D01*
X394485Y110095D01*
X394466Y110160D01*
X394457Y110227D01*
X394425Y110300D01*
X394415Y110331D01*
X394403Y110348D01*
X394389Y110381D01*
X258719Y345381D01*
X258676Y345433D01*
X258642Y345491D01*
X258599Y345527D01*
X258564Y345571D01*
X258506Y345607D01*
X258455Y345651D01*
X258403Y345672D01*
X258355Y345702D01*
X258290Y345717D01*
X258227Y345743D01*
X258148Y345752D01*
X258116Y345759D01*
X258095Y345757D01*
X258060Y345761D01*
X212925Y345761D01*
X212829Y345746D01*
X212732Y345736D01*
X212708Y345726D01*
X212682Y345722D01*
X212596Y345676D01*
X212507Y345636D01*
X212488Y345619D01*
X212465Y345606D01*
X212398Y345536D01*
X212326Y345470D01*
X212313Y345447D01*
X212295Y345428D01*
X212254Y345340D01*
X212207Y345254D01*
X212203Y345229D01*
X212192Y345205D01*
X212181Y345108D01*
X212164Y345012D01*
X212167Y344986D01*
X212165Y344961D01*
X212185Y344865D01*
X212199Y344769D01*
X212211Y344746D01*
X212217Y344720D01*
X212267Y344637D01*
X212311Y344550D01*
X212330Y344531D01*
X212343Y344509D01*
X212417Y344446D01*
X212486Y344378D01*
X212515Y344362D01*
X212530Y344349D01*
X212561Y344337D01*
X212633Y344297D01*
X213086Y344109D01*
X219427Y337768D01*
X222859Y329484D01*
X222859Y320516D01*
X219427Y312232D01*
X213086Y305891D01*
X204802Y302459D01*
X195834Y302459D01*
X187550Y305891D01*
X181209Y312232D01*
X177777Y320516D01*
X177777Y329484D01*
X181209Y337768D01*
X187550Y344109D01*
X188003Y344297D01*
X188086Y344348D01*
X188171Y344394D01*
X188189Y344412D01*
X188212Y344426D01*
X188274Y344502D01*
X188341Y344572D01*
X188352Y344596D01*
X188368Y344616D01*
X188403Y344707D01*
X188444Y344795D01*
X188447Y344821D01*
X188457Y344845D01*
X188461Y344943D01*
X188471Y345039D01*
X188466Y345065D01*
X188467Y345091D01*
X188440Y345185D01*
X188419Y345280D01*
X188406Y345302D01*
X188399Y345327D01*
X188343Y345407D01*
X188293Y345491D01*
X188273Y345508D01*
X188258Y345529D01*
X188180Y345588D01*
X188106Y345651D01*
X188082Y345661D01*
X188061Y345676D01*
X187968Y345706D01*
X187878Y345743D01*
X187846Y345746D01*
X187827Y345752D01*
X187794Y345752D01*
X187711Y345761D01*
X142580Y345761D01*
X142513Y345750D01*
X142446Y345749D01*
X142393Y345731D01*
X142337Y345722D01*
X142278Y345690D01*
X142214Y345667D01*
X142169Y345633D01*
X142120Y345606D01*
X142073Y345557D01*
X142020Y345516D01*
X141973Y345452D01*
X141951Y345428D01*
X141942Y345409D01*
X141921Y345381D01*
X6251Y110381D01*
X6227Y110317D01*
X6194Y110258D01*
X6184Y110203D01*
X6164Y110151D01*
X6161Y110083D01*
X6149Y110017D01*
X6157Y109961D01*
X6155Y109905D01*
X6174Y109840D01*
X6183Y109773D01*
X6215Y109700D01*
X6225Y109669D01*
X6237Y109652D01*
X6251Y109619D01*
X29133Y69990D01*
X29163Y69953D01*
X29186Y69910D01*
X29240Y69858D01*
X29289Y69800D01*
X29329Y69774D01*
X29364Y69741D01*
X29433Y69709D01*
X29497Y69669D01*
X29544Y69658D01*
X29587Y69637D01*
X29662Y69629D01*
X29736Y69611D01*
X29784Y69616D01*
X29831Y69610D01*
X29906Y69626D01*
X29981Y69633D01*
X30025Y69652D01*
X30072Y69663D01*
X30137Y69702D01*
X30206Y69732D01*
X30242Y69764D01*
X30283Y69789D01*
X30332Y69846D01*
X30388Y69897D01*
X30412Y69939D01*
X30443Y69976D01*
X30471Y70046D01*
X30508Y70112D01*
X30517Y70159D01*
X30535Y70204D01*
X30549Y70332D01*
X30553Y70354D01*
X30552Y70361D01*
X30553Y70371D01*
X30553Y74484D01*
X33985Y82768D01*
X40326Y89109D01*
X48610Y92541D01*
X57578Y92541D01*
X65862Y89109D01*
X72203Y82768D01*
X75635Y74484D01*
X75635Y65516D01*
X72203Y57232D01*
X65862Y50891D01*
X57578Y47459D01*
X48610Y47459D01*
X42181Y50123D01*
X42062Y50150D01*
X41945Y50178D01*
X41943Y50178D01*
X41941Y50179D01*
X41822Y50167D01*
X41700Y50157D01*
X41698Y50156D01*
X41696Y50156D01*
X41587Y50107D01*
X41475Y50058D01*
X41473Y50056D01*
X41472Y50056D01*
X41382Y49973D01*
X41293Y49892D01*
X41292Y49891D01*
X41290Y49889D01*
X41231Y49780D01*
X41173Y49678D01*
X41173Y49676D01*
X41172Y49674D01*
X41150Y49552D01*
X41128Y49436D01*
X41129Y49434D01*
X41128Y49432D01*
X41146Y49309D01*
X41163Y49192D01*
X41164Y49190D01*
X41164Y49188D01*
X41168Y49181D01*
X41230Y49039D01*
X63991Y9619D01*
X64034Y9567D01*
X64068Y9509D01*
X64111Y9473D01*
X64147Y9429D01*
X64204Y9393D01*
X64255Y9349D01*
X64307Y9328D01*
X64355Y9298D01*
X64421Y9283D01*
X64483Y9257D01*
X64562Y9248D01*
X64594Y9241D01*
X64615Y9243D01*
X64650Y9239D01*
X336000Y9239D01*
X336067Y9250D01*
G37*
%LPC*%
G36*
X142368Y20975D02*
X142368Y20975D01*
X141475Y21868D01*
X141475Y38132D01*
X142368Y39025D01*
X146952Y39025D01*
X146972Y39028D01*
X146991Y39026D01*
X147093Y39048D01*
X147195Y39064D01*
X147212Y39074D01*
X147232Y39078D01*
X147321Y39131D01*
X147412Y39180D01*
X147426Y39194D01*
X147443Y39204D01*
X147510Y39283D01*
X147582Y39358D01*
X147590Y39376D01*
X147603Y39391D01*
X147642Y39487D01*
X147685Y39581D01*
X147687Y39601D01*
X147695Y39619D01*
X147713Y39786D01*
X147713Y69714D01*
X147710Y69734D01*
X147712Y69753D01*
X147690Y69855D01*
X147674Y69957D01*
X147664Y69974D01*
X147660Y69994D01*
X147607Y70083D01*
X147558Y70174D01*
X147544Y70188D01*
X147534Y70205D01*
X147455Y70272D01*
X147380Y70344D01*
X147362Y70352D01*
X147347Y70365D01*
X147251Y70404D01*
X147157Y70447D01*
X147137Y70449D01*
X147119Y70457D01*
X146952Y70475D01*
X146868Y70475D01*
X146788Y70555D01*
X146772Y70567D01*
X146760Y70583D01*
X146673Y70639D01*
X146589Y70699D01*
X146570Y70705D01*
X146553Y70716D01*
X146452Y70741D01*
X146354Y70771D01*
X146334Y70771D01*
X146314Y70776D01*
X146211Y70768D01*
X146108Y70765D01*
X146089Y70758D01*
X146069Y70757D01*
X145974Y70716D01*
X145877Y70681D01*
X145861Y70668D01*
X145843Y70660D01*
X145712Y70555D01*
X145632Y70475D01*
X134368Y70475D01*
X134288Y70555D01*
X134272Y70567D01*
X134260Y70583D01*
X134172Y70639D01*
X134089Y70699D01*
X134070Y70705D01*
X134053Y70716D01*
X133952Y70741D01*
X133853Y70771D01*
X133833Y70771D01*
X133814Y70776D01*
X133711Y70768D01*
X133608Y70765D01*
X133589Y70758D01*
X133569Y70757D01*
X133474Y70716D01*
X133377Y70681D01*
X133361Y70668D01*
X133343Y70660D01*
X133212Y70555D01*
X133132Y70475D01*
X127368Y70475D01*
X126853Y70990D01*
X126779Y71043D01*
X126710Y71103D01*
X126680Y71115D01*
X126654Y71134D01*
X126567Y71161D01*
X126482Y71195D01*
X126441Y71199D01*
X126419Y71206D01*
X126386Y71205D01*
X126315Y71213D01*
X122553Y71213D01*
X111213Y82553D01*
X111213Y179447D01*
X113990Y182224D01*
X115553Y183787D01*
X142947Y183787D01*
X148986Y177748D01*
X149060Y177695D01*
X149130Y177635D01*
X149160Y177623D01*
X149186Y177604D01*
X149273Y177577D01*
X149358Y177543D01*
X149399Y177539D01*
X149421Y177532D01*
X149453Y177533D01*
X149525Y177525D01*
X161632Y177525D01*
X162555Y176602D01*
X162564Y176541D01*
X162574Y176524D01*
X162578Y176504D01*
X162631Y176415D01*
X162680Y176324D01*
X162694Y176310D01*
X162704Y176293D01*
X162783Y176226D01*
X162858Y176154D01*
X162876Y176146D01*
X162891Y176133D01*
X162987Y176094D01*
X163081Y176051D01*
X163101Y176049D01*
X163119Y176041D01*
X163286Y176023D01*
X163330Y176023D01*
X163420Y176037D01*
X163511Y176045D01*
X163540Y176057D01*
X163572Y176062D01*
X163653Y176105D01*
X163737Y176141D01*
X163769Y176167D01*
X163790Y176178D01*
X163812Y176201D01*
X163868Y176246D01*
X165490Y177868D01*
X165543Y177942D01*
X165603Y178012D01*
X165615Y178042D01*
X165634Y178068D01*
X165661Y178155D01*
X165695Y178240D01*
X165699Y178281D01*
X165706Y178303D01*
X165705Y178335D01*
X165713Y178407D01*
X165713Y189447D01*
X173053Y196787D01*
X206947Y196787D01*
X212607Y191127D01*
X212607Y182685D01*
X212621Y182595D01*
X212629Y182504D01*
X212641Y182474D01*
X212646Y182442D01*
X212689Y182361D01*
X212725Y182278D01*
X212751Y182245D01*
X212762Y182225D01*
X212785Y182203D01*
X212830Y182147D01*
X213345Y181632D01*
X213345Y165762D01*
X213348Y165742D01*
X213346Y165723D01*
X213368Y165621D01*
X213384Y165519D01*
X213394Y165502D01*
X213398Y165482D01*
X213451Y165393D01*
X213500Y165302D01*
X213514Y165288D01*
X213524Y165271D01*
X213603Y165204D01*
X213678Y165132D01*
X213696Y165124D01*
X213711Y165111D01*
X213807Y165072D01*
X213901Y165029D01*
X213921Y165027D01*
X213939Y165019D01*
X214106Y165001D01*
X221849Y165001D01*
X221939Y165015D01*
X222030Y165023D01*
X222060Y165035D01*
X222092Y165040D01*
X222172Y165083D01*
X222256Y165119D01*
X222289Y165145D01*
X222309Y165156D01*
X222331Y165179D01*
X222387Y165224D01*
X222688Y165525D01*
X231952Y165525D01*
X232845Y164632D01*
X232845Y145368D01*
X231952Y144475D01*
X222688Y144475D01*
X222387Y144776D01*
X222313Y144830D01*
X222244Y144889D01*
X222214Y144901D01*
X222188Y144920D01*
X222101Y144947D01*
X222016Y144981D01*
X221975Y144985D01*
X221953Y144992D01*
X221920Y144991D01*
X221849Y144999D01*
X214106Y144999D01*
X214086Y144996D01*
X214067Y144998D01*
X213965Y144976D01*
X213863Y144960D01*
X213846Y144950D01*
X213826Y144946D01*
X213737Y144893D01*
X213646Y144844D01*
X213632Y144830D01*
X213615Y144820D01*
X213548Y144741D01*
X213476Y144666D01*
X213468Y144648D01*
X213455Y144633D01*
X213416Y144537D01*
X213373Y144443D01*
X213371Y144423D01*
X213363Y144405D01*
X213345Y144238D01*
X213345Y143548D01*
X213348Y143528D01*
X213346Y143509D01*
X213368Y143407D01*
X213384Y143305D01*
X213394Y143288D01*
X213398Y143268D01*
X213451Y143179D01*
X213500Y143088D01*
X213514Y143074D01*
X213524Y143057D01*
X213603Y142990D01*
X213678Y142918D01*
X213696Y142910D01*
X213711Y142897D01*
X213807Y142858D01*
X213901Y142815D01*
X213921Y142813D01*
X213939Y142805D01*
X214106Y142787D01*
X232237Y142787D01*
X232328Y142801D01*
X232418Y142809D01*
X232448Y142821D01*
X232480Y142826D01*
X232561Y142869D01*
X232645Y142905D01*
X232677Y142931D01*
X232698Y142942D01*
X232720Y142965D01*
X232776Y143010D01*
X247990Y158224D01*
X248043Y158298D01*
X248103Y158368D01*
X248115Y158398D01*
X248134Y158424D01*
X248161Y158511D01*
X248195Y158596D01*
X248199Y158637D01*
X248206Y158659D01*
X248205Y158691D01*
X248213Y158763D01*
X248213Y159714D01*
X248210Y159734D01*
X248212Y159753D01*
X248190Y159855D01*
X248174Y159957D01*
X248164Y159974D01*
X248160Y159994D01*
X248107Y160083D01*
X248058Y160174D01*
X248044Y160188D01*
X248034Y160205D01*
X247955Y160272D01*
X247880Y160344D01*
X247862Y160352D01*
X247847Y160365D01*
X247751Y160404D01*
X247657Y160447D01*
X247637Y160449D01*
X247619Y160457D01*
X247452Y160475D01*
X244868Y160475D01*
X243975Y161368D01*
X243975Y175666D01*
X243972Y175686D01*
X243974Y175705D01*
X243952Y175807D01*
X243936Y175909D01*
X243926Y175926D01*
X243922Y175946D01*
X243869Y176035D01*
X243820Y176126D01*
X243806Y176140D01*
X243796Y176157D01*
X243717Y176224D01*
X243642Y176296D01*
X243624Y176304D01*
X243609Y176317D01*
X243513Y176356D01*
X243419Y176399D01*
X243399Y176401D01*
X243381Y176409D01*
X243214Y176427D01*
X241606Y176427D01*
X238927Y179106D01*
X238927Y182894D01*
X241606Y185573D01*
X245394Y185573D01*
X246962Y184005D01*
X246978Y183993D01*
X246990Y183978D01*
X247078Y183922D01*
X247161Y183862D01*
X247180Y183856D01*
X247197Y183845D01*
X247298Y183820D01*
X247397Y183789D01*
X247416Y183790D01*
X247436Y183785D01*
X247539Y183793D01*
X247642Y183796D01*
X247661Y183802D01*
X247681Y183804D01*
X247776Y183844D01*
X247873Y183880D01*
X247889Y183893D01*
X247907Y183900D01*
X248038Y184005D01*
X249606Y185573D01*
X252523Y185573D01*
X252613Y185587D01*
X252704Y185595D01*
X252734Y185607D01*
X252766Y185612D01*
X252847Y185655D01*
X252931Y185691D01*
X252963Y185717D01*
X252984Y185728D01*
X253006Y185751D01*
X253062Y185796D01*
X253252Y185986D01*
X253306Y186060D01*
X253365Y186130D01*
X253377Y186160D01*
X253396Y186186D01*
X253423Y186273D01*
X253457Y186358D01*
X253461Y186399D01*
X253468Y186421D01*
X253467Y186453D01*
X253475Y186524D01*
X253475Y198632D01*
X254368Y199525D01*
X265632Y199525D01*
X266525Y198632D01*
X266525Y184382D01*
X266528Y184362D01*
X266526Y184343D01*
X266548Y184241D01*
X266564Y184139D01*
X266574Y184122D01*
X266578Y184102D01*
X266631Y184013D01*
X266680Y183922D01*
X266694Y183908D01*
X266704Y183891D01*
X266783Y183824D01*
X266858Y183752D01*
X266876Y183744D01*
X266891Y183731D01*
X266987Y183692D01*
X267081Y183649D01*
X267101Y183647D01*
X267119Y183639D01*
X267286Y183621D01*
X277657Y183621D01*
X277768Y183510D01*
X277842Y183457D01*
X277911Y183397D01*
X277941Y183385D01*
X277967Y183366D01*
X278054Y183339D01*
X278139Y183305D01*
X278180Y183301D01*
X278202Y183294D01*
X278235Y183295D01*
X278306Y183287D01*
X289238Y183287D01*
X289328Y183301D01*
X289419Y183309D01*
X289448Y183321D01*
X289480Y183326D01*
X289561Y183369D01*
X289645Y183405D01*
X289677Y183431D01*
X289698Y183442D01*
X289720Y183465D01*
X289776Y183510D01*
X293490Y187224D01*
X295053Y188787D01*
X302714Y188787D01*
X302734Y188790D01*
X302753Y188788D01*
X302855Y188810D01*
X302957Y188826D01*
X302974Y188836D01*
X302994Y188840D01*
X303083Y188893D01*
X303174Y188942D01*
X303188Y188956D01*
X303205Y188966D01*
X303272Y189045D01*
X303344Y189120D01*
X303352Y189138D01*
X303365Y189153D01*
X303404Y189249D01*
X303447Y189343D01*
X303449Y189363D01*
X303457Y189381D01*
X303475Y189548D01*
X303475Y198632D01*
X304368Y199525D01*
X315632Y199525D01*
X316525Y198632D01*
X316525Y183368D01*
X315632Y182475D01*
X304367Y182475D01*
X304314Y182513D01*
X304262Y182563D01*
X304215Y182585D01*
X304173Y182615D01*
X304104Y182636D01*
X304039Y182666D01*
X303987Y182672D01*
X303938Y182687D01*
X303866Y182685D01*
X303795Y182693D01*
X303744Y182682D01*
X303692Y182681D01*
X303624Y182656D01*
X303554Y182641D01*
X303509Y182614D01*
X303461Y182597D01*
X303405Y182552D01*
X303343Y182515D01*
X303309Y182475D01*
X303269Y182443D01*
X303230Y182383D01*
X303183Y182328D01*
X303164Y182280D01*
X303136Y182236D01*
X303118Y182167D01*
X303091Y182100D01*
X303083Y182029D01*
X303075Y181997D01*
X303077Y181974D01*
X303073Y181933D01*
X303073Y179106D01*
X302791Y178824D01*
X302749Y178766D01*
X302700Y178714D01*
X302678Y178667D01*
X302648Y178625D01*
X302626Y178556D01*
X302596Y178491D01*
X302591Y178439D01*
X302575Y178389D01*
X302577Y178318D01*
X302569Y178247D01*
X302580Y178196D01*
X302582Y178144D01*
X302606Y178076D01*
X302621Y178006D01*
X302648Y177961D01*
X302666Y177913D01*
X302711Y177857D01*
X302748Y177795D01*
X302787Y177761D01*
X302820Y177721D01*
X302880Y177682D01*
X302934Y177635D01*
X302983Y177616D01*
X303027Y177588D01*
X303096Y177570D01*
X303163Y177543D01*
X303234Y177535D01*
X303265Y177527D01*
X303288Y177529D01*
X303329Y177525D01*
X306132Y177525D01*
X307025Y176632D01*
X307025Y161368D01*
X306132Y160475D01*
X294868Y160475D01*
X293975Y161368D01*
X293975Y176632D01*
X294650Y177306D01*
X294662Y177323D01*
X294677Y177335D01*
X294733Y177422D01*
X294794Y177506D01*
X294800Y177525D01*
X294810Y177542D01*
X294836Y177642D01*
X294866Y177741D01*
X294866Y177761D01*
X294870Y177781D01*
X294862Y177883D01*
X294860Y177987D01*
X294853Y178006D01*
X294851Y178026D01*
X294811Y178121D01*
X294775Y178218D01*
X294763Y178234D01*
X294755Y178252D01*
X294650Y178383D01*
X293927Y179106D01*
X293927Y179356D01*
X293916Y179426D01*
X293914Y179498D01*
X293896Y179547D01*
X293888Y179598D01*
X293854Y179662D01*
X293829Y179729D01*
X293797Y179770D01*
X293772Y179816D01*
X293721Y179865D01*
X293676Y179921D01*
X293632Y179949D01*
X293594Y179985D01*
X293529Y180015D01*
X293469Y180054D01*
X293418Y180067D01*
X293371Y180089D01*
X293300Y180097D01*
X293230Y180114D01*
X293178Y180110D01*
X293127Y180116D01*
X293056Y180101D01*
X292985Y180095D01*
X292937Y180075D01*
X292886Y180064D01*
X292825Y180027D01*
X292759Y179999D01*
X292703Y179954D01*
X292675Y179937D01*
X292660Y179920D01*
X292628Y179894D01*
X292510Y179776D01*
X292457Y179702D01*
X292397Y179632D01*
X292385Y179602D01*
X292366Y179576D01*
X292339Y179489D01*
X292305Y179404D01*
X292301Y179363D01*
X292294Y179341D01*
X292295Y179309D01*
X292287Y179238D01*
X292287Y158263D01*
X292301Y158172D01*
X292309Y158082D01*
X292321Y158052D01*
X292326Y158020D01*
X292369Y157939D01*
X292405Y157855D01*
X292431Y157823D01*
X292442Y157802D01*
X292465Y157780D01*
X292510Y157724D01*
X302176Y148058D01*
X302234Y148016D01*
X302286Y147967D01*
X302333Y147945D01*
X302375Y147915D01*
X302444Y147894D01*
X302509Y147863D01*
X302561Y147858D01*
X302611Y147842D01*
X302682Y147844D01*
X302753Y147836D01*
X302804Y147847D01*
X302856Y147849D01*
X302924Y147873D01*
X302994Y147888D01*
X303039Y147915D01*
X303087Y147933D01*
X303143Y147978D01*
X303205Y148015D01*
X303239Y148054D01*
X303279Y148087D01*
X303318Y148147D01*
X303365Y148202D01*
X303384Y148250D01*
X303412Y148294D01*
X303430Y148363D01*
X303457Y148430D01*
X303465Y148501D01*
X303473Y148532D01*
X303471Y148556D01*
X303475Y148596D01*
X303475Y148632D01*
X304368Y149525D01*
X315632Y149525D01*
X316525Y148632D01*
X316525Y133368D01*
X315632Y132475D01*
X304368Y132475D01*
X303475Y133368D01*
X303475Y139976D01*
X303461Y140066D01*
X303453Y140157D01*
X303441Y140186D01*
X303436Y140218D01*
X303393Y140299D01*
X303357Y140383D01*
X303331Y140415D01*
X303320Y140436D01*
X303297Y140458D01*
X303252Y140514D01*
X289276Y154490D01*
X287713Y156053D01*
X287713Y177952D01*
X287710Y177972D01*
X287712Y177991D01*
X287690Y178093D01*
X287674Y178195D01*
X287664Y178212D01*
X287660Y178232D01*
X287607Y178321D01*
X287558Y178412D01*
X287544Y178426D01*
X287534Y178443D01*
X287455Y178510D01*
X287380Y178582D01*
X287362Y178590D01*
X287347Y178603D01*
X287251Y178642D01*
X287157Y178685D01*
X287137Y178687D01*
X287119Y178695D01*
X286952Y178713D01*
X276096Y178713D01*
X275985Y178824D01*
X275911Y178877D01*
X275842Y178937D01*
X275812Y178949D01*
X275785Y178968D01*
X275699Y178995D01*
X275614Y179029D01*
X275573Y179033D01*
X275550Y179040D01*
X275518Y179039D01*
X275447Y179047D01*
X263553Y179047D01*
X263463Y179033D01*
X263372Y179025D01*
X263342Y179013D01*
X263310Y179008D01*
X263230Y178965D01*
X263146Y178929D01*
X263114Y178903D01*
X263093Y178892D01*
X263071Y178869D01*
X263015Y178824D01*
X261676Y177485D01*
X261623Y177411D01*
X261563Y177342D01*
X261551Y177312D01*
X261532Y177285D01*
X261505Y177199D01*
X261471Y177114D01*
X261467Y177073D01*
X261460Y177050D01*
X261461Y177018D01*
X261453Y176947D01*
X261453Y158762D01*
X223904Y121213D01*
X210053Y121213D01*
X208490Y122776D01*
X204014Y127252D01*
X203940Y127305D01*
X203870Y127365D01*
X203840Y127377D01*
X203814Y127396D01*
X203727Y127423D01*
X203642Y127457D01*
X203601Y127461D01*
X203579Y127468D01*
X203547Y127467D01*
X203476Y127475D01*
X203084Y127475D01*
X203022Y127491D01*
X202923Y127521D01*
X202903Y127521D01*
X202884Y127526D01*
X202781Y127518D01*
X202678Y127515D01*
X202659Y127508D01*
X202639Y127507D01*
X202565Y127475D01*
X198084Y127475D01*
X198022Y127491D01*
X197923Y127521D01*
X197903Y127521D01*
X197884Y127526D01*
X197781Y127518D01*
X197678Y127515D01*
X197659Y127508D01*
X197639Y127507D01*
X197565Y127475D01*
X194204Y127475D01*
X194114Y127461D01*
X194023Y127453D01*
X193993Y127441D01*
X193961Y127436D01*
X193880Y127393D01*
X193796Y127357D01*
X193764Y127331D01*
X193744Y127320D01*
X193721Y127297D01*
X193665Y127252D01*
X193380Y126967D01*
X192801Y126632D01*
X192154Y126459D01*
X191081Y126459D01*
X191081Y137000D01*
X191078Y137019D01*
X191080Y137039D01*
X191058Y137140D01*
X191042Y137242D01*
X191032Y137260D01*
X191028Y137279D01*
X190975Y137369D01*
X190927Y137460D01*
X190926Y137460D01*
X190912Y137474D01*
X190902Y137491D01*
X190901Y137491D01*
X190823Y137558D01*
X190748Y137630D01*
X190730Y137638D01*
X190715Y137651D01*
X190618Y137690D01*
X190525Y137733D01*
X190505Y137735D01*
X190486Y137743D01*
X190320Y137761D01*
X186279Y137761D01*
X186279Y144238D01*
X186276Y144258D01*
X186278Y144277D01*
X186256Y144379D01*
X186240Y144481D01*
X186230Y144498D01*
X186226Y144518D01*
X186173Y144607D01*
X186124Y144698D01*
X186110Y144712D01*
X186100Y144729D01*
X186021Y144796D01*
X185946Y144868D01*
X185928Y144876D01*
X185913Y144889D01*
X185817Y144928D01*
X185723Y144971D01*
X185703Y144973D01*
X185685Y144981D01*
X185518Y144999D01*
X178791Y144999D01*
X178701Y144985D01*
X178610Y144977D01*
X178580Y144965D01*
X178548Y144960D01*
X178468Y144917D01*
X178384Y144881D01*
X178351Y144855D01*
X178331Y144844D01*
X178309Y144821D01*
X178253Y144776D01*
X177952Y144475D01*
X168688Y144475D01*
X167795Y145368D01*
X167795Y164632D01*
X168688Y165525D01*
X177952Y165525D01*
X178253Y165224D01*
X178327Y165170D01*
X178396Y165111D01*
X178426Y165099D01*
X178452Y165080D01*
X178539Y165053D01*
X178624Y165019D01*
X178665Y165015D01*
X178687Y165008D01*
X178720Y165009D01*
X178791Y165001D01*
X185518Y165001D01*
X185538Y165004D01*
X185557Y165002D01*
X185659Y165024D01*
X185761Y165040D01*
X185778Y165050D01*
X185798Y165054D01*
X185887Y165107D01*
X185978Y165156D01*
X185992Y165170D01*
X186009Y165180D01*
X186076Y165259D01*
X186148Y165334D01*
X186156Y165352D01*
X186169Y165367D01*
X186208Y165463D01*
X186251Y165557D01*
X186253Y165577D01*
X186261Y165595D01*
X186279Y165762D01*
X186279Y172239D01*
X190320Y172239D01*
X190339Y172242D01*
X190359Y172240D01*
X190460Y172262D01*
X190562Y172278D01*
X190580Y172288D01*
X190599Y172292D01*
X190689Y172345D01*
X190780Y172393D01*
X190793Y172408D01*
X190811Y172418D01*
X190811Y172419D01*
X190878Y172497D01*
X190890Y172509D01*
X190950Y172572D01*
X190958Y172590D01*
X190971Y172605D01*
X191010Y172702D01*
X191053Y172795D01*
X191055Y172815D01*
X191063Y172834D01*
X191081Y173000D01*
X191081Y183541D01*
X192154Y183541D01*
X192801Y183368D01*
X193380Y183033D01*
X193665Y182748D01*
X193739Y182695D01*
X193809Y182635D01*
X193839Y182623D01*
X193865Y182604D01*
X193952Y182577D01*
X194037Y182543D01*
X194078Y182539D01*
X194100Y182532D01*
X194132Y182533D01*
X194204Y182525D01*
X197556Y182525D01*
X197618Y182509D01*
X197716Y182479D01*
X197736Y182479D01*
X197756Y182474D01*
X197859Y182482D01*
X197962Y182485D01*
X197981Y182492D01*
X198001Y182493D01*
X198074Y182525D01*
X199851Y182525D01*
X199922Y182536D01*
X199993Y182538D01*
X200042Y182556D01*
X200094Y182564D01*
X200157Y182598D01*
X200224Y182623D01*
X200265Y182655D01*
X200311Y182680D01*
X200361Y182732D01*
X200417Y182776D01*
X200445Y182820D01*
X200481Y182858D01*
X200511Y182923D01*
X200550Y182983D01*
X200562Y183034D01*
X200584Y183081D01*
X200592Y183152D01*
X200610Y183222D01*
X200606Y183274D01*
X200611Y183325D01*
X200596Y183396D01*
X200590Y183467D01*
X200570Y183515D01*
X200559Y183566D01*
X200522Y183627D01*
X200494Y183693D01*
X200449Y183749D01*
X200433Y183777D01*
X200415Y183792D01*
X200389Y183824D01*
X197701Y186512D01*
X197701Y190488D01*
X198127Y190914D01*
X198169Y190972D01*
X198219Y191024D01*
X198240Y191071D01*
X198271Y191113D01*
X198292Y191182D01*
X198322Y191247D01*
X198328Y191299D01*
X198343Y191349D01*
X198341Y191420D01*
X198349Y191491D01*
X198338Y191542D01*
X198337Y191594D01*
X198312Y191662D01*
X198297Y191732D01*
X198270Y191777D01*
X198252Y191825D01*
X198208Y191881D01*
X198171Y191943D01*
X198131Y191977D01*
X198099Y192017D01*
X198038Y192056D01*
X197984Y192103D01*
X197936Y192122D01*
X197892Y192150D01*
X197822Y192168D01*
X197756Y192195D01*
X197684Y192203D01*
X197653Y192211D01*
X197630Y192209D01*
X197589Y192213D01*
X175263Y192213D01*
X175172Y192199D01*
X175082Y192191D01*
X175052Y192179D01*
X175020Y192174D01*
X174939Y192131D01*
X174855Y192095D01*
X174823Y192069D01*
X174802Y192058D01*
X174780Y192035D01*
X174724Y191990D01*
X170510Y187776D01*
X170457Y187702D01*
X170397Y187632D01*
X170385Y187602D01*
X170366Y187576D01*
X170339Y187489D01*
X170305Y187404D01*
X170301Y187363D01*
X170294Y187341D01*
X170295Y187309D01*
X170287Y187237D01*
X170287Y176197D01*
X168724Y174634D01*
X167102Y173012D01*
X165539Y171449D01*
X163286Y171449D01*
X163266Y171446D01*
X163247Y171448D01*
X163145Y171426D01*
X163043Y171410D01*
X163026Y171400D01*
X163006Y171396D01*
X162917Y171343D01*
X162826Y171294D01*
X162812Y171280D01*
X162795Y171270D01*
X162728Y171191D01*
X162656Y171116D01*
X162648Y171098D01*
X162635Y171083D01*
X162596Y170987D01*
X162553Y170893D01*
X162551Y170873D01*
X162543Y170855D01*
X162525Y170688D01*
X162525Y163368D01*
X161632Y162475D01*
X156548Y162475D01*
X156528Y162472D01*
X156509Y162474D01*
X156407Y162452D01*
X156305Y162436D01*
X156288Y162426D01*
X156268Y162422D01*
X156179Y162369D01*
X156088Y162320D01*
X156074Y162306D01*
X156057Y162296D01*
X155990Y162217D01*
X155918Y162142D01*
X155910Y162124D01*
X155897Y162109D01*
X155858Y162013D01*
X155815Y161919D01*
X155813Y161899D01*
X155805Y161881D01*
X155787Y161714D01*
X155787Y157553D01*
X133010Y134776D01*
X132957Y134702D01*
X132897Y134632D01*
X132885Y134602D01*
X132866Y134576D01*
X132839Y134489D01*
X132805Y134404D01*
X132801Y134363D01*
X132794Y134341D01*
X132795Y134309D01*
X132787Y134237D01*
X132787Y129786D01*
X132790Y129766D01*
X132788Y129747D01*
X132810Y129645D01*
X132826Y129543D01*
X132836Y129526D01*
X132840Y129506D01*
X132893Y129417D01*
X132942Y129326D01*
X132956Y129312D01*
X132966Y129295D01*
X133045Y129228D01*
X133120Y129156D01*
X133138Y129148D01*
X133153Y129135D01*
X133249Y129096D01*
X133343Y129053D01*
X133363Y129051D01*
X133381Y129043D01*
X133548Y129025D01*
X137632Y129025D01*
X138525Y128132D01*
X138525Y111868D01*
X137632Y110975D01*
X133548Y110975D01*
X133528Y110972D01*
X133509Y110974D01*
X133407Y110952D01*
X133305Y110936D01*
X133288Y110926D01*
X133268Y110922D01*
X133179Y110869D01*
X133088Y110820D01*
X133074Y110806D01*
X133057Y110796D01*
X132990Y110717D01*
X132918Y110642D01*
X132910Y110624D01*
X132897Y110609D01*
X132858Y110513D01*
X132815Y110419D01*
X132813Y110399D01*
X132805Y110381D01*
X132787Y110214D01*
X132787Y90185D01*
X132801Y90095D01*
X132809Y90004D01*
X132821Y89974D01*
X132826Y89942D01*
X132869Y89862D01*
X132905Y89778D01*
X132931Y89745D01*
X132942Y89725D01*
X132965Y89703D01*
X133010Y89647D01*
X133212Y89445D01*
X133228Y89433D01*
X133240Y89417D01*
X133327Y89361D01*
X133411Y89301D01*
X133430Y89295D01*
X133447Y89284D01*
X133547Y89259D01*
X133646Y89229D01*
X133666Y89229D01*
X133686Y89224D01*
X133789Y89232D01*
X133892Y89235D01*
X133911Y89242D01*
X133931Y89243D01*
X134026Y89284D01*
X134123Y89319D01*
X134139Y89332D01*
X134157Y89340D01*
X134288Y89445D01*
X134368Y89525D01*
X145116Y89525D01*
X145206Y89539D01*
X145297Y89547D01*
X145327Y89559D01*
X145359Y89564D01*
X145440Y89607D01*
X145524Y89643D01*
X145556Y89669D01*
X145576Y89680D01*
X145599Y89703D01*
X145655Y89748D01*
X145940Y90033D01*
X146519Y90368D01*
X147166Y90541D01*
X148989Y90541D01*
X148989Y86500D01*
X148992Y86481D01*
X148990Y86461D01*
X149012Y86360D01*
X149028Y86258D01*
X149038Y86240D01*
X149042Y86221D01*
X149095Y86131D01*
X149143Y86040D01*
X149144Y86040D01*
X149158Y86026D01*
X149168Y86009D01*
X149169Y86009D01*
X149247Y85942D01*
X149322Y85870D01*
X149340Y85862D01*
X149355Y85849D01*
X149452Y85810D01*
X149545Y85767D01*
X149565Y85765D01*
X149584Y85757D01*
X149750Y85739D01*
X154541Y85739D01*
X154541Y84666D01*
X154368Y84019D01*
X154033Y83440D01*
X153663Y83070D01*
X153651Y83054D01*
X153636Y83041D01*
X153580Y82954D01*
X153519Y82870D01*
X153514Y82851D01*
X153503Y82834D01*
X153477Y82734D01*
X153447Y82635D01*
X153448Y82615D01*
X153443Y82596D01*
X153451Y82493D01*
X153453Y82389D01*
X153460Y82370D01*
X153462Y82350D01*
X153502Y82255D01*
X153525Y82194D01*
X153525Y77868D01*
X152945Y77288D01*
X152933Y77272D01*
X152917Y77260D01*
X152861Y77172D01*
X152801Y77089D01*
X152795Y77070D01*
X152784Y77053D01*
X152759Y76952D01*
X152729Y76853D01*
X152729Y76834D01*
X152724Y76814D01*
X152732Y76711D01*
X152735Y76608D01*
X152742Y76589D01*
X152743Y76569D01*
X152784Y76474D01*
X152819Y76377D01*
X152832Y76361D01*
X152840Y76343D01*
X152945Y76212D01*
X153525Y75632D01*
X153525Y71368D01*
X152510Y70353D01*
X152457Y70279D01*
X152397Y70210D01*
X152385Y70180D01*
X152366Y70154D01*
X152339Y70067D01*
X152305Y69982D01*
X152301Y69941D01*
X152294Y69919D01*
X152295Y69886D01*
X152287Y69815D01*
X152287Y69548D01*
X152290Y69528D01*
X152288Y69509D01*
X152310Y69407D01*
X152326Y69305D01*
X152336Y69288D01*
X152340Y69268D01*
X152393Y69179D01*
X152442Y69088D01*
X152456Y69074D01*
X152466Y69057D01*
X152545Y68990D01*
X152620Y68918D01*
X152638Y68910D01*
X152653Y68897D01*
X152749Y68858D01*
X152843Y68815D01*
X152863Y68813D01*
X152881Y68805D01*
X153048Y68787D01*
X153238Y68787D01*
X153328Y68801D01*
X153419Y68809D01*
X153448Y68821D01*
X153480Y68826D01*
X153561Y68869D01*
X153645Y68905D01*
X153677Y68931D01*
X153698Y68942D01*
X153720Y68965D01*
X153776Y69010D01*
X154053Y69287D01*
X185214Y69287D01*
X185234Y69290D01*
X185253Y69288D01*
X185355Y69310D01*
X185457Y69326D01*
X185474Y69336D01*
X185494Y69340D01*
X185583Y69393D01*
X185674Y69442D01*
X185688Y69456D01*
X185705Y69466D01*
X185772Y69545D01*
X185844Y69620D01*
X185852Y69638D01*
X185865Y69653D01*
X185904Y69749D01*
X185947Y69843D01*
X185949Y69863D01*
X185957Y69881D01*
X185975Y70048D01*
X185975Y73132D01*
X186868Y74025D01*
X194132Y74025D01*
X195025Y73132D01*
X195025Y60868D01*
X194600Y60444D01*
X194588Y60427D01*
X194573Y60415D01*
X194517Y60328D01*
X194456Y60244D01*
X194450Y60225D01*
X194440Y60208D01*
X194414Y60108D01*
X194384Y60009D01*
X194384Y59989D01*
X194380Y59969D01*
X194388Y59867D01*
X194390Y59763D01*
X194397Y59744D01*
X194399Y59724D01*
X194439Y59629D01*
X194475Y59532D01*
X194487Y59516D01*
X194495Y59498D01*
X194600Y59367D01*
X195573Y58394D01*
X195573Y54606D01*
X192894Y51927D01*
X189106Y51927D01*
X186427Y54606D01*
X186427Y58394D01*
X186900Y58867D01*
X186912Y58883D01*
X186927Y58896D01*
X186983Y58983D01*
X187044Y59067D01*
X187050Y59086D01*
X187060Y59103D01*
X187086Y59203D01*
X187116Y59302D01*
X187116Y59322D01*
X187120Y59341D01*
X187112Y59444D01*
X187110Y59548D01*
X187103Y59566D01*
X187101Y59586D01*
X187061Y59681D01*
X187025Y59779D01*
X187013Y59794D01*
X187005Y59813D01*
X186900Y59944D01*
X185975Y60868D01*
X185975Y63952D01*
X185972Y63972D01*
X185974Y63991D01*
X185952Y64093D01*
X185936Y64195D01*
X185926Y64212D01*
X185922Y64232D01*
X185869Y64321D01*
X185820Y64412D01*
X185806Y64426D01*
X185796Y64443D01*
X185717Y64510D01*
X185642Y64582D01*
X185624Y64590D01*
X185609Y64603D01*
X185513Y64642D01*
X185419Y64685D01*
X185399Y64687D01*
X185381Y64695D01*
X185214Y64713D01*
X156263Y64713D01*
X156172Y64699D01*
X156082Y64691D01*
X156052Y64679D01*
X156020Y64674D01*
X155939Y64631D01*
X155855Y64595D01*
X155823Y64569D01*
X155802Y64558D01*
X155780Y64535D01*
X155724Y64490D01*
X155447Y64213D01*
X153048Y64213D01*
X153028Y64210D01*
X153009Y64212D01*
X152907Y64190D01*
X152805Y64174D01*
X152788Y64164D01*
X152768Y64160D01*
X152679Y64107D01*
X152588Y64058D01*
X152574Y64044D01*
X152557Y64034D01*
X152490Y63955D01*
X152418Y63880D01*
X152410Y63862D01*
X152397Y63847D01*
X152358Y63751D01*
X152315Y63657D01*
X152313Y63637D01*
X152305Y63619D01*
X152287Y63452D01*
X152287Y39786D01*
X152290Y39766D01*
X152288Y39747D01*
X152310Y39645D01*
X152326Y39543D01*
X152336Y39526D01*
X152340Y39506D01*
X152393Y39417D01*
X152442Y39326D01*
X152456Y39312D01*
X152466Y39295D01*
X152545Y39228D01*
X152620Y39156D01*
X152638Y39148D01*
X152653Y39135D01*
X152749Y39096D01*
X152843Y39053D01*
X152863Y39051D01*
X152881Y39043D01*
X153048Y39025D01*
X156632Y39025D01*
X157525Y38132D01*
X157525Y21868D01*
X156632Y20975D01*
X142368Y20975D01*
G37*
%LPD*%
%LPC*%
G36*
X201106Y17927D02*
X201106Y17927D01*
X198977Y20056D01*
X198941Y20082D01*
X198912Y20114D01*
X198842Y20153D01*
X198777Y20200D01*
X198735Y20213D01*
X198697Y20234D01*
X198619Y20249D01*
X198542Y20272D01*
X198498Y20271D01*
X198455Y20279D01*
X198376Y20268D01*
X198296Y20266D01*
X198255Y20251D01*
X198212Y20244D01*
X198079Y20186D01*
X198065Y20181D01*
X198063Y20179D01*
X198058Y20177D01*
X197981Y20132D01*
X197334Y19959D01*
X192023Y19959D01*
X192023Y29238D01*
X192020Y29258D01*
X192022Y29277D01*
X192000Y29379D01*
X191983Y29481D01*
X191974Y29498D01*
X191970Y29518D01*
X191917Y29607D01*
X191868Y29698D01*
X191854Y29712D01*
X191844Y29729D01*
X191765Y29796D01*
X191690Y29867D01*
X191672Y29876D01*
X191657Y29889D01*
X191561Y29928D01*
X191467Y29971D01*
X191447Y29973D01*
X191429Y29981D01*
X191262Y29999D01*
X190499Y29999D01*
X190499Y30001D01*
X191262Y30001D01*
X191282Y30004D01*
X191301Y30002D01*
X191403Y30024D01*
X191505Y30041D01*
X191522Y30050D01*
X191542Y30054D01*
X191631Y30107D01*
X191722Y30156D01*
X191736Y30170D01*
X191753Y30180D01*
X191820Y30259D01*
X191891Y30334D01*
X191900Y30352D01*
X191913Y30367D01*
X191952Y30463D01*
X191995Y30557D01*
X191997Y30577D01*
X192005Y30595D01*
X192023Y30762D01*
X192023Y40041D01*
X197334Y40041D01*
X197469Y40005D01*
X197587Y39993D01*
X197705Y39980D01*
X197710Y39981D01*
X197714Y39980D01*
X197829Y40007D01*
X197946Y40032D01*
X197949Y40034D01*
X197953Y40035D01*
X198055Y40097D01*
X198157Y40158D01*
X198160Y40161D01*
X198163Y40164D01*
X198239Y40255D01*
X198317Y40345D01*
X198318Y40349D01*
X198321Y40352D01*
X198364Y40462D01*
X198409Y40573D01*
X198409Y40578D01*
X198411Y40581D01*
X198411Y40595D01*
X198427Y40740D01*
X198427Y46972D01*
X199990Y48534D01*
X206990Y55535D01*
X207043Y55609D01*
X207103Y55678D01*
X207115Y55708D01*
X207134Y55735D01*
X207161Y55821D01*
X207195Y55906D01*
X207199Y55947D01*
X207206Y55970D01*
X207205Y56002D01*
X207213Y56073D01*
X207213Y59214D01*
X207210Y59234D01*
X207212Y59253D01*
X207190Y59355D01*
X207174Y59457D01*
X207164Y59474D01*
X207160Y59494D01*
X207107Y59583D01*
X207058Y59674D01*
X207044Y59688D01*
X207034Y59705D01*
X206955Y59772D01*
X206880Y59844D01*
X206862Y59852D01*
X206847Y59865D01*
X206751Y59904D01*
X206657Y59947D01*
X206637Y59949D01*
X206619Y59957D01*
X206452Y59975D01*
X205868Y59975D01*
X204975Y60868D01*
X204975Y64475D01*
X204961Y64566D01*
X204953Y64656D01*
X204941Y64686D01*
X204936Y64718D01*
X204893Y64799D01*
X204857Y64883D01*
X204831Y64915D01*
X204820Y64936D01*
X204797Y64958D01*
X204752Y65014D01*
X196713Y73053D01*
X196713Y74737D01*
X196712Y74745D01*
X196712Y74746D01*
X196711Y74752D01*
X196699Y74828D01*
X196691Y74918D01*
X196679Y74948D01*
X196674Y74980D01*
X196631Y75061D01*
X196595Y75145D01*
X196569Y75177D01*
X196558Y75198D01*
X196535Y75220D01*
X196490Y75276D01*
X188713Y83053D01*
X188713Y85214D01*
X188710Y85234D01*
X188712Y85253D01*
X188690Y85355D01*
X188674Y85457D01*
X188664Y85474D01*
X188660Y85494D01*
X188607Y85583D01*
X188558Y85674D01*
X188544Y85688D01*
X188534Y85705D01*
X188455Y85772D01*
X188380Y85844D01*
X188362Y85852D01*
X188347Y85865D01*
X188251Y85904D01*
X188157Y85947D01*
X188137Y85949D01*
X188119Y85957D01*
X187952Y85975D01*
X186868Y85975D01*
X185975Y86868D01*
X185975Y99132D01*
X186868Y100025D01*
X194132Y100025D01*
X194712Y99445D01*
X194728Y99433D01*
X194740Y99417D01*
X194828Y99361D01*
X194911Y99301D01*
X194930Y99295D01*
X194947Y99284D01*
X195048Y99259D01*
X195147Y99229D01*
X195166Y99229D01*
X195186Y99224D01*
X195289Y99232D01*
X195392Y99235D01*
X195411Y99242D01*
X195431Y99243D01*
X195526Y99284D01*
X195623Y99319D01*
X195639Y99332D01*
X195657Y99340D01*
X195788Y99445D01*
X196368Y100025D01*
X203686Y100025D01*
X203693Y100020D01*
X203712Y100014D01*
X203729Y100003D01*
X203829Y99977D01*
X203928Y99947D01*
X203948Y99948D01*
X203967Y99943D01*
X204070Y99951D01*
X204174Y99953D01*
X204193Y99960D01*
X204213Y99962D01*
X204308Y100002D01*
X204405Y100038D01*
X204421Y100050D01*
X204439Y100058D01*
X204570Y100163D01*
X204940Y100533D01*
X205519Y100868D01*
X206166Y101041D01*
X208001Y101041D01*
X208001Y93738D01*
X208004Y93719D01*
X208002Y93699D01*
X208024Y93597D01*
X208040Y93495D01*
X208050Y93478D01*
X208054Y93458D01*
X208107Y93369D01*
X208156Y93278D01*
X208170Y93264D01*
X208180Y93247D01*
X208259Y93180D01*
X208334Y93109D01*
X208352Y93100D01*
X208367Y93087D01*
X208463Y93049D01*
X208557Y93005D01*
X208577Y93003D01*
X208595Y92996D01*
X208519Y92983D01*
X208502Y92974D01*
X208482Y92970D01*
X208393Y92917D01*
X208302Y92868D01*
X208288Y92854D01*
X208271Y92844D01*
X208204Y92765D01*
X208132Y92690D01*
X208124Y92672D01*
X208111Y92657D01*
X208072Y92560D01*
X208029Y92467D01*
X208027Y92447D01*
X208019Y92429D01*
X208001Y92262D01*
X208001Y84959D01*
X206166Y84959D01*
X205519Y85132D01*
X204940Y85467D01*
X204570Y85837D01*
X204554Y85849D01*
X204541Y85864D01*
X204454Y85920D01*
X204370Y85981D01*
X204351Y85986D01*
X204334Y85997D01*
X204234Y86023D01*
X204135Y86053D01*
X204115Y86052D01*
X204096Y86057D01*
X203993Y86049D01*
X203889Y86047D01*
X203870Y86040D01*
X203850Y86038D01*
X203755Y85998D01*
X203694Y85975D01*
X203596Y85975D01*
X203526Y85964D01*
X203454Y85962D01*
X203405Y85944D01*
X203354Y85936D01*
X203290Y85902D01*
X203223Y85877D01*
X203182Y85845D01*
X203136Y85820D01*
X203087Y85768D01*
X203031Y85724D01*
X203003Y85680D01*
X202967Y85642D01*
X202937Y85577D01*
X202898Y85517D01*
X202885Y85466D01*
X202863Y85419D01*
X202855Y85348D01*
X202838Y85278D01*
X202842Y85226D01*
X202836Y85175D01*
X202851Y85104D01*
X202857Y85033D01*
X202877Y84985D01*
X202888Y84934D01*
X202925Y84873D01*
X202953Y84807D01*
X202998Y84751D01*
X203015Y84723D01*
X203032Y84708D01*
X203058Y84676D01*
X204724Y83010D01*
X204798Y82957D01*
X204868Y82897D01*
X204898Y82885D01*
X204924Y82866D01*
X205011Y82839D01*
X205096Y82805D01*
X205137Y82801D01*
X205159Y82794D01*
X205191Y82795D01*
X205263Y82787D01*
X241714Y82787D01*
X241734Y82790D01*
X241753Y82788D01*
X241855Y82810D01*
X241957Y82826D01*
X241974Y82836D01*
X241994Y82840D01*
X242083Y82893D01*
X242174Y82942D01*
X242188Y82956D01*
X242205Y82966D01*
X242272Y83045D01*
X242344Y83120D01*
X242352Y83138D01*
X242365Y83153D01*
X242404Y83249D01*
X242447Y83343D01*
X242449Y83363D01*
X242457Y83381D01*
X242475Y83548D01*
X242475Y88132D01*
X243368Y89025D01*
X247452Y89025D01*
X247472Y89028D01*
X247491Y89026D01*
X247593Y89048D01*
X247695Y89064D01*
X247712Y89074D01*
X247732Y89078D01*
X247821Y89131D01*
X247912Y89180D01*
X247926Y89194D01*
X247943Y89204D01*
X248010Y89283D01*
X248082Y89358D01*
X248090Y89376D01*
X248103Y89391D01*
X248142Y89487D01*
X248185Y89581D01*
X248187Y89601D01*
X248195Y89619D01*
X248213Y89786D01*
X248213Y96947D01*
X257490Y106224D01*
X257543Y106298D01*
X257603Y106368D01*
X257615Y106398D01*
X257634Y106424D01*
X257661Y106511D01*
X257695Y106596D01*
X257699Y106637D01*
X257706Y106659D01*
X257705Y106691D01*
X257713Y106763D01*
X257713Y109026D01*
X257698Y109120D01*
X257689Y109215D01*
X257678Y109241D01*
X257674Y109268D01*
X257629Y109352D01*
X257591Y109440D01*
X257572Y109461D01*
X257558Y109486D01*
X257489Y109551D01*
X257425Y109622D01*
X257401Y109636D01*
X257380Y109655D01*
X257294Y109695D01*
X257210Y109742D01*
X257183Y109747D01*
X257157Y109759D01*
X257062Y109769D01*
X256968Y109787D01*
X256941Y109783D01*
X256913Y109786D01*
X256819Y109765D01*
X256725Y109752D01*
X256693Y109738D01*
X256672Y109734D01*
X256644Y109717D01*
X256571Y109685D01*
X256481Y109632D01*
X255834Y109459D01*
X252023Y109459D01*
X252023Y118238D01*
X252020Y118258D01*
X252022Y118277D01*
X252000Y118379D01*
X251983Y118481D01*
X251974Y118498D01*
X251970Y118518D01*
X251917Y118607D01*
X251868Y118698D01*
X251854Y118712D01*
X251844Y118729D01*
X251765Y118796D01*
X251690Y118867D01*
X251672Y118876D01*
X251657Y118889D01*
X251561Y118928D01*
X251467Y118971D01*
X251447Y118973D01*
X251429Y118981D01*
X251262Y118999D01*
X250499Y118999D01*
X250499Y119001D01*
X251262Y119001D01*
X251282Y119004D01*
X251301Y119002D01*
X251403Y119024D01*
X251505Y119041D01*
X251522Y119050D01*
X251542Y119054D01*
X251631Y119107D01*
X251722Y119156D01*
X251736Y119170D01*
X251753Y119180D01*
X251820Y119259D01*
X251891Y119334D01*
X251900Y119352D01*
X251913Y119367D01*
X251952Y119463D01*
X251995Y119557D01*
X251997Y119577D01*
X252005Y119595D01*
X252023Y119762D01*
X252023Y128541D01*
X255834Y128541D01*
X256481Y128368D01*
X256571Y128315D01*
X256661Y128282D01*
X256747Y128241D01*
X256775Y128238D01*
X256801Y128228D01*
X256897Y128225D01*
X256991Y128214D01*
X257019Y128220D01*
X257047Y128219D01*
X257139Y128246D01*
X257232Y128266D01*
X257256Y128281D01*
X257283Y128289D01*
X257361Y128344D01*
X257443Y128393D01*
X257461Y128414D01*
X257484Y128430D01*
X257541Y128507D01*
X257603Y128580D01*
X257613Y128606D01*
X257630Y128628D01*
X257659Y128719D01*
X257695Y128808D01*
X257699Y128843D01*
X257705Y128863D01*
X257705Y128896D01*
X257713Y128974D01*
X257713Y131714D01*
X257710Y131734D01*
X257712Y131753D01*
X257690Y131855D01*
X257674Y131957D01*
X257664Y131974D01*
X257660Y131994D01*
X257607Y132083D01*
X257558Y132174D01*
X257544Y132188D01*
X257534Y132205D01*
X257455Y132272D01*
X257380Y132344D01*
X257362Y132352D01*
X257347Y132365D01*
X257251Y132404D01*
X257157Y132447D01*
X257137Y132449D01*
X257119Y132457D01*
X256952Y132475D01*
X254368Y132475D01*
X253475Y133368D01*
X253475Y148632D01*
X254368Y149525D01*
X265632Y149525D01*
X266525Y148632D01*
X266525Y136334D01*
X266528Y136314D01*
X266526Y136295D01*
X266548Y136193D01*
X266564Y136091D01*
X266574Y136074D01*
X266578Y136054D01*
X266631Y135965D01*
X266680Y135874D01*
X266694Y135860D01*
X266704Y135843D01*
X266783Y135776D01*
X266858Y135704D01*
X266876Y135696D01*
X266891Y135683D01*
X266987Y135644D01*
X267081Y135601D01*
X267101Y135599D01*
X267119Y135591D01*
X267286Y135573D01*
X267452Y135573D01*
X267472Y135576D01*
X267491Y135574D01*
X267593Y135596D01*
X267695Y135612D01*
X267712Y135622D01*
X267732Y135626D01*
X267821Y135679D01*
X267912Y135728D01*
X267926Y135742D01*
X267943Y135752D01*
X268010Y135831D01*
X268082Y135906D01*
X268090Y135924D01*
X268103Y135939D01*
X268142Y136035D01*
X268185Y136129D01*
X268187Y136149D01*
X268195Y136167D01*
X268213Y136334D01*
X268213Y159714D01*
X268210Y159734D01*
X268212Y159753D01*
X268190Y159855D01*
X268174Y159957D01*
X268164Y159974D01*
X268160Y159994D01*
X268107Y160083D01*
X268058Y160174D01*
X268044Y160188D01*
X268034Y160205D01*
X267955Y160272D01*
X267880Y160344D01*
X267862Y160352D01*
X267847Y160365D01*
X267751Y160404D01*
X267657Y160447D01*
X267637Y160449D01*
X267619Y160457D01*
X267452Y160475D01*
X263868Y160475D01*
X262975Y161368D01*
X262975Y176632D01*
X263868Y177525D01*
X275132Y177525D01*
X276025Y176632D01*
X276025Y161368D01*
X275132Y160475D01*
X273548Y160475D01*
X273528Y160472D01*
X273509Y160474D01*
X273407Y160452D01*
X273305Y160436D01*
X273288Y160426D01*
X273268Y160422D01*
X273179Y160369D01*
X273088Y160320D01*
X273074Y160306D01*
X273057Y160296D01*
X272990Y160217D01*
X272918Y160142D01*
X272910Y160124D01*
X272897Y160109D01*
X272858Y160013D01*
X272815Y159919D01*
X272813Y159899D01*
X272805Y159881D01*
X272787Y159714D01*
X272787Y133495D01*
X272801Y133405D01*
X272809Y133314D01*
X272821Y133285D01*
X272826Y133253D01*
X272869Y133172D01*
X272905Y133088D01*
X272931Y133056D01*
X272942Y133035D01*
X272965Y133013D01*
X273010Y132957D01*
X273073Y132894D01*
X273073Y129106D01*
X272791Y128824D01*
X272749Y128766D01*
X272700Y128714D01*
X272678Y128667D01*
X272648Y128625D01*
X272626Y128556D01*
X272596Y128491D01*
X272591Y128439D01*
X272575Y128389D01*
X272577Y128318D01*
X272569Y128247D01*
X272580Y128196D01*
X272582Y128144D01*
X272606Y128076D01*
X272621Y128006D01*
X272648Y127961D01*
X272666Y127913D01*
X272711Y127857D01*
X272748Y127795D01*
X272787Y127761D01*
X272820Y127721D01*
X272880Y127682D01*
X272934Y127635D01*
X272983Y127616D01*
X273027Y127588D01*
X273096Y127570D01*
X273163Y127543D01*
X273234Y127535D01*
X273265Y127527D01*
X273288Y127529D01*
X273329Y127525D01*
X275132Y127525D01*
X276025Y126632D01*
X276025Y111368D01*
X275132Y110475D01*
X275096Y110475D01*
X275026Y110464D01*
X274954Y110462D01*
X274905Y110444D01*
X274854Y110436D01*
X274790Y110402D01*
X274723Y110377D01*
X274682Y110345D01*
X274636Y110320D01*
X274587Y110269D01*
X274531Y110224D01*
X274503Y110180D01*
X274467Y110142D01*
X274437Y110077D01*
X274398Y110017D01*
X274385Y109966D01*
X274363Y109919D01*
X274355Y109848D01*
X274338Y109778D01*
X274342Y109726D01*
X274336Y109675D01*
X274351Y109604D01*
X274357Y109533D01*
X274377Y109485D01*
X274388Y109434D01*
X274425Y109373D01*
X274453Y109307D01*
X274498Y109251D01*
X274515Y109223D01*
X274532Y109208D01*
X274558Y109176D01*
X282224Y101510D01*
X283787Y99947D01*
X283787Y73048D01*
X283798Y72977D01*
X283800Y72905D01*
X283818Y72856D01*
X283826Y72805D01*
X283860Y72742D01*
X283885Y72674D01*
X283917Y72634D01*
X283942Y72588D01*
X283994Y72538D01*
X284038Y72482D01*
X284082Y72454D01*
X284120Y72418D01*
X284185Y72388D01*
X284245Y72349D01*
X284296Y72337D01*
X284343Y72315D01*
X284414Y72307D01*
X284484Y72289D01*
X284536Y72293D01*
X284587Y72288D01*
X284658Y72303D01*
X284729Y72308D01*
X284777Y72329D01*
X284828Y72340D01*
X284889Y72377D01*
X284955Y72405D01*
X285011Y72450D01*
X285039Y72466D01*
X285054Y72484D01*
X285086Y72510D01*
X316990Y104414D01*
X317043Y104488D01*
X317103Y104557D01*
X317115Y104587D01*
X317134Y104613D01*
X317161Y104700D01*
X317195Y104785D01*
X317199Y104826D01*
X317206Y104848D01*
X317205Y104881D01*
X317213Y104952D01*
X317213Y109714D01*
X317210Y109734D01*
X317212Y109753D01*
X317190Y109855D01*
X317174Y109957D01*
X317164Y109974D01*
X317160Y109994D01*
X317107Y110083D01*
X317058Y110174D01*
X317044Y110188D01*
X317034Y110205D01*
X316955Y110272D01*
X316880Y110344D01*
X316862Y110352D01*
X316847Y110365D01*
X316751Y110404D01*
X316657Y110447D01*
X316637Y110449D01*
X316619Y110457D01*
X316452Y110475D01*
X313868Y110475D01*
X312975Y111368D01*
X312975Y126632D01*
X313868Y127525D01*
X316452Y127525D01*
X316472Y127528D01*
X316491Y127526D01*
X316593Y127548D01*
X316695Y127564D01*
X316712Y127574D01*
X316732Y127578D01*
X316821Y127631D01*
X316912Y127680D01*
X316926Y127694D01*
X316943Y127704D01*
X317010Y127783D01*
X317082Y127858D01*
X317090Y127876D01*
X317103Y127891D01*
X317142Y127987D01*
X317185Y128081D01*
X317187Y128101D01*
X317195Y128119D01*
X317213Y128286D01*
X317213Y131447D01*
X317990Y132224D01*
X318043Y132298D01*
X318103Y132368D01*
X318115Y132398D01*
X318134Y132424D01*
X318161Y132511D01*
X318195Y132596D01*
X318199Y132637D01*
X318206Y132659D01*
X318205Y132691D01*
X318213Y132763D01*
X318213Y159714D01*
X318210Y159734D01*
X318212Y159753D01*
X318190Y159855D01*
X318174Y159957D01*
X318164Y159974D01*
X318160Y159994D01*
X318107Y160083D01*
X318058Y160174D01*
X318044Y160188D01*
X318034Y160205D01*
X317955Y160272D01*
X317880Y160344D01*
X317862Y160352D01*
X317847Y160365D01*
X317751Y160404D01*
X317657Y160447D01*
X317637Y160449D01*
X317619Y160457D01*
X317452Y160475D01*
X313868Y160475D01*
X312975Y161368D01*
X312975Y176632D01*
X313868Y177525D01*
X325132Y177525D01*
X326025Y176632D01*
X326025Y161368D01*
X325132Y160475D01*
X323548Y160475D01*
X323528Y160472D01*
X323509Y160474D01*
X323407Y160452D01*
X323305Y160436D01*
X323288Y160426D01*
X323268Y160422D01*
X323179Y160369D01*
X323088Y160320D01*
X323074Y160306D01*
X323057Y160296D01*
X322990Y160217D01*
X322918Y160142D01*
X322910Y160124D01*
X322897Y160109D01*
X322858Y160013D01*
X322815Y159919D01*
X322813Y159899D01*
X322805Y159881D01*
X322787Y159714D01*
X322787Y130553D01*
X322010Y129776D01*
X321957Y129702D01*
X321897Y129632D01*
X321885Y129602D01*
X321866Y129576D01*
X321839Y129489D01*
X321805Y129404D01*
X321801Y129363D01*
X321794Y129341D01*
X321795Y129309D01*
X321787Y129237D01*
X321787Y128286D01*
X321790Y128266D01*
X321788Y128247D01*
X321810Y128145D01*
X321826Y128043D01*
X321836Y128026D01*
X321840Y128006D01*
X321893Y127917D01*
X321942Y127826D01*
X321956Y127812D01*
X321966Y127795D01*
X322045Y127728D01*
X322120Y127656D01*
X322138Y127648D01*
X322153Y127635D01*
X322249Y127596D01*
X322343Y127553D01*
X322363Y127551D01*
X322381Y127543D01*
X322548Y127525D01*
X325132Y127525D01*
X326025Y126632D01*
X326025Y111368D01*
X325132Y110475D01*
X322548Y110475D01*
X322528Y110472D01*
X322509Y110474D01*
X322407Y110452D01*
X322305Y110436D01*
X322288Y110426D01*
X322268Y110422D01*
X322179Y110369D01*
X322088Y110320D01*
X322074Y110306D01*
X322057Y110296D01*
X321990Y110217D01*
X321918Y110142D01*
X321910Y110124D01*
X321897Y110109D01*
X321858Y110013D01*
X321815Y109919D01*
X321813Y109899D01*
X321805Y109881D01*
X321787Y109714D01*
X321787Y102742D01*
X280796Y61751D01*
X280743Y61677D01*
X280683Y61608D01*
X280671Y61578D01*
X280652Y61551D01*
X280625Y61465D01*
X280591Y61380D01*
X280587Y61339D01*
X280580Y61316D01*
X280581Y61284D01*
X280573Y61213D01*
X280573Y20606D01*
X277894Y17927D01*
X201106Y17927D01*
G37*
%LPD*%
%LPC*%
G36*
X151023Y121523D02*
X151023Y121523D01*
X151023Y130041D01*
X156334Y130041D01*
X156981Y129868D01*
X157560Y129533D01*
X158033Y129060D01*
X158368Y128481D01*
X158541Y127834D01*
X158541Y121523D01*
X151023Y121523D01*
G37*
%LPD*%
%LPC*%
G36*
X132023Y31523D02*
X132023Y31523D01*
X132023Y40041D01*
X137334Y40041D01*
X137981Y39868D01*
X138560Y39533D01*
X139033Y39060D01*
X139368Y38481D01*
X139541Y37834D01*
X139541Y31523D01*
X132023Y31523D01*
G37*
%LPD*%
%LPC*%
G36*
X151023Y109959D02*
X151023Y109959D01*
X151023Y118477D01*
X158541Y118477D01*
X158541Y112166D01*
X158368Y111519D01*
X158033Y110940D01*
X157560Y110467D01*
X156981Y110132D01*
X156334Y109959D01*
X151023Y109959D01*
G37*
%LPD*%
%LPC*%
G36*
X132023Y19959D02*
X132023Y19959D01*
X132023Y28477D01*
X139541Y28477D01*
X139541Y22166D01*
X139368Y21519D01*
X139033Y20940D01*
X138560Y20467D01*
X137981Y20132D01*
X137334Y19959D01*
X132023Y19959D01*
G37*
%LPD*%
%LPC*%
G36*
X140459Y121523D02*
X140459Y121523D01*
X140459Y127834D01*
X140632Y128481D01*
X140967Y129060D01*
X141440Y129533D01*
X142019Y129868D01*
X142666Y130041D01*
X147977Y130041D01*
X147977Y121523D01*
X140459Y121523D01*
G37*
%LPD*%
%LPC*%
G36*
X181459Y31523D02*
X181459Y31523D01*
X181459Y37834D01*
X181632Y38481D01*
X181967Y39060D01*
X182440Y39533D01*
X183019Y39868D01*
X183666Y40041D01*
X188977Y40041D01*
X188977Y31523D01*
X181459Y31523D01*
G37*
%LPD*%
%LPC*%
G36*
X121459Y31523D02*
X121459Y31523D01*
X121459Y37834D01*
X121632Y38481D01*
X121967Y39060D01*
X122440Y39533D01*
X123019Y39868D01*
X123666Y40041D01*
X128977Y40041D01*
X128977Y31523D01*
X121459Y31523D01*
G37*
%LPD*%
%LPC*%
G36*
X142666Y109959D02*
X142666Y109959D01*
X142019Y110132D01*
X141440Y110467D01*
X140967Y110940D01*
X140632Y111519D01*
X140459Y112166D01*
X140459Y118477D01*
X147977Y118477D01*
X147977Y109959D01*
X142666Y109959D01*
G37*
%LPD*%
%LPC*%
G36*
X183666Y19959D02*
X183666Y19959D01*
X183019Y20132D01*
X182440Y20467D01*
X181967Y20940D01*
X181632Y21519D01*
X181459Y22166D01*
X181459Y28477D01*
X188977Y28477D01*
X188977Y19959D01*
X183666Y19959D01*
G37*
%LPD*%
%LPC*%
G36*
X123666Y19959D02*
X123666Y19959D01*
X123019Y20132D01*
X122440Y20467D01*
X121967Y20940D01*
X121632Y21519D01*
X121459Y22166D01*
X121459Y28477D01*
X128977Y28477D01*
X128977Y19959D01*
X123666Y19959D01*
G37*
%LPD*%
%LPC*%
G36*
X302023Y120523D02*
X302023Y120523D01*
X302023Y128541D01*
X305834Y128541D01*
X306481Y128368D01*
X307060Y128033D01*
X307533Y127560D01*
X307868Y126981D01*
X308041Y126334D01*
X308041Y120523D01*
X302023Y120523D01*
G37*
%LPD*%
%LPC*%
G36*
X302023Y109459D02*
X302023Y109459D01*
X302023Y117477D01*
X308041Y117477D01*
X308041Y111666D01*
X307868Y111019D01*
X307533Y110440D01*
X307060Y109967D01*
X306481Y109632D01*
X305834Y109459D01*
X302023Y109459D01*
G37*
%LPD*%
%LPC*%
G36*
X292959Y120523D02*
X292959Y120523D01*
X292959Y126334D01*
X293132Y126981D01*
X293467Y127560D01*
X293940Y128033D01*
X294519Y128368D01*
X295166Y128541D01*
X298977Y128541D01*
X298977Y120523D01*
X292959Y120523D01*
G37*
%LPD*%
%LPC*%
G36*
X242959Y120523D02*
X242959Y120523D01*
X242959Y126334D01*
X243132Y126981D01*
X243467Y127560D01*
X243940Y128033D01*
X244519Y128368D01*
X245166Y128541D01*
X248977Y128541D01*
X248977Y120523D01*
X242959Y120523D01*
G37*
%LPD*%
%LPC*%
G36*
X295166Y109459D02*
X295166Y109459D01*
X294519Y109632D01*
X293940Y109967D01*
X293467Y110440D01*
X293132Y111019D01*
X292959Y111666D01*
X292959Y117477D01*
X298977Y117477D01*
X298977Y109459D01*
X295166Y109459D01*
G37*
%LPD*%
%LPC*%
G36*
X245166Y109459D02*
X245166Y109459D01*
X244519Y109632D01*
X243940Y109967D01*
X243467Y110440D01*
X243132Y111019D01*
X242959Y111666D01*
X242959Y117477D01*
X248977Y117477D01*
X248977Y109459D01*
X245166Y109459D01*
G37*
%LPD*%
%LPC*%
G36*
X186279Y173761D02*
X186279Y173761D01*
X186279Y181334D01*
X186452Y181981D01*
X186787Y182560D01*
X187260Y183033D01*
X187839Y183368D01*
X188486Y183541D01*
X189559Y183541D01*
X189559Y173761D01*
X186279Y173761D01*
G37*
%LPD*%
%LPC*%
G36*
X188486Y126459D02*
X188486Y126459D01*
X187839Y126632D01*
X187260Y126967D01*
X186787Y127440D01*
X186452Y128019D01*
X186279Y128666D01*
X186279Y136239D01*
X189559Y136239D01*
X189559Y126459D01*
X188486Y126459D01*
G37*
%LPD*%
%LPC*%
G36*
X210999Y94499D02*
X210999Y94499D01*
X210999Y101041D01*
X212834Y101041D01*
X213481Y100868D01*
X214060Y100533D01*
X214533Y100060D01*
X214868Y99481D01*
X215041Y98834D01*
X215041Y94499D01*
X210999Y94499D01*
G37*
%LPD*%
%LPC*%
G36*
X210999Y84959D02*
X210999Y84959D01*
X210999Y91501D01*
X215041Y91501D01*
X215041Y87166D01*
X214868Y86519D01*
X214533Y85940D01*
X214060Y85467D01*
X213481Y85132D01*
X212834Y84959D01*
X210999Y84959D01*
G37*
%LPD*%
%LPC*%
G36*
X150511Y87261D02*
X150511Y87261D01*
X150511Y90541D01*
X152334Y90541D01*
X152981Y90368D01*
X153560Y90033D01*
X154033Y89560D01*
X154368Y88981D01*
X154541Y88334D01*
X154541Y87261D01*
X150511Y87261D01*
G37*
%LPD*%
%LPC*%
G36*
X149499Y119999D02*
X149499Y119999D01*
X149499Y120001D01*
X149501Y120001D01*
X149501Y119999D01*
X149499Y119999D01*
G37*
%LPD*%
%LPC*%
G36*
X300499Y118999D02*
X300499Y118999D01*
X300499Y119001D01*
X300501Y119001D01*
X300501Y118999D01*
X300499Y118999D01*
G37*
%LPD*%
%LPC*%
G36*
X130499Y29999D02*
X130499Y29999D01*
X130499Y30001D01*
X130501Y30001D01*
X130501Y29999D01*
X130499Y29999D01*
G37*
%LPD*%
D10*
X209500Y30000D03*
X190500Y30000D03*
D11*
X260000Y191000D03*
X250500Y169000D03*
X269500Y169000D03*
X310000Y191000D03*
X300500Y169000D03*
X319500Y169000D03*
X310000Y141000D03*
X300500Y119000D03*
X319500Y119000D03*
X260000Y141000D03*
X250500Y119000D03*
X269500Y119000D03*
D10*
X250500Y30000D03*
X269500Y30000D03*
X269500Y80000D03*
X250500Y80000D03*
D12*
X190500Y93000D03*
X200000Y93000D03*
X209500Y93000D03*
X209500Y67000D03*
X190500Y67000D03*
D13*
X190320Y137000D03*
X190320Y173000D03*
X195320Y137000D03*
X195320Y173000D03*
X200320Y137000D03*
X200320Y173000D03*
X205320Y137000D03*
X205320Y173000D03*
X210320Y137000D03*
X210320Y173000D03*
D14*
X227320Y155000D03*
X173320Y155000D03*
D10*
X130500Y120000D03*
X149500Y120000D03*
X149500Y30000D03*
X130500Y30000D03*
D15*
X153500Y170000D03*
X126500Y170000D03*
D16*
X149750Y86500D03*
X149750Y80000D03*
X149750Y73500D03*
X130250Y73500D03*
X130250Y80000D03*
X130250Y86500D03*
D17*
X140000Y80000D03*
D18*
X298500Y171000D02*
X298500Y181000D01*
X298500Y171000D02*
X300500Y169000D01*
X150000Y80000D02*
X150000Y73500D01*
X149750Y73500D01*
X149750Y80000D02*
X150000Y80000D01*
X150000Y66500D02*
X150000Y30500D01*
X150000Y66500D02*
X150000Y73000D01*
X150000Y30500D02*
X149500Y30000D01*
X150000Y73000D02*
X149750Y73500D01*
X155000Y67000D02*
X190500Y67000D01*
X155000Y67000D02*
X154500Y66500D01*
X150000Y66500D01*
X191000Y66500D02*
X191000Y56500D01*
X191000Y66500D02*
X190500Y67000D01*
D19*
X298500Y181000D03*
X191000Y56500D03*
D18*
X260000Y189500D02*
X260000Y191000D01*
X260000Y189500D02*
X251500Y181000D01*
X272000Y92500D02*
X272000Y82500D01*
X269500Y80000D01*
D19*
X251500Y181000D03*
X272000Y92500D03*
D18*
X200000Y93000D02*
X200000Y84500D01*
X204000Y80500D01*
X218000Y80500D02*
X250000Y80500D01*
X218000Y80500D02*
X204000Y80500D01*
X250000Y80500D02*
X250500Y80000D01*
X209500Y50500D02*
X209500Y30000D01*
X209500Y50500D02*
X218000Y59000D01*
X218000Y80500D01*
X260000Y105500D02*
X260000Y141000D01*
X250500Y96000D02*
X250500Y80000D01*
X250500Y96000D02*
X260000Y105500D01*
X155000Y86500D02*
X149750Y86500D01*
X163000Y94500D02*
X163000Y117000D01*
X160000Y120000D01*
X150500Y120000D01*
X149500Y120000D01*
X163000Y94500D02*
X155000Y86500D01*
X190320Y122180D02*
X190320Y137000D01*
X209500Y103000D02*
X209500Y93000D01*
X209500Y103000D02*
X190320Y122180D01*
X209500Y93000D02*
X235500Y119000D01*
X250000Y119000D01*
X250500Y119000D01*
X276786Y176947D02*
X275447Y178286D01*
X276786Y176947D02*
X276786Y142714D01*
X262214Y176947D02*
X263553Y178286D01*
X262214Y158447D02*
X252714Y148947D01*
X250000Y133500D02*
X250000Y119000D01*
X276786Y142714D02*
X300500Y119000D01*
X275447Y178286D02*
X263553Y178286D01*
X262214Y176947D02*
X262214Y158447D01*
X252714Y148947D02*
X252714Y136214D01*
X250000Y133500D01*
X162180Y122180D02*
X160000Y120000D01*
X162180Y122180D02*
X190320Y122180D01*
X130500Y60500D02*
X130500Y30000D01*
X140000Y70000D02*
X140000Y83000D01*
X143500Y86500D01*
X149750Y86500D01*
X140000Y70000D02*
X130500Y60500D01*
X142053Y20214D02*
X156947Y20214D01*
X132267Y30000D02*
X130500Y30000D01*
X156947Y20214D02*
X166733Y30000D01*
X142053Y20214D02*
X132267Y30000D01*
D19*
X155448Y132588D03*
D18*
X190320Y173000D02*
X190320Y186320D01*
X190500Y186500D01*
D20*
X190500Y186500D03*
D18*
X190320Y173000D02*
X183606Y166286D01*
X168373Y166286D01*
X155448Y153361D01*
X155448Y132588D01*
X150500Y127640D01*
X150500Y120000D01*
X166733Y30000D02*
X190500Y30000D01*
D20*
X170000Y50000D03*
D18*
X170000Y33267D01*
X166733Y30000D01*
D20*
X300000Y100000D03*
D18*
X300000Y118500D01*
X300500Y119000D01*
X206000Y67000D02*
X199000Y74000D01*
X199000Y76000D01*
X191000Y84000D01*
X191000Y92500D01*
X190500Y93000D01*
X319500Y130500D02*
X320500Y131500D01*
X320500Y168000D01*
X319500Y169000D01*
X209500Y67000D02*
X206000Y67000D01*
X200714Y21553D02*
X202053Y20214D01*
X276947Y20214D02*
X278286Y21553D01*
X209500Y54811D02*
X209500Y67000D01*
X278286Y62475D02*
X278286Y21553D01*
X209500Y54811D02*
X200714Y46025D01*
X200714Y21553D01*
X202053Y20214D02*
X276947Y20214D01*
X319500Y103689D02*
X319500Y119000D01*
X319500Y103689D02*
X278286Y62475D01*
X319500Y119000D02*
X319500Y130500D01*
X310000Y141000D02*
X306000Y141000D01*
X290000Y157000D01*
X290000Y180500D01*
X296000Y186500D01*
X305500Y186500D01*
X310000Y191000D01*
X205500Y137000D02*
X205500Y129000D01*
X211000Y123500D01*
X205500Y137000D02*
X205320Y137000D01*
X289500Y181000D02*
X290000Y180500D01*
X262291Y181334D02*
X259166Y178209D01*
X262291Y181334D02*
X276709Y181334D01*
X277043Y181000D01*
X289500Y181000D01*
X259166Y178209D02*
X259166Y159709D01*
X222957Y123500D01*
X211000Y123500D01*
X250500Y157500D02*
X250500Y169000D01*
X250500Y157500D02*
X233500Y140500D01*
X214000Y140500D01*
X210500Y137000D01*
X210320Y137000D01*
X250500Y63000D02*
X250500Y30000D01*
X250500Y63000D02*
X254500Y67000D01*
X250000Y174500D02*
X243500Y181000D01*
X250000Y174500D02*
X250000Y169500D01*
X250500Y169000D01*
D19*
X254500Y67000D03*
X243500Y181000D03*
D18*
X130500Y120000D02*
X130500Y86500D01*
X130250Y86500D01*
X113500Y83500D02*
X113500Y178500D01*
X116500Y181500D01*
X123500Y73500D02*
X130250Y73500D01*
X123500Y73500D02*
X113500Y83500D01*
X153000Y169500D02*
X153500Y170000D01*
X164592Y173736D02*
X168000Y177144D01*
X168000Y188500D01*
X174000Y194500D01*
X210320Y190180D02*
X210320Y173000D01*
X206000Y194500D02*
X174000Y194500D01*
X206000Y194500D02*
X210320Y190180D01*
X142000Y181500D02*
X116500Y181500D01*
X153500Y170000D02*
X157236Y173736D01*
X164592Y173736D01*
X153500Y170000D02*
X153500Y158500D01*
X130500Y135500D02*
X130500Y120000D01*
X130500Y135500D02*
X153500Y158500D01*
X153500Y170000D02*
X142000Y181500D01*
X205320Y186180D02*
X205320Y173000D01*
X205320Y186180D02*
X203000Y188500D01*
X202500Y188500D01*
D20*
X202500Y188500D03*
D18*
X126500Y165500D02*
X118500Y157500D01*
X126500Y165500D02*
X126500Y170000D01*
X125500Y80000D02*
X130250Y80000D01*
X125500Y80000D02*
X118500Y87000D01*
X118500Y157500D01*
X269500Y130500D02*
X269500Y119000D01*
X269500Y130500D02*
X270500Y131500D01*
X270500Y168000D01*
X269500Y169000D01*
X269500Y58000D02*
X269500Y30000D01*
X269500Y58000D02*
X281500Y70000D01*
X281500Y99000D01*
X272000Y108500D01*
X272000Y116500D01*
X269500Y119000D01*
X269000Y131000D02*
X268500Y131000D01*
X269000Y131000D02*
X269500Y130500D01*
D19*
X268500Y131000D03*
M02*
