G04 EAGLE Gerber RS-274X export*
G75*
%MOMM*%
%FSLAX34Y34*%
%LPD*%
%INTop Solder Mask*%
%IPPOS*%
%AMOC8*
5,1,8,0,0,1.08239X$1,22.5*%
G01*
%ADD10R,1.101600X1.001600*%
%ADD11R,0.521600X1.401600*%


D10*
X180820Y174500D03*
X219820Y174500D03*
X219820Y135500D03*
X180820Y135500D03*
D11*
X187570Y32500D03*
X196070Y32500D03*
X204570Y32500D03*
X213070Y32500D03*
G36*
X93231Y228537D02*
X95839Y233054D01*
X107977Y226047D01*
X105369Y221530D01*
X93231Y228537D01*
G37*
G36*
X88981Y221176D02*
X91589Y225693D01*
X103727Y218686D01*
X101119Y214169D01*
X88981Y221176D01*
G37*
G36*
X84731Y213814D02*
X87339Y218331D01*
X99477Y211324D01*
X96869Y206807D01*
X84731Y213814D01*
G37*
G36*
X80481Y206453D02*
X83089Y210970D01*
X95227Y203963D01*
X92619Y199446D01*
X80481Y206453D01*
G37*
G36*
X317551Y210970D02*
X320159Y206453D01*
X308021Y199446D01*
X305413Y203963D01*
X317551Y210970D01*
G37*
G36*
X313301Y218331D02*
X315909Y213814D01*
X303771Y206807D01*
X301163Y211324D01*
X313301Y218331D01*
G37*
G36*
X309051Y225693D02*
X311659Y221176D01*
X299521Y214169D01*
X296913Y218686D01*
X309051Y225693D01*
G37*
G36*
X304801Y233054D02*
X307409Y228537D01*
X295271Y221530D01*
X292663Y226047D01*
X304801Y233054D01*
G37*
M02*
