G04 EAGLE Gerber RS-274X export*
G75*
%MOMM*%
%FSLAX34Y34*%
%LPD*%
%INBottom Silkscreen*%
%IPPOS*%
%AMOC8*
5,1,8,0,0,1.08239X$1,22.5*%
G01*
%ADD10C,0.101600*%
%ADD11C,0.127000*%
%ADD12C,0.150000*%
%ADD13C,0.200000*%


D10*
X209299Y40508D02*
X211896Y40508D01*
X211995Y40510D01*
X212095Y40516D01*
X212194Y40525D01*
X212292Y40538D01*
X212390Y40555D01*
X212488Y40576D01*
X212584Y40601D01*
X212679Y40629D01*
X212773Y40661D01*
X212866Y40696D01*
X212958Y40735D01*
X213048Y40778D01*
X213136Y40823D01*
X213223Y40873D01*
X213307Y40925D01*
X213390Y40981D01*
X213470Y41039D01*
X213548Y41101D01*
X213623Y41166D01*
X213696Y41234D01*
X213766Y41304D01*
X213834Y41377D01*
X213899Y41452D01*
X213961Y41530D01*
X214019Y41610D01*
X214075Y41693D01*
X214127Y41777D01*
X214177Y41864D01*
X214222Y41952D01*
X214265Y42042D01*
X214304Y42134D01*
X214339Y42227D01*
X214371Y42321D01*
X214399Y42416D01*
X214424Y42512D01*
X214445Y42610D01*
X214462Y42708D01*
X214475Y42806D01*
X214484Y42905D01*
X214490Y43005D01*
X214492Y43104D01*
X214492Y49596D01*
X214490Y49695D01*
X214484Y49795D01*
X214475Y49894D01*
X214462Y49992D01*
X214445Y50090D01*
X214424Y50188D01*
X214399Y50284D01*
X214371Y50379D01*
X214339Y50473D01*
X214304Y50566D01*
X214265Y50658D01*
X214222Y50748D01*
X214177Y50836D01*
X214127Y50923D01*
X214075Y51007D01*
X214019Y51090D01*
X213961Y51170D01*
X213899Y51248D01*
X213834Y51323D01*
X213766Y51396D01*
X213696Y51466D01*
X213623Y51534D01*
X213548Y51599D01*
X213470Y51661D01*
X213390Y51719D01*
X213307Y51775D01*
X213223Y51827D01*
X213136Y51877D01*
X213048Y51922D01*
X212958Y51965D01*
X212866Y52004D01*
X212773Y52039D01*
X212679Y52071D01*
X212584Y52099D01*
X212488Y52124D01*
X212390Y52145D01*
X212292Y52162D01*
X212194Y52175D01*
X212095Y52184D01*
X211995Y52190D01*
X211896Y52192D01*
X209299Y52192D01*
X204934Y40508D02*
X201688Y40508D01*
X201575Y40510D01*
X201462Y40516D01*
X201349Y40526D01*
X201236Y40540D01*
X201124Y40557D01*
X201013Y40579D01*
X200903Y40604D01*
X200793Y40634D01*
X200685Y40667D01*
X200578Y40704D01*
X200472Y40744D01*
X200368Y40789D01*
X200265Y40837D01*
X200164Y40888D01*
X200065Y40943D01*
X199968Y41001D01*
X199873Y41063D01*
X199780Y41128D01*
X199690Y41196D01*
X199602Y41267D01*
X199516Y41342D01*
X199433Y41419D01*
X199353Y41499D01*
X199276Y41582D01*
X199201Y41668D01*
X199130Y41756D01*
X199062Y41846D01*
X198997Y41939D01*
X198935Y42034D01*
X198877Y42131D01*
X198822Y42230D01*
X198771Y42331D01*
X198723Y42434D01*
X198678Y42538D01*
X198638Y42644D01*
X198601Y42751D01*
X198568Y42859D01*
X198538Y42969D01*
X198513Y43079D01*
X198491Y43190D01*
X198474Y43302D01*
X198460Y43415D01*
X198450Y43528D01*
X198444Y43641D01*
X198442Y43754D01*
X198444Y43867D01*
X198450Y43980D01*
X198460Y44093D01*
X198474Y44206D01*
X198491Y44318D01*
X198513Y44429D01*
X198538Y44539D01*
X198568Y44649D01*
X198601Y44757D01*
X198638Y44864D01*
X198678Y44970D01*
X198723Y45074D01*
X198771Y45177D01*
X198822Y45278D01*
X198877Y45377D01*
X198935Y45474D01*
X198997Y45569D01*
X199062Y45662D01*
X199130Y45752D01*
X199201Y45840D01*
X199276Y45926D01*
X199353Y46009D01*
X199433Y46089D01*
X199516Y46166D01*
X199602Y46241D01*
X199690Y46312D01*
X199780Y46380D01*
X199873Y46445D01*
X199968Y46507D01*
X200065Y46565D01*
X200164Y46620D01*
X200265Y46671D01*
X200368Y46719D01*
X200472Y46764D01*
X200578Y46804D01*
X200685Y46841D01*
X200793Y46874D01*
X200903Y46904D01*
X201013Y46929D01*
X201124Y46951D01*
X201236Y46968D01*
X201349Y46982D01*
X201462Y46992D01*
X201575Y46998D01*
X201688Y47000D01*
X201039Y52192D02*
X204934Y52192D01*
X201039Y52192D02*
X200938Y52190D01*
X200838Y52184D01*
X200738Y52174D01*
X200638Y52161D01*
X200539Y52143D01*
X200440Y52122D01*
X200343Y52097D01*
X200246Y52068D01*
X200151Y52035D01*
X200057Y51999D01*
X199965Y51959D01*
X199874Y51916D01*
X199785Y51869D01*
X199698Y51819D01*
X199612Y51765D01*
X199529Y51708D01*
X199449Y51648D01*
X199370Y51585D01*
X199294Y51518D01*
X199221Y51449D01*
X199151Y51377D01*
X199083Y51303D01*
X199018Y51226D01*
X198957Y51146D01*
X198898Y51064D01*
X198843Y50980D01*
X198791Y50894D01*
X198742Y50806D01*
X198697Y50716D01*
X198655Y50624D01*
X198617Y50531D01*
X198583Y50436D01*
X198552Y50341D01*
X198525Y50244D01*
X198502Y50146D01*
X198482Y50047D01*
X198467Y49947D01*
X198455Y49847D01*
X198447Y49747D01*
X198443Y49646D01*
X198443Y49546D01*
X198447Y49445D01*
X198455Y49345D01*
X198467Y49245D01*
X198482Y49145D01*
X198502Y49046D01*
X198525Y48948D01*
X198552Y48851D01*
X198583Y48756D01*
X198617Y48661D01*
X198655Y48568D01*
X198697Y48476D01*
X198742Y48386D01*
X198791Y48298D01*
X198843Y48212D01*
X198898Y48128D01*
X198957Y48046D01*
X199018Y47966D01*
X199083Y47889D01*
X199151Y47815D01*
X199221Y47743D01*
X199294Y47674D01*
X199370Y47607D01*
X199449Y47544D01*
X199529Y47484D01*
X199612Y47427D01*
X199698Y47373D01*
X199785Y47323D01*
X199874Y47276D01*
X199965Y47233D01*
X200057Y47193D01*
X200151Y47157D01*
X200246Y47124D01*
X200343Y47095D01*
X200440Y47070D01*
X200539Y47049D01*
X200638Y47031D01*
X200738Y47018D01*
X200838Y47008D01*
X200938Y47002D01*
X201039Y47000D01*
X201039Y46999D02*
X203636Y46999D01*
X283754Y170508D02*
X288946Y170508D01*
X289059Y170510D01*
X289172Y170516D01*
X289285Y170526D01*
X289398Y170540D01*
X289510Y170557D01*
X289621Y170579D01*
X289731Y170604D01*
X289841Y170634D01*
X289949Y170667D01*
X290056Y170704D01*
X290162Y170744D01*
X290266Y170789D01*
X290369Y170837D01*
X290470Y170888D01*
X290569Y170943D01*
X290666Y171001D01*
X290761Y171063D01*
X290854Y171128D01*
X290944Y171196D01*
X291032Y171267D01*
X291118Y171342D01*
X291201Y171419D01*
X291281Y171499D01*
X291358Y171582D01*
X291433Y171668D01*
X291504Y171756D01*
X291572Y171846D01*
X291637Y171939D01*
X291699Y172034D01*
X291757Y172131D01*
X291812Y172230D01*
X291863Y172331D01*
X291911Y172434D01*
X291956Y172538D01*
X291996Y172644D01*
X292033Y172751D01*
X292066Y172859D01*
X292096Y172969D01*
X292121Y173079D01*
X292143Y173190D01*
X292160Y173302D01*
X292174Y173415D01*
X292184Y173528D01*
X292190Y173641D01*
X292192Y173754D01*
X292190Y173867D01*
X292184Y173980D01*
X292174Y174093D01*
X292160Y174206D01*
X292143Y174318D01*
X292121Y174429D01*
X292096Y174539D01*
X292066Y174649D01*
X292033Y174757D01*
X291996Y174864D01*
X291956Y174970D01*
X291911Y175074D01*
X291863Y175177D01*
X291812Y175278D01*
X291757Y175377D01*
X291699Y175474D01*
X291637Y175569D01*
X291572Y175662D01*
X291504Y175752D01*
X291433Y175840D01*
X291358Y175926D01*
X291281Y176009D01*
X291201Y176089D01*
X291118Y176166D01*
X291032Y176241D01*
X290944Y176312D01*
X290854Y176380D01*
X290761Y176445D01*
X290666Y176507D01*
X290569Y176565D01*
X290470Y176620D01*
X290369Y176671D01*
X290266Y176719D01*
X290162Y176764D01*
X290056Y176804D01*
X289949Y176841D01*
X289841Y176874D01*
X289731Y176904D01*
X289621Y176929D01*
X289510Y176951D01*
X289398Y176968D01*
X289285Y176982D01*
X289172Y176992D01*
X289059Y176998D01*
X288946Y177000D01*
X288946Y176999D02*
X283754Y176999D01*
X283754Y177000D02*
X283641Y176998D01*
X283528Y176992D01*
X283415Y176982D01*
X283302Y176968D01*
X283190Y176951D01*
X283079Y176929D01*
X282969Y176904D01*
X282859Y176874D01*
X282751Y176841D01*
X282644Y176804D01*
X282538Y176764D01*
X282434Y176719D01*
X282331Y176671D01*
X282230Y176620D01*
X282131Y176565D01*
X282034Y176507D01*
X281939Y176445D01*
X281846Y176380D01*
X281756Y176312D01*
X281668Y176241D01*
X281582Y176166D01*
X281499Y176089D01*
X281419Y176009D01*
X281342Y175926D01*
X281267Y175840D01*
X281196Y175752D01*
X281128Y175662D01*
X281063Y175569D01*
X281001Y175474D01*
X280943Y175377D01*
X280888Y175278D01*
X280837Y175177D01*
X280789Y175074D01*
X280744Y174970D01*
X280704Y174864D01*
X280667Y174757D01*
X280634Y174649D01*
X280604Y174539D01*
X280579Y174429D01*
X280557Y174318D01*
X280540Y174206D01*
X280526Y174093D01*
X280516Y173980D01*
X280510Y173867D01*
X280508Y173754D01*
X280510Y173641D01*
X280516Y173528D01*
X280526Y173415D01*
X280540Y173302D01*
X280557Y173190D01*
X280579Y173079D01*
X280604Y172969D01*
X280634Y172859D01*
X280667Y172751D01*
X280704Y172644D01*
X280744Y172538D01*
X280789Y172434D01*
X280837Y172331D01*
X280888Y172230D01*
X280943Y172131D01*
X281001Y172034D01*
X281063Y171939D01*
X281128Y171846D01*
X281196Y171756D01*
X281267Y171668D01*
X281342Y171582D01*
X281419Y171499D01*
X281499Y171419D01*
X281582Y171342D01*
X281668Y171267D01*
X281756Y171196D01*
X281846Y171128D01*
X281939Y171063D01*
X282034Y171001D01*
X282131Y170943D01*
X282230Y170888D01*
X282331Y170837D01*
X282434Y170789D01*
X282538Y170744D01*
X282644Y170704D01*
X282751Y170667D01*
X282859Y170634D01*
X282969Y170604D01*
X283079Y170579D01*
X283190Y170557D01*
X283302Y170540D01*
X283415Y170526D01*
X283528Y170516D01*
X283641Y170510D01*
X283754Y170508D01*
X283104Y175701D02*
X280508Y178297D01*
X289596Y181652D02*
X292192Y184897D01*
X280508Y184897D01*
X280508Y181652D02*
X280508Y188143D01*
X333754Y170508D02*
X338946Y170508D01*
X339059Y170510D01*
X339172Y170516D01*
X339285Y170526D01*
X339398Y170540D01*
X339510Y170557D01*
X339621Y170579D01*
X339731Y170604D01*
X339841Y170634D01*
X339949Y170667D01*
X340056Y170704D01*
X340162Y170744D01*
X340266Y170789D01*
X340369Y170837D01*
X340470Y170888D01*
X340569Y170943D01*
X340666Y171001D01*
X340761Y171063D01*
X340854Y171128D01*
X340944Y171196D01*
X341032Y171267D01*
X341118Y171342D01*
X341201Y171419D01*
X341281Y171499D01*
X341358Y171582D01*
X341433Y171668D01*
X341504Y171756D01*
X341572Y171846D01*
X341637Y171939D01*
X341699Y172034D01*
X341757Y172131D01*
X341812Y172230D01*
X341863Y172331D01*
X341911Y172434D01*
X341956Y172538D01*
X341996Y172644D01*
X342033Y172751D01*
X342066Y172859D01*
X342096Y172969D01*
X342121Y173079D01*
X342143Y173190D01*
X342160Y173302D01*
X342174Y173415D01*
X342184Y173528D01*
X342190Y173641D01*
X342192Y173754D01*
X342190Y173867D01*
X342184Y173980D01*
X342174Y174093D01*
X342160Y174206D01*
X342143Y174318D01*
X342121Y174429D01*
X342096Y174539D01*
X342066Y174649D01*
X342033Y174757D01*
X341996Y174864D01*
X341956Y174970D01*
X341911Y175074D01*
X341863Y175177D01*
X341812Y175278D01*
X341757Y175377D01*
X341699Y175474D01*
X341637Y175569D01*
X341572Y175662D01*
X341504Y175752D01*
X341433Y175840D01*
X341358Y175926D01*
X341281Y176009D01*
X341201Y176089D01*
X341118Y176166D01*
X341032Y176241D01*
X340944Y176312D01*
X340854Y176380D01*
X340761Y176445D01*
X340666Y176507D01*
X340569Y176565D01*
X340470Y176620D01*
X340369Y176671D01*
X340266Y176719D01*
X340162Y176764D01*
X340056Y176804D01*
X339949Y176841D01*
X339841Y176874D01*
X339731Y176904D01*
X339621Y176929D01*
X339510Y176951D01*
X339398Y176968D01*
X339285Y176982D01*
X339172Y176992D01*
X339059Y176998D01*
X338946Y177000D01*
X338946Y176999D02*
X333754Y176999D01*
X333754Y177000D02*
X333641Y176998D01*
X333528Y176992D01*
X333415Y176982D01*
X333302Y176968D01*
X333190Y176951D01*
X333079Y176929D01*
X332969Y176904D01*
X332859Y176874D01*
X332751Y176841D01*
X332644Y176804D01*
X332538Y176764D01*
X332434Y176719D01*
X332331Y176671D01*
X332230Y176620D01*
X332131Y176565D01*
X332034Y176507D01*
X331939Y176445D01*
X331846Y176380D01*
X331756Y176312D01*
X331668Y176241D01*
X331582Y176166D01*
X331499Y176089D01*
X331419Y176009D01*
X331342Y175926D01*
X331267Y175840D01*
X331196Y175752D01*
X331128Y175662D01*
X331063Y175569D01*
X331001Y175474D01*
X330943Y175377D01*
X330888Y175278D01*
X330837Y175177D01*
X330789Y175074D01*
X330744Y174970D01*
X330704Y174864D01*
X330667Y174757D01*
X330634Y174649D01*
X330604Y174539D01*
X330579Y174429D01*
X330557Y174318D01*
X330540Y174206D01*
X330526Y174093D01*
X330516Y173980D01*
X330510Y173867D01*
X330508Y173754D01*
X330510Y173641D01*
X330516Y173528D01*
X330526Y173415D01*
X330540Y173302D01*
X330557Y173190D01*
X330579Y173079D01*
X330604Y172969D01*
X330634Y172859D01*
X330667Y172751D01*
X330704Y172644D01*
X330744Y172538D01*
X330789Y172434D01*
X330837Y172331D01*
X330888Y172230D01*
X330943Y172131D01*
X331001Y172034D01*
X331063Y171939D01*
X331128Y171846D01*
X331196Y171756D01*
X331267Y171668D01*
X331342Y171582D01*
X331419Y171499D01*
X331499Y171419D01*
X331582Y171342D01*
X331668Y171267D01*
X331756Y171196D01*
X331846Y171128D01*
X331939Y171063D01*
X332034Y171001D01*
X332131Y170943D01*
X332230Y170888D01*
X332331Y170837D01*
X332434Y170789D01*
X332538Y170744D01*
X332644Y170704D01*
X332751Y170667D01*
X332859Y170634D01*
X332969Y170604D01*
X333079Y170579D01*
X333190Y170557D01*
X333302Y170540D01*
X333415Y170526D01*
X333528Y170516D01*
X333641Y170510D01*
X333754Y170508D01*
X333104Y175701D02*
X330508Y178297D01*
X339271Y188143D02*
X339378Y188141D01*
X339484Y188135D01*
X339590Y188125D01*
X339696Y188112D01*
X339802Y188094D01*
X339906Y188073D01*
X340010Y188048D01*
X340113Y188019D01*
X340214Y187987D01*
X340314Y187950D01*
X340413Y187910D01*
X340511Y187867D01*
X340607Y187820D01*
X340701Y187769D01*
X340793Y187715D01*
X340883Y187658D01*
X340971Y187598D01*
X341056Y187534D01*
X341139Y187467D01*
X341220Y187397D01*
X341298Y187325D01*
X341374Y187249D01*
X341446Y187171D01*
X341516Y187090D01*
X341583Y187007D01*
X341647Y186922D01*
X341707Y186834D01*
X341764Y186744D01*
X341818Y186652D01*
X341869Y186558D01*
X341916Y186462D01*
X341959Y186364D01*
X341999Y186265D01*
X342036Y186165D01*
X342068Y186064D01*
X342097Y185961D01*
X342122Y185857D01*
X342143Y185753D01*
X342161Y185647D01*
X342174Y185541D01*
X342184Y185435D01*
X342190Y185329D01*
X342192Y185222D01*
X342190Y185101D01*
X342184Y184980D01*
X342174Y184860D01*
X342161Y184739D01*
X342143Y184620D01*
X342122Y184500D01*
X342097Y184382D01*
X342068Y184265D01*
X342035Y184148D01*
X341999Y184033D01*
X341958Y183919D01*
X341915Y183806D01*
X341867Y183694D01*
X341816Y183585D01*
X341761Y183477D01*
X341703Y183370D01*
X341642Y183266D01*
X341577Y183164D01*
X341509Y183064D01*
X341438Y182966D01*
X341364Y182870D01*
X341287Y182777D01*
X341206Y182687D01*
X341123Y182599D01*
X341037Y182514D01*
X340948Y182431D01*
X340857Y182352D01*
X340763Y182275D01*
X340667Y182202D01*
X340569Y182132D01*
X340468Y182065D01*
X340365Y182001D01*
X340260Y181941D01*
X340153Y181884D01*
X340045Y181830D01*
X339935Y181780D01*
X339823Y181734D01*
X339710Y181691D01*
X339595Y181652D01*
X336999Y187169D02*
X337076Y187248D01*
X337157Y187324D01*
X337240Y187397D01*
X337325Y187467D01*
X337413Y187534D01*
X337503Y187598D01*
X337595Y187658D01*
X337690Y187715D01*
X337786Y187769D01*
X337884Y187820D01*
X337984Y187867D01*
X338086Y187911D01*
X338189Y187951D01*
X338293Y187987D01*
X338399Y188019D01*
X338505Y188048D01*
X338613Y188073D01*
X338721Y188095D01*
X338831Y188112D01*
X338940Y188126D01*
X339050Y188135D01*
X339161Y188141D01*
X339271Y188143D01*
X336999Y187169D02*
X330508Y181652D01*
X330508Y188143D01*
X333754Y120508D02*
X338946Y120508D01*
X339059Y120510D01*
X339172Y120516D01*
X339285Y120526D01*
X339398Y120540D01*
X339510Y120557D01*
X339621Y120579D01*
X339731Y120604D01*
X339841Y120634D01*
X339949Y120667D01*
X340056Y120704D01*
X340162Y120744D01*
X340266Y120789D01*
X340369Y120837D01*
X340470Y120888D01*
X340569Y120943D01*
X340666Y121001D01*
X340761Y121063D01*
X340854Y121128D01*
X340944Y121196D01*
X341032Y121267D01*
X341118Y121342D01*
X341201Y121419D01*
X341281Y121499D01*
X341358Y121582D01*
X341433Y121668D01*
X341504Y121756D01*
X341572Y121846D01*
X341637Y121939D01*
X341699Y122034D01*
X341757Y122131D01*
X341812Y122230D01*
X341863Y122331D01*
X341911Y122434D01*
X341956Y122538D01*
X341996Y122644D01*
X342033Y122751D01*
X342066Y122859D01*
X342096Y122969D01*
X342121Y123079D01*
X342143Y123190D01*
X342160Y123302D01*
X342174Y123415D01*
X342184Y123528D01*
X342190Y123641D01*
X342192Y123754D01*
X342190Y123867D01*
X342184Y123980D01*
X342174Y124093D01*
X342160Y124206D01*
X342143Y124318D01*
X342121Y124429D01*
X342096Y124539D01*
X342066Y124649D01*
X342033Y124757D01*
X341996Y124864D01*
X341956Y124970D01*
X341911Y125074D01*
X341863Y125177D01*
X341812Y125278D01*
X341757Y125377D01*
X341699Y125474D01*
X341637Y125569D01*
X341572Y125662D01*
X341504Y125752D01*
X341433Y125840D01*
X341358Y125926D01*
X341281Y126009D01*
X341201Y126089D01*
X341118Y126166D01*
X341032Y126241D01*
X340944Y126312D01*
X340854Y126380D01*
X340761Y126445D01*
X340666Y126507D01*
X340569Y126565D01*
X340470Y126620D01*
X340369Y126671D01*
X340266Y126719D01*
X340162Y126764D01*
X340056Y126804D01*
X339949Y126841D01*
X339841Y126874D01*
X339731Y126904D01*
X339621Y126929D01*
X339510Y126951D01*
X339398Y126968D01*
X339285Y126982D01*
X339172Y126992D01*
X339059Y126998D01*
X338946Y127000D01*
X338946Y126999D02*
X333754Y126999D01*
X333754Y127000D02*
X333641Y126998D01*
X333528Y126992D01*
X333415Y126982D01*
X333302Y126968D01*
X333190Y126951D01*
X333079Y126929D01*
X332969Y126904D01*
X332859Y126874D01*
X332751Y126841D01*
X332644Y126804D01*
X332538Y126764D01*
X332434Y126719D01*
X332331Y126671D01*
X332230Y126620D01*
X332131Y126565D01*
X332034Y126507D01*
X331939Y126445D01*
X331846Y126380D01*
X331756Y126312D01*
X331668Y126241D01*
X331582Y126166D01*
X331499Y126089D01*
X331419Y126009D01*
X331342Y125926D01*
X331267Y125840D01*
X331196Y125752D01*
X331128Y125662D01*
X331063Y125569D01*
X331001Y125474D01*
X330943Y125377D01*
X330888Y125278D01*
X330837Y125177D01*
X330789Y125074D01*
X330744Y124970D01*
X330704Y124864D01*
X330667Y124757D01*
X330634Y124649D01*
X330604Y124539D01*
X330579Y124429D01*
X330557Y124318D01*
X330540Y124206D01*
X330526Y124093D01*
X330516Y123980D01*
X330510Y123867D01*
X330508Y123754D01*
X330510Y123641D01*
X330516Y123528D01*
X330526Y123415D01*
X330540Y123302D01*
X330557Y123190D01*
X330579Y123079D01*
X330604Y122969D01*
X330634Y122859D01*
X330667Y122751D01*
X330704Y122644D01*
X330744Y122538D01*
X330789Y122434D01*
X330837Y122331D01*
X330888Y122230D01*
X330943Y122131D01*
X331001Y122034D01*
X331063Y121939D01*
X331128Y121846D01*
X331196Y121756D01*
X331267Y121668D01*
X331342Y121582D01*
X331419Y121499D01*
X331499Y121419D01*
X331582Y121342D01*
X331668Y121267D01*
X331756Y121196D01*
X331846Y121128D01*
X331939Y121063D01*
X332034Y121001D01*
X332131Y120943D01*
X332230Y120888D01*
X332331Y120837D01*
X332434Y120789D01*
X332538Y120744D01*
X332644Y120704D01*
X332751Y120667D01*
X332859Y120634D01*
X332969Y120604D01*
X333079Y120579D01*
X333190Y120557D01*
X333302Y120540D01*
X333415Y120526D01*
X333528Y120516D01*
X333641Y120510D01*
X333754Y120508D01*
X333104Y125701D02*
X330508Y128297D01*
X333104Y131652D02*
X342192Y134248D01*
X333104Y131652D02*
X333104Y138143D01*
X335701Y136196D02*
X330508Y136196D01*
X288946Y120508D02*
X283754Y120508D01*
X288946Y120508D02*
X289059Y120510D01*
X289172Y120516D01*
X289285Y120526D01*
X289398Y120540D01*
X289510Y120557D01*
X289621Y120579D01*
X289731Y120604D01*
X289841Y120634D01*
X289949Y120667D01*
X290056Y120704D01*
X290162Y120744D01*
X290266Y120789D01*
X290369Y120837D01*
X290470Y120888D01*
X290569Y120943D01*
X290666Y121001D01*
X290761Y121063D01*
X290854Y121128D01*
X290944Y121196D01*
X291032Y121267D01*
X291118Y121342D01*
X291201Y121419D01*
X291281Y121499D01*
X291358Y121582D01*
X291433Y121668D01*
X291504Y121756D01*
X291572Y121846D01*
X291637Y121939D01*
X291699Y122034D01*
X291757Y122131D01*
X291812Y122230D01*
X291863Y122331D01*
X291911Y122434D01*
X291956Y122538D01*
X291996Y122644D01*
X292033Y122751D01*
X292066Y122859D01*
X292096Y122969D01*
X292121Y123079D01*
X292143Y123190D01*
X292160Y123302D01*
X292174Y123415D01*
X292184Y123528D01*
X292190Y123641D01*
X292192Y123754D01*
X292190Y123867D01*
X292184Y123980D01*
X292174Y124093D01*
X292160Y124206D01*
X292143Y124318D01*
X292121Y124429D01*
X292096Y124539D01*
X292066Y124649D01*
X292033Y124757D01*
X291996Y124864D01*
X291956Y124970D01*
X291911Y125074D01*
X291863Y125177D01*
X291812Y125278D01*
X291757Y125377D01*
X291699Y125474D01*
X291637Y125569D01*
X291572Y125662D01*
X291504Y125752D01*
X291433Y125840D01*
X291358Y125926D01*
X291281Y126009D01*
X291201Y126089D01*
X291118Y126166D01*
X291032Y126241D01*
X290944Y126312D01*
X290854Y126380D01*
X290761Y126445D01*
X290666Y126507D01*
X290569Y126565D01*
X290470Y126620D01*
X290369Y126671D01*
X290266Y126719D01*
X290162Y126764D01*
X290056Y126804D01*
X289949Y126841D01*
X289841Y126874D01*
X289731Y126904D01*
X289621Y126929D01*
X289510Y126951D01*
X289398Y126968D01*
X289285Y126982D01*
X289172Y126992D01*
X289059Y126998D01*
X288946Y127000D01*
X288946Y126999D02*
X283754Y126999D01*
X283754Y127000D02*
X283641Y126998D01*
X283528Y126992D01*
X283415Y126982D01*
X283302Y126968D01*
X283190Y126951D01*
X283079Y126929D01*
X282969Y126904D01*
X282859Y126874D01*
X282751Y126841D01*
X282644Y126804D01*
X282538Y126764D01*
X282434Y126719D01*
X282331Y126671D01*
X282230Y126620D01*
X282131Y126565D01*
X282034Y126507D01*
X281939Y126445D01*
X281846Y126380D01*
X281756Y126312D01*
X281668Y126241D01*
X281582Y126166D01*
X281499Y126089D01*
X281419Y126009D01*
X281342Y125926D01*
X281267Y125840D01*
X281196Y125752D01*
X281128Y125662D01*
X281063Y125569D01*
X281001Y125474D01*
X280943Y125377D01*
X280888Y125278D01*
X280837Y125177D01*
X280789Y125074D01*
X280744Y124970D01*
X280704Y124864D01*
X280667Y124757D01*
X280634Y124649D01*
X280604Y124539D01*
X280579Y124429D01*
X280557Y124318D01*
X280540Y124206D01*
X280526Y124093D01*
X280516Y123980D01*
X280510Y123867D01*
X280508Y123754D01*
X280510Y123641D01*
X280516Y123528D01*
X280526Y123415D01*
X280540Y123302D01*
X280557Y123190D01*
X280579Y123079D01*
X280604Y122969D01*
X280634Y122859D01*
X280667Y122751D01*
X280704Y122644D01*
X280744Y122538D01*
X280789Y122434D01*
X280837Y122331D01*
X280888Y122230D01*
X280943Y122131D01*
X281001Y122034D01*
X281063Y121939D01*
X281128Y121846D01*
X281196Y121756D01*
X281267Y121668D01*
X281342Y121582D01*
X281419Y121499D01*
X281499Y121419D01*
X281582Y121342D01*
X281668Y121267D01*
X281756Y121196D01*
X281846Y121128D01*
X281939Y121063D01*
X282034Y121001D01*
X282131Y120943D01*
X282230Y120888D01*
X282331Y120837D01*
X282434Y120789D01*
X282538Y120744D01*
X282644Y120704D01*
X282751Y120667D01*
X282859Y120634D01*
X282969Y120604D01*
X283079Y120579D01*
X283190Y120557D01*
X283302Y120540D01*
X283415Y120526D01*
X283528Y120516D01*
X283641Y120510D01*
X283754Y120508D01*
X283104Y125701D02*
X280508Y128297D01*
X280508Y131652D02*
X280508Y134897D01*
X280510Y135010D01*
X280516Y135123D01*
X280526Y135236D01*
X280540Y135349D01*
X280557Y135461D01*
X280579Y135572D01*
X280604Y135682D01*
X280634Y135792D01*
X280667Y135900D01*
X280704Y136007D01*
X280744Y136113D01*
X280789Y136217D01*
X280837Y136320D01*
X280888Y136421D01*
X280943Y136520D01*
X281001Y136617D01*
X281063Y136712D01*
X281128Y136805D01*
X281196Y136895D01*
X281267Y136983D01*
X281342Y137069D01*
X281419Y137152D01*
X281499Y137232D01*
X281582Y137309D01*
X281668Y137384D01*
X281756Y137455D01*
X281846Y137523D01*
X281939Y137588D01*
X282034Y137650D01*
X282131Y137708D01*
X282230Y137763D01*
X282331Y137814D01*
X282434Y137862D01*
X282538Y137907D01*
X282644Y137947D01*
X282751Y137984D01*
X282859Y138017D01*
X282969Y138047D01*
X283079Y138072D01*
X283190Y138094D01*
X283302Y138111D01*
X283415Y138125D01*
X283528Y138135D01*
X283641Y138141D01*
X283754Y138143D01*
X283867Y138141D01*
X283980Y138135D01*
X284093Y138125D01*
X284206Y138111D01*
X284318Y138094D01*
X284429Y138072D01*
X284539Y138047D01*
X284649Y138017D01*
X284757Y137984D01*
X284864Y137947D01*
X284970Y137907D01*
X285074Y137862D01*
X285177Y137814D01*
X285278Y137763D01*
X285377Y137708D01*
X285474Y137650D01*
X285569Y137588D01*
X285662Y137523D01*
X285752Y137455D01*
X285840Y137384D01*
X285926Y137309D01*
X286009Y137232D01*
X286089Y137152D01*
X286166Y137069D01*
X286241Y136983D01*
X286312Y136895D01*
X286380Y136805D01*
X286445Y136712D01*
X286507Y136617D01*
X286565Y136520D01*
X286620Y136421D01*
X286671Y136320D01*
X286719Y136217D01*
X286764Y136113D01*
X286804Y136007D01*
X286841Y135900D01*
X286874Y135792D01*
X286904Y135682D01*
X286929Y135572D01*
X286951Y135461D01*
X286968Y135349D01*
X286982Y135236D01*
X286992Y135123D01*
X286998Y135010D01*
X287000Y134897D01*
X292192Y135547D02*
X292192Y131652D01*
X292192Y135547D02*
X292190Y135648D01*
X292184Y135748D01*
X292174Y135848D01*
X292161Y135948D01*
X292143Y136047D01*
X292122Y136146D01*
X292097Y136243D01*
X292068Y136340D01*
X292035Y136435D01*
X291999Y136529D01*
X291959Y136621D01*
X291916Y136712D01*
X291869Y136801D01*
X291819Y136888D01*
X291765Y136974D01*
X291708Y137057D01*
X291648Y137137D01*
X291585Y137216D01*
X291518Y137292D01*
X291449Y137365D01*
X291377Y137435D01*
X291303Y137503D01*
X291226Y137568D01*
X291146Y137629D01*
X291064Y137688D01*
X290980Y137743D01*
X290894Y137795D01*
X290806Y137844D01*
X290716Y137889D01*
X290624Y137931D01*
X290531Y137969D01*
X290436Y138003D01*
X290341Y138034D01*
X290244Y138061D01*
X290146Y138084D01*
X290047Y138104D01*
X289947Y138119D01*
X289847Y138131D01*
X289747Y138139D01*
X289646Y138143D01*
X289546Y138143D01*
X289445Y138139D01*
X289345Y138131D01*
X289245Y138119D01*
X289145Y138104D01*
X289046Y138084D01*
X288948Y138061D01*
X288851Y138034D01*
X288756Y138003D01*
X288661Y137969D01*
X288568Y137931D01*
X288476Y137889D01*
X288386Y137844D01*
X288298Y137795D01*
X288212Y137743D01*
X288128Y137688D01*
X288046Y137629D01*
X287966Y137568D01*
X287889Y137503D01*
X287815Y137435D01*
X287743Y137365D01*
X287674Y137292D01*
X287607Y137216D01*
X287544Y137137D01*
X287484Y137057D01*
X287427Y136974D01*
X287373Y136888D01*
X287323Y136801D01*
X287276Y136712D01*
X287233Y136621D01*
X287193Y136529D01*
X287157Y136435D01*
X287124Y136340D01*
X287095Y136243D01*
X287070Y136146D01*
X287049Y136047D01*
X287031Y135948D01*
X287018Y135848D01*
X287008Y135748D01*
X287002Y135648D01*
X287000Y135547D01*
X286999Y135547D02*
X286999Y132950D01*
X274492Y52192D02*
X274492Y40508D01*
X274492Y52192D02*
X271246Y52192D01*
X271133Y52190D01*
X271020Y52184D01*
X270907Y52174D01*
X270794Y52160D01*
X270682Y52143D01*
X270571Y52121D01*
X270461Y52096D01*
X270351Y52066D01*
X270243Y52033D01*
X270136Y51996D01*
X270030Y51956D01*
X269926Y51911D01*
X269823Y51863D01*
X269722Y51812D01*
X269623Y51757D01*
X269526Y51699D01*
X269431Y51637D01*
X269338Y51572D01*
X269248Y51504D01*
X269160Y51433D01*
X269074Y51358D01*
X268991Y51281D01*
X268911Y51201D01*
X268834Y51118D01*
X268759Y51032D01*
X268688Y50944D01*
X268620Y50854D01*
X268555Y50761D01*
X268493Y50666D01*
X268435Y50569D01*
X268380Y50470D01*
X268329Y50369D01*
X268281Y50266D01*
X268236Y50162D01*
X268196Y50056D01*
X268159Y49949D01*
X268126Y49841D01*
X268096Y49731D01*
X268071Y49621D01*
X268049Y49510D01*
X268032Y49398D01*
X268018Y49285D01*
X268008Y49172D01*
X268002Y49059D01*
X268000Y48946D01*
X268002Y48833D01*
X268008Y48720D01*
X268018Y48607D01*
X268032Y48494D01*
X268049Y48382D01*
X268071Y48271D01*
X268096Y48161D01*
X268126Y48051D01*
X268159Y47943D01*
X268196Y47836D01*
X268236Y47730D01*
X268281Y47626D01*
X268329Y47523D01*
X268380Y47422D01*
X268435Y47323D01*
X268493Y47226D01*
X268555Y47131D01*
X268620Y47038D01*
X268688Y46948D01*
X268759Y46860D01*
X268834Y46774D01*
X268911Y46691D01*
X268991Y46611D01*
X269074Y46534D01*
X269160Y46459D01*
X269248Y46388D01*
X269338Y46320D01*
X269431Y46255D01*
X269526Y46193D01*
X269623Y46135D01*
X269722Y46080D01*
X269823Y46029D01*
X269926Y45981D01*
X270030Y45936D01*
X270136Y45896D01*
X270243Y45859D01*
X270351Y45826D01*
X270461Y45796D01*
X270571Y45771D01*
X270682Y45749D01*
X270794Y45732D01*
X270907Y45718D01*
X271020Y45708D01*
X271133Y45702D01*
X271246Y45700D01*
X271246Y45701D02*
X274492Y45701D01*
X270597Y45701D02*
X268001Y40508D01*
X263136Y49596D02*
X259890Y52192D01*
X259890Y40508D01*
X256645Y40508D02*
X263136Y40508D01*
X274492Y90508D02*
X274492Y102192D01*
X271246Y102192D01*
X271133Y102190D01*
X271020Y102184D01*
X270907Y102174D01*
X270794Y102160D01*
X270682Y102143D01*
X270571Y102121D01*
X270461Y102096D01*
X270351Y102066D01*
X270243Y102033D01*
X270136Y101996D01*
X270030Y101956D01*
X269926Y101911D01*
X269823Y101863D01*
X269722Y101812D01*
X269623Y101757D01*
X269526Y101699D01*
X269431Y101637D01*
X269338Y101572D01*
X269248Y101504D01*
X269160Y101433D01*
X269074Y101358D01*
X268991Y101281D01*
X268911Y101201D01*
X268834Y101118D01*
X268759Y101032D01*
X268688Y100944D01*
X268620Y100854D01*
X268555Y100761D01*
X268493Y100666D01*
X268435Y100569D01*
X268380Y100470D01*
X268329Y100369D01*
X268281Y100266D01*
X268236Y100162D01*
X268196Y100056D01*
X268159Y99949D01*
X268126Y99841D01*
X268096Y99731D01*
X268071Y99621D01*
X268049Y99510D01*
X268032Y99398D01*
X268018Y99285D01*
X268008Y99172D01*
X268002Y99059D01*
X268000Y98946D01*
X268002Y98833D01*
X268008Y98720D01*
X268018Y98607D01*
X268032Y98494D01*
X268049Y98382D01*
X268071Y98271D01*
X268096Y98161D01*
X268126Y98051D01*
X268159Y97943D01*
X268196Y97836D01*
X268236Y97730D01*
X268281Y97626D01*
X268329Y97523D01*
X268380Y97422D01*
X268435Y97323D01*
X268493Y97226D01*
X268555Y97131D01*
X268620Y97038D01*
X268688Y96948D01*
X268759Y96860D01*
X268834Y96774D01*
X268911Y96691D01*
X268991Y96611D01*
X269074Y96534D01*
X269160Y96459D01*
X269248Y96388D01*
X269338Y96320D01*
X269431Y96255D01*
X269526Y96193D01*
X269623Y96135D01*
X269722Y96080D01*
X269823Y96029D01*
X269926Y95981D01*
X270030Y95936D01*
X270136Y95896D01*
X270243Y95859D01*
X270351Y95826D01*
X270461Y95796D01*
X270571Y95771D01*
X270682Y95749D01*
X270794Y95732D01*
X270907Y95718D01*
X271020Y95708D01*
X271133Y95702D01*
X271246Y95700D01*
X271246Y95701D02*
X274492Y95701D01*
X270597Y95701D02*
X268001Y90508D01*
X256645Y99271D02*
X256647Y99378D01*
X256653Y99484D01*
X256663Y99590D01*
X256676Y99696D01*
X256694Y99802D01*
X256715Y99906D01*
X256740Y100010D01*
X256769Y100113D01*
X256801Y100214D01*
X256838Y100314D01*
X256878Y100413D01*
X256921Y100511D01*
X256968Y100607D01*
X257019Y100701D01*
X257073Y100793D01*
X257130Y100883D01*
X257190Y100971D01*
X257254Y101056D01*
X257321Y101139D01*
X257391Y101220D01*
X257463Y101298D01*
X257539Y101374D01*
X257617Y101446D01*
X257698Y101516D01*
X257781Y101583D01*
X257866Y101647D01*
X257954Y101707D01*
X258044Y101764D01*
X258136Y101818D01*
X258230Y101869D01*
X258326Y101916D01*
X258424Y101959D01*
X258523Y101999D01*
X258623Y102036D01*
X258724Y102068D01*
X258827Y102097D01*
X258931Y102122D01*
X259035Y102143D01*
X259141Y102161D01*
X259247Y102174D01*
X259353Y102184D01*
X259459Y102190D01*
X259566Y102192D01*
X259687Y102190D01*
X259808Y102184D01*
X259928Y102174D01*
X260049Y102161D01*
X260168Y102143D01*
X260288Y102122D01*
X260406Y102097D01*
X260523Y102068D01*
X260640Y102035D01*
X260755Y101999D01*
X260869Y101958D01*
X260982Y101915D01*
X261094Y101867D01*
X261203Y101816D01*
X261311Y101761D01*
X261418Y101703D01*
X261522Y101642D01*
X261624Y101577D01*
X261724Y101509D01*
X261822Y101438D01*
X261918Y101364D01*
X262011Y101287D01*
X262101Y101206D01*
X262189Y101123D01*
X262274Y101037D01*
X262357Y100948D01*
X262436Y100857D01*
X262513Y100763D01*
X262586Y100667D01*
X262656Y100569D01*
X262723Y100468D01*
X262787Y100365D01*
X262848Y100260D01*
X262905Y100153D01*
X262958Y100045D01*
X263008Y99935D01*
X263054Y99823D01*
X263097Y99710D01*
X263136Y99595D01*
X257619Y96999D02*
X257540Y97077D01*
X257464Y97157D01*
X257391Y97240D01*
X257321Y97326D01*
X257254Y97413D01*
X257190Y97504D01*
X257130Y97596D01*
X257072Y97690D01*
X257018Y97787D01*
X256968Y97885D01*
X256921Y97985D01*
X256877Y98086D01*
X256837Y98189D01*
X256801Y98294D01*
X256769Y98399D01*
X256740Y98506D01*
X256715Y98613D01*
X256693Y98722D01*
X256676Y98831D01*
X256662Y98940D01*
X256653Y99050D01*
X256647Y99161D01*
X256645Y99271D01*
X257618Y96999D02*
X263136Y90508D01*
X256645Y90508D01*
D11*
X186500Y88750D02*
X185000Y88750D01*
X185000Y71250D01*
X186500Y71250D01*
X194500Y88750D02*
X196000Y88750D01*
X204000Y88750D02*
X205500Y88750D01*
X205500Y71250D02*
X204000Y71250D01*
X196000Y71250D02*
X194500Y71250D01*
X213500Y88750D02*
X215000Y88750D01*
X215000Y71250D01*
X213500Y71250D01*
D12*
X181793Y91000D02*
X181795Y91053D01*
X181801Y91105D01*
X181811Y91157D01*
X181824Y91208D01*
X181842Y91258D01*
X181863Y91307D01*
X181888Y91354D01*
X181916Y91398D01*
X181947Y91441D01*
X181982Y91481D01*
X182019Y91518D01*
X182059Y91553D01*
X182102Y91584D01*
X182147Y91612D01*
X182193Y91637D01*
X182242Y91658D01*
X182292Y91676D01*
X182343Y91689D01*
X182395Y91699D01*
X182447Y91705D01*
X182500Y91707D01*
X182553Y91705D01*
X182605Y91699D01*
X182657Y91689D01*
X182708Y91676D01*
X182758Y91658D01*
X182807Y91637D01*
X182854Y91612D01*
X182898Y91584D01*
X182941Y91553D01*
X182981Y91518D01*
X183018Y91481D01*
X183053Y91441D01*
X183084Y91398D01*
X183112Y91353D01*
X183137Y91307D01*
X183158Y91258D01*
X183176Y91208D01*
X183189Y91157D01*
X183199Y91105D01*
X183205Y91053D01*
X183207Y91000D01*
X183205Y90947D01*
X183199Y90895D01*
X183189Y90843D01*
X183176Y90792D01*
X183158Y90742D01*
X183137Y90693D01*
X183112Y90646D01*
X183084Y90602D01*
X183053Y90559D01*
X183018Y90519D01*
X182981Y90482D01*
X182941Y90447D01*
X182898Y90416D01*
X182853Y90388D01*
X182807Y90363D01*
X182758Y90342D01*
X182708Y90324D01*
X182657Y90311D01*
X182605Y90301D01*
X182553Y90295D01*
X182500Y90293D01*
X182447Y90295D01*
X182395Y90301D01*
X182343Y90311D01*
X182292Y90324D01*
X182242Y90342D01*
X182193Y90363D01*
X182146Y90388D01*
X182102Y90416D01*
X182059Y90447D01*
X182019Y90482D01*
X181982Y90519D01*
X181947Y90559D01*
X181916Y90602D01*
X181888Y90647D01*
X181863Y90693D01*
X181842Y90742D01*
X181824Y90792D01*
X181811Y90843D01*
X181801Y90895D01*
X181795Y90947D01*
X181793Y91000D01*
D11*
X223820Y167200D02*
X223820Y174000D01*
X223820Y142800D02*
X223820Y136000D01*
X223820Y174000D02*
X215020Y174000D01*
X185620Y174000D02*
X176820Y174000D01*
X176820Y167200D01*
X176820Y142800D02*
X176820Y136000D01*
X215020Y136000D02*
X223820Y136000D01*
X185620Y136000D02*
X176820Y136000D01*
D13*
X209320Y121500D02*
X209322Y121563D01*
X209328Y121625D01*
X209338Y121687D01*
X209351Y121749D01*
X209369Y121809D01*
X209390Y121868D01*
X209415Y121926D01*
X209444Y121982D01*
X209476Y122036D01*
X209511Y122088D01*
X209549Y122137D01*
X209591Y122185D01*
X209635Y122229D01*
X209683Y122271D01*
X209732Y122309D01*
X209784Y122344D01*
X209838Y122376D01*
X209894Y122405D01*
X209952Y122430D01*
X210011Y122451D01*
X210071Y122469D01*
X210133Y122482D01*
X210195Y122492D01*
X210257Y122498D01*
X210320Y122500D01*
X210383Y122498D01*
X210445Y122492D01*
X210507Y122482D01*
X210569Y122469D01*
X210629Y122451D01*
X210688Y122430D01*
X210746Y122405D01*
X210802Y122376D01*
X210856Y122344D01*
X210908Y122309D01*
X210957Y122271D01*
X211005Y122229D01*
X211049Y122185D01*
X211091Y122137D01*
X211129Y122088D01*
X211164Y122036D01*
X211196Y121982D01*
X211225Y121926D01*
X211250Y121868D01*
X211271Y121809D01*
X211289Y121749D01*
X211302Y121687D01*
X211312Y121625D01*
X211318Y121563D01*
X211320Y121500D01*
X211318Y121437D01*
X211312Y121375D01*
X211302Y121313D01*
X211289Y121251D01*
X211271Y121191D01*
X211250Y121132D01*
X211225Y121074D01*
X211196Y121018D01*
X211164Y120964D01*
X211129Y120912D01*
X211091Y120863D01*
X211049Y120815D01*
X211005Y120771D01*
X210957Y120729D01*
X210908Y120691D01*
X210856Y120656D01*
X210802Y120624D01*
X210746Y120595D01*
X210688Y120570D01*
X210629Y120549D01*
X210569Y120531D01*
X210507Y120518D01*
X210445Y120508D01*
X210383Y120502D01*
X210320Y120500D01*
X210257Y120502D01*
X210195Y120508D01*
X210133Y120518D01*
X210071Y120531D01*
X210011Y120549D01*
X209952Y120570D01*
X209894Y120595D01*
X209838Y120624D01*
X209784Y120656D01*
X209732Y120691D01*
X209683Y120729D01*
X209635Y120771D01*
X209591Y120815D01*
X209549Y120863D01*
X209511Y120912D01*
X209476Y120964D01*
X209444Y121018D01*
X209415Y121074D01*
X209390Y121132D01*
X209369Y121191D01*
X209351Y121251D01*
X209338Y121313D01*
X209328Y121375D01*
X209322Y121437D01*
X209320Y121500D01*
D10*
X151896Y130508D02*
X149299Y130508D01*
X151896Y130508D02*
X151995Y130510D01*
X152095Y130516D01*
X152194Y130525D01*
X152292Y130538D01*
X152390Y130555D01*
X152488Y130576D01*
X152584Y130601D01*
X152679Y130629D01*
X152773Y130661D01*
X152866Y130696D01*
X152958Y130735D01*
X153048Y130778D01*
X153136Y130823D01*
X153223Y130873D01*
X153307Y130925D01*
X153390Y130981D01*
X153470Y131039D01*
X153548Y131101D01*
X153623Y131166D01*
X153696Y131234D01*
X153766Y131304D01*
X153834Y131377D01*
X153899Y131452D01*
X153961Y131530D01*
X154019Y131610D01*
X154075Y131693D01*
X154127Y131777D01*
X154177Y131864D01*
X154222Y131952D01*
X154265Y132042D01*
X154304Y132134D01*
X154339Y132227D01*
X154371Y132321D01*
X154399Y132416D01*
X154424Y132512D01*
X154445Y132610D01*
X154462Y132708D01*
X154475Y132806D01*
X154484Y132905D01*
X154490Y133005D01*
X154492Y133104D01*
X154492Y139596D01*
X154490Y139695D01*
X154484Y139795D01*
X154475Y139894D01*
X154462Y139992D01*
X154445Y140090D01*
X154424Y140188D01*
X154399Y140284D01*
X154371Y140379D01*
X154339Y140473D01*
X154304Y140566D01*
X154265Y140658D01*
X154222Y140748D01*
X154177Y140836D01*
X154127Y140923D01*
X154075Y141007D01*
X154019Y141090D01*
X153961Y141170D01*
X153899Y141248D01*
X153834Y141323D01*
X153766Y141396D01*
X153696Y141466D01*
X153623Y141534D01*
X153548Y141599D01*
X153470Y141661D01*
X153390Y141719D01*
X153307Y141775D01*
X153223Y141827D01*
X153136Y141877D01*
X153048Y141922D01*
X152958Y141965D01*
X152866Y142004D01*
X152773Y142039D01*
X152679Y142071D01*
X152584Y142099D01*
X152488Y142124D01*
X152390Y142145D01*
X152292Y142162D01*
X152194Y142175D01*
X152095Y142184D01*
X151995Y142190D01*
X151896Y142192D01*
X149299Y142192D01*
X144934Y139596D02*
X141688Y142192D01*
X141688Y130508D01*
X138443Y130508D02*
X144934Y130508D01*
X149299Y40508D02*
X151896Y40508D01*
X151995Y40510D01*
X152095Y40516D01*
X152194Y40525D01*
X152292Y40538D01*
X152390Y40555D01*
X152488Y40576D01*
X152584Y40601D01*
X152679Y40629D01*
X152773Y40661D01*
X152866Y40696D01*
X152958Y40735D01*
X153048Y40778D01*
X153136Y40823D01*
X153223Y40873D01*
X153307Y40925D01*
X153390Y40981D01*
X153470Y41039D01*
X153548Y41101D01*
X153623Y41166D01*
X153696Y41234D01*
X153766Y41304D01*
X153834Y41377D01*
X153899Y41452D01*
X153961Y41530D01*
X154019Y41610D01*
X154075Y41693D01*
X154127Y41777D01*
X154177Y41864D01*
X154222Y41952D01*
X154265Y42042D01*
X154304Y42134D01*
X154339Y42227D01*
X154371Y42321D01*
X154399Y42416D01*
X154424Y42512D01*
X154445Y42610D01*
X154462Y42708D01*
X154475Y42806D01*
X154484Y42905D01*
X154490Y43005D01*
X154492Y43104D01*
X154492Y49596D01*
X154490Y49695D01*
X154484Y49795D01*
X154475Y49894D01*
X154462Y49992D01*
X154445Y50090D01*
X154424Y50188D01*
X154399Y50284D01*
X154371Y50379D01*
X154339Y50473D01*
X154304Y50566D01*
X154265Y50658D01*
X154222Y50748D01*
X154177Y50836D01*
X154127Y50923D01*
X154075Y51007D01*
X154019Y51090D01*
X153961Y51170D01*
X153899Y51248D01*
X153834Y51323D01*
X153766Y51396D01*
X153696Y51466D01*
X153623Y51534D01*
X153548Y51599D01*
X153470Y51661D01*
X153390Y51719D01*
X153307Y51775D01*
X153223Y51827D01*
X153136Y51877D01*
X153048Y51922D01*
X152958Y51965D01*
X152866Y52004D01*
X152773Y52039D01*
X152679Y52071D01*
X152584Y52099D01*
X152488Y52124D01*
X152390Y52145D01*
X152292Y52162D01*
X152194Y52175D01*
X152095Y52184D01*
X151995Y52190D01*
X151896Y52192D01*
X149299Y52192D01*
X141364Y52192D02*
X141257Y52190D01*
X141151Y52184D01*
X141045Y52174D01*
X140939Y52161D01*
X140833Y52143D01*
X140729Y52122D01*
X140625Y52097D01*
X140522Y52068D01*
X140421Y52036D01*
X140321Y51999D01*
X140222Y51959D01*
X140124Y51916D01*
X140028Y51869D01*
X139934Y51818D01*
X139842Y51764D01*
X139752Y51707D01*
X139664Y51647D01*
X139579Y51583D01*
X139496Y51516D01*
X139415Y51446D01*
X139337Y51374D01*
X139261Y51298D01*
X139189Y51220D01*
X139119Y51139D01*
X139052Y51056D01*
X138988Y50971D01*
X138928Y50883D01*
X138871Y50793D01*
X138817Y50701D01*
X138766Y50607D01*
X138719Y50511D01*
X138676Y50413D01*
X138636Y50314D01*
X138599Y50214D01*
X138567Y50113D01*
X138538Y50010D01*
X138513Y49906D01*
X138492Y49802D01*
X138474Y49696D01*
X138461Y49590D01*
X138451Y49484D01*
X138445Y49378D01*
X138443Y49271D01*
X141364Y52192D02*
X141485Y52190D01*
X141606Y52184D01*
X141726Y52174D01*
X141847Y52161D01*
X141966Y52143D01*
X142086Y52122D01*
X142204Y52097D01*
X142321Y52068D01*
X142438Y52035D01*
X142553Y51999D01*
X142667Y51958D01*
X142780Y51915D01*
X142892Y51867D01*
X143001Y51816D01*
X143109Y51761D01*
X143216Y51703D01*
X143320Y51642D01*
X143422Y51577D01*
X143522Y51509D01*
X143620Y51438D01*
X143716Y51364D01*
X143809Y51287D01*
X143899Y51206D01*
X143987Y51123D01*
X144072Y51037D01*
X144155Y50948D01*
X144234Y50857D01*
X144311Y50763D01*
X144384Y50667D01*
X144454Y50569D01*
X144521Y50468D01*
X144585Y50365D01*
X144646Y50260D01*
X144703Y50153D01*
X144756Y50045D01*
X144806Y49935D01*
X144852Y49823D01*
X144895Y49710D01*
X144934Y49595D01*
X139417Y46999D02*
X139338Y47077D01*
X139262Y47157D01*
X139189Y47240D01*
X139119Y47326D01*
X139052Y47413D01*
X138988Y47504D01*
X138928Y47596D01*
X138870Y47690D01*
X138816Y47787D01*
X138766Y47885D01*
X138719Y47985D01*
X138675Y48086D01*
X138635Y48189D01*
X138599Y48294D01*
X138567Y48399D01*
X138538Y48506D01*
X138513Y48613D01*
X138491Y48722D01*
X138474Y48831D01*
X138460Y48940D01*
X138451Y49050D01*
X138445Y49161D01*
X138443Y49271D01*
X139416Y46999D02*
X144934Y40508D01*
X138443Y40508D01*
D11*
X155000Y178000D02*
X155000Y183000D01*
X154998Y183087D01*
X154992Y183174D01*
X154983Y183261D01*
X154970Y183347D01*
X154953Y183433D01*
X154932Y183518D01*
X154907Y183601D01*
X154879Y183684D01*
X154848Y183765D01*
X154813Y183845D01*
X154774Y183923D01*
X154732Y184000D01*
X154687Y184075D01*
X154638Y184147D01*
X154587Y184218D01*
X154532Y184286D01*
X154475Y184351D01*
X154414Y184414D01*
X154351Y184475D01*
X154286Y184532D01*
X154218Y184587D01*
X154147Y184638D01*
X154075Y184687D01*
X154000Y184732D01*
X153923Y184774D01*
X153845Y184813D01*
X153765Y184848D01*
X153684Y184879D01*
X153601Y184907D01*
X153518Y184932D01*
X153433Y184953D01*
X153347Y184970D01*
X153261Y184983D01*
X153174Y184992D01*
X153087Y184998D01*
X153000Y185000D01*
X127000Y185000D01*
X126913Y184998D01*
X126826Y184992D01*
X126739Y184983D01*
X126653Y184970D01*
X126567Y184953D01*
X126482Y184932D01*
X126399Y184907D01*
X126316Y184879D01*
X126235Y184848D01*
X126155Y184813D01*
X126077Y184774D01*
X126000Y184732D01*
X125925Y184687D01*
X125853Y184638D01*
X125782Y184587D01*
X125714Y184532D01*
X125649Y184475D01*
X125586Y184414D01*
X125525Y184351D01*
X125468Y184286D01*
X125413Y184218D01*
X125362Y184147D01*
X125313Y184075D01*
X125268Y184000D01*
X125226Y183923D01*
X125187Y183845D01*
X125152Y183765D01*
X125121Y183684D01*
X125093Y183601D01*
X125068Y183518D01*
X125047Y183433D01*
X125030Y183347D01*
X125017Y183261D01*
X125008Y183174D01*
X125002Y183087D01*
X125000Y183000D01*
X125000Y178000D01*
X155000Y162000D02*
X155000Y157000D01*
X154998Y156913D01*
X154992Y156826D01*
X154983Y156739D01*
X154970Y156653D01*
X154953Y156567D01*
X154932Y156482D01*
X154907Y156399D01*
X154879Y156316D01*
X154848Y156235D01*
X154813Y156155D01*
X154774Y156077D01*
X154732Y156000D01*
X154687Y155925D01*
X154638Y155853D01*
X154587Y155782D01*
X154532Y155714D01*
X154475Y155649D01*
X154414Y155586D01*
X154351Y155525D01*
X154286Y155468D01*
X154218Y155413D01*
X154147Y155362D01*
X154075Y155313D01*
X154000Y155268D01*
X153923Y155226D01*
X153845Y155187D01*
X153765Y155152D01*
X153684Y155121D01*
X153601Y155093D01*
X153518Y155068D01*
X153433Y155047D01*
X153347Y155030D01*
X153261Y155017D01*
X153174Y155008D01*
X153087Y155002D01*
X153000Y155000D01*
X127000Y155000D01*
X126913Y155002D01*
X126826Y155008D01*
X126739Y155017D01*
X126653Y155030D01*
X126567Y155047D01*
X126482Y155068D01*
X126399Y155093D01*
X126316Y155121D01*
X126235Y155152D01*
X126155Y155187D01*
X126077Y155226D01*
X126000Y155268D01*
X125925Y155313D01*
X125853Y155362D01*
X125782Y155413D01*
X125714Y155468D01*
X125649Y155525D01*
X125586Y155586D01*
X125525Y155649D01*
X125468Y155714D01*
X125413Y155782D01*
X125362Y155853D01*
X125313Y155925D01*
X125268Y156000D01*
X125226Y156077D01*
X125187Y156155D01*
X125152Y156235D01*
X125121Y156316D01*
X125093Y156399D01*
X125068Y156482D01*
X125047Y156567D01*
X125030Y156653D01*
X125017Y156739D01*
X125008Y156826D01*
X125002Y156913D01*
X125000Y157000D01*
X125000Y162000D01*
X150500Y90500D02*
X150500Y89000D01*
X150500Y90500D02*
X129500Y90500D01*
X129500Y89000D01*
X150500Y84000D02*
X150500Y82500D01*
X150500Y77500D02*
X150500Y76000D01*
X150500Y71000D02*
X150500Y69500D01*
X129500Y69500D01*
X129500Y71000D01*
X129500Y76000D02*
X129500Y77500D01*
X129500Y82500D02*
X129500Y84000D01*
D13*
X154000Y94500D02*
X154002Y94544D01*
X154008Y94588D01*
X154018Y94631D01*
X154031Y94673D01*
X154048Y94714D01*
X154069Y94753D01*
X154093Y94790D01*
X154120Y94825D01*
X154150Y94857D01*
X154183Y94887D01*
X154219Y94913D01*
X154256Y94937D01*
X154296Y94956D01*
X154337Y94973D01*
X154380Y94985D01*
X154423Y94994D01*
X154467Y94999D01*
X154511Y95000D01*
X154555Y94997D01*
X154599Y94990D01*
X154642Y94979D01*
X154684Y94965D01*
X154724Y94947D01*
X154763Y94925D01*
X154799Y94901D01*
X154833Y94873D01*
X154865Y94842D01*
X154894Y94808D01*
X154920Y94772D01*
X154942Y94734D01*
X154961Y94694D01*
X154976Y94652D01*
X154988Y94610D01*
X154996Y94566D01*
X155000Y94522D01*
X155000Y94478D01*
X154996Y94434D01*
X154988Y94390D01*
X154976Y94348D01*
X154961Y94306D01*
X154942Y94266D01*
X154920Y94228D01*
X154894Y94192D01*
X154865Y94158D01*
X154833Y94127D01*
X154799Y94099D01*
X154763Y94075D01*
X154724Y94053D01*
X154684Y94035D01*
X154642Y94021D01*
X154599Y94010D01*
X154555Y94003D01*
X154511Y94000D01*
X154467Y94001D01*
X154423Y94006D01*
X154380Y94015D01*
X154337Y94027D01*
X154296Y94044D01*
X154256Y94063D01*
X154219Y94087D01*
X154183Y94113D01*
X154150Y94143D01*
X154120Y94175D01*
X154093Y94210D01*
X154069Y94247D01*
X154048Y94286D01*
X154031Y94327D01*
X154018Y94369D01*
X154008Y94412D01*
X154002Y94456D01*
X154000Y94500D01*
M02*
