G04 EAGLE Gerber RS-274X export*
G75*
%MOMM*%
%FSLAX34Y34*%
%LPD*%
%INBottom Solder Mask*%
%IPPOS*%
%AMOC8*
5,1,8,0,0,1.08239X$1,22.5*%
G01*
%ADD10R,1.401600X1.601600*%
%ADD11R,1.101600X1.501600*%
%ADD12R,0.701600X1.201600*%
%ADD13R,0.400000X1.700000*%
%ADD14R,0.901600X1.901600*%
%ADD15R,1.601600X1.301600*%
%ADD16R,0.551600X0.401600*%
%ADD17R,1.101600X1.701600*%


D10*
X209500Y30000D03*
X190500Y30000D03*
D11*
X260000Y191000D03*
X250500Y169000D03*
X269500Y169000D03*
X310000Y191000D03*
X300500Y169000D03*
X319500Y169000D03*
X310000Y141000D03*
X300500Y119000D03*
X319500Y119000D03*
X260000Y141000D03*
X250500Y119000D03*
X269500Y119000D03*
D10*
X250500Y30000D03*
X269500Y30000D03*
X269500Y80000D03*
X250500Y80000D03*
D12*
X190500Y93000D03*
X200000Y93000D03*
X209500Y93000D03*
X209500Y67000D03*
X190500Y67000D03*
D13*
X200320Y173000D03*
X200320Y137000D03*
X195320Y173000D03*
X190320Y173000D03*
X205320Y173000D03*
X210320Y173000D03*
X195320Y137000D03*
X190320Y137000D03*
X205320Y137000D03*
X210320Y137000D03*
D14*
X227320Y155000D03*
X173320Y155000D03*
D10*
X130500Y120000D03*
X149500Y120000D03*
X149500Y30000D03*
X130500Y30000D03*
D15*
X153500Y170000D03*
X126500Y170000D03*
D16*
X149750Y86500D03*
X149750Y80000D03*
X149750Y73500D03*
X130250Y73500D03*
X130250Y80000D03*
X130250Y86500D03*
D17*
X140000Y80000D03*
M02*
